<svg width="48" height="48" viewBox="0 0 48 48" fill="none" xmlns="http://www.w3.org/2000/svg">
<path d="M24 44C35.0457 44 44 35.0457 44 24C44 12.9543 35.0457 4 24 4C12.9543 4 4 12.9543 4 24C4 35.0457 12.9543 44 24 44Z" fill="#FFC93E"/>
<path d="M43.6601 20.3196L20.3201 43.6596C16.0711 42.8642 12.1942 40.7136 9.27007 37.5299C6.34596 34.3462 4.53206 30.3008 4.1001 25.9996L26.0001 4.09961C30.3012 4.53157 34.3467 6.34547 37.5304 9.26959C40.7141 12.1937 42.8647 16.0706 43.6601 20.3196Z" fill="#FFDF8B"/>
<path d="M24 42C33.9411 42 42 33.9411 42 24C42 14.0589 33.9411 6 24 6C14.0589 6 6 14.0589 6 24C6 33.9411 14.0589 42 24 42Z" fill="#E8A847"/>
<path d="M25 42H24C19.2261 42 14.6477 40.1036 11.2721 36.7279C7.89642 33.3523 6 28.7739 6 24C6 19.2261 7.89642 14.6477 11.2721 11.2721C14.6477 7.89642 19.2261 6 24 6H25C20.2261 6 15.6477 7.89642 12.2721 11.2721C8.89642 14.6477 7 19.2261 7 24C7 28.7739 8.89642 33.3523 12.2721 36.7279C15.6477 40.1036 20.2261 42 25 42Z" fill="#D68438"/>
<path d="M20 22C20 22.2652 19.8946 22.5196 19.7071 22.7071C19.5196 22.8946 19.2652 23 19 23C18.7348 23 18.4804 22.8946 18.2929 22.7071C18.1054 22.5196 18 22.2652 18 22H20Z" fill="#FFDF8B"/>
<path d="M37.86 20.9397C37.7988 20.7485 37.7253 20.5614 37.64 20.3797C37.873 19.9568 37.9967 19.4825 38 18.9997C38.0042 18.3794 37.8134 17.7734 37.4545 17.2674C37.0956 16.7614 36.5868 16.3809 36 16.1797V15.9997C36 14.9388 35.5786 13.9214 34.8284 13.1713C34.0783 12.4211 33.0609 11.9997 32 11.9997H31.82C31.6588 11.5506 31.3936 11.1461 31.0459 10.8193C30.6983 10.4926 30.2782 10.2528 29.82 10.1197C29.6767 9.63623 29.4131 9.19702 29.0539 8.84318C28.6946 8.48934 28.2514 8.23246 27.7659 8.09657C27.2803 7.96069 26.7681 7.95024 26.2774 8.06622C25.7867 8.1822 25.3334 8.4208 24.96 8.7597C24.5964 8.43245 24.1573 8.20042 23.682 8.08438C23.2068 7.96834 22.7102 7.9719 22.2367 8.09474C21.7631 8.21759 21.3274 8.45588 20.9685 8.78831C20.6096 9.12074 20.3387 9.53695 20.18 9.9997H20C19.5112 10.0059 19.0417 10.1909 18.68 10.5197C18.1835 10.1846 17.599 10.0037 17 9.9997C16.2864 9.99163 15.5932 10.2382 15.045 10.6953C14.4969 11.1523 14.1296 11.7897 14.0091 12.4932C13.8887 13.1966 14.0229 13.92 14.3878 14.5333C14.7527 15.1467 15.3243 15.6099 16 15.8397C14.7659 17.0255 14.0476 18.6489 14 20.3597C14.022 20.8203 14.1235 21.2737 14.3 21.6997C13.6526 22.2299 13.1162 22.8826 12.7215 23.6205C12.3268 24.3584 12.0816 25.1669 12 25.9997V27.9997H14V37.6797L15.64 37.9597C16.7305 38.1411 17.8346 38.2281 18.94 38.2197C19.8644 38.22 20.7873 38.1465 21.7 37.9997H22C23.7147 37.8523 25.3486 37.2054 26.6994 36.139C28.0503 35.0725 29.0587 33.6334 29.6 31.9997C29.7332 32.0091 29.8668 32.0091 30 31.9997V36.9997C30 37.2649 30.1054 37.5193 30.2929 37.7068C30.4804 37.8943 30.7348 37.9997 31 37.9997C31.2652 37.9997 31.5196 37.8943 31.7071 37.7068C31.8946 37.5193 32 37.2649 32 36.9997V30.3997C32 30.3997 32 30.3997 32 30.2597C32.0113 30.1734 32.0113 30.086 32 29.9997C32 29.9997 32 29.8797 32 29.7997C32.4501 29.9686 32.9346 30.0254 33.4116 29.9651C33.8886 29.9047 34.3437 29.7291 34.7376 29.4534C35.1315 29.1777 35.4523 28.8102 35.6722 28.3827C35.8922 27.9551 36.0047 27.4805 36 26.9997C36.0306 26.7875 36.0306 26.5719 36 26.3597C36.0187 26.2404 36.0187 26.119 36 25.9997C36.0094 25.9401 36.0094 25.8793 36 25.8197C36.5852 25.6159 37.0923 25.2348 37.4507 24.7294C37.8092 24.2239 38.0012 23.6193 38 22.9997C38.0098 22.8532 38.0098 22.7062 38 22.5597C38.0647 22.0158 38.0171 21.4644 37.86 20.9397ZM22 35.9997V33.9997C22 32.4084 21.3679 30.8823 20.2426 29.7571C19.1174 28.6318 17.5913 27.9997 16 27.9997V25.9997H14C14 23.9997 17.04 21.9997 17.04 21.9997C14 19.9997 18 16.7797 18 16.7797C18.0059 16.5122 18.0601 16.2479 18.16 15.9997C18.5815 15.9815 18.9864 15.8305 19.3169 15.5683C19.6474 15.306 19.8865 14.946 20 14.5397C21.2954 14.1445 22.6462 13.9622 24 13.9997H24.6C24.2265 14.6015 24.0194 15.2917 24 15.9997C24 17.0606 24.4214 18.078 25.1716 18.8281C25.9217 19.5783 26.9391 19.9997 28 19.9997C28.1932 20.0095 28.3868 20.0095 28.58 19.9997C28.2992 20.4629 28.1155 20.9782 28.0399 21.5145C27.9642 22.0509 27.9983 22.5969 28.14 23.1197C28.2776 23.6123 28.5085 24.074 28.82 24.4797C28.5784 24.6557 28.3794 24.8836 28.2375 25.1466C28.0956 25.4097 28.0144 25.7012 28 25.9997C27.8875 25.9799 27.7725 25.9799 27.66 25.9997C27.1296 26.0448 26.6388 26.2987 26.2956 26.7057C25.9524 27.1126 25.7849 27.6393 25.83 28.1697C25.8751 28.7001 26.129 29.1909 26.536 29.5341C26.9429 29.8773 27.4696 30.0448 28 29.9997C27.8726 31.5484 27.1995 33.0016 26.1007 34.1004C25.0019 35.1992 23.5487 35.8723 22 35.9997Z" fill="#FFDF8B"/>
</svg>
