<svg width="79" height="79" viewBox="0 0 79 79" fill="none" xmlns="http://www.w3.org/2000/svg">
<path d="M13 13H61C65.4183 13 69 16.5817 69 21V69C69 73.4183 65.4183 77 61 77H13C8.58172 77 5 73.4183 5 69V21C5 16.5817 8.58172 13 13 13Z" fill="#7E46E8"/>
<path d="M13 13H61C65.4183 13 69 16.5817 69 21V69C69 73.4183 65.4183 77 61 77H13C8.58172 77 5 73.4183 5 69V21C5 16.5817 8.58172 13 13 13Z" stroke="#552CA1" stroke-width="4"/>
<path d="M54.1747 54.3315C53.1746 56.0607 51.9335 57.6388 50.4889 59.0185C47.1447 62.1651 42.8744 64.1487 38.3128 64.6745C33.7512 65.2003 29.1417 64.2402 25.1693 61.937C21.1969 59.6337 18.0737 56.1102 16.2638 51.8902C14.4539 47.6701 14.0539 42.9787 15.1233 38.5131C15.5801 36.5601 16.3247 34.6859 17.3326 32.9518C19.1964 29.7241 21.8733 27.041 25.0968 25.1697C28.3203 23.2985 31.9777 22.3045 35.7049 22.2866C38.0368 24.3207 39.5886 27.1026 40.0944 30.1554C40.6001 33.2083 40.0282 36.3419 38.4768 39.0194C40.0156 36.3408 42.4368 34.2797 45.3266 33.1881C48.2164 32.0966 51.3956 32.0423 54.321 33.0346C56.1645 36.2862 57.1212 39.965 57.0956 43.7026C57.0699 47.4403 56.0627 51.1056 54.1747 54.3315Z" fill="#E8A847"/>
<path d="M54.1743 54.3306C52.4834 57.2327 50.1312 59.6945 47.309 61.5158C44.4868 63.337 41.2745 64.4661 37.9335 64.8112C33.4994 65.2889 29.0285 64.3399 25.1708 62.1021C21.1654 59.7904 18.0197 56.2398 16.2074 51.9851C14.3952 47.7304 14.0146 43.002 15.1229 38.5122C15.5797 36.5592 16.3243 34.685 17.3322 32.9509C19.196 29.7232 21.873 27.0401 25.0964 25.1688C28.3199 23.2976 31.9773 22.3036 35.7045 22.2857C38.0364 24.3198 39.5883 27.1017 40.094 30.1545C40.5997 33.2074 40.0278 36.341 38.4764 39.0185C39.9817 36.3959 42.3337 34.3629 45.1465 33.253C47.9593 32.1432 51.0658 32.0224 53.9563 32.9105L54.3137 33.008C56.163 36.262 57.1236 39.9453 57.0991 43.688C57.0747 47.4307 56.066 51.101 54.1743 54.3306Z" fill="#FFC93E"/>
<path d="M54.1746 54.3307C52.4837 57.2328 50.1314 59.6947 47.3092 61.5159C44.4871 63.3371 41.2748 64.4662 37.9338 64.8113C38.6871 64.2229 44.7294 59.2634 43.8383 46.6647C43.1207 35.538 51.1126 33.4242 53.9566 32.9106L54.314 33.0081C56.1632 36.2621 57.1238 39.9454 57.0994 43.6881C57.0749 47.4308 56.0662 51.1012 54.1746 54.3307Z" fill="#E29631"/>
<path d="M62.3744 33.4156L62.5594 44.4089C60.7563 43.882 58.9267 43.4507 57.0782 43.1169C55.3253 42.8229 53.5578 42.6238 51.7834 42.5203C48.9897 42.7899 46.2702 43.5747 43.7625 44.8351C43.8814 36.5211 48.52 34.2567 52.5056 33.1611C55.7813 32.6149 59.1313 32.7013 62.3744 33.4156Z" fill="white"/>
</svg>
