<svg width="21" height="21" viewBox="0 0 21 21" fill="none" xmlns="http://www.w3.org/2000/svg">
<path d="M16.375 1.62132C16.7728 1.2235 17.3124 1 17.875 1C18.4376 1 18.9772 1.2235 19.375 1.62132C19.7728 2.01914 19.9963 2.55871 19.9963 3.12132C19.9963 3.68393 19.7728 4.2235 19.375 4.62132L10 13.9963L6 14.9963L7 10.9963L16.375 1.62132Z" stroke="black" stroke-width="2" stroke-linecap="round" stroke-linejoin="round"/>
<path d="M10 1.99609H3C2.46957 1.99609 1.96086 2.20681 1.58579 2.58188C1.21071 2.95695 1 3.46566 1 3.99609V17.9961C1 18.5265 1.21071 19.0352 1.58579 19.4103C1.96086 19.7854 2.46957 19.9961 3 19.9961H17C17.5304 19.9961 18.0391 19.7854 18.4142 19.4103C18.7893 19.0352 19 18.5265 19 17.9961V10.9961" stroke="black" stroke-width="2" stroke-linecap="round" stroke-linejoin="round"/>
</svg>
