<svg width="150" height="150" viewBox="0 0 150 150" fill="none" xmlns="http://www.w3.org/2000/svg">
<g clip-path="url(#clip0_5001_406)">
<path d="M0 20C0 8.9543 8.95431 0 20 0H130C141.046 0 150 8.95431 150 20V130C150 141.046 141.046 150 130 150H20C8.9543 150 0 141.046 0 130V20Z" fill="#7E46E8" fill-opacity="0.14"/>
<path d="M93.75 18.75H56.25C42.4429 18.75 31.25 29.9429 31.25 43.75C31.25 57.5571 42.4429 68.75 56.25 68.75H93.75C107.557 68.75 118.75 57.5571 118.75 43.75C118.75 29.9429 107.557 18.75 93.75 18.75Z" fill="#552CA1"/>
<path d="M87.5 24.998H62.5C48.6929 24.998 37.5 36.1909 37.5 49.998V106.248C37.5 120.055 48.6929 131.248 62.5 131.248H87.5C101.307 131.248 112.5 120.055 112.5 106.248V49.998C112.5 36.1909 101.307 24.998 87.5 24.998Z" fill="#F1A48D"/>
<path d="M87.5 24.998H62.5C48.6929 24.998 37.5 36.1909 37.5 49.998V106.248C37.5 120.055 48.6929 131.248 62.5 131.248H87.5C101.307 131.248 112.5 120.055 112.5 106.248V49.998C112.5 36.1909 101.307 24.998 87.5 24.998Z" fill="#F1A48D"/>
<path d="M93.751 75.002C93.751 71.5502 90.9528 68.752 87.501 68.752C84.0492 68.752 81.251 71.5502 81.251 75.002V81.252C81.251 84.7037 84.0492 87.502 87.501 87.502C90.9528 87.502 93.751 84.7037 93.751 81.252V75.002Z" fill="#A47D71"/>
<path d="M68.75 75.002C68.75 71.5502 65.9518 68.752 62.5 68.752C59.0482 68.752 56.25 71.5502 56.25 75.002V81.252C56.25 84.7037 59.0482 87.502 62.5 87.502C65.9518 87.502 68.75 84.7037 68.75 81.252V75.002Z" fill="#A47D71"/>
<path d="M106.25 93.75V102.375C106.257 103.446 105.99 104.5 105.473 105.438C104.955 106.375 104.206 107.164 103.296 107.729C102.386 108.294 101.347 108.615 100.277 108.662C99.2076 108.71 98.1437 108.482 97.1875 108L93.75 106.25C93.75 102.935 92.433 99.7554 90.0888 97.4112C87.7446 95.067 84.5652 93.75 81.25 93.75H68.75C65.4348 93.75 62.2554 95.067 59.9112 97.4112C57.567 99.7554 56.25 102.935 56.25 106.25L52.8125 108C51.8563 108.482 50.7924 108.71 49.7227 108.662C48.6531 108.615 47.6136 108.294 46.7038 107.729C45.7941 107.164 45.0447 106.375 44.5275 105.438C44.0102 104.5 43.7425 103.446 43.75 102.375V93.75H37.5V131.25C37.5 132.908 38.1585 134.497 39.3306 135.669C40.5027 136.842 42.0924 137.5 43.75 137.5H106.25C107.908 137.5 109.497 136.842 110.669 135.669C111.842 134.497 112.5 132.908 112.5 131.25V93.75H106.25Z" fill="#7B5D55"/>
<path d="M62.501 99.998H87.501C87.501 103.313 86.184 106.493 83.8398 108.837C81.4956 111.181 78.3162 112.498 75.001 112.498C71.6858 112.498 68.5063 111.181 66.1621 108.837C63.8179 106.493 62.501 103.313 62.501 99.998Z" fill="white"/>
<path d="M34.375 75H37.5V93.75H34.375C31.8886 93.75 29.504 92.7623 27.7459 91.0041C25.9877 89.246 25 86.8614 25 84.375C25 81.8886 25.9877 79.504 27.7459 77.7459C29.504 75.9877 31.8886 75 34.375 75Z" fill="#F1A48D"/>
<path d="M115.625 93.75H112.5V75H115.625C118.111 75 120.496 75.9877 122.254 77.7459C124.012 79.504 125 81.8886 125 84.375C125 86.8614 124.012 89.246 122.254 91.0041C120.496 92.7623 118.111 93.75 115.625 93.75Z" fill="#F1A48D"/>
<path d="M115.625 56.25H34.375C32.6491 56.25 31.25 57.6491 31.25 59.375C31.25 61.1009 32.6491 62.5 34.375 62.5H115.625C117.351 62.5 118.75 61.1009 118.75 59.375C118.75 57.6491 117.351 56.25 115.625 56.25Z" fill="#FFC93E"/>
<path d="M78.125 68.748C79.8509 68.748 81.25 67.3489 81.25 65.623C81.25 63.8972 79.8509 62.498 78.125 62.498C76.3991 62.498 75 63.8972 75 65.623C75 67.3489 76.3991 68.748 78.125 68.748Z" fill="#FFC93E"/>
<path d="M84.376 68.748C86.1019 68.748 87.501 67.3489 87.501 65.623C87.501 63.8972 86.1019 62.498 84.376 62.498C82.6501 62.498 81.251 63.8972 81.251 65.623C81.251 67.3489 82.6501 68.748 84.376 68.748Z" fill="#FFC93E"/>
<path d="M90.624 68.748C92.3499 68.748 93.749 67.3489 93.749 65.623C93.749 63.8972 92.3499 62.498 90.624 62.498C88.8981 62.498 87.499 63.8972 87.499 65.623C87.499 67.3489 88.8981 68.748 90.624 68.748Z" fill="#FFC93E"/>
<path d="M96.875 68.748C98.6009 68.748 100 67.3489 100 65.623C100 63.8972 98.6009 62.498 96.875 62.498C95.1491 62.498 93.75 63.8972 93.75 65.623C93.75 67.3489 95.1491 68.748 96.875 68.748Z" fill="#FFC93E"/>
<path d="M103.126 68.748C104.852 68.748 106.251 67.3489 106.251 65.623C106.251 63.8972 104.852 62.498 103.126 62.498C101.4 62.498 100.001 63.8972 100.001 65.623C100.001 67.3489 101.4 68.748 103.126 68.748Z" fill="#FFDF8B"/>
<path d="M109.374 68.748C111.1 68.748 112.499 67.3489 112.499 65.623C112.499 63.8972 111.1 62.498 109.374 62.498C107.648 62.498 106.249 63.8972 106.249 65.623C106.249 67.3489 107.648 68.748 109.374 68.748Z" fill="#FFC93E"/>
<path d="M115.625 68.748C117.351 68.748 118.75 67.3489 118.75 65.623C118.75 63.8972 117.351 62.498 115.625 62.498C113.899 62.498 112.5 63.8972 112.5 65.623C112.5 67.3489 113.899 68.748 115.625 68.748Z" fill="#FFC93E"/>
<path d="M71.874 68.748C73.5999 68.748 74.999 67.3489 74.999 65.623C74.999 63.8972 73.5999 62.498 71.874 62.498C70.1481 62.498 68.749 63.8972 68.749 65.623C68.749 67.3489 70.1481 68.748 71.874 68.748Z" fill="#FFDF8B"/>
<path d="M65.626 68.748C67.3519 68.748 68.751 67.3489 68.751 65.623C68.751 63.8972 67.3519 62.498 65.626 62.498C63.9001 62.498 62.501 63.8972 62.501 65.623C62.501 67.3489 63.9001 68.748 65.626 68.748Z" fill="#FFC93E"/>
<path d="M59.375 68.748C61.1009 68.748 62.5 67.3489 62.5 65.623C62.5 63.8972 61.1009 62.498 59.375 62.498C57.6491 62.498 56.25 63.8972 56.25 65.623C56.25 67.3489 57.6491 68.748 59.375 68.748Z" fill="#FFC93E"/>
<path d="M53.124 68.748C54.8499 68.748 56.249 67.3489 56.249 65.623C56.249 63.8972 54.8499 62.498 53.124 62.498C51.3981 62.498 49.999 63.8972 49.999 65.623C49.999 67.3489 51.3981 68.748 53.124 68.748Z" fill="#FFC93E"/>
<path d="M46.876 68.748C48.6019 68.748 50.001 67.3489 50.001 65.623C50.001 63.8972 48.6019 62.498 46.876 62.498C45.1501 62.498 43.751 63.8972 43.751 65.623C43.751 67.3489 45.1501 68.748 46.876 68.748Z" fill="#FFDF8B"/>
<path d="M40.625 68.748C42.3509 68.748 43.75 67.3489 43.75 65.623C43.75 63.8972 42.3509 62.498 40.625 62.498C38.8991 62.498 37.5 63.8972 37.5 65.623C37.5 67.3489 38.8991 68.748 40.625 68.748Z" fill="#FFC93E"/>
<path d="M34.374 68.748C36.0999 68.748 37.499 67.3489 37.499 65.623C37.499 63.8972 36.0999 62.498 34.374 62.498C32.6481 62.498 31.249 63.8972 31.249 65.623C31.249 67.3489 32.6481 68.748 34.374 68.748Z" fill="#FFC93E"/>
<path d="M93.749 12.502H56.249C49.6186 12.502 43.2598 15.1359 38.5714 19.8243C33.8829 24.5127 31.249 30.8715 31.249 37.502V43.752H118.749V37.502C118.749 30.8715 116.115 24.5127 111.427 19.8243C106.738 15.1359 100.379 12.502 93.749 12.502Z" fill="#552CA1"/>
<path d="M79.25 43.7499C79.25 43.7499 112.5 12.4999 125 31.2499C137.5 49.9999 125 56.2499 112.5 56.2499H75L79.25 43.7499Z" fill="#7E46E8"/>
<path d="M69.6874 43.7499C69.6874 43.7499 36.4374 12.4999 23.9374 31.2499C11.4374 49.9999 23.9374 56.2499 36.4374 56.2499H73.9374L69.6874 43.7499Z" fill="#7E46E8"/>
<path d="M81.251 43.748H68.751C65.2992 43.748 62.501 46.5463 62.501 49.998C62.501 53.4498 65.2992 56.248 68.751 56.248H81.251C84.7028 56.248 87.501 53.4498 87.501 49.998C87.501 46.5463 84.7028 43.748 81.251 43.748Z" fill="#552CA1"/>
<path d="M93.75 56.25H106.25L100 62.5H87.5L93.75 56.25Z" fill="#FFDF8B"/>
</g>
<path d="M0.5 20C0.5 9.23045 9.23045 0.5 20 0.5H130C140.77 0.5 149.5 9.23045 149.5 20V130C149.5 140.77 140.77 149.5 130 149.5H20C9.23045 149.5 0.5 140.77 0.5 130V20Z" stroke="#08091C" stroke-opacity="0.4"/>
<defs>
<clipPath id="clip0_5001_406">
<path d="M0 20C0 8.9543 8.95431 0 20 0H130C141.046 0 150 8.95431 150 20V130C150 141.046 141.046 150 130 150H20C8.9543 150 0 141.046 0 130V20Z" fill="white"/>
</clipPath>
</defs>
</svg>
