<svg width="150" height="150" viewBox="0 0 150 150" fill="none" xmlns="http://www.w3.org/2000/svg">
<g clip-path="url(#clip0_5001_548)">
<path d="M0 20C0 8.9543 8.95431 0 20 0H130C141.046 0 150 8.95431 150 20V130C150 141.046 141.046 150 130 150H20C8.9543 150 0 141.046 0 130V20Z" fill="#7E46E8" fill-opacity="0.14"/>
<path d="M75 100C99.1625 100 118.75 80.4125 118.75 56.25C118.75 32.0875 99.1625 12.5 75 12.5C50.8375 12.5 31.25 32.0875 31.25 56.25C31.25 80.4125 50.8375 100 75 100Z" fill="#6232B8"/>
<path d="M43.75 125C61.0089 125 75 111.009 75 93.75C75 76.4911 61.0089 62.5 43.75 62.5C26.4911 62.5 12.5 76.4911 12.5 93.75C12.5 111.009 26.4911 125 43.75 125Z" fill="#6232B8"/>
<path d="M106.25 125C123.509 125 137.5 111.009 137.5 93.75C137.5 76.4911 123.509 62.5 106.25 62.5C88.9911 62.5 75 76.4911 75 93.75C75 111.009 88.9911 125 106.25 125Z" fill="#6232B8"/>
<path d="M112.5 62.5C112.5 41.7893 95.7107 25 75 25C54.2893 25 37.5 41.7893 37.5 62.5V93.75C37.5 114.461 54.2893 131.25 75 131.25C95.7107 131.25 112.5 114.461 112.5 93.75V62.5Z" fill="#F1A48D"/>
<path d="M93.75 75C93.75 71.5482 90.9518 68.75 87.5 68.75C84.0482 68.75 81.25 71.5482 81.25 75V81.25C81.25 84.7018 84.0482 87.5 87.5 87.5C90.9518 87.5 93.75 84.7018 93.75 81.25V75Z" fill="#A47D71"/>
<path d="M68.75 75C68.75 71.5482 65.9518 68.75 62.5 68.75C59.0482 68.75 56.25 71.5482 56.25 75V81.25C56.25 84.7018 59.0482 87.5 62.5 87.5C65.9518 87.5 68.75 84.7018 68.75 81.25V75Z" fill="#A47D71"/>
<path d="M34.375 75H37.5V93.75H34.375C31.8886 93.75 29.504 92.7623 27.7459 91.0041C25.9877 89.246 25 86.8614 25 84.375C25 81.8886 25.9877 79.504 27.7459 77.7459C29.504 75.9877 31.8886 75 34.375 75Z" fill="#F1A48D"/>
<path d="M115.625 93.75H112.5V75H115.625C118.111 75 120.496 75.9877 122.254 77.7459C124.012 79.504 125 81.8886 125 84.375C125 86.8614 124.012 89.246 122.254 91.0041C120.496 92.7623 118.111 93.75 115.625 93.75Z" fill="#F1A48D"/>
<path d="M75 40.625C75.0774 50.6575 71.4339 60.3627 64.7735 67.8657C58.1131 75.3688 48.9084 80.1373 38.9375 81.25C37.4181 81.345 35.8944 81.345 34.375 81.25C28.4075 81.2654 22.5126 79.9412 17.125 77.375C20.6683 71.7434 25.8945 67.3701 32.0625 64.875C31.5281 62.0309 31.2561 59.1438 31.25 56.25C31.2606 46.4265 34.5771 36.8924 40.6652 29.183C46.7534 21.4736 55.259 16.0375 64.8125 13.75C71.3747 21.1647 74.9981 30.7235 75 40.625Z" fill="#6232B8"/>
<path d="M132.875 77.375C127.488 79.9412 121.593 81.2654 115.625 81.25C114.106 81.345 112.582 81.345 111.063 81.25C103.634 80.4444 96.5708 77.6054 90.6509 73.0452C84.7311 68.485 80.1837 62.3804 77.509 55.4029C74.8342 48.4254 74.1359 40.8453 75.4906 33.4966C76.8454 26.1478 80.2008 19.3151 85.1878 13.75C94.7412 16.0375 103.247 21.4736 109.335 29.183C115.423 36.8924 118.74 46.4265 118.75 56.25C118.737 59.1021 118.465 61.947 117.938 64.75C124.124 67.278 129.352 71.6969 132.875 77.375Z" fill="#6232B8"/>
<path d="M99.1875 25H57.0625C53.162 25 50 28.162 50 32.0625V49.1875C50 53.088 53.162 56.25 57.0625 56.25H99.1875C103.088 56.25 106.25 53.088 106.25 49.1875V32.0625C106.25 28.162 103.088 25 99.1875 25Z" fill="#6232B8"/>
<path d="M75.0002 34.375C70.8562 34.375 66.882 36.0212 63.9517 38.9515C61.0214 41.8817 59.3752 45.856 59.3752 50C59.3629 52.153 59.8104 54.2838 60.6877 56.25H68.0627C66.4915 54.5484 65.6209 52.3161 65.6252 50C65.6252 47.5136 66.613 45.129 68.3711 43.3709C70.1293 41.6127 72.5138 40.625 75.0002 40.625C77.4867 40.625 79.8712 41.6127 81.6294 43.3709C83.3875 45.129 84.3752 47.5136 84.3752 50C84.3796 52.3161 83.509 54.5484 81.9377 56.25H89.3127C90.1901 54.2838 90.6376 52.153 90.6252 50C90.6252 45.856 88.979 41.8817 86.0488 38.9515C83.1185 36.0212 79.1443 34.375 75.0002 34.375Z" fill="#FFC93E"/>
<path d="M75 56.25C78.4518 56.25 81.25 53.4518 81.25 50C81.25 46.5482 78.4518 43.75 75 43.75C71.5482 43.75 68.75 46.5482 68.75 50C68.75 53.4518 71.5482 56.25 75 56.25Z" fill="#FFC93E"/>
<path d="M118.75 50H31.25V56.25H118.75V50Z" fill="#FFC93E"/>
<path d="M59.375 62.5C61.1009 62.5 62.5 61.1009 62.5 59.375C62.5 57.6491 61.1009 56.25 59.375 56.25C57.6491 56.25 56.25 57.6491 56.25 59.375C56.25 61.1009 57.6491 62.5 59.375 62.5Z" fill="#FFC93E"/>
<path d="M90.625 62.5C92.3509 62.5 93.75 61.1009 93.75 59.375C93.75 57.6491 92.3509 56.25 90.625 56.25C88.8991 56.25 87.5 57.6491 87.5 59.375C87.5 61.1009 88.8991 62.5 90.625 62.5Z" fill="#FFC93E"/>
<path d="M53.125 68.75C54.8509 68.75 56.25 67.3509 56.25 65.625C56.25 63.8991 54.8509 62.5 53.125 62.5C51.3991 62.5 50 63.8991 50 65.625C50 67.3509 51.3991 68.75 53.125 68.75Z" fill="#FFC93E"/>
<path d="M96.875 68.75C98.6009 68.75 100 67.3509 100 65.625C100 63.8991 98.6009 62.5 96.875 62.5C95.1491 62.5 93.75 63.8991 93.75 65.625C93.75 67.3509 95.1491 68.75 96.875 68.75Z" fill="#FFDF8B"/>
<path d="M46.875 75C48.6009 75 50 73.6009 50 71.875C50 70.1491 48.6009 68.75 46.875 68.75C45.1491 68.75 43.75 70.1491 43.75 71.875C43.75 73.6009 45.1491 75 46.875 75Z" fill="#FFDF8B"/>
<path d="M103.125 75C104.851 75 106.25 73.6009 106.25 71.875C106.25 70.1491 104.851 68.75 103.125 68.75C101.399 68.75 100 70.1491 100 71.875C100 73.6009 101.399 75 103.125 75Z" fill="#FFC93E"/>
<path d="M40.625 81.25C42.3509 81.25 43.75 79.8509 43.75 78.125C43.75 76.3991 42.3509 75 40.625 75C38.8991 75 37.5 76.3991 37.5 78.125C37.5 79.8509 38.8991 81.25 40.625 81.25Z" fill="#FFC93E"/>
<path d="M34.375 81.25C36.1009 81.25 37.5 79.8509 37.5 78.125C37.5 76.3991 36.1009 75 34.375 75C32.6491 75 31.25 76.3991 31.25 78.125C31.25 79.8509 32.6491 81.25 34.375 81.25Z" fill="#FFC93E"/>
<path d="M115.625 81.25C117.351 81.25 118.75 79.8509 118.75 78.125C118.75 76.3991 117.351 75 115.625 75C113.899 75 112.5 76.3991 112.5 78.125C112.5 79.8509 113.899 81.25 115.625 81.25Z" fill="#FFC93E"/>
<path d="M109.375 81.25C111.101 81.25 112.5 79.8509 112.5 78.125C112.5 76.3991 111.101 75 109.375 75C107.649 75 106.25 76.3991 106.25 78.125C106.25 79.8509 107.649 81.25 109.375 81.25Z" fill="#FFC93E"/>
<path d="M28.125 75C29.8509 75 31.25 73.6009 31.25 71.875C31.25 70.1491 29.8509 68.75 28.125 68.75C26.3991 68.75 25 70.1491 25 71.875C25 73.6009 26.3991 75 28.125 75Z" fill="#FFC93E"/>
<path d="M121.875 75C123.601 75 125 73.6009 125 71.875C125 70.1491 123.601 68.75 121.875 68.75C120.149 68.75 118.75 70.1491 118.75 71.875C118.75 73.6009 120.149 75 121.875 75Z" fill="#FFDF8B"/>
<path d="M93.75 50H106.25L100 56.25H87.5L93.75 50Z" fill="#FFDF8B"/>
<path d="M62.5 100H87.5C87.5 103.315 86.183 106.495 83.8388 108.839C81.4946 111.183 78.3152 112.5 75 112.5C71.6848 112.5 68.5054 111.183 66.1612 108.839C63.817 106.495 62.5 103.315 62.5 100Z" fill="white"/>
</g>
<path d="M0.5 20C0.5 9.23045 9.23045 0.5 20 0.5H130C140.77 0.5 149.5 9.23045 149.5 20V130C149.5 140.77 140.77 149.5 130 149.5H20C9.23045 149.5 0.5 140.77 0.5 130V20Z" stroke="#08091C" stroke-opacity="0.4"/>
<defs>
<clipPath id="clip0_5001_548">
<path d="M0 20C0 8.9543 8.95431 0 20 0H130C141.046 0 150 8.95431 150 20V130C150 141.046 141.046 150 130 150H20C8.9543 150 0 141.046 0 130V20Z" fill="white"/>
</clipPath>
</defs>
</svg>
