<svg width="48" height="48" viewBox="0 0 48 48" fill="none" xmlns="http://www.w3.org/2000/svg">
<g clip-path="url(#clip0_5026_3713)">
<path d="M0 4C0 1.79086 1.79086 0 4 0H44C46.2091 0 48 1.79086 48 4V44C48 46.2091 46.2091 48 44 48H4C1.79086 48 0 46.2091 0 44V4Z" fill="#7E46E8" fill-opacity="0.14"/>
<path d="M42 20H6V42H42V20Z" fill="#FFC93E"/>
<path d="M10 8H38C39.0609 8 40.0783 8.42143 40.8284 9.17157C41.5786 9.92172 42 10.9391 42 12V18H6V12C6 10.9391 6.42143 9.92172 7.17157 9.17157C7.92172 8.42143 8.93913 8 10 8Z" fill="#FFC93E"/>
<path d="M41.9998 12V18H8.25977L18.2598 8H37.9998C39.0606 8 40.078 8.42143 40.8282 9.17157C41.5783 9.92172 41.9998 10.9391 41.9998 12Z" fill="#FFDF8B"/>
<path d="M42 20V24L26 42H6V20.26L6.26 20H42Z" fill="#FFDF8B"/>
<path d="M40 40V22L8 22V40H40Z" fill="#CD601F"/>
<path d="M40 12V16H8V12C8 11.4696 8.21071 10.9609 8.58579 10.5858C8.96086 10.2107 9.46957 10 10 10L38 10C38.5304 10 39.0391 10.2107 39.4142 10.5858C39.7893 10.9609 40 11.4696 40 12Z" fill="#CD601F"/>
<path d="M28 22H20V28H28V22Z" fill="#FFC93E"/>
<path d="M24 22C23.4696 22 22.9609 22.2107 22.5858 22.5858C22.2107 22.9609 22 23.4696 22 24V26H26V24C26 23.4696 25.7893 22.9609 25.4142 22.5858C25.0391 22.2107 24.5304 22 24 22Z" fill="#D7804C"/>
</g>
<path d="M4 0.5H44C45.933 0.5 47.5 2.067 47.5 4V44C47.5 45.933 45.933 47.5 44 47.5H4C2.067 47.5 0.5 45.933 0.5 44V4C0.5 2.067 2.067 0.5 4 0.5Z" stroke="#08091C" stroke-opacity="0.4"/>
<defs>
<clipPath id="clip0_5026_3713">
<path d="M0 4C0 1.79086 1.79086 0 4 0H44C46.2091 0 48 1.79086 48 4V44C48 46.2091 46.2091 48 44 48H4C1.79086 48 0 46.2091 0 44V4Z" fill="white"/>
</clipPath>
</defs>
</svg>
