<svg width="48" height="48" viewBox="0 0 48 48" fill="none" xmlns="http://www.w3.org/2000/svg">
<g clip-path="url(#clip0_5026_3714)">
<path d="M0 4C0 1.79086 1.79086 0 4 0H44C46.2091 0 48 1.79086 48 4V44C48 46.2091 46.2091 48 44 48H4C1.79086 48 0 46.2091 0 44V4Z" fill="#7E46E8" fill-opacity="0.14"/>
<path d="M30 6H18C13.5817 6 10 9.58172 10 14C10 18.4183 13.5817 22 18 22H30C34.4183 22 38 18.4183 38 14C38 9.58172 34.4183 6 30 6Z" fill="#552CA1"/>
<path d="M28 8H20C15.5817 8 12 11.5817 12 16V34C12 38.4183 15.5817 42 20 42H28C32.4183 42 36 38.4183 36 34V16C36 11.5817 32.4183 8 28 8Z" fill="#F1A48D"/>
<path d="M28 8H20C15.5817 8 12 11.5817 12 16V34C12 38.4183 15.5817 42 20 42H28C32.4183 42 36 38.4183 36 34V16C36 11.5817 32.4183 8 28 8Z" fill="#F1A48D"/>
<path d="M30 24C30 22.8954 29.1046 22 28 22C26.8954 22 26 22.8954 26 24V26C26 27.1046 26.8954 28 28 28C29.1046 28 30 27.1046 30 26V24Z" fill="#A47D71"/>
<path d="M22 24C22 22.8954 21.1046 22 20 22C18.8954 22 18 22.8954 18 24V26C18 27.1046 18.8954 28 20 28C21.1046 28 22 27.1046 22 26V24Z" fill="#A47D71"/>
<path d="M34 30V32.76C34.0024 33.1026 33.9167 33.4401 33.7512 33.7401C33.5857 34.0401 33.3459 34.2926 33.0548 34.4732C32.7637 34.6539 32.431 34.7568 32.0887 34.772C31.7464 34.7872 31.406 34.7142 31.1 34.56L30 34C30 32.9391 29.5786 31.9217 28.8284 31.1716C28.0783 30.4214 27.0609 30 26 30H22C20.9391 30 19.9217 30.4214 19.1716 31.1716C18.4214 31.9217 18 32.9391 18 34L16.9 34.56C16.594 34.7142 16.2536 34.7872 15.9113 34.772C15.569 34.7568 15.2363 34.6539 14.9452 34.4732C14.6541 34.2926 14.4143 34.0401 14.2488 33.7401C14.0833 33.4401 13.9976 33.1026 14 32.76V30H12V42C12 42.5304 12.2107 43.0391 12.5858 43.4142C12.9609 43.7893 13.4696 44 14 44H34C34.5304 44 35.0391 43.7893 35.4142 43.4142C35.7893 43.0391 36 42.5304 36 42V30H34Z" fill="#7B5D55"/>
<path d="M20 32H28C28 33.0609 27.5786 34.0783 26.8284 34.8284C26.0783 35.5786 25.0609 36 24 36C22.9391 36 21.9217 35.5786 21.1716 34.8284C20.4214 34.0783 20 33.0609 20 32Z" fill="white"/>
<path d="M11 24H12V30H11C10.2044 30 9.44129 29.6839 8.87868 29.1213C8.31607 28.5587 8 27.7956 8 27C8 26.2044 8.31607 25.4413 8.87868 24.8787C9.44129 24.3161 10.2044 24 11 24Z" fill="#F1A48D"/>
<path d="M37 30H36V24H37C37.7956 24 38.5587 24.3161 39.1213 24.8787C39.6839 25.4413 40 26.2044 40 27C40 27.7956 39.6839 28.5587 39.1213 29.1213C38.5587 29.6839 37.7956 30 37 30Z" fill="#F1A48D"/>
<path d="M37 18H11C10.4477 18 10 18.4477 10 19C10 19.5523 10.4477 20 11 20H37C37.5523 20 38 19.5523 38 19C38 18.4477 37.5523 18 37 18Z" fill="#FFC93E"/>
<path d="M25 22C25.5523 22 26 21.5523 26 21C26 20.4477 25.5523 20 25 20C24.4477 20 24 20.4477 24 21C24 21.5523 24.4477 22 25 22Z" fill="#FFC93E"/>
<path d="M27 22C27.5523 22 28 21.5523 28 21C28 20.4477 27.5523 20 27 20C26.4477 20 26 20.4477 26 21C26 21.5523 26.4477 22 27 22Z" fill="#FFC93E"/>
<path d="M29 22C29.5523 22 30 21.5523 30 21C30 20.4477 29.5523 20 29 20C28.4477 20 28 20.4477 28 21C28 21.5523 28.4477 22 29 22Z" fill="#FFC93E"/>
<path d="M31 22C31.5523 22 32 21.5523 32 21C32 20.4477 31.5523 20 31 20C30.4477 20 30 20.4477 30 21C30 21.5523 30.4477 22 31 22Z" fill="#FFC93E"/>
<path d="M33 22C33.5523 22 34 21.5523 34 21C34 20.4477 33.5523 20 33 20C32.4477 20 32 20.4477 32 21C32 21.5523 32.4477 22 33 22Z" fill="#FFDF8B"/>
<path d="M35 22C35.5523 22 36 21.5523 36 21C36 20.4477 35.5523 20 35 20C34.4477 20 34 20.4477 34 21C34 21.5523 34.4477 22 35 22Z" fill="#FFC93E"/>
<path d="M37 22C37.5523 22 38 21.5523 38 21C38 20.4477 37.5523 20 37 20C36.4477 20 36 20.4477 36 21C36 21.5523 36.4477 22 37 22Z" fill="#FFC93E"/>
<path d="M23 22C23.5523 22 24 21.5523 24 21C24 20.4477 23.5523 20 23 20C22.4477 20 22 20.4477 22 21C22 21.5523 22.4477 22 23 22Z" fill="#FFDF8B"/>
<path d="M21 22C21.5523 22 22 21.5523 22 21C22 20.4477 21.5523 20 21 20C20.4477 20 20 20.4477 20 21C20 21.5523 20.4477 22 21 22Z" fill="#FFC93E"/>
<path d="M19 22C19.5523 22 20 21.5523 20 21C20 20.4477 19.5523 20 19 20C18.4477 20 18 20.4477 18 21C18 21.5523 18.4477 22 19 22Z" fill="#FFC93E"/>
<path d="M17 22C17.5523 22 18 21.5523 18 21C18 20.4477 17.5523 20 17 20C16.4477 20 16 20.4477 16 21C16 21.5523 16.4477 22 17 22Z" fill="#FFC93E"/>
<path d="M15 22C15.5523 22 16 21.5523 16 21C16 20.4477 15.5523 20 15 20C14.4477 20 14 20.4477 14 21C14 21.5523 14.4477 22 15 22Z" fill="#FFDF8B"/>
<path d="M13 22C13.5523 22 14 21.5523 14 21C14 20.4477 13.5523 20 13 20C12.4477 20 12 20.4477 12 21C12 21.5523 12.4477 22 13 22Z" fill="#FFC93E"/>
<path d="M11 22C11.5523 22 12 21.5523 12 21C12 20.4477 11.5523 20 11 20C10.4477 20 10 20.4477 10 21C10 21.5523 10.4477 22 11 22Z" fill="#FFC93E"/>
<path d="M30 4H18C15.8783 4 13.8434 4.84285 12.3431 6.34315C10.8429 7.84344 10 9.87827 10 12V14H38V12C38 9.87827 37.1571 7.84344 35.6569 6.34315C34.1566 4.84285 32.1217 4 30 4Z" fill="#552CA1"/>
<path d="M25.36 13.9992C25.36 13.9992 36 3.99919 40 9.99919C44 15.9992 40 17.9992 36 17.9992H24L25.36 13.9992Z" fill="#7E46E8"/>
<path d="M22.2998 13.9992C22.2998 13.9992 11.6598 3.99919 7.65978 9.99919C3.65978 15.9992 7.65978 17.9992 11.6598 17.9992H23.6598L22.2998 13.9992Z" fill="#7E46E8"/>
<path d="M26 14H22C20.8954 14 20 14.8954 20 16C20 17.1046 20.8954 18 22 18H26C27.1046 18 28 17.1046 28 16C28 14.8954 27.1046 14 26 14Z" fill="#552CA1"/>
<path d="M30 18H34L32 20H28L30 18Z" fill="#FFDF8B"/>
</g>
<path d="M4 0.5H44C45.933 0.5 47.5 2.067 47.5 4V44C47.5 45.933 45.933 47.5 44 47.5H4C2.067 47.5 0.5 45.933 0.5 44V4C0.5 2.067 2.067 0.5 4 0.5Z" stroke="#08091C" stroke-opacity="0.4"/>
<defs>
<clipPath id="clip0_5026_3714">
<path d="M0 4C0 1.79086 1.79086 0 4 0H44C46.2091 0 48 1.79086 48 4V44C48 46.2091 46.2091 48 44 48H4C1.79086 48 0 46.2091 0 44V4Z" fill="white"/>
</clipPath>
</defs>
</svg>
