<svg width="48" height="48" viewBox="0 0 48 48" fill="none" xmlns="http://www.w3.org/2000/svg">
<path d="M34.4001 45.08C33.7038 45.09 33.0161 44.9249 32.4001 44.6L23.8201 40L15.0401 44.6C14.4267 44.9316 13.7372 45.0971 13.0401 45.08C12.4583 45.0587 11.8873 44.916 11.3638 44.6611C10.8403 44.4063 10.3758 44.0448 10.0001 43.6C9.61371 43.1354 9.33159 42.5931 9.17286 42.01C9.01414 41.4269 8.98252 40.8164 9.08014 40.22L10.7401 30.6L3.62014 23.66C3.06146 23.1135 2.66803 22.4207 2.48492 21.6609C2.30182 20.9011 2.33645 20.1051 2.58485 19.3641C2.83324 18.6231 3.28536 17.967 3.88939 17.4711C4.49343 16.9752 5.22495 16.6594 6.00014 16.56L15.6401 15.16L20.0001 6.32002C20.3438 5.62418 20.8752 5.03832 21.5343 4.62868C22.1935 4.21904 22.9541 4.00195 23.7301 4.00195C24.5062 4.00195 25.2668 4.21904 25.926 4.62868C26.5851 5.03832 27.1165 5.62418 27.4601 6.32002L31.8001 15.06L41.5801 16.56C42.3481 16.6682 43.0703 16.9899 43.6643 17.4884C44.2584 17.987 44.7004 18.6424 44.9401 19.38C45.1775 20.1216 45.2041 20.9145 45.017 21.6703C44.8298 22.4261 44.4362 23.115 43.8801 23.66L36.9001 30.46L38.5001 40.22C38.602 40.8169 38.5724 41.4288 38.4133 42.013C38.2542 42.5972 37.9695 43.1397 37.5791 43.6024C37.1887 44.0652 36.7019 44.4372 36.1529 44.6924C35.6038 44.9477 35.0056 45.0799 34.4001 45.08Z" fill="#FFC93E"/>
<path d="M42.8802 16.9798L14.7402 44.7198C14.2252 44.9545 13.6662 45.0772 13.1002 45.0798C12.5081 45.0668 11.9256 44.9282 11.3912 44.673C10.8567 44.4179 10.3826 44.0521 10.0002 43.5998C9.61378 43.1352 9.33166 42.5929 9.17294 42.0098C9.01422 41.4267 8.98259 40.8163 9.08021 40.2198L10.7402 30.5998L8.22021 28.1998L28.2202 7.83984L31.8002 15.0598L41.5802 16.5598C42.036 16.6175 42.4769 16.7599 42.8802 16.9798Z" fill="#FFDF8B"/>
<path d="M25.6802 7.19987L30.0002 15.9999C30.1594 16.3133 30.3914 16.584 30.6767 16.7893C30.962 16.9946 31.2924 17.1285 31.6402 17.1799L41.2802 18.5799C41.6784 18.638 42.0524 18.8062 42.3602 19.0655C42.6679 19.3248 42.8971 19.665 43.0218 20.0476C43.1466 20.4302 43.162 20.84 43.0663 21.2309C42.9706 21.6218 42.7676 21.9782 42.4802 22.2599L35.5002 29.0599C35.2341 29.3122 35.0374 29.6286 34.9288 29.9789C34.8203 30.3291 34.8035 30.7013 34.8802 31.0599L36.5202 40.6799C36.5871 41.0755 36.5425 41.4819 36.3915 41.8535C36.2404 42.2252 35.9888 42.5475 35.6649 42.7842C35.3409 43.0209 34.9575 43.1628 34.5575 43.1938C34.1575 43.2248 33.7567 43.1438 33.4002 42.9599L24.7602 38.4199C24.4525 38.2553 24.109 38.1692 23.7602 38.1692C23.4113 38.1692 23.0678 38.2553 22.7602 38.4199L14.1202 42.8399C13.763 43.0293 13.3598 43.1148 12.9565 43.0864C12.5532 43.0581 12.1659 42.9171 11.8388 42.6796C11.5116 42.442 11.2577 42.1174 11.1059 41.7427C10.9541 41.368 10.9106 40.9581 10.9802 40.5599L12.6202 30.9399C12.6968 30.5813 12.68 30.2091 12.5715 29.8589C12.4629 29.5086 12.2662 29.1922 12.0002 28.9399L5.02016 22.1399C4.73275 21.8582 4.52975 21.5018 4.43404 21.1109C4.33834 20.72 4.35373 20.3102 4.47849 19.9276C4.60326 19.545 4.83242 19.2048 5.14016 18.9455C5.44789 18.6862 5.82195 18.518 6.22016 18.4599L15.8802 17.0599C16.2131 17.0184 16.5322 16.9014 16.813 16.7176C17.0938 16.5339 17.3289 16.2884 17.5002 15.9999L21.8202 7.19987C21.9999 6.84211 22.2756 6.54136 22.6164 6.33121C22.9573 6.12106 23.3498 6.00977 23.7502 6.00977C24.1506 6.00977 24.5431 6.12106 24.8839 6.33121C25.2247 6.54136 25.5004 6.84211 25.6802 7.19987Z" fill="#6232B8"/>
<path d="M40.8398 18.4802L19.0998 40.2202L14.1198 42.8402C13.7626 43.0297 13.3595 43.1151 12.9562 43.0868C12.5528 43.0585 12.1656 42.9175 11.8384 42.6799C11.5113 42.4424 11.2573 42.1178 11.1056 41.743C10.9538 41.3683 10.9102 40.9585 10.9798 40.5602L12.6198 30.9402C12.6965 30.5817 12.6797 30.2094 12.5711 29.8592C12.4626 29.509 12.2658 29.1926 11.9998 28.9402L9.7998 26.8802L26.9398 9.74023L29.9998 16.0002C30.159 16.3136 30.391 16.5843 30.6763 16.7896C30.9617 16.9949 31.2921 17.1289 31.6398 17.1802L40.8398 18.4802Z" fill="#7E46E8"/>
</svg>
