<svg width="24" height="24" viewBox="0 0 24 24" fill="none" xmlns="http://www.w3.org/2000/svg">
<g clip-path="url(#clip0_3095_3687)">
<path d="M12 16C15.866 16 19 12.866 19 9C19 5.13401 15.866 2 12 2C8.13401 2 5 5.13401 5 9C5 12.866 8.13401 16 12 16Z" fill="#6232B8"/>
<path d="M7 20C9.76142 20 12 17.7614 12 15C12 12.2386 9.76142 10 7 10C4.23858 10 2 12.2386 2 15C2 17.7614 4.23858 20 7 20Z" fill="#6232B8"/>
<path d="M17 20C19.7614 20 22 17.7614 22 15C22 12.2386 19.7614 10 17 10C14.2386 10 12 12.2386 12 15C12 17.7614 14.2386 20 17 20Z" fill="#6232B8"/>
<path d="M18 10C18 6.68629 15.3137 4 12 4C8.68629 4 6 6.68629 6 10V15C6 18.3137 8.68629 21 12 21C15.3137 21 18 18.3137 18 15V10Z" fill="#F1A48D"/>
<path d="M15 12C15 11.4477 14.5523 11 14 11C13.4477 11 13 11.4477 13 12V13C13 13.5523 13.4477 14 14 14C14.5523 14 15 13.5523 15 13V12Z" fill="#A47D71"/>
<path d="M11 12C11 11.4477 10.5523 11 10 11C9.44772 11 9 11.4477 9 12V13C9 13.5523 9.44772 14 10 14C10.5523 14 11 13.5523 11 13V12Z" fill="#A47D71"/>
<path d="M5.5 12H6V15H5.5C5.10218 15 4.72064 14.842 4.43934 14.5607C4.15804 14.2794 4 13.8978 4 13.5C4 13.1022 4.15804 12.7206 4.43934 12.4393C4.72064 12.158 5.10218 12 5.5 12Z" fill="#F1A48D"/>
<path d="M18.5 15H18V12H18.5C18.8978 12 19.2794 12.158 19.5607 12.4393C19.842 12.7206 20 13.1022 20 13.5C20 13.8978 19.842 14.2794 19.5607 14.5607C19.2794 14.842 18.8978 15 18.5 15Z" fill="#F1A48D"/>
<path d="M12.0002 6.5002C12.0126 8.10539 11.4297 9.65822 10.364 10.8587C9.29833 12.0592 7.82558 12.8222 6.23023 13.0002C5.98714 13.0154 5.74333 13.0154 5.50023 13.0002C4.54543 13.0027 3.60225 12.7908 2.74023 12.3802C3.30717 11.4791 4.14335 10.7794 5.13023 10.3802C5.04473 9.92515 5.00122 9.46321 5.00023 9.0002C5.00194 7.42844 5.53256 5.90299 6.50667 4.66948C7.48078 3.43597 8.84168 2.56619 10.3702 2.2002C11.4202 3.38654 11.9999 4.91596 12.0002 6.5002Z" fill="#6232B8"/>
<path d="M21.26 12.3802C20.3979 12.7908 19.4548 13.0027 18.5 13.0002C18.2569 13.0154 18.0131 13.0154 17.77 13.0002C16.5813 12.8713 15.4512 12.4171 14.5041 11.6874C13.5569 10.9578 12.8293 9.98106 12.4014 8.86466C11.9734 7.74826 11.8617 6.53545 12.0784 5.35965C12.2952 4.18384 12.832 3.09061 13.63 2.2002C15.1585 2.56619 16.5194 3.43597 17.4935 4.66948C18.4676 5.90299 18.9983 7.42844 19 9.0002C18.9978 9.45652 18.9543 9.91171 18.87 10.3602C19.8597 10.7647 20.6962 11.4717 21.26 12.3802Z" fill="#6232B8"/>
<path d="M15.87 4H9.13C8.50592 4 8 4.50592 8 5.13V7.87C8 8.49408 8.50592 9 9.13 9H15.87C16.4941 9 17 8.49408 17 7.87V5.13C17 4.50592 16.4941 4 15.87 4Z" fill="#6232B8"/>
<path d="M12 5.5C11.337 5.5 10.7011 5.76339 10.2323 6.23223C9.76343 6.70107 9.50004 7.33696 9.50004 8C9.49807 8.34448 9.56966 8.68541 9.71004 9H10.89C10.6386 8.72774 10.4993 8.37058 10.5 8C10.5 7.60218 10.6581 7.22064 10.9394 6.93934C11.2207 6.65804 11.6022 6.5 12 6.5C12.3979 6.5 12.7794 6.65804 13.0607 6.93934C13.342 7.22064 13.5 7.60218 13.5 8C13.5007 8.37058 13.3614 8.72774 13.11 9H14.29C14.4304 8.68541 14.502 8.34448 14.5 8C14.5 7.33696 14.2366 6.70107 13.7678 6.23223C13.299 5.76339 12.6631 5.5 12 5.5Z" fill="#FFC93E"/>
<path d="M12 9C12.5523 9 13 8.55228 13 8C13 7.44772 12.5523 7 12 7C11.4477 7 11 7.44772 11 8C11 8.55228 11.4477 9 12 9Z" fill="#FFC93E"/>
<path d="M19 8H5V9H19V8Z" fill="#FFC93E"/>
<path d="M9.5 10C9.77614 10 10 9.77614 10 9.5C10 9.22386 9.77614 9 9.5 9C9.22386 9 9 9.22386 9 9.5C9 9.77614 9.22386 10 9.5 10Z" fill="#FFC93E"/>
<path d="M14.5 10C14.7761 10 15 9.77614 15 9.5C15 9.22386 14.7761 9 14.5 9C14.2239 9 14 9.22386 14 9.5C14 9.77614 14.2239 10 14.5 10Z" fill="#FFC93E"/>
<path d="M8.5 11C8.77614 11 9 10.7761 9 10.5C9 10.2239 8.77614 10 8.5 10C8.22386 10 8 10.2239 8 10.5C8 10.7761 8.22386 11 8.5 11Z" fill="#FFC93E"/>
<path d="M15.5 11C15.7761 11 16 10.7761 16 10.5C16 10.2239 15.7761 10 15.5 10C15.2239 10 15 10.2239 15 10.5C15 10.7761 15.2239 11 15.5 11Z" fill="#FFDF8B"/>
<path d="M7.5 12C7.77614 12 8 11.7761 8 11.5C8 11.2239 7.77614 11 7.5 11C7.22386 11 7 11.2239 7 11.5C7 11.7761 7.22386 12 7.5 12Z" fill="#FFDF8B"/>
<path d="M16.5 12C16.7761 12 17 11.7761 17 11.5C17 11.2239 16.7761 11 16.5 11C16.2239 11 16 11.2239 16 11.5C16 11.7761 16.2239 12 16.5 12Z" fill="#FFC93E"/>
<path d="M6.5 13C6.77614 13 7 12.7761 7 12.5C7 12.2239 6.77614 12 6.5 12C6.22386 12 6 12.2239 6 12.5C6 12.7761 6.22386 13 6.5 13Z" fill="#FFC93E"/>
<path d="M5.5 13C5.77614 13 6 12.7761 6 12.5C6 12.2239 5.77614 12 5.5 12C5.22386 12 5 12.2239 5 12.5C5 12.7761 5.22386 13 5.5 13Z" fill="#FFC93E"/>
<path d="M18.5 13C18.7761 13 19 12.7761 19 12.5C19 12.2239 18.7761 12 18.5 12C18.2239 12 18 12.2239 18 12.5C18 12.7761 18.2239 13 18.5 13Z" fill="#FFC93E"/>
<path d="M17.5 13C17.7761 13 18 12.7761 18 12.5C18 12.2239 17.7761 12 17.5 12C17.2239 12 17 12.2239 17 12.5C17 12.7761 17.2239 13 17.5 13Z" fill="#FFC93E"/>
<path d="M4.5 12C4.77614 12 5 11.7761 5 11.5C5 11.2239 4.77614 11 4.5 11C4.22386 11 4 11.2239 4 11.5C4 11.7761 4.22386 12 4.5 12Z" fill="#FFC93E"/>
<path d="M19.5 12C19.7761 12 20 11.7761 20 11.5C20 11.2239 19.7761 11 19.5 11C19.2239 11 19 11.2239 19 11.5C19 11.7761 19.2239 12 19.5 12Z" fill="#FFDF8B"/>
<path d="M15 8H17L16 9H14L15 8Z" fill="#FFDF8B"/>
<path d="M10 16H14C14 16.5304 13.7893 17.0391 13.4142 17.4142C13.0391 17.7893 12.5304 18 12 18C11.4696 18 10.9609 17.7893 10.5858 17.4142C10.2107 17.0391 10 16.5304 10 16Z" fill="white"/>
</g>
<defs>
<clipPath id="clip0_3095_3687">
<rect width="24" height="24" fill="white"/>
</clipPath>
</defs>
</svg>
