<svg width="64" height="64" viewBox="0 0 64 64" fill="none" xmlns="http://www.w3.org/2000/svg">
<g clip-path="url(#clip0_3089_1998)">
<path d="M32.0002 58.6663C46.7278 58.6663 58.6668 46.7273 58.6668 31.9997C58.6668 17.2721 46.7278 5.33301 32.0002 5.33301C17.2726 5.33301 5.3335 17.2721 5.3335 31.9997C5.3335 46.7273 17.2726 58.6663 32.0002 58.6663Z" fill="#FFC93E"/>
<path d="M57.9732 25.893L25.9732 57.893C20.4502 56.5919 15.4862 53.563 11.803 49.2467C8.1198 44.9305 5.90939 39.5519 5.49316 33.893L33.8932 5.33301C39.5769 5.73767 44.9815 7.95228 49.3149 11.6522C53.6484 15.3522 56.6827 20.343 57.9732 25.893Z" fill="#FFC93E"/>
<path d="M57.9732 25.893L25.9732 57.893C20.4502 56.5919 15.4862 53.563 11.803 49.2467C8.1198 44.9305 5.90939 39.5519 5.49316 33.893L33.8932 5.33301C39.5769 5.73767 44.9815 7.95228 49.3149 11.6522C53.6484 15.3522 56.6827 20.343 57.9732 25.893Z" fill="#FFDF8B"/>
<path d="M31.9998 56.2398C45.3871 56.2398 56.2398 45.3871 56.2398 31.9998C56.2398 18.6124 45.3871 7.75977 31.9998 7.75977C18.6124 7.75977 7.75977 18.6124 7.75977 31.9998C7.75977 45.3871 18.6124 56.2398 31.9998 56.2398Z" fill="#552CA1"/>
<path d="M38.2931 11.1201C37.9115 11.2656 37.5633 11.4872 37.27 11.7714C36.9766 12.0556 36.744 12.3965 36.5865 12.7734C36.5951 11.9904 36.2986 11.2349 35.7598 10.6667C35.5723 10.5482 35.355 10.4854 35.1331 10.4854C34.9113 10.4854 34.694 10.5482 34.5065 10.6667C34.292 10.7543 34.0996 10.8881 33.9428 11.0587C33.7861 11.2293 33.669 11.4323 33.5998 11.6534C33.4491 12.4003 33.5722 13.1764 33.9465 13.8401C34.0179 13.9417 34.1211 14.0168 34.2398 14.0534C34.2985 14.0799 34.3621 14.0936 34.4265 14.0936C34.4908 14.0936 34.5545 14.0799 34.6131 14.0534C34.6651 14.026 34.7109 13.9882 34.7477 13.9423C34.7844 13.8964 34.8112 13.8435 34.8265 13.7867C34.853 13.7281 34.8667 13.6644 34.8667 13.6C34.8667 13.5357 34.853 13.472 34.8265 13.4134C34.5754 12.9875 34.4723 12.4906 34.5331 12.0001C34.5647 11.9041 34.6169 11.8162 34.686 11.7425C34.755 11.6688 34.8394 11.6111 34.9331 11.5734C34.9744 11.5523 35.0201 11.5413 35.0665 11.5413C35.1128 11.5413 35.1585 11.5523 35.1998 11.5734C35.7865 12.0801 35.8131 14.4001 35.1998 16.9067C35.1842 16.9682 35.1817 17.0323 35.1924 17.0948C35.2031 17.1573 35.2268 17.2169 35.262 17.2697C35.2972 17.3225 35.3431 17.3673 35.3967 17.4012C35.4503 17.4352 35.5104 17.4575 35.5731 17.4667C35.6794 17.4635 35.7815 17.425 35.8636 17.3575C35.9456 17.2899 36.0029 17.197 36.0265 17.0934C36.5865 14.5867 37.6265 12.5067 38.3731 12.32C38.3731 12.32 38.5065 12.32 38.6131 12.32C38.683 12.3887 38.7362 12.4725 38.7685 12.565C38.8009 12.6575 38.8116 12.7561 38.7998 12.8534C38.6503 13.3341 38.3395 13.7486 37.9198 14.0267C37.8249 14.0994 37.7588 14.2033 37.7331 14.32C37.7066 14.3787 37.6929 14.4423 37.6929 14.5067C37.6929 14.5711 37.7066 14.6347 37.7331 14.6934C37.8058 14.7883 37.9097 14.8544 38.0265 14.88C38.0851 14.9066 38.1488 14.9203 38.2131 14.9203C38.2775 14.9203 38.3411 14.9066 38.3998 14.88C38.8008 14.6761 39.152 14.3864 39.4285 14.0316C39.705 13.6767 39.9 13.2654 39.9998 12.8267C40.037 12.599 40.0228 12.3659 39.9582 12.1444C39.8936 11.9229 39.7802 11.7187 39.6265 11.5467C39.4796 11.3418 39.2706 11.1896 39.0304 11.1127C38.7903 11.0359 38.5317 11.0385 38.2931 11.1201Z" fill="#FFC93E"/>
<path d="M49.0934 18.4C48.9617 18.2646 48.8042 18.1569 48.6301 18.0833C48.4561 18.0098 48.2691 17.9719 48.0801 17.9719C47.8912 17.9719 47.7041 18.0098 47.5301 18.0833C47.356 18.1569 47.1985 18.2646 47.0668 18.4C46.9872 18.4823 46.8919 18.5477 46.7865 18.5924C46.6812 18.637 46.5679 18.6601 46.4535 18.6601C46.339 18.6601 46.2257 18.637 46.1204 18.5924C46.015 18.5477 45.9197 18.4823 45.8401 18.4H45.7068C45.621 18.3225 45.5525 18.2279 45.5055 18.1222C45.4586 18.0166 45.4344 17.9023 45.4344 17.7867C45.4344 17.6711 45.4586 17.5568 45.5055 17.4511C45.5525 17.3455 45.621 17.2509 45.7068 17.1734C45.9738 16.9037 46.1237 16.5395 46.1237 16.16C46.1237 15.7805 45.9738 15.4163 45.7068 15.1467L45.2268 14.6667C45.1795 14.6194 45.1234 14.5819 45.0616 14.5563C44.9998 14.5307 44.9336 14.5176 44.8668 14.5176C44.7999 14.5176 44.7337 14.5307 44.672 14.5563C44.6102 14.5819 44.5541 14.6194 44.5068 14.6667C44.4595 14.714 44.422 14.7701 44.3964 14.8319C44.3708 14.8936 44.3577 14.9598 44.3577 15.0267C44.3577 15.0936 44.3708 15.1598 44.3964 15.2215C44.422 15.2833 44.4595 15.3394 44.5068 15.3867L44.9868 15.8667C45.0618 15.9459 45.1036 16.0509 45.1036 16.16C45.1036 16.2691 45.0618 16.3741 44.9868 16.4534C44.782 16.646 44.6248 16.8836 44.5276 17.1474C44.4304 17.4112 44.3959 17.6939 44.4268 17.9734C44.035 17.9707 43.65 18.0759 43.314 18.2776C42.9781 18.4793 42.7042 18.7697 42.5224 19.1168C42.3406 19.4639 42.2578 19.8543 42.2833 20.2453C42.3088 20.6363 42.4415 21.0128 42.6668 21.3334C43.0701 21.7259 43.6106 21.9456 44.1735 21.9456C44.7363 21.9456 45.2768 21.7259 45.6801 21.3334C46.0763 20.927 46.2967 20.3809 46.2935 19.8134C46.5769 19.8443 46.8637 19.81 47.1318 19.7129C47.3999 19.6158 47.6422 19.4586 47.8401 19.2534C47.9194 19.1783 48.0243 19.1365 48.1334 19.1365C48.2426 19.1365 48.3475 19.1783 48.4268 19.2534L48.9601 19.7867C49.0074 19.834 49.0635 19.8715 49.1253 19.8971C49.1871 19.9226 49.2533 19.9358 49.3201 19.9358C49.387 19.9358 49.4532 19.9226 49.5149 19.8971C49.5767 19.8715 49.6328 19.834 49.6801 19.7867C49.7274 19.7394 49.7649 19.6833 49.7905 19.6215C49.8161 19.5598 49.8292 19.4936 49.8292 19.4267C49.8292 19.3598 49.8161 19.2936 49.7905 19.2319C49.7649 19.1701 49.7274 19.114 49.6801 19.0667L49.0934 18.4ZM43.3335 20.48C43.1266 20.2704 43.0107 19.9878 43.0107 19.6934C43.0107 19.3989 43.1266 19.1163 43.3335 18.9067C43.5373 18.7096 43.8098 18.5993 44.0934 18.5993C44.3771 18.5993 44.6496 18.7096 44.8534 18.9067C45.0446 19.1136 45.1508 19.385 45.1508 19.6667C45.1508 19.9484 45.0446 20.2198 44.8534 20.4267C44.6533 20.6253 44.3856 20.741 44.1039 20.7509C43.8221 20.7608 43.547 20.6641 43.3335 20.48Z" fill="#FFC93E"/>
<path d="M53.8135 28.693C52.9348 27.2258 52.4652 25.5499 52.4535 23.8397C52.4611 23.7166 52.421 23.5953 52.3416 23.501C52.2621 23.4066 52.1494 23.3465 52.0268 23.333C51.8995 23.3367 51.7772 23.3838 51.6802 23.4663C51.5951 23.5511 51.5471 23.6662 51.5468 23.7863C51.5074 24.1497 51.5074 24.5163 51.5468 24.8797L48.0002 25.893C47.8562 25.5739 47.696 25.2624 47.5202 24.9597C47.4541 24.8563 47.351 24.7821 47.232 24.7523C47.113 24.7226 46.9871 24.7395 46.8802 24.7997C46.8271 24.8272 46.7804 24.8655 46.7431 24.9122C46.7059 24.9589 46.6788 25.0129 46.6637 25.0707C46.6486 25.1286 46.6459 25.1889 46.6556 25.2479C46.6653 25.3068 46.6873 25.3631 46.7202 25.413C47.5719 26.8974 48.0136 28.5816 48.0002 30.293C47.9925 30.4091 48.0298 30.5236 48.1043 30.6129C48.1787 30.7023 48.2846 30.7596 48.4002 30.773C48.5159 30.7732 48.6274 30.7291 48.7116 30.6498C48.7959 30.5705 48.8467 30.4619 48.8535 30.3463C48.8768 30.009 48.8768 29.6704 48.8535 29.333L52.5868 28.293C52.7202 28.5863 52.8802 28.8797 53.0402 29.173C53.109 29.2654 53.2072 29.3317 53.3187 29.3608C53.4302 29.3899 53.5483 29.3801 53.6535 29.333C53.7569 29.267 53.8311 29.1639 53.8609 29.0449C53.8906 28.9258 53.8737 28.7999 53.8135 28.693ZM52.1868 27.4397L48.6935 28.3997C48.5831 27.8469 48.4316 27.3032 48.2402 26.773L51.7335 25.7863C51.8438 26.3478 51.9953 26.9004 52.1868 27.4397Z" fill="#FFC93E"/>
<path d="M49.8666 35.7065H50.3466C50.7553 35.6915 51.1455 35.5325 51.4483 35.2576C51.7511 34.9827 51.9469 34.6096 52.0012 34.2043C52.0554 33.7989 51.9646 33.3875 51.7448 33.0426C51.525 32.6978 51.1903 32.4417 50.8 32.3198C50.5578 32.2449 50.3015 32.2275 50.0515 32.2692C49.8015 32.3109 49.5647 32.4104 49.36 32.5598C48.9152 32.8594 48.5493 33.2619 48.2933 33.7331C47.3262 35.8121 46.8343 38.0804 46.8533 40.3732C46.8437 40.4415 46.8508 40.5112 46.874 40.5762C46.8972 40.6413 46.9359 40.6997 46.9866 40.7465C47.0267 40.8017 47.0786 40.8471 47.1386 40.8794C47.1987 40.9117 47.2652 40.9301 47.3333 40.9332C47.4677 40.9332 47.5966 40.8798 47.6916 40.7848C47.7866 40.6897 47.84 40.5609 47.84 40.4265C47.8658 38.5427 48.2084 36.6766 48.8533 34.9065C49.0775 35.2919 49.4397 35.5778 49.8666 35.7065ZM51.0133 34.2131C50.9563 34.3811 50.837 34.5208 50.6802 34.6035C50.5233 34.6862 50.3406 34.7056 50.1699 34.6578C49.9991 34.61 49.8531 34.4986 49.762 34.3464C49.6709 34.1942 49.6415 34.013 49.68 33.8398C49.7074 33.7025 49.7831 33.5795 49.8933 33.4932H50.0533H50.6666C50.8434 33.5437 50.9953 33.6576 51.0933 33.8132C51.1043 33.9513 51.0766 34.0898 51.0133 34.2131Z" fill="#FFC93E"/>
<path d="M52.8269 32.8267C52.7052 32.7896 52.5752 32.7896 52.4535 32.8267C52.353 32.9251 52.2955 33.0593 52.2935 33.2C52.2676 35.0838 51.9251 36.9498 51.2802 38.72C51.0461 38.3715 50.6968 38.1166 50.2935 38C50.0768 37.9325 49.8483 37.9118 49.623 37.9394C49.3977 37.967 49.1809 38.0422 48.9869 38.16C48.7805 38.261 48.5992 38.4068 48.4562 38.5867C48.3132 38.7666 48.2121 38.9761 48.1602 39.2C48.0371 39.642 48.0943 40.1148 48.3193 40.5147C48.5442 40.9146 48.9185 41.209 49.3602 41.3333H49.8135C50.1359 41.3394 50.4524 41.2464 50.7202 41.0667C51.2048 40.7671 51.6006 40.3437 51.8669 39.84C52.8197 37.8213 53.3202 35.6189 53.3335 33.3867C53.381 33.2667 53.381 33.1332 53.3335 33.0133C53.2716 32.942 53.1928 32.8875 53.1042 32.8549C53.0156 32.8223 52.9202 32.8125 52.8269 32.8267ZM49.2002 40.1333C49.1187 39.9685 49.1008 39.7795 49.15 39.6023C49.1992 39.4252 49.312 39.2724 49.4669 39.1733C49.5811 39.1488 49.6993 39.1488 49.8135 39.1733H50.0002C50.0895 39.1944 50.1735 39.2337 50.2469 39.2888C50.3203 39.3439 50.3816 39.4135 50.4269 39.4933C50.4951 39.6645 50.4951 39.8554 50.4269 40.0267C50.3899 40.174 50.3056 40.3052 50.1869 40.4H50.0269C49.9682 40.4265 49.9046 40.4402 49.8402 40.4402C49.7758 40.4402 49.7122 40.4265 49.6535 40.4C49.4751 40.369 49.314 40.2743 49.2002 40.1333Z" fill="#FFC93E"/>
<path d="M47.3598 45.7871C47.5327 45.6439 47.6724 45.4648 47.7691 45.2621C47.8658 45.0595 47.9172 44.8383 47.9198 44.6138C47.9229 44.3046 47.8363 44.0012 47.6705 43.7403C47.5048 43.4793 47.267 43.2719 46.9859 43.1432C46.7048 43.0146 46.3925 42.9701 46.0866 43.0151C45.7808 43.0602 45.4945 43.1929 45.2625 43.3973C45.0305 43.6016 44.8626 43.8687 44.7792 44.1664C44.6958 44.4641 44.7005 44.7796 44.7926 45.0747C44.8847 45.3698 45.0603 45.6319 45.2982 45.8294C45.5361 46.0268 45.8261 46.151 46.1332 46.1871C46.7465 46.6138 47.6532 47.4671 47.6532 48.0271C47.6532 48.0271 47.6532 48.2938 47.2265 48.5338C47.0622 48.6618 46.8729 48.754 46.6709 48.8045C46.4688 48.8551 46.2584 48.8627 46.0532 48.8271C45.5732 48.6138 45.3332 47.6004 45.1198 46.7204C44.9065 45.8404 44.5865 44.5071 43.7065 44.2138C43.4544 44.116 43.1828 44.0796 42.9139 44.1074C42.645 44.1352 42.3865 44.2265 42.1598 44.3738C41.9409 44.583 41.7684 44.836 41.6535 45.1162C41.5387 45.3965 41.484 45.6977 41.4932 46.0004C41.4932 46.1419 41.5494 46.2776 41.6494 46.3776C41.7494 46.4776 41.8851 46.5338 42.0265 46.5338C42.1682 46.521 42.3004 46.4571 42.3985 46.3541C42.4966 46.2511 42.5539 46.1159 42.5598 45.9738C42.5598 45.9738 42.5598 45.3871 42.8265 45.2538C42.9124 45.2071 43.0087 45.1827 43.1065 45.1827C43.2043 45.1827 43.3006 45.2071 43.3865 45.2538C43.6798 45.2538 43.9198 46.3204 44.0798 46.9604C44.3465 48.1604 44.6398 49.3871 45.6265 49.8138C45.8302 49.8961 46.0469 49.9412 46.2665 49.9471C46.8062 49.9214 47.3299 49.756 47.7865 49.4671C48.0551 49.3376 48.2836 49.1378 48.4479 48.889C48.6122 48.6402 48.7062 48.3516 48.7198 48.0538C48.666 47.6014 48.517 47.1655 48.2826 46.7748C48.0482 46.3841 47.7337 46.0475 47.3598 45.7871ZM46.3198 44.0804C46.3887 44.0804 46.4568 44.0943 46.5201 44.1214C46.5834 44.1485 46.6405 44.1882 46.6879 44.2381C46.7353 44.2881 46.772 44.3471 46.7959 44.4117C46.8197 44.4763 46.8301 44.545 46.8265 44.6138C46.8265 44.7482 46.7731 44.877 46.6781 44.972C46.5831 45.0671 46.4542 45.1204 46.3198 45.1204C46.2417 45.1382 46.1606 45.1382 46.0825 45.1204C46.0044 45.1025 45.9314 45.0673 45.8687 45.0174C45.8061 44.9674 45.7555 44.904 45.7208 44.8318C45.686 44.7596 45.668 44.6806 45.668 44.6004C45.668 44.5203 45.686 44.4413 45.7208 44.3691C45.7555 44.2969 45.8061 44.2335 45.8687 44.1835C45.9314 44.1336 46.0044 44.0984 46.0825 44.0805C46.1606 44.0627 46.2417 44.0626 46.3198 44.0804Z" fill="#FFC93E"/>
<path d="M40.1333 52.6396C39.0666 51.9462 38.56 49.1196 38.5333 48.3996C38.5264 48.2628 38.4672 48.1339 38.368 48.0396C38.2687 47.9453 38.1369 47.8927 38 47.8929C37.9324 47.889 37.8648 47.8995 37.8016 47.9236C37.7383 47.9477 37.6809 47.9849 37.6331 48.0327C37.5852 48.0806 37.5481 48.138 37.524 48.2012C37.4999 48.2644 37.4894 48.332 37.4933 48.3996C37.5924 49.4931 37.8344 50.569 38.2133 51.5996C38.2033 52.0364 38.1222 52.4688 37.9733 52.8796C37.3899 51.5506 37.0209 50.1375 36.88 48.6929C36.879 48.6244 36.8615 48.5571 36.829 48.4968C36.7965 48.4364 36.75 48.3848 36.6933 48.3462C36.7204 48.2831 36.7344 48.215 36.7344 48.1463C36.7344 48.0775 36.7204 48.0094 36.6933 47.9462C36.6451 47.8171 36.5487 47.7116 36.4244 47.6519C36.3001 47.5923 36.1576 47.5831 36.0266 47.6263C35.7015 47.7619 35.3965 47.9413 35.12 48.1596C34.9096 47.8434 34.6136 47.5937 34.2666 47.4396C34.2034 47.4124 34.1354 47.3984 34.0666 47.3984C33.9979 47.3984 33.9298 47.4124 33.8666 47.4396C33.8038 47.4667 33.7476 47.5068 33.7016 47.5574C33.6556 47.608 33.621 47.6679 33.6 47.7329C33.5481 47.8612 33.5481 48.0046 33.6 48.1329C33.627 48.1957 33.6672 48.252 33.7178 48.2979C33.7684 48.3439 33.8282 48.3786 33.8933 48.3996C34.0815 48.5199 34.2372 48.6848 34.3466 48.8796C33.8193 49.5119 33.5609 50.3256 33.6266 51.1463C33.6266 52.2129 33.9466 53.4929 34.8 53.5462C34.9381 53.5454 35.0744 53.5138 35.1989 53.4539C35.3234 53.3939 35.4331 53.3071 35.52 53.1996C35.68 53.7596 35.8666 54.1329 36.24 54.2929H36.5866C36.726 54.3329 36.8739 54.3329 37.0133 54.2929C37.1869 54.1859 37.333 54.0398 37.44 53.8663C37.5218 53.9446 37.6231 53.9998 37.7333 54.0263C37.8612 54.0918 38.0029 54.1259 38.1466 54.1259C38.2904 54.1259 38.432 54.0918 38.56 54.0263C38.7908 53.8365 38.9659 53.5876 39.0666 53.3062C39.2084 53.4852 39.3798 53.6385 39.5733 53.7596C39.6469 53.7837 39.7249 53.7915 39.8019 53.7824C39.8788 53.7733 39.9529 53.7476 40.0189 53.707C40.0849 53.6664 40.1412 53.6119 40.184 53.5473C40.2268 53.4827 40.255 53.4095 40.2666 53.3329C40.3159 53.2041 40.3159 53.0617 40.2666 52.9329C40.2504 52.8246 40.2042 52.723 40.1333 52.6396ZM36.56 53.1196C36.4106 52.6032 36.2948 52.0776 36.2133 51.5462V51.1463C36.1331 50.6234 36.0173 50.1066 35.8666 49.5996C35.8666 49.4129 35.7333 49.2529 35.68 49.0929L35.9466 48.9062C36.1023 50.2028 36.3882 51.4804 36.8 52.7196C36.7389 52.8634 36.6582 52.9981 36.56 53.1196ZM34.6666 51.0129C34.6486 50.6479 34.7124 50.2835 34.8533 49.9462C34.9802 50.355 35.0695 50.7745 35.12 51.1996C35.0622 51.5335 34.982 51.8631 34.88 52.1862C34.7609 51.8054 34.6892 51.4113 34.6666 51.0129Z" fill="#FFC93E"/>
<path d="M30.6668 49.1202L23.8135 47.3068C23.6831 47.2675 23.544 47.2675 23.4135 47.3068C23.3049 47.3887 23.2217 47.4996 23.1735 47.6268C23.1342 47.7573 23.1342 47.8964 23.1735 48.0268C23.2554 48.1354 23.3663 48.2186 23.4935 48.2668L30.3468 50.0535C30.4646 50.0561 30.5797 50.0176 30.6721 49.9446C30.7646 49.8716 30.8287 49.7687 30.8535 49.6535C30.8942 49.5324 30.8942 49.4013 30.8535 49.2801C30.8062 49.2115 30.7419 49.1564 30.6668 49.1202Z" fill="#FFC93E"/>
<path d="M30.2931 51.1468L27.8931 50.4002C27.7718 50.3619 27.642 50.3591 27.5192 50.3922C27.3963 50.4253 27.2855 50.4928 27.1998 50.5868C27.1298 50.6889 27.0924 50.8098 27.0924 50.9335C27.0924 51.0572 27.1298 51.1781 27.1998 51.2802C27.5465 52.1335 27.5998 52.9602 27.3598 53.2268C27.1198 53.4935 26.6665 53.3335 26.0265 53.3335C25.3865 53.3335 24.6398 52.7468 24.5865 52.4268C24.5331 52.1068 24.9331 51.4668 25.6265 50.9602C25.7303 50.8928 25.8113 50.7957 25.8589 50.6815C25.9065 50.5672 25.9184 50.4413 25.8931 50.3202C25.8694 50.1959 25.8121 50.0806 25.7275 49.9866C25.6429 49.8926 25.5342 49.8235 25.4131 49.7868L22.8798 49.0402C22.8166 49.013 22.7486 48.999 22.6798 48.999C22.611 48.999 22.543 49.013 22.4798 49.0402C22.417 49.0672 22.3607 49.1074 22.3148 49.158C22.2688 49.2086 22.2341 49.2684 22.2131 49.3335C22.1712 49.4679 22.1842 49.6134 22.2491 49.7383C22.3141 49.8631 22.4257 49.9573 22.5598 50.0002L24.4531 50.5335C24.1533 50.7762 23.9149 51.0863 23.7574 51.4384C23.5999 51.7905 23.5276 52.1749 23.5465 52.5602C23.6798 53.3335 24.4265 53.9202 25.7331 54.2668C26.0711 54.3664 26.4209 54.4202 26.7731 54.4268C27.0001 54.4402 27.2273 54.4043 27.4391 54.3214C27.6509 54.2385 27.8422 54.1107 27.9998 53.9468C28.2248 53.6139 28.3665 53.2318 28.4129 52.8327C28.4593 52.4336 28.4091 52.0292 28.2665 51.6535L29.9998 52.1868C30.1305 52.2209 30.2693 52.204 30.3881 52.1396C30.5069 52.0753 30.5969 51.9683 30.6398 51.8402C30.669 51.7724 30.6831 51.699 30.681 51.6252C30.679 51.5514 30.6608 51.4789 30.6278 51.4129C30.5947 51.3468 30.5477 51.2888 30.4899 51.2428C30.4321 51.1969 30.3649 51.1641 30.2931 51.1468Z" fill="#FFC93E"/>
<path d="M21.5733 45.467C21.5115 45.3956 21.4265 45.3484 21.3333 45.3337C21.2792 45.3077 21.2199 45.2942 21.1599 45.2942C21.0999 45.2942 21.0407 45.3077 20.9866 45.3337C20.1649 45.9752 19.4378 46.7292 18.8266 47.5737C18.4532 47.8026 18.0348 47.9482 17.5999 48.0004C18.3163 46.8245 19.2167 45.7711 20.2666 44.8804C20.3339 44.8164 20.3813 44.7344 20.4029 44.6441C20.4245 44.5538 20.4195 44.4592 20.3885 44.3717C20.3574 44.2842 20.3017 44.2076 20.228 44.1512C20.1543 44.0947 20.0658 44.0609 19.9733 44.0537C19.9093 44.0502 19.8454 44.0602 19.7857 44.0832C19.7259 44.1062 19.6717 44.1416 19.6266 44.187C18.6413 44.974 17.7469 45.8684 16.9599 46.8537C16.7954 46.9134 16.6259 46.9581 16.4533 46.987C16.7824 46.5726 17.1483 46.1888 17.5466 45.8404C18.0334 45.4027 18.4879 44.9303 18.9066 44.427C19.9733 43.1204 19.8399 42.267 19.7866 42.107C19.7774 42.0443 19.755 41.9841 19.7211 41.9305C19.6872 41.877 19.6424 41.8311 19.5896 41.7959C19.5368 41.7607 19.4772 41.737 19.4147 41.7263C19.3522 41.7156 19.2881 41.7181 19.2266 41.7337C19.1034 41.7594 18.9952 41.8325 18.9253 41.9373C18.8555 42.042 18.8296 42.17 18.8533 42.2937C18.8885 42.4427 18.8885 42.598 18.8533 42.747C18.7111 42.4357 18.5223 42.148 18.2933 41.8937C18.319 41.8443 18.3324 41.7894 18.3324 41.7337C18.3324 41.678 18.319 41.6231 18.2933 41.5737C18.2669 41.5105 18.2225 41.4565 18.1656 41.4186C18.1086 41.3806 18.0417 41.3604 17.9733 41.3604H16.7999L17.0399 42.4804C17.062 42.5491 17.1001 42.6115 17.1511 42.6625C17.2021 42.7136 17.2646 42.7517 17.3333 42.7737C17.4359 42.8152 17.5506 42.8152 17.6533 42.7737C17.9855 43.1269 18.1672 43.5955 18.1599 44.0804C17.8133 44.4804 17.3599 44.907 16.9599 45.2803C16.0533 46.1337 15.3866 46.747 15.5199 47.387C15.5411 47.5217 15.5963 47.6487 15.6803 47.756C15.7643 47.8634 15.8743 47.9475 15.9999 48.0004C16.1929 48.0458 16.3937 48.0458 16.5866 48.0004C16.5595 48.1053 16.5595 48.2154 16.5866 48.3204C16.6298 48.454 16.7026 48.5761 16.7995 48.6777C16.8965 48.7793 17.0151 48.8577 17.1466 48.907C17.4182 48.9726 17.7016 48.9726 17.9733 48.907C17.9345 49.1365 17.9345 49.3709 17.9733 49.6004C17.9767 49.6989 18.0089 49.7942 18.0657 49.8747C18.1225 49.9552 18.2016 50.0174 18.2933 50.0537H18.4533C18.5298 50.0445 18.6029 50.0171 18.6666 49.9737C18.7184 49.9323 18.7598 49.8794 18.7875 49.8192C18.8153 49.7591 18.8287 49.6933 18.8266 49.627C18.8266 48.4004 20.7999 46.5337 21.4933 46.107C21.5441 46.073 21.5871 46.0285 21.6192 45.9764C21.6513 45.9243 21.6718 45.866 21.6794 45.8053C21.687 45.7446 21.6815 45.683 21.6632 45.6246C21.6448 45.5662 21.6142 45.5125 21.5733 45.467Z" fill="#FFC93E"/>
<path d="M15.6799 37.3332C15.5588 37.2926 15.4277 37.2926 15.3066 37.3332H14.0799L13.5199 34.6665L14.8533 35.5732C14.9078 35.5975 14.9669 35.61 15.0266 35.61C15.0863 35.61 15.1454 35.5975 15.1999 35.5732C15.3294 35.5444 15.4435 35.4683 15.5199 35.3599C15.5594 35.3065 15.5873 35.2456 15.602 35.1809C15.6167 35.1162 15.6178 35.0491 15.6052 34.984C15.5927 34.9188 15.5668 34.857 15.5292 34.8024C15.4915 34.7477 15.443 34.7015 15.3866 34.6665L12.7199 32.8799L10.6666 35.3599C10.6205 35.4023 10.5838 35.4539 10.5586 35.5112C10.5335 35.5686 10.5205 35.6306 10.5205 35.6932C10.5205 35.7559 10.5335 35.8178 10.5586 35.8752C10.5838 35.9326 10.6205 35.9841 10.6666 36.0266C10.7605 36.1147 10.8845 36.1637 11.0133 36.1637C11.1421 36.1637 11.266 36.1147 11.3599 36.0266L12.5333 34.6665L13.1199 37.5732L11.6799 37.8399C11.5535 37.8595 11.4392 37.9262 11.3599 38.0266C11.3334 38.0852 11.3197 38.1488 11.3197 38.2132C11.3197 38.2776 11.3334 38.3412 11.3599 38.3999C11.379 38.5129 11.4379 38.6153 11.5259 38.6887C11.614 38.762 11.7253 38.8015 11.8399 38.7999L13.3066 38.5332L13.7333 40.6132C13.7467 40.7287 13.804 40.8347 13.8933 40.9091C13.9827 40.9836 14.0972 41.0208 14.2133 41.0132C14.3427 40.9844 14.4568 40.9083 14.5333 40.7999C14.5608 40.677 14.5608 40.5495 14.5333 40.4265L14.1066 38.3465L15.3333 38.1332C15.4552 38.1032 15.5605 38.0266 15.6266 37.9199C15.6531 37.8612 15.6668 37.7976 15.6668 37.7332C15.6668 37.6688 15.6531 37.6052 15.6266 37.5465C15.6598 37.4802 15.678 37.4074 15.6799 37.3332Z" fill="#FFC93E"/>
<path d="M15.2265 27.2533C15.4324 27.0579 15.5923 26.8193 15.6948 26.5547C15.7974 26.2901 15.84 26.006 15.8196 25.7229C15.7992 25.4398 15.7163 25.1648 15.5769 24.9176C15.4374 24.6704 15.2449 24.4572 15.0132 24.2933C14.7608 24.1579 14.4738 24.1007 14.1888 24.1292C13.9038 24.1577 13.6337 24.2706 13.4132 24.4533C13.2375 24.5636 13.0888 24.7119 12.9781 24.8873C12.8673 25.0627 12.7973 25.2607 12.7732 25.4667C12.7937 25.925 12.9951 26.3566 13.3332 26.6667C12.945 26.5941 12.5619 26.4961 12.1865 26.3733C11.1732 26.0533 10.1065 25.7333 9.51987 26.5867C9.44751 26.7221 9.40965 26.8732 9.40965 27.0267C9.40965 27.1802 9.44751 27.3313 9.51987 27.4667C9.69582 27.9041 9.99159 28.2831 10.3732 28.56H10.1332C9.82914 28.6943 9.55749 28.8924 9.33665 29.1409C9.11582 29.3893 8.95094 29.6823 8.8532 30C8.8267 30.0587 8.81299 30.1223 8.81299 30.1867C8.81299 30.251 8.8267 30.3147 8.8532 30.3733C8.93506 30.482 9.04601 30.5652 9.1732 30.6133H9.30654C9.41038 30.6163 9.51208 30.5834 9.5946 30.5203C9.67712 30.4572 9.73547 30.3677 9.75987 30.2667C9.89379 29.9121 10.1621 29.6247 10.5065 29.4667C10.9704 29.2904 11.4827 29.2904 11.9465 29.4667L12.2132 29.6H12.4265L12.8532 29.7867C12.9704 29.8437 13.1051 29.8534 13.2293 29.8136C13.3535 29.7739 13.4575 29.6878 13.5199 29.5733C13.5452 29.476 13.541 29.3732 13.5078 29.2782C13.4745 29.1833 13.4138 29.1003 13.3332 29.04C13.014 28.8839 12.6843 28.7503 12.3465 28.64C11.5969 28.3528 10.948 27.8521 10.4799 27.2C10.4799 27.2 11.4132 27.2 11.9465 27.4133C12.7259 27.7206 13.5644 27.8482 14.3999 27.7867C14.7026 28.0402 14.9557 28.3476 15.1465 28.6933C15.2288 28.8776 15.2358 29.0867 15.166 29.276C15.0963 29.4653 14.9553 29.6199 14.7732 29.7067C14.6557 29.7595 14.5628 29.855 14.5133 29.9739C14.4637 30.0928 14.4613 30.2261 14.5065 30.3467C14.5645 30.4661 14.665 30.5597 14.7883 30.609C14.9116 30.6583 15.0488 30.6599 15.1732 30.6133C15.5852 30.4169 15.903 30.0659 16.0578 29.6366C16.2126 29.2072 16.1918 28.7341 15.9999 28.32C15.8354 27.9054 15.5695 27.5386 15.2265 27.2533ZM13.9732 25.28C14.0887 25.1899 14.2274 25.1344 14.3732 25.12H14.5065C14.624 25.2147 14.7151 25.3381 14.7711 25.4782C14.8272 25.6183 14.8463 25.7704 14.8265 25.92C14.8266 26.0405 14.7976 26.1592 14.7419 26.266C14.6861 26.3728 14.6054 26.4645 14.5065 26.5333C14.2132 26.24 13.7332 25.76 13.7599 25.52C13.7865 25.28 13.8932 25.3333 13.9732 25.28Z" fill="#FFC93E"/>
<path d="M22.5064 17.9464L21.5198 17.5197C21.3807 17.4603 21.231 17.4297 21.0798 17.4297C20.9285 17.4297 20.7789 17.4603 20.6398 17.5197C20.5066 17.5939 20.3919 17.6972 20.3042 17.8218C20.2164 17.9465 20.158 18.0893 20.1331 18.2397V18.9331C20.0064 18.8803 19.8704 18.8531 19.7331 18.8531C19.5958 18.8531 19.4599 18.8803 19.3331 18.9331C19.1642 19.0005 19.0148 19.1089 18.8984 19.2486C18.782 19.3883 18.7023 19.5548 18.6664 19.7331L18.4798 20.5064C18.3452 20.4477 18.1999 20.4174 18.0531 20.4174C17.9063 20.4174 17.761 20.4477 17.6264 20.5064C17.4448 20.5649 17.2833 20.6735 17.1606 20.8198C17.038 20.966 16.9591 21.144 16.9331 21.3331L16.4798 22.9597C16.441 23.0812 16.441 23.2116 16.4798 23.3331C16.5512 23.4348 16.6544 23.5098 16.7731 23.5464H16.9064C17.0127 23.5431 17.1148 23.5047 17.1969 23.4372C17.2789 23.3696 17.3362 23.2767 17.3598 23.1731L17.8131 21.5731C17.9642 21.5966 18.1187 21.5873 18.2659 21.5459C18.4131 21.5045 18.5497 21.4319 18.6664 21.3331C18.7975 21.266 18.9127 21.1719 19.0047 21.057C19.0966 20.9421 19.1631 20.8089 19.1998 20.6664L19.3864 19.8931C19.6608 20.0002 19.9654 20.0002 20.2398 19.8931C20.3627 19.8162 20.4687 19.7151 20.5512 19.5958C20.6337 19.4766 20.6911 19.3419 20.7198 19.1997L20.8531 18.5064L21.8664 18.9064C21.9251 18.9329 21.9887 18.9466 22.0531 18.9466C22.1175 18.9466 22.1811 18.9329 22.2398 18.9064C22.3427 18.9307 22.4508 18.9204 22.5472 18.877C22.6437 18.8336 22.7231 18.7596 22.7731 18.6664C22.7996 18.6077 22.8133 18.5441 22.8133 18.4797C22.8133 18.4154 22.7996 18.3517 22.7731 18.2931C22.7671 18.2156 22.7387 18.1416 22.6914 18.0801C22.644 18.0185 22.5798 17.9721 22.5064 17.9464Z" fill="#FFC93E"/>
<path d="M15.7865 19.0936C15.9161 19.1534 16.0571 19.1843 16.1998 19.1843C16.3425 19.1843 16.4836 19.1534 16.6132 19.0936C16.7442 19.0265 16.8594 18.9324 16.9514 18.8175C17.0433 18.7026 17.1098 18.5695 17.1465 18.4269L17.3598 17.6536C17.4981 17.6977 17.6442 17.7125 17.7885 17.6968C17.9329 17.6811 18.0723 17.6353 18.1979 17.5625C18.3235 17.4896 18.4325 17.3913 18.5178 17.2738C18.6031 17.1563 18.6628 17.0222 18.6932 16.8803V16.1869L19.6798 16.5869C19.7392 16.6129 19.8032 16.6265 19.8679 16.6271C19.9327 16.6277 19.9969 16.6151 20.0567 16.5902C20.1165 16.5653 20.1707 16.5285 20.2159 16.4821C20.2611 16.4357 20.2965 16.3807 20.3198 16.3203C20.3574 16.2031 20.3511 16.0762 20.3021 15.9633C20.253 15.8505 20.1645 15.7593 20.0532 15.7069L19.4132 15.2003C19.2706 15.1361 19.1148 15.1067 18.9587 15.1145C18.8025 15.1224 18.6505 15.1672 18.515 15.2453C18.3796 15.3234 18.2647 15.4326 18.1798 15.5639C18.0948 15.6951 18.0423 15.8447 18.0265 16.0003V16.6936C17.761 16.5882 17.4653 16.5882 17.1998 16.6936C17.0785 16.7595 16.9728 16.8508 16.89 16.9612C16.8071 17.0717 16.7491 17.1987 16.7198 17.3336L16.5065 18.1069C16.3769 18.0471 16.2359 18.0162 16.0932 18.0162C15.9504 18.0162 15.8094 18.0471 15.6798 18.1069C15.5525 18.1724 15.4397 18.2627 15.3481 18.3727C15.2565 18.4827 15.1879 18.6099 15.1465 18.7469L14.7198 20.3736C14.6997 20.4349 14.6929 20.4998 14.6999 20.5639C14.7069 20.628 14.7275 20.6899 14.7603 20.7454C14.7931 20.8009 14.8374 20.8488 14.8902 20.8859C14.943 20.9229 15.0031 20.9483 15.0665 20.9603C15.1761 20.9583 15.2822 20.9209 15.3687 20.8536C15.4553 20.7863 15.5176 20.6927 15.5465 20.5869L15.9732 18.9869L15.7865 19.0936Z" fill="#FFC93E"/>
<path d="M24.0002 12.7197C24.62 13.0311 25.1108 13.5501 25.3869 14.1864H25.0669C24.2402 14.4264 24.0802 14.4531 24.1335 14.8264C24.1389 14.9192 24.1765 15.0073 24.2398 15.0754C24.303 15.1435 24.388 15.1875 24.4802 15.1997H24.6669L25.4935 14.9864C25.4974 15.7218 25.3428 16.4494 25.0402 17.1197C25.0091 17.1709 24.9898 17.2285 24.9839 17.2881C24.978 17.3478 24.9856 17.408 25.0061 17.4643C25.0265 17.5206 25.0594 17.5716 25.1022 17.6135C25.1451 17.6554 25.1968 17.6872 25.2535 17.7064C25.348 17.719 25.444 17.6996 25.5262 17.6512C25.6084 17.6029 25.672 17.5284 25.7069 17.4397C26.1121 16.6119 26.2959 15.6931 26.2402 14.7731H26.7202C27.1441 15.6889 27.8191 16.4656 28.6669 17.0131C28.7461 17.0881 28.8511 17.1299 28.9602 17.1299C29.0693 17.1299 29.1743 17.0881 29.2535 17.0131C29.2947 16.9733 29.3274 16.9256 29.3497 16.8729C29.3721 16.8203 29.3836 16.7636 29.3836 16.7064C29.3836 16.6492 29.3721 16.5925 29.3497 16.5399C29.3274 16.4872 29.2947 16.4395 29.2535 16.3997C28.579 15.9704 28.0277 15.3731 27.6535 14.6664L28.6135 14.4264C28.6681 14.4111 28.7191 14.385 28.7634 14.3498C28.8078 14.3146 28.8447 14.2709 28.872 14.2212C28.8994 14.1716 28.9165 14.117 28.9225 14.0607C28.9285 14.0043 28.9232 13.9473 28.9069 13.8931C28.8946 13.8395 28.8715 13.7891 28.8389 13.7449C28.8063 13.7007 28.7649 13.6637 28.7174 13.6361C28.6698 13.6086 28.6172 13.5912 28.5626 13.5849C28.508 13.5787 28.4527 13.5837 28.4002 13.5997L27.3869 13.8397C27.302 13.1455 27.4726 12.4441 27.8669 11.8664C27.9437 11.7828 27.9863 11.6733 27.9863 11.5597C27.9863 11.4462 27.9437 11.3367 27.8669 11.2531C27.8271 11.2119 27.7794 11.1792 27.7268 11.1569C27.6741 11.1346 27.6174 11.123 27.5602 11.123C27.503 11.123 27.4464 11.1346 27.3937 11.1569C27.341 11.1792 27.2933 11.2119 27.2535 11.2531C26.7096 12.0286 26.4809 12.9818 26.6135 13.9197H26.2135C26.2251 13.858 26.2251 13.7948 26.2135 13.7331C25.8513 12.8771 25.1869 12.1842 24.3469 11.7864C24.295 11.7606 24.2381 11.7464 24.1802 11.7448C24.1223 11.7432 24.0647 11.7542 24.0114 11.777C23.9582 11.7998 23.9105 11.834 23.8717 11.877C23.833 11.9201 23.804 11.971 23.7869 12.0264C23.7391 12.0811 23.7061 12.1472 23.691 12.2182C23.6759 12.2893 23.6791 12.363 23.7005 12.4325C23.7219 12.5019 23.7606 12.5647 23.8131 12.615C23.8655 12.6653 23.9299 12.7013 24.0002 12.7197Z" fill="#FFC93E"/>
<path d="M39.9469 41.7596L32.7202 33.7329L33.3869 44.5063L31.6802 33.8663L26.4002 43.2796L30.7202 33.3863L21.2002 38.4796L30.1602 32.4796L19.4136 31.5996L30.2136 31.4129L21.6269 24.8529L30.8002 30.5329L27.1469 20.3996L31.7869 30.1329L34.1869 19.5996L32.8269 30.3196L40.5336 22.7463L33.6269 31.0396L44.1869 28.8263L33.8936 32.0529L43.9469 35.9196L33.5469 33.0663L39.9469 41.7596Z" fill="#FFC93E"/>
</g>
<defs>
<clipPath id="clip0_3089_1998">
<rect width="64" height="64" fill="white"/>
</clipPath>
</defs>
</svg>
