<svg width="65" height="32" viewBox="0 0 65 32" fill="none" xmlns="http://www.w3.org/2000/svg">
<g clip-path="url(#clip0_5044_4032)">
<path d="M40.4975 24.2442L40.3136 24.4281C40.1261 24.6156 39.8717 24.721 39.6065 24.721C39.3413 24.721 39.087 24.6156 38.8994 24.4281L35.2649 20.7935L36.863 19.1955L40.4975 22.83C40.685 23.0175 40.7904 23.2719 40.7904 23.5371C40.7904 23.8023 40.685 24.0567 40.4975 24.2442Z" fill="#7E46E8"/>
<path d="M36.8582 19.2082L35.2672 20.7992L34.4682 20.0002L36.8582 17.6101C37.0701 17.8221 37.1892 18.1095 37.1892 18.4092C37.1892 18.7089 37.0701 18.9963 36.8582 19.2082Z" fill="#7E46E8"/>
<path d="M29.6698 15.2105L34.4598 20.0005L36.0598 18.4105L31.2698 13.6105C31.2698 13.6105 26.5498 12.0905 25.2698 8.46047L23.5898 6.73047C23.5898 6.73047 23.2798 12.0005 29.6698 15.2105Z" fill="#767FEC"/>
<path d="M36.0619 21.5971L37.6599 19.999L36.8609 19.2L35.2628 20.7981L36.0619 21.5971Z" fill="#552CA1"/>
<path d="M27.9248 19.2139L29.5229 20.8119L25.8883 24.4465C25.7008 24.634 25.4464 24.7394 25.1812 24.7394C24.916 24.7394 24.6617 24.634 24.4741 24.4465L24.2903 24.2626C24.1027 24.0751 23.9974 23.8207 23.9974 23.5555C23.9974 23.2903 24.1027 23.0359 24.2903 22.8484L27.9248 19.2139Z" fill="#7E46E8"/>
<path d="M27.9285 17.6025L30.3256 19.9996L29.5265 20.7987L27.9285 19.2006C27.7166 18.9887 27.5975 18.7013 27.5975 18.4016C27.5975 18.1019 27.7166 17.8145 27.9285 17.6025Z" fill="#7E46E8"/>
<path d="M35.12 15.2105L30.33 20.0005L28.75 18.4105L33.54 13.6105C33.54 13.6105 38.26 12.0905 39.54 8.46047L41.26 6.73047C41.26 6.73047 41.51 12.0005 35.12 15.2105Z" fill="#9298F0"/>
<path d="M29.5282 20.809L27.9302 19.2109L27.1311 20.01L28.7292 21.608L29.5282 20.809Z" fill="#552CA1"/>
</g>
<defs>
<clipPath id="clip0_5044_4032">
<rect width="24" height="24" fill="white" transform="translate(20.75 4)"/>
</clipPath>
</defs>
</svg>
