<svg width="65" height="32" viewBox="0 0 65 32" fill="none" xmlns="http://www.w3.org/2000/svg">
<g clip-path="url(#clip0_3089_1975)">
<g clip-path="url(#clip1_3089_1975)">
<path d="M35.25 14.9996H34.98C34.58 13.5196 33.92 13.5196 33.52 14.9996H32.98C32.58 13.5196 31.92 13.5196 31.52 14.9996H30.98C30.58 13.5196 29.92 13.5196 29.52 14.9996H29.25C28.9848 14.9996 28.7304 15.105 28.5429 15.2925C28.3554 15.4801 28.25 15.7344 28.25 15.9996V23.9996C28.25 24.2649 28.3554 24.5192 28.5429 24.7068C28.7304 24.8943 28.9848 24.9996 29.25 24.9996H30.75V20.9996C30.75 20.6018 30.908 20.2203 31.1893 19.939C31.4706 19.6577 31.8522 19.4996 32.25 19.4996C32.6478 19.4996 33.0294 19.6577 33.3107 19.939C33.592 20.2203 33.75 20.6018 33.75 20.9996V24.9996H35.25C35.5152 24.9996 35.7696 24.8943 35.9571 24.7068C36.1446 24.5192 36.25 24.2649 36.25 23.9996V15.9996C36.25 15.7344 36.1446 15.4801 35.9571 15.2925C35.7696 15.105 35.5152 14.9996 35.25 14.9996Z" fill="#252FB5"/>
<path d="M34.25 21V25H33.25V21C33.25 20.7348 33.1446 20.4804 32.9571 20.2929C32.7696 20.1054 32.5152 20 32.25 20C31.9848 20 31.7304 20.1054 31.5429 20.2929C31.3554 20.4804 31.25 20.7348 31.25 21V25H30.25V21C30.25 20.4696 30.4607 19.9609 30.8358 19.5858C31.2109 19.2107 31.7196 19 32.25 19C32.7804 19 33.2891 19.2107 33.6642 19.5858C34.0393 19.9609 34.25 20.4696 34.25 21Z" fill="#FFC93E"/>
<path d="M26.25 12H22.25C21.6977 12 21.25 12.4477 21.25 13V24C21.25 24.5523 21.6977 25 22.25 25H26.25C26.8023 25 27.25 24.5523 27.25 24V13C27.25 12.4477 26.8023 12 26.25 12Z" fill="#252FB5"/>
<path d="M42.25 12H38.25C37.6977 12 37.25 12.4477 37.25 13V24C37.25 24.5523 37.6977 25 38.25 25H42.25C42.8023 25 43.25 24.5523 43.25 24V13C43.25 12.4477 42.8023 12 42.25 12Z" fill="#252FB5"/>
<path d="M42.99 8.06969C42.59 6.54969 41.93 6.54969 41.52 8.06969H40.98C40.58 6.58969 39.92 6.58969 39.52 8.06969H38.98C38.57 6.57969 37.91 6.57969 37.51 8.06969C37.4326 8.11204 37.3677 8.17413 37.3221 8.24965C37.2764 8.32518 37.2515 8.41144 37.25 8.49969V9.99969C37.25 10.2649 37.3554 10.5193 37.5429 10.7068C37.7304 10.8943 37.9848 10.9997 38.25 10.9997H42.25C42.5152 10.9997 42.7696 10.8943 42.9571 10.7068C43.1446 10.5193 43.25 10.2649 43.25 9.99969V8.49969C43.2485 8.41144 43.2236 8.32518 43.1779 8.24965C43.1323 8.17413 43.0674 8.11204 42.99 8.06969Z" fill="#252FB5"/>
<path d="M26.9901 8.06953C26.5901 6.54953 25.9301 6.54953 25.5201 8.06953H24.9801C24.5801 6.58953 23.9201 6.58953 23.5201 8.06953H22.9801C22.5701 6.50953 21.9101 6.50953 21.5101 7.99953C21.4215 8.04707 21.3494 8.12021 21.303 8.2094C21.2566 8.2986 21.2382 8.39971 21.2501 8.49953V9.99953C21.2501 10.2647 21.3555 10.5191 21.543 10.7066C21.7306 10.8942 21.9849 10.9995 22.2501 10.9995H26.2501C26.5153 10.9995 26.7697 10.8942 26.9572 10.7066C27.1448 10.5191 27.2501 10.2647 27.2501 9.99953V8.49953C27.2486 8.41128 27.2237 8.32502 27.1781 8.24949C27.1324 8.17397 27.0676 8.11188 26.9901 8.06953Z" fill="#252FB5"/>
<path d="M27.25 9H21.25V10H27.25V9Z" fill="#FFC93E"/>
<path d="M43.25 9H37.25V10H43.25V9Z" fill="#FFC93E"/>
<path d="M24.96 9L23.96 10H22.25L23.25 9H24.96Z" fill="#FFDF8B"/>
<path d="M40.96 9L39.96 10H38.25L39.25 9H40.96Z" fill="#FFDF8B"/>
<path d="M31.25 21V23.62L30.25 24.62V22L31.25 21Z" fill="#FFDF8B"/>
<path d="M33.25 21.6297V20.9997C33.25 20.7345 33.1446 20.4801 32.9571 20.2926C32.7696 20.105 32.5152 19.9997 32.25 19.9997L33.07 19.1797C33.3736 19.3098 33.6403 19.513 33.8462 19.7713C34.0521 20.0295 34.1908 20.3347 34.25 20.6597L33.25 21.6297Z" fill="#FFDF8B"/>
<path d="M23.25 13.5C23.25 13.2239 23.0261 13 22.75 13C22.4739 13 22.25 13.2239 22.25 13.5V14.5C22.25 14.7761 22.4739 15 22.75 15C23.0261 15 23.25 14.7761 23.25 14.5V13.5Z" fill="#5058C4"/>
<path d="M23.25 16.5C23.25 16.2239 23.0261 16 22.75 16C22.4739 16 22.25 16.2239 22.25 16.5V19.5C22.25 19.7761 22.4739 20 22.75 20C23.0261 20 23.25 19.7761 23.25 19.5V16.5Z" fill="#5058C4"/>
<path d="M39.25 13.5C39.25 13.2239 39.0261 13 38.75 13C38.4739 13 38.25 13.2239 38.25 13.5V14.5C38.25 14.7761 38.4739 15 38.75 15C39.0261 15 39.25 14.7761 39.25 14.5V13.5Z" fill="#5058C4"/>
<path d="M39.25 16.5C39.25 16.2239 39.0261 16 38.75 16C38.4739 16 38.25 16.2239 38.25 16.5V19.5C38.25 19.7761 38.4739 20 38.75 20C39.0261 20 39.25 19.7761 39.25 19.5V16.5Z" fill="#5058C4"/>
</g>
</g>
<defs>
<clipPath id="clip0_3089_1975">
<rect x="0.25" width="64" height="32" rx="16" fill="white"/>
</clipPath>
<clipPath id="clip1_3089_1975">
<rect width="24" height="24" fill="white" transform="translate(20.25 4)"/>
</clipPath>
</defs>
</svg>
