<svg width="65" height="32" viewBox="0 0 65 32" fill="none" xmlns="http://www.w3.org/2000/svg">
<g clip-path="url(#clip0_5044_4048)">
<path d="M41.0699 18.85C41.0917 18.9933 41.082 19.1397 41.0416 19.2789C41.0012 19.4181 40.931 19.5469 40.8359 19.6563C40.7407 19.7657 40.623 19.8531 40.4907 19.9124C40.3585 19.9718 40.2149 20.0017 40.0699 20H39.2499C39.3472 18.5315 39.0108 17.0668 38.2826 15.7879C37.5544 14.5089 36.4665 13.4722 35.154 12.8063C33.8415 12.1405 32.3623 11.875 30.9002 12.0428C29.4381 12.2105 28.0575 12.8042 26.9299 13.75C26.6424 13.9843 26.3779 14.2455 26.1399 14.53L23.7699 8.36003C23.7113 8.20797 23.6906 8.04388 23.7099 7.88203C23.7291 7.72019 23.7876 7.56549 23.8803 7.43142C23.9729 7.29734 24.097 7.18795 24.2416 7.11276C24.3862 7.03758 24.547 6.99887 24.7099 7.00002H39.2499L41.0699 18.85Z" fill="#E8A847"/>
<path d="M41.25 7H39.25V8H41.25V7Z" fill="#E8A847"/>
<path d="M41.25 7H39.25V8H41.25V7Z" fill="#E8A847"/>
<path d="M42.25 7L42.2498 6.97778C42.2311 6.12265 41.1053 7 40.25 7C40.25 7.55228 40.6977 8 41.25 8C41.8023 8 42.25 7.55228 42.25 7Z" fill="#E8A847"/>
<path d="M36.75 10H28.75C28.4739 10 28.25 10.2239 28.25 10.5C28.25 10.7761 28.4739 11 28.75 11H36.75C37.0261 11 37.25 10.7761 37.25 10.5C37.25 10.2239 37.0261 10 36.75 10Z" fill="#F1CB91"/>
<path d="M23.75 8H41.25C41.25 8.26522 41.1446 8.51957 40.9571 8.70711C40.7696 8.89464 40.5152 9 40.25 9H23.75C23.6174 9 23.4902 8.94732 23.3964 8.85355C23.3027 8.75979 23.25 8.63261 23.25 8.5C23.25 8.36739 23.3027 8.24021 23.3964 8.14645C23.4902 8.05268 23.6174 8 23.75 8Z" fill="#FFC93E"/>
<path d="M33.96 8L32.96 9H31.25L32.25 8H33.96Z" fill="#FFDF8B"/>
<path d="M36.73 15.3198C35.9033 14.3354 34.8033 13.6183 33.5691 13.259C32.3349 12.8998 31.0219 12.9145 29.7961 13.3014C28.5703 13.6883 27.4867 14.4299 26.6823 15.4326C25.8779 16.4353 25.3889 17.6539 25.2771 18.9345C25.1653 20.215 25.4356 21.5 26.054 22.6269C26.6724 23.7538 27.611 24.6721 28.7512 25.2656C29.8914 25.8591 31.182 26.1013 32.4597 25.9614C33.7375 25.8215 34.9452 25.3059 35.93 24.4798C36.5842 23.931 37.1238 23.2587 37.5181 22.5013C37.9123 21.7439 38.1535 20.9162 38.2278 20.0655C38.3021 19.2149 38.208 18.3579 37.951 17.5436C37.694 16.7293 37.2791 15.9737 36.73 15.3198ZM37.25 19.4798L33.03 19.1098L36.25 16.3798C36.8933 17.2861 37.2424 18.3684 37.25 19.4798ZM31.39 18.2498L28.63 14.9998C29.5395 14.3628 30.6197 14.0143 31.73 13.9998L31.39 18.2498ZM32.17 20.7498L34.87 23.9998C33.9605 24.6368 32.8803 24.9852 31.77 24.9998L32.17 20.7498ZM35.62 15.6398L32.35 18.3398L32.72 14.0898C33.818 14.2857 34.8299 14.8126 35.62 15.5998V15.6398ZM27.9 15.6498L30.63 18.8998L26.4 18.5298C26.5858 17.4447 27.0946 16.441 27.86 15.6498H27.9ZM26.25 19.5198L30.47 19.8898L27.25 22.6198C26.6067 21.7134 26.2576 20.6312 26.25 19.5198ZM27.85 23.3998L31.12 20.6598L30.75 24.9098C29.6627 24.7081 28.662 24.1817 27.88 23.3998H27.85ZM35.61 23.3498L32.91 20.0998L37.14 20.4698C36.943 21.5595 36.42 22.5637 35.64 23.3498H35.61Z" fill="#680B1A"/>
<path d="M31.75 20C32.0261 20 32.25 19.7761 32.25 19.5C32.25 19.2239 32.0261 19 31.75 19C31.4739 19 31.25 19.2239 31.25 19.5C31.25 19.7761 31.4739 20 31.75 20Z" fill="#E8A847"/>
</g>
<defs>
<clipPath id="clip0_5044_4048">
<rect width="24" height="24" fill="white" transform="translate(20.25 4)"/>
</clipPath>
</defs>
</svg>
