<svg width="65" height="32" viewBox="0 0 65 32" fill="none" xmlns="http://www.w3.org/2000/svg">
<g clip-path="url(#clip0_3089_1948)">
<path d="M38.7998 26.0002H27.6498C27.401 26.0015 27.1607 25.91 26.9758 25.7435C26.7909 25.5771 26.6747 25.3478 26.6498 25.1002L24.8598 8.00024C24.8401 7.74123 24.922 7.48472 25.0881 7.28501C25.2542 7.0853 25.4915 6.95807 25.7498 6.93024L39.5898 6.07024C39.7304 6.0616 39.8712 6.08276 40.0031 6.13233C40.1349 6.18191 40.2548 6.25878 40.3549 6.35791C40.455 6.45704 40.533 6.5762 40.5838 6.70757C40.6346 6.83894 40.6571 6.97957 40.6498 7.12024L39.7598 25.0502C39.7475 25.2999 39.6421 25.536 39.4644 25.7118C39.2867 25.8876 39.0496 25.9905 38.7998 26.0002Z" fill="#E8A847"/>
<path d="M40.38 13.3701L39.8 25.0501C39.7872 25.3066 39.6762 25.5483 39.49 25.7251C39.3038 25.902 39.0568 26.0004 38.8 26.0001H27.75L40.38 13.3701Z" fill="#F1CB91"/>
<path d="M30.75 23V24.5C30.75 24.6326 30.6973 24.7598 30.6036 24.8536C30.5098 24.9473 30.3826 25 30.25 25C30.1174 25 29.9902 24.9473 29.8964 24.8536C29.8027 24.7598 29.75 24.6326 29.75 24.5V24L30.75 23Z" fill="#F1CB91"/>
<path d="M38.75 17.5C38.75 17.6326 38.6973 17.7598 38.6036 17.8536C38.5098 17.9473 38.3826 18 38.25 18H35.75L36.75 17H38.25C38.3826 17 38.5098 17.0527 38.6036 17.1464C38.6973 17.2402 38.75 17.3674 38.75 17.5Z" fill="#D6985D"/>
<path d="M38.25 15.9996H37.75L38.61 15.1396C38.6971 15.2397 38.7467 15.367 38.75 15.4996C38.75 15.6323 38.6973 15.7594 38.6036 15.8532C38.5098 15.947 38.3826 15.9996 38.25 15.9996Z" fill="#D6985D"/>
<path d="M39.8499 8H34.6499L36.7499 11.63V13.5C36.7499 13.6326 36.8026 13.7598 36.8963 13.8536C36.9901 13.9473 37.1173 14 37.2499 14C37.3825 14 37.5097 13.9473 37.6035 13.8536C37.6972 13.7598 37.7499 13.6326 37.7499 13.5V11.63L39.8499 8Z" fill="#CC7E35"/>
<path d="M32.8499 19H27.6499L29.7499 22.63V24.5C29.7499 24.6326 29.8026 24.7598 29.8963 24.8536C29.9901 24.9473 30.1173 25 30.2499 25C30.3825 25 30.5097 24.9473 30.6035 24.8536C30.6972 24.7598 30.7499 24.6326 30.7499 24.5V22.63L32.8499 19Z" fill="#CC7E35"/>
<path d="M30.75 23V24.5C30.75 24.6326 30.6973 24.7598 30.6036 24.8536C30.5098 24.9473 30.3826 25 30.25 25C30.1174 25 29.9902 24.9473 29.8964 24.8536C29.8027 24.7598 29.75 24.6326 29.75 24.5V24L30.75 23Z" fill="#D6985D"/>
<path d="M31.75 16C31.75 16.5304 31.5393 17.0391 31.1642 17.4142C30.7891 17.7893 30.2804 18 29.75 18C29.2196 18 28.7109 17.7893 28.3358 17.4142C27.9607 17.0391 27.75 16.5304 27.75 16H31.75Z" fill="#CC7E35"/>
<path d="M31.75 13C31.75 13.5304 31.5393 14.0391 31.1642 14.4142C30.7891 14.7893 30.2804 15 29.75 15C29.2196 15 28.7109 14.7893 28.3358 14.4142C27.9607 14.0391 27.75 13.5304 27.75 13H31.75Z" fill="#CC7E35"/>
<path d="M30.25 10H27.25C26.9739 10 26.75 10.2239 26.75 10.5C26.75 10.7761 26.9739 11 27.25 11H30.25C30.5261 11 30.75 10.7761 30.75 10.5C30.75 10.2239 30.5261 10 30.25 10Z" fill="#CC7E35"/>
<path d="M30.25 8H27.25C26.9739 8 26.75 8.22386 26.75 8.5C26.75 8.77614 26.9739 9 27.25 9H30.25C30.5261 9 30.75 8.77614 30.75 8.5C30.75 8.22386 30.5261 8 30.25 8Z" fill="#CC7E35"/>
<path d="M38.25 17H35.25C34.9739 17 34.75 17.2239 34.75 17.5C34.75 17.7761 34.9739 18 35.25 18H38.25C38.5261 18 38.75 17.7761 38.75 17.5C38.75 17.2239 38.5261 17 38.25 17Z" fill="#CC7E35"/>
<path d="M38.25 15H35.25C34.9739 15 34.75 15.2239 34.75 15.5C34.75 15.7761 34.9739 16 35.25 16H38.25C38.5261 16 38.75 15.7761 38.75 15.5C38.75 15.2239 38.5261 15 38.25 15Z" fill="#CC7E35"/>
<path d="M38.75 17.5C38.75 17.6326 38.6973 17.7598 38.6036 17.8536C38.5098 17.9473 38.3826 18 38.25 18H35.75L36.75 17H38.25C38.3826 17 38.5098 17.0527 38.6036 17.1464C38.6973 17.2402 38.75 17.3674 38.75 17.5Z" fill="#D6985D"/>
<path d="M38.75 15.4996C38.75 15.6323 38.6973 15.7594 38.6036 15.8532C38.5098 15.947 38.3826 15.9996 38.25 15.9996H37.75L38.61 15.1396C38.6971 15.2397 38.7467 15.367 38.75 15.4996Z" fill="#D6985D"/>
<path d="M36.75 25C37.3023 25 37.75 24.5523 37.75 24C37.75 23.4477 37.3023 23 36.75 23C36.1977 23 35.75 23.4477 35.75 24C35.75 24.5523 36.1977 25 36.75 25Z" fill="#D6985D"/>
<path d="M36.75 22C37.3023 22 37.75 21.5523 37.75 21C37.75 20.4477 37.3023 20 36.75 20C36.1977 20 35.75 20.4477 35.75 21C35.75 21.5523 36.1977 22 36.75 22Z" fill="#D6985D"/>
<path d="M32.75 12C33.3023 12 33.75 11.5523 33.75 11C33.75 10.4477 33.3023 10 32.75 10C32.1977 10 31.75 10.4477 31.75 11C31.75 11.5523 32.1977 12 32.75 12Z" fill="#CC7E35"/>
</g>
<defs>
<clipPath id="clip0_3089_1948">
<rect width="24" height="24" fill="white" transform="translate(20.75 4)"/>
</clipPath>
</defs>
</svg>
