<svg width="516" height="1032" fill="none" xmlns="http://www.w3.org/2000/svg"><path d="m86 43.002 43 43-43 43-43-43 43-43ZM86 129.002l43 43-43 43-43-43 43-43ZM86 215.002l43 43-43 43-43-43 43-43ZM86 301.002l43 43-43 43-43-43 43-43ZM86 387.002l43 43-43 43-43-43 43-43Z" fill="#6232B8" fill-opacity=".55"/><path d="m86 473.002 43 43-43 43-43-43 43-43ZM86 559.002l43 43-43 43-43-43 43-43ZM86 645.002l43 43-43 43-43-43 43-43ZM86 731.002l43 43-43 43-43-43 43-43ZM86 817.002l43 43-43 43-43-43 43-43ZM86 903.002l43 43-43 43-43-43 43-43ZM172 43.002l43 43-43 43-43-43 43-43ZM172 129.002l43 43-43 43-43-43 43-43ZM172 215.002l43 43-43 43-43-43 43-43ZM172 301.002l43 43-43 43-43-43 43-43ZM172 387.002l43 43-43 43-43-43 43-43Z" fill="#6232B8" fill-opacity=".55"/><path d="m172 473.002 43 43-43 43-43-43 43-43ZM172 559.002l43 43-43 43-43-43 43-43ZM172 645.002l43 43-43 43-43-43 43-43ZM172 731.002l43 43-43 43-43-43 43-43ZM172 817.002l43 43-43 43-43-43 43-43ZM172 903.002l43 43-43 43-43-43 43-43ZM258 43.002l43 43-43 43-43-43 43-43ZM258 129.002l43 43-43 43-43-43 43-43ZM258 215.002l43 43-43 43-43-43 43-43ZM258 301.002l43 43-43 43-43-43 43-43ZM258 387.002l43 43-43 43-43-43 43-43Z" fill="#6232B8" fill-opacity=".55"/><path d="m258 473.002 43 43-43 43-43-43 43-43ZM258 559.002l43 43-43 43-43-43 43-43ZM258 645.002l43 43-43 43-43-43 43-43ZM258 731.002l43 43-43 43-43-43 43-43ZM258 817.002l43 43-43 43-43-43 43-43ZM258 903.002l43 43-43 43-43-43 43-43ZM344 43.002l43 43-43 43-43-43 43-43ZM344 129.002l43 43-43 43-43-43 43-43ZM344 215.002l43 43-43 43-43-43 43-43ZM344 301.002l43 43-43 43-43-43 43-43ZM344 387.002l43 43-43 43-43-43 43-43Z" fill="#6232B8" fill-opacity=".55"/><path d="m344 473.002 43 43-43 43-43-43 43-43ZM344 559.002l43 43-43 43-43-43 43-43ZM344 645.002l43 43-43 43-43-43 43-43ZM344 731.002l43 43-43 43-43-43 43-43ZM344 817.002l43 43-43 43-43-43 43-43ZM344 903.002l43 43-43 43-43-43 43-43ZM430 43.002l43 43-43 43-43-43 43-43ZM516 43.002v86l-43-43 43-43ZM516 129.002v86l-43-43 43-43ZM516 215.002v86l-43-43 43-43ZM516 301.002v86l-43-43 43-43ZM516 387.002v86l-43-43 43-43Z" fill="#6232B8" fill-opacity=".55"/><path d="M516 473.002v86l-43-43 43-43ZM516 559.002v86l-43-43 43-43ZM516 645.002v86l-43-43 43-43ZM516 731.002v86l-43-43 43-43ZM516 817.002v86l-43-43 43-43ZM516 903.002v86l-43-43 43-43Z" fill="#6232B8" fill-opacity=".55"/><path d="M516 989v43h-43l43-43ZM473 1032h-86l43-42.998L473 1032ZM387 1032h-86l43-42.998L387 1032ZM301 1032h-86l43-42.998L301 1032ZM215 1032h-86l43-42.998L215 1032ZM129 1032H43l43-42.998L129 1032ZM43 1032H0v-43l43 43Z" fill="#6232B8" fill-opacity=".55"/><path d="M0 989.002v-86l43 43-43 43ZM0 817.002v-86l43 43-43 43ZM0 645.002v-86l43 43-43 43ZM0 473.002v-86l43 43-43 43ZM0 301.002v-86l43 43-43 43ZM0 129.002v-86l43 43-43 43ZM43 0h86L86 43 43 0ZM215 0h86l-43 43-43-43ZM387 0h86l-43 43-43-43ZM0 903.002v-86l43 43-43 43ZM0 731.002v-86l43 43-43 43Z" fill="#6232B8" fill-opacity=".55"/><path d="M0 559.002v-86l43 43-43 43ZM0 387.002v-86l43 43-43 43ZM0 215.002v-86l43 43-43 43ZM0 43.002v-43h43l-43 43ZM129 0h86l-43 43-43-43ZM301 0h86l-43 43-43-43ZM473 0h43v43L473 0Z" fill="#6232B8" fill-opacity=".55"/><path d="m43 .002 43 43-43 43-43-43 43-43Z" fill="#7E46E8" fill-opacity=".55"/><path d="m43 86.002 43 43-43 43-43-43 43-43ZM43 172.002l43 43-43 43-43-43 43-43ZM43 258.002l43 43-43 43-43-43 43-43ZM43 344.002l43 43-43 43-43-43 43-43Z" fill="#7E46E8" fill-opacity=".55"/><path d="m43 430.002 43 43-43 43-43-43 43-43ZM43 516.002l43 43-43 43-43-43 43-43ZM43 602.002l43 43-43 43-43-43 43-43ZM43 688.002l43 43-43 43-43-43 43-43ZM43 774.002l43 43-43 43-43-43 43-43ZM43 860.002l43 43-43 43-43-43 43-43ZM43 946.002l43 43L43 1032 0 989.002l43-43ZM129 .002l43 43-43 43-43-43 43-43Z" fill="#7E46E8" fill-opacity=".55"/><path d="m129 86.002 43 43-43 43-43-43 43-43ZM129 172.002l43 43-43 43-43-43 43-43ZM129 258.002l43 43-43 43-43-43 43-43ZM129 344.002l43 43-43 43-43-43 43-43Z" fill="#7E46E8" fill-opacity=".55"/><path d="m129 430.002 43 43-43 43-43-43 43-43ZM129 516.002l43 43-43 43-43-43 43-43ZM129 602.002l43 43-43 43-43-43 43-43ZM129 688.002l43 43-43 43-43-43 43-43ZM129 774.002l43 43-43 43-43-43 43-43ZM129 860.002l43 43-43 43-43-43 43-43ZM129 946.002l43 43L129 1032l-43-42.998 43-43ZM215 .002l43 43-43 43-43-43 43-43Z" fill="#7E46E8" fill-opacity=".55"/><path d="m215 86.002 43 43-43 43-43-43 43-43ZM215 172.002l43 43-43 43-43-43 43-43ZM215 258.002l43 43-43 43-43-43 43-43ZM215 344.002l43 43-43 43-43-43 43-43Z" fill="#7E46E8" fill-opacity=".55"/><path d="m215 430.002 43 43-43 43-43-43 43-43ZM215 516.002l43 43-43 43-43-43 43-43ZM215 602.002l43 43-43 43-43-43 43-43ZM215 688.002l43 43-43 43-43-43 43-43ZM215 774.002l43 43-43 43-43-43 43-43ZM215 860.002l43 43-43 43-43-43 43-43ZM215 946.002l43 43L215 1032l-43-42.998 43-43ZM301 .002l43 43-43 43-43-43 43-43Z" fill="#7E46E8" fill-opacity=".55"/><path d="m301 86.002 43 43-43 43-43-43 43-43ZM301 172.002l43 43-43 43-43-43 43-43ZM301 258.002l43 43-43 43-43-43 43-43ZM301 344.002l43 43-43 43-43-43 43-43Z" fill="#7E46E8" fill-opacity=".55"/><path d="m301 430.002 43 43-43 43-43-43 43-43ZM301 516.002l43 43-43 43-43-43 43-43ZM301 602.002l43 43-43 43-43-43 43-43ZM301 688.002l43 43-43 43-43-43 43-43ZM301 774.002l43 43-43 43-43-43 43-43ZM301 860.002l43 43-43 43-43-43 43-43ZM301 946.002l43 43L301 1032l-43-42.998 43-43ZM387 .002l43 43-43 43-43-43 43-43Z" fill="#7E46E8" fill-opacity=".55"/><path d="m387 86.002 43 43-43 43-43-43 43-43ZM387 172.002l43 43-43 43-43-43 43-43ZM387 258.002l43 43-43 43-43-43 43-43ZM387 344.002l43 43-43 43-43-43 43-43Z" fill="#7E46E8" fill-opacity=".55"/><path d="m387 430.002 43 43-43 43-43-43 43-43ZM387 516.002l43 43-43 43-43-43 43-43ZM387 602.002l43 43-43 43-43-43 43-43ZM387 688.002l43 43-43 43-43-43 43-43ZM387 774.002l43 43-43 43-43-43 43-43ZM387 860.002l43 43-43 43-43-43 43-43ZM387 946.002l43 43L387 1032l-43-42.998 43-43ZM473 .002l43 43-43 43-43-43 43-43Z" fill="#7E46E8" fill-opacity=".55"/><path d="m473 86.002 43 43-43 43-43-43 43-43ZM473 172.002l43 43-43 43-43-43 43-43ZM473 258.002l43 43-43 43-43-43 43-43ZM473 344.002l43 43-43 43-43-43 43-43Z" fill="#7E46E8" fill-opacity=".55"/><path d="m473 430.002 43 43-43 43-43-43 43-43ZM473 516.002l43 43-43 43-43-43 43-43ZM473 602.002l43 43-43 43-43-43 43-43ZM473 688.002l43 43-43 43-43-43 43-43ZM473 774.002l43 43-43 43-43-43 43-43ZM473 860.002l43 43-43 43-43-43 43-43ZM473 946.002l43 43L473 1032l-43-42.998 43-43Z" fill="#7E46E8" fill-opacity=".55"/><path d="m430 129.002 43 43-43 43-43-43 43-43ZM430 215.002l43 43-43 43-43-43 43-43ZM430 301.002l43 43-43 43-43-43 43-43ZM430 387.002l43 43-43 43-43-43 43-43Z" fill="#6232B8" fill-opacity=".55"/><path d="m430 473.002 43 43-43 43-43-43 43-43ZM430 559.002l43 43-43 43-43-43 43-43ZM430 645.002l43 43-43 43-43-43 43-43ZM430 731.002l43 43-43 43-43-43 43-43ZM430 817.002l43 43-43 43-43-43 43-43ZM430 903.002l43 43-43 43-43-43 43-43Z" fill="#6232B8" fill-opacity=".55"/></svg>