<svg width="228" height="506" viewBox="0 0 228 506" fill="none" xmlns="http://www.w3.org/2000/svg">
<path d="M189.578 505.697H36.858C32.626 505.697 29.222 501.985 29.268 497.48L31.2 287.6C31.2 238.843 67.908 199.342 113.218 199.342C158.528 199.342 195.236 238.843 195.236 287.6L197.168 497.48C197.168 501.985 193.764 505.697 189.578 505.697Z" fill="#6232B8"/>
<path d="M109.63 505.698L114 343.883L117.91 505.698H109.63Z" fill="#552CA1"/>
<path d="M80.9717 505.698L88.1477 372.098L89.2517 505.698H80.9717Z" fill="#552CA1"/>
<path d="M138.242 505.698L139.898 372.098L146.522 505.698H138.242Z" fill="#552CA1"/>
<path d="M169.89 505.696L162.76 348.336L178.17 505.696H169.89Z" fill="#552CA1"/>
<path d="M49.6001 505.696L65.0101 348.336L57.8801 505.696H49.6001Z" fill="#552CA1"/>
<path d="M220.076 473.572H181.068L171.776 287.799C169.614 257.406 150.248 231.715 123.292 223.003C122.464 222.756 121.59 222.459 120.762 222.261L114.276 220.479L107.238 222.261C106.41 222.508 105.628 222.756 104.8 223.003C77.752 231.666 58.386 257.406 56.224 287.848L46.932 473.622H7.92404C3.60004 473.622 0.196044 469.711 0.426044 465.058C1.99004 437.487 7.37204 347.991 16.48 264.583C19.838 233.745 31.752 208.549 58.018 194.541C61.422 192.709 65.102 191.076 69.012 189.69C74.486 187.71 80.42 186.126 86.952 184.938L113.816 180.037L141.094 184.938C147.442 186.324 153.238 188.007 158.574 190.036C162.438 191.521 166.072 193.155 169.476 194.986C196.11 209.193 208.116 233.547 211.52 264.583C220.628 347.991 226.01 437.536 227.574 465.058C227.804 469.662 224.4 473.572 220.076 473.572Z" fill="#7E46E8"/>
<path d="M169.476 194.937L123.292 223.004L114.092 228.597L104.8 222.954L57.9717 194.492C61.3757 192.66 65.0557 191.027 68.9657 189.641L114.046 217.064L158.528 190.037C162.438 191.472 166.072 193.106 169.476 194.937Z" fill="#6232B8"/>
<g opacity="0.8">
<path d="M77.614 202.362C76.234 203.055 73.06 204.688 71.726 205.332C53.234 214.489 38.928 232.26 32.948 253.248C31.2 259.138 30.418 265.128 29.636 271.266C28.026 283.146 23.886 314.479 22.23 326.706C23.288 314.182 25.91 282.948 26.922 270.919C27.796 251.565 33.96 233.2 45.92 218.449C52.268 210.529 60.088 203.896 68.736 198.996C70.07 198.204 73.152 196.471 74.486 195.729L77.614 202.362Z" fill="#6232B8"/>
</g>
<g opacity="0.8">
<path d="M92.9778 212.162C90.2178 213.795 83.5018 217.805 80.8338 219.339C69.0578 226.17 58.4778 235.823 51.9918 248.495C49.0938 254.088 46.9778 260.177 45.5978 266.463C44.2638 272.007 43.6198 280.175 42.9298 285.917C41.5038 298.589 37.7318 332.051 36.2598 345.119C37.1798 331.754 39.4798 298.49 40.3538 285.62C40.8138 279.63 41.1358 271.463 42.2398 265.671C43.3898 258.989 45.3218 252.455 48.1738 246.317C55.3038 230.625 67.8158 219.488 81.6158 210.924L89.4818 205.727L92.9778 212.162Z" fill="#6232B8"/>
</g>
<g opacity="0.8">
<path d="M153.054 195.729C154.388 196.471 157.516 198.303 158.804 198.996C180.746 211.222 196.57 235.23 199.744 261.564C201.446 278.592 203.746 309.43 205.31 326.706C203.654 314.232 199.514 283.245 197.904 271.266C197.122 265.128 196.34 259.138 194.592 253.248C188.612 232.26 174.306 214.489 155.814 205.332C154.48 204.639 151.306 203.055 149.926 202.362L153.054 195.729Z" fill="#6232B8"/>
</g>
<g opacity="0.8">
<path d="M138.058 205.727C140.772 207.509 147.258 211.865 149.834 213.548C167.958 225.081 181.666 243.05 185.3 265.721C185.898 269.037 186.266 272.403 186.496 275.769C187.784 293.787 189.992 326.853 191.28 345.168C189.164 326.754 185.53 294.134 183.506 276.066C183.138 272.849 182.632 269.631 181.942 266.463C176.836 242.604 162.392 227.705 142.704 216.914L134.608 212.112L138.058 205.727Z" fill="#6232B8"/>
</g>
<path d="M113.678 0.302734C113.678 0.302734 60.1798 31.1412 53.5098 71.0382H113.31H114H173.8C167.176 31.1412 113.678 0.302734 113.678 0.302734Z" fill="#6232B8"/>
<path d="M113.954 33.8633C87.1362 33.8633 62.7102 50.3963 51.0262 76.3343C42.1942 95.9858 34.7882 114.103 29.1302 128.606C21.5402 148.109 28.6702 170.582 45.6902 181.126L114.046 223.349L182.218 181.175C199.238 170.632 206.322 148.159 198.732 128.705C193.074 114.152 185.668 96.0353 176.836 76.3838C165.198 50.3963 140.772 33.8633 113.954 33.8633Z" fill="#7E46E8"/>
<path d="M162.024 82.917C156.274 59.652 136.678 43.416 114.276 43.416C91.8738 43.416 72.2778 59.6025 66.5278 82.917L54.4298 131.724C50.9338 145.782 55.7638 160.632 66.5738 169.344L114.23 207.607L161.932 169.344C172.742 160.682 177.572 145.782 174.076 131.724L162.024 82.917Z" fill="#6232B8"/>
<path d="M114.276 207.905L114.138 207.806L66.4818 169.543C55.5338 160.732 50.7038 145.882 54.2458 131.675L66.3438 82.8682C72.1398 59.5042 91.8278 43.2188 114.322 43.2188C136.816 43.2188 156.504 59.5042 162.3 82.8682L174.398 131.675C177.894 145.882 173.11 160.781 162.162 169.543L114.276 207.905ZM114.276 43.6643C92.0118 43.6643 72.5078 59.8013 66.7578 82.9673L54.6598 131.824C51.2098 145.832 55.9478 160.484 66.7578 169.196L114.276 207.361L161.794 169.196C172.604 160.534 177.342 145.882 173.892 131.824L161.794 83.0168C156.044 59.8508 136.54 43.6643 114.276 43.6643Z" fill="#552CA1"/>
<path d="M114 237.408C123.781 237.408 131.71 228.876 131.71 218.35C131.71 207.825 123.781 199.293 114 199.293C104.219 199.293 96.29 207.825 96.29 218.35C96.29 228.876 104.219 237.408 114 237.408Z" fill="#F5B44F"/>
<path d="M114 238.398C103.742 238.398 95.3701 229.389 95.3701 218.35C95.3701 207.312 103.742 198.303 114 198.303C124.258 198.303 132.63 207.312 132.63 218.35C132.63 229.389 124.258 238.398 114 238.398ZM114 200.332C104.754 200.332 97.2101 208.45 97.2101 218.4C97.2101 228.349 104.754 236.467 114 236.467C123.246 236.467 130.79 228.349 130.79 218.4C130.79 208.45 123.246 200.332 114 200.332Z" fill="#FFDF8B"/>
<path d="M125.592 231.022L115.426 221.023L117.496 235.675L114 221.32L108.388 234.883L112.62 220.775L101.074 228.893L111.746 219.488L97.9463 219.637L111.654 217.904L99.9703 209.984L112.39 216.518L106.548 203.104L113.678 215.776L115.518 201.074L115.15 215.924L124.074 204.589L116.3 216.865L129.502 212.558L116.806 218.35L130.054 222.409L116.484 219.884L125.592 231.022Z" fill="#FFDF8B"/>
<path d="M116.806 271.561L134.562 291.114C136.816 293.638 136.77 297.648 134.47 300.073L105.122 330.912C102.776 333.337 99.0501 333.288 96.7961 330.813L79.0401 311.26C76.7861 308.736 76.8321 304.726 79.1321 302.301L108.48 271.462C110.826 268.987 114.552 269.037 116.806 271.561Z" fill="#767FEC"/>
<path d="M100.982 333.684C100.936 333.684 100.936 333.684 100.89 333.684C99.0502 333.684 97.3482 332.892 96.1062 331.457L78.3502 311.904C77.0622 310.518 76.3722 308.637 76.4182 306.707C76.4182 304.727 77.1542 302.895 78.4882 301.559L107.836 270.72C110.504 267.899 114.874 267.948 117.496 270.869L135.252 290.421C137.874 293.292 137.828 297.995 135.114 300.816L105.72 331.605C104.432 332.991 102.776 333.684 100.982 333.684ZM112.574 270.621C111.332 270.621 110.044 271.116 109.078 272.156L79.7302 302.994C78.7642 303.984 78.2582 305.321 78.2122 306.756C78.2122 308.192 78.7182 309.528 79.6382 310.568L97.3942 330.12C98.3142 331.16 99.5562 331.704 100.89 331.754H100.936C102.224 331.754 103.466 331.209 104.432 330.219L133.78 299.381C135.758 297.302 135.804 293.936 133.872 291.807L116.116 272.255C115.196 271.166 113.908 270.621 112.574 270.621Z" fill="#9298F0"/>
<path d="M123.016 268.145L135.666 291.856C137.276 294.875 136.31 298.786 133.504 300.518L97.9457 322.546C95.1397 324.278 91.5057 323.239 89.8957 320.219L77.1997 296.509C75.5897 293.489 76.5557 289.579 79.3617 287.846L114.92 265.819C117.772 264.086 121.36 265.126 123.016 268.145Z" fill="#767FEC"/>
<path d="M95.0021 324.378C94.4041 324.378 93.806 324.279 93.208 324.131C91.46 323.636 89.988 322.398 89.068 320.715L76.418 297.005C75.498 295.322 75.268 293.342 75.728 291.461C76.188 289.58 77.3381 287.996 78.9021 287.006L114.46 264.978C116.024 263.988 117.864 263.741 119.612 264.236C121.36 264.731 122.832 265.968 123.752 267.651L136.402 291.362C138.288 294.876 137.138 299.381 133.872 301.361L98.3141 323.388C97.3481 324.032 96.1981 324.378 95.0021 324.378ZM117.864 265.968C116.99 265.968 116.162 266.216 115.38 266.661L79.8221 288.689C78.6721 289.382 77.844 290.57 77.476 291.956C77.108 293.342 77.2921 294.777 77.9821 296.015L90.6321 319.725C91.2761 320.963 92.38 321.854 93.668 322.25C94.956 322.646 96.2901 322.448 97.4401 321.705L132.998 299.678C135.39 298.193 136.218 294.926 134.838 292.352L122.188 268.641C121.544 267.404 120.44 266.513 119.152 266.117C118.738 266.018 118.324 265.968 117.864 265.968Z" fill="#9298F0"/>
<path d="M128.582 266.462L136.724 292.35C137.782 295.667 136.126 299.28 133.044 300.419L94.1744 314.576C91.0924 315.714 87.7343 313.932 86.6763 310.616L78.5803 284.678C77.5223 281.361 79.1783 277.748 82.2603 276.609L121.13 262.452C124.212 261.363 127.57 263.145 128.582 266.462Z" fill="#767FEC"/>
<path d="M92.2881 315.914C91.2761 315.914 90.2181 315.666 89.2521 315.171C87.6421 314.28 86.4001 312.795 85.8021 310.964L77.6601 285.075C76.4641 281.264 78.3961 277.056 81.9381 275.769L120.808 261.612C122.51 260.969 124.396 261.117 126.006 262.008C127.616 262.899 128.858 264.384 129.456 266.216L137.598 292.104C138.196 293.985 138.058 295.965 137.23 297.698C136.402 299.43 135.022 300.767 133.32 301.41L94.4501 315.567C93.7601 315.765 93.0241 315.914 92.2881 315.914ZM123.016 263.147C122.464 263.147 121.958 263.246 121.406 263.444L82.536 277.601C79.914 278.541 78.5341 281.61 79.4081 284.382L87.5501 310.271C87.9641 311.607 88.8841 312.746 90.0801 313.34C91.2761 313.983 92.6101 314.082 93.8981 313.637L132.768 299.48C134.01 299.034 135.068 298.044 135.62 296.757C136.172 295.47 136.31 294.035 135.896 292.649L127.754 266.76C127.34 265.424 126.42 264.285 125.224 263.691C124.534 263.345 123.752 263.147 123.016 263.147Z" fill="#9298F0"/>
<path d="M134.47 265.968L137.276 293.144C137.644 296.609 135.298 299.777 132.078 300.173L91.3223 305.073C88.1023 305.469 85.1583 302.945 84.7903 299.48L81.9843 272.304C81.6163 268.839 83.9623 265.671 87.1823 265.275L127.938 260.375C131.204 259.979 134.102 262.503 134.47 265.968Z" fill="#767FEC"/>
<path d="M90.6322 306.113C89.1142 306.113 87.5962 305.568 86.4002 304.529C84.9742 303.291 84.1002 301.559 83.8702 299.628L81.0642 272.453C80.6502 268.443 83.3642 264.78 87.0902 264.335L127.846 259.434C129.64 259.236 131.434 259.781 132.86 261.018C134.286 262.256 135.16 263.988 135.39 265.919L138.196 293.094C138.61 297.104 135.896 300.767 132.17 301.212L91.4142 306.113C91.1842 306.063 90.9082 306.113 90.6322 306.113ZM128.628 261.315C128.444 261.315 128.26 261.315 128.076 261.365L87.3202 266.265C84.6062 266.612 82.6282 269.235 82.9042 272.205L85.7102 299.381C85.8482 300.816 86.4922 302.054 87.5502 302.994C88.6082 303.885 89.8962 304.281 91.2302 304.133L131.986 299.232C134.7 298.886 136.678 296.262 136.402 293.292L133.596 266.117C133.458 264.681 132.814 263.444 131.756 262.503C130.836 261.711 129.732 261.315 128.628 261.315Z" fill="#9298F0"/>
<path d="M140.91 267.751L137.092 294.778C136.586 298.243 133.596 300.619 130.376 300.124L89.804 293.54C86.584 292.996 84.376 289.778 84.836 286.313L88.654 259.286C89.16 255.821 92.15 253.445 95.37 253.94L135.942 260.524C139.162 261.019 141.37 264.286 140.91 267.751Z" fill="#767FEC"/>
<path d="M131.296 301.163C130.974 301.163 130.606 301.113 130.284 301.064L89.7122 294.48C85.9862 293.886 83.4101 290.124 84.0081 286.115L87.8261 259.088C88.1021 257.157 89.0682 255.425 90.5402 254.286C92.0122 253.148 93.8062 252.653 95.6002 252.95L136.172 259.533C137.966 259.83 139.576 260.87 140.634 262.454C141.692 264.038 142.152 265.968 141.876 267.899L138.058 294.926C137.782 296.856 136.816 298.589 135.344 299.727C134.148 300.668 132.722 301.163 131.296 301.163ZM94.4961 254.831C93.4381 254.831 92.4262 255.177 91.5522 255.87C90.4942 256.712 89.8042 257.949 89.5742 259.385L85.7561 286.412C85.3421 289.332 87.2282 292.055 89.9422 292.5L130.514 299.084C131.848 299.282 133.136 298.935 134.194 298.094C135.252 297.252 135.942 296.015 136.172 294.579L139.99 267.552C140.174 266.117 139.852 264.731 139.07 263.592C138.288 262.454 137.138 261.711 135.804 261.464L95.2322 254.88C95.0022 254.831 94.7261 254.831 94.4961 254.831Z" fill="#9298F0"/>
<path d="M147.028 270.968L137.184 296.163C135.942 299.381 132.446 300.915 129.456 299.529L91.6436 282.402C88.6536 281.066 87.2276 277.304 88.5156 274.086L98.3596 248.891C99.6016 245.673 103.098 244.139 106.088 245.525L143.9 262.652C146.844 264.038 148.27 267.75 147.028 270.968Z" fill="#767FEC"/>
<path d="M131.71 301.064C130.836 301.064 129.916 300.866 129.088 300.47L91.2759 283.343C89.6199 282.601 88.2859 281.165 87.5959 279.334C86.9059 277.502 86.9059 275.522 87.6419 273.74L97.4859 248.545C98.9579 244.832 102.96 243.05 106.41 244.634L144.222 261.761C147.672 263.345 149.328 267.652 147.856 271.364L138.012 296.56C136.908 299.381 134.378 301.064 131.71 301.064ZM103.788 246.02C101.856 246.02 100.016 247.258 99.1879 249.287L89.3439 274.483C88.8379 275.819 88.8379 277.255 89.3439 278.591C89.8499 279.928 90.8159 280.967 92.0119 281.512L129.824 298.639C132.354 299.777 135.298 298.49 136.356 295.768L146.2 270.572C147.258 267.85 146.062 264.682 143.532 263.543L105.72 246.466C105.076 246.169 104.432 246.02 103.788 246.02Z" fill="#9298F0"/>
<path d="M152.87 275.969L137.828 298.046C135.896 300.867 132.216 301.461 129.594 299.382L96.5201 273.246C93.8981 271.167 93.3461 267.207 95.2781 264.386L110.32 242.358C112.252 239.537 115.932 238.943 118.554 241.022L151.628 267.158C154.204 269.187 154.802 273.147 152.87 275.969Z" fill="#767FEC"/>
<path d="M133.044 301.609C131.664 301.609 130.238 301.163 128.996 300.173L95.9222 274.037C92.8862 271.661 92.2422 267.058 94.4502 263.791L109.492 241.763C111.7 238.496 115.978 237.803 119.014 240.179L152.088 266.315C155.124 268.691 155.768 273.295 153.56 276.562L138.518 298.589C137.23 300.569 135.16 301.609 133.044 301.609ZM115.058 240.773C113.54 240.773 112.022 241.516 111.056 242.951L96.0142 264.979C94.4042 267.355 94.8642 270.721 97.0722 272.453L130.146 298.589C132.354 300.322 135.482 299.827 137.092 297.451L152.134 275.423C152.916 274.285 153.238 272.849 153.054 271.463C152.87 270.028 152.134 268.79 151.076 267.949L118.002 241.813C117.082 241.07 116.07 240.773 115.058 240.773Z" fill="#9298F0"/>
<path d="M156.964 282.007L137.322 299.332C134.792 301.56 131.066 301.164 129.042 298.441L103.052 264.286C100.982 261.564 101.35 257.554 103.88 255.376L123.522 238.051C126.052 235.824 129.778 236.22 131.802 238.942L157.792 273.097C159.862 275.77 159.494 279.78 156.964 282.007Z" fill="#767FEC"/>
<path d="M133.596 301.756C133.366 301.756 133.136 301.757 132.906 301.707C131.112 301.509 129.456 300.568 128.306 299.034L102.316 264.879C101.166 263.344 100.614 261.463 100.798 259.483C100.982 257.553 101.856 255.771 103.282 254.533L122.924 237.208C125.822 234.634 130.146 235.08 132.538 238.248L158.528 272.403C160.92 275.521 160.506 280.174 157.562 282.748L137.92 300.073C136.678 301.162 135.16 301.756 133.596 301.756ZM127.248 237.605C126.144 237.605 125.04 238 124.12 238.792L104.478 256.117C103.466 257.008 102.822 258.295 102.684 259.731C102.546 261.166 102.96 262.552 103.788 263.641L129.778 297.796C131.526 300.073 134.654 300.42 136.77 298.539L156.412 281.214C158.528 279.333 158.85 275.967 157.102 273.69L131.112 239.535C130.1 238.248 128.674 237.605 127.248 237.605Z" fill="#9298F0"/>
<path d="M159.402 287.648L137 300.518C134.148 302.152 130.56 301.013 129.042 297.895L109.722 258.988C108.204 255.919 109.262 252.058 112.16 250.424L134.562 237.554C137.414 235.921 141.002 237.059 142.52 240.178L161.84 279.085C163.358 282.154 162.3 286.015 159.402 287.648Z" fill="#767FEC"/>
<path d="M134.24 302.301C131.802 302.301 129.456 300.915 128.214 298.44L108.894 259.533C107.1 255.969 108.388 251.514 111.7 249.583L134.102 236.713C137.414 234.783 141.554 236.169 143.348 239.733L162.668 278.64C164.462 282.204 163.174 286.659 159.862 288.589L137.46 301.459C136.402 302.004 135.344 302.301 134.24 302.301ZM137.322 237.802C136.54 237.802 135.712 238 134.976 238.446L112.574 251.316C111.424 252.009 110.55 253.098 110.136 254.484C109.768 255.87 109.86 257.305 110.504 258.543L129.824 297.45C130.468 298.687 131.48 299.628 132.768 300.073C134.056 300.469 135.39 300.37 136.54 299.677L158.942 286.807C161.38 285.421 162.3 282.154 160.966 279.58L141.646 240.673C140.818 238.792 139.07 237.802 137.322 237.802Z" fill="#9298F0"/>
<path d="M160.874 293.837L136.402 301.262C133.274 302.202 130.008 300.272 129.134 296.906L117.956 254.435C117.082 251.069 118.876 247.554 122.004 246.614L146.476 239.189C149.604 238.248 152.87 240.179 153.744 243.545L164.922 286.016C165.796 289.332 164.002 292.847 160.874 293.837Z" fill="#767FEC"/>
<path d="M134.792 302.499C133.642 302.499 132.492 302.202 131.48 301.559C129.87 300.618 128.72 299.034 128.26 297.153L117.082 254.682C116.07 250.772 118.186 246.713 121.774 245.624L146.246 238.199C147.994 237.654 149.834 237.902 151.444 238.842C153.054 239.783 154.204 241.367 154.664 243.248L165.842 285.719C166.348 287.6 166.118 289.58 165.244 291.312C164.37 293.045 162.898 294.282 161.15 294.777L136.678 302.202C136.034 302.4 135.39 302.499 134.792 302.499ZM148.086 239.882C147.626 239.882 147.166 239.931 146.706 240.08L122.234 247.505C119.612 248.297 118.048 251.267 118.784 254.138L129.962 296.609C130.33 297.995 131.158 299.133 132.308 299.826C133.458 300.519 134.792 300.717 136.08 300.321L160.552 292.896C161.84 292.5 162.898 291.609 163.542 290.372C164.186 289.134 164.37 287.699 164.002 286.313L152.824 243.842C152.456 242.456 151.628 241.317 150.478 240.624C149.742 240.129 148.914 239.882 148.086 239.882Z" fill="#9298F0"/>
<path d="M160.322 300.913L134.93 301.309C131.664 301.358 128.996 298.537 128.95 295.072L128.352 250.918C128.306 247.403 130.928 244.532 134.148 244.483L159.54 244.087C162.806 244.037 165.474 246.859 165.52 250.324L166.118 294.478C166.164 297.992 163.542 300.863 160.322 300.913Z" fill="#767FEC"/>
<path d="M134.792 302.3C131.066 302.3 128.03 299.083 127.984 295.073L127.386 250.919C127.34 246.86 130.33 243.544 134.102 243.494L159.54 243.098C161.38 243.049 163.082 243.791 164.37 245.177C165.658 246.563 166.394 248.395 166.44 250.325L167.038 294.479C167.084 296.459 166.394 298.291 165.106 299.677C163.818 301.063 162.116 301.855 160.322 301.904L134.93 302.3C134.884 302.3 134.838 302.3 134.792 302.3ZM159.632 245.078C159.586 245.078 159.586 245.078 159.54 245.078L134.148 245.474C131.388 245.524 129.226 247.949 129.226 250.919L129.824 295.073C129.87 297.994 132.078 300.37 134.792 300.37C134.838 300.37 134.838 300.37 134.884 300.37L160.276 299.974C161.61 299.974 162.852 299.38 163.772 298.34C164.692 297.301 165.198 295.964 165.198 294.529L164.6 250.375C164.6 248.939 164.048 247.603 163.082 246.613C162.162 245.623 160.92 245.078 159.632 245.078Z" fill="#9298F0"/>
<path d="M158.344 307.943L133.642 301.607C130.468 300.815 128.536 297.35 129.272 293.984L138.794 251.068C139.53 247.652 142.75 245.573 145.878 246.365L170.58 252.701C173.754 253.493 175.686 256.958 174.95 260.324L165.428 303.241C164.692 306.656 161.518 308.735 158.344 307.943Z" fill="#767FEC"/>
<path d="M159.724 309.083C159.172 309.083 158.666 309.033 158.114 308.885L133.412 302.549C131.618 302.103 130.146 300.915 129.18 299.232C128.214 297.549 127.938 295.619 128.352 293.688L137.874 250.772C138.748 246.861 142.428 244.386 146.108 245.327L170.81 251.663C172.604 252.108 174.076 253.296 175.042 254.979C176.008 256.662 176.284 258.642 175.87 260.523L166.348 303.489C165.934 305.42 164.83 307.004 163.266 308.043C162.162 308.736 160.966 309.083 159.724 309.083ZM158.528 306.954C159.816 307.301 161.15 307.053 162.3 306.311C163.45 305.568 164.232 304.38 164.554 302.994L174.076 260.078C174.72 257.207 173.064 254.286 170.396 253.643L145.694 247.307C144.406 246.96 143.072 247.208 141.922 247.95C140.772 248.693 139.99 249.881 139.668 251.267L130.146 294.183C129.502 297.054 131.158 299.975 133.826 300.618L158.528 306.954Z" fill="#9298F0"/>
<path d="M164.14 289.629L153.146 279.481L155.814 294.826L151.674 279.877L146.154 294.331L150.202 279.333L138.334 288.292L149.236 277.996L134.746 278.64L149.098 276.363L136.586 268.443L149.788 274.878L143.256 260.968L151.168 274.036L152.64 258.543L152.686 274.135L161.748 261.958L153.928 275.076L167.682 270.126L154.526 276.66L168.602 280.422L154.204 278.293L164.14 289.629Z" fill="#F5B44F"/>
<path d="M147.35 162.563L114.046 191.174L80.7418 162.563C65.1938 149.198 58.4778 127.22 63.5838 106.529L69.2418 83.5612C69.3798 83.1157 69.4718 82.6207 69.6098 82.1752C72.4618 71.8792 78.2118 63.1177 85.8018 56.8807C93.7138 50.3467 103.558 46.5352 114.046 46.5352C134.562 46.5352 152.594 61.0387 158.436 82.0762C158.574 82.5712 158.712 83.0662 158.804 83.5612L164.508 106.529C169.66 127.22 162.898 149.198 147.35 162.563Z" fill="#F5B44F"/>
<path d="M69.8398 99.2031L72.4158 109.301C74.2098 116.38 79.8219 121.577 86.5839 122.419L106.778 124.993L105.352 117.32C103.972 109.994 98.5438 104.302 91.6898 103.064L69.8398 99.2031Z" fill="#3D3D3D"/>
<path d="M157.7 99.2031L155.124 109.301C153.33 116.38 147.718 121.577 140.956 122.419L120.762 124.993L122.188 117.32C123.568 109.994 128.996 104.302 135.85 103.064L157.7 99.2031Z" fill="#3D3D3D"/>
<path d="M114.046 107.123C114.966 120.934 115.15 135.289 115.196 149.149C115.15 163.009 114.966 177.413 114.046 191.174C113.126 177.413 112.942 163.009 112.896 149.149C112.942 135.289 113.126 120.934 114.046 107.123Z" fill="#E29631"/>
<path d="M113.862 107.371C113.908 107.321 113.908 107.272 113.954 107.223C114 107.272 114 107.321 114.045 107.371H113.862Z" fill="#E8A847"/>
<path d="M158.436 82.1271L158.206 82.5231C140.956 81.8796 122.51 91.4826 113.954 107.273C105.352 91.5321 86.9059 81.8796 69.7019 82.5231L69.6099 82.2261C72.4619 71.9301 78.2119 63.1686 85.8019 56.9316C93.7139 50.3976 103.558 46.5861 114.046 46.5861C134.562 46.5366 152.594 61.0896 158.436 82.1271Z" fill="#E29631"/>
<path d="M154.985 73.0659C143.071 74.4519 131.341 79.3524 122.509 88.1139C119.105 91.4799 116.299 95.4894 114.091 99.8454L113.079 97.9644C104.845 83.0154 88.7915 74.8974 73.1055 73.0659C89.4815 72.8679 106.593 81.2334 115.103 96.6774H113.079C121.589 81.2829 138.655 72.8679 154.985 73.0659Z" fill="#F5B44F"/>
<path d="M140.588 55.4955C139.53 60.693 136.494 65.544 132.308 68.514C128.26 71.3355 124.212 74.3055 120.854 77.9685C118.14 80.889 115.978 84.354 114.138 87.9675C112.252 84.354 110.09 80.7405 107.468 77.721C104.478 74.256 100.798 71.4345 96.9339 69.1575L95.8299 68.4645C91.5059 65.643 88.2859 60.6435 87.7339 55.248C89.1139 60.8415 92.8399 65.2965 97.6699 67.5735C98.3599 67.92 99.2799 68.415 99.9239 68.7615C106.364 72.2265 111.608 78.0675 115.15 84.75H113.126C116.438 78.513 121.544 73.365 127.248 69.702C128.628 68.7615 130.1 67.8705 131.48 67.029C135.666 64.554 138.794 60.3465 140.588 55.4955Z" fill="#F5B44F"/>
<path d="M119.75 179.443L146.2 156.822C154.388 149.842 159.034 139.15 158.804 127.914L158.666 121.182C158.666 121.182 149.65 136.527 124.948 138.061L119.75 179.443Z" fill="#E29631"/>
<path d="M108.48 179.443L82.0301 156.822C73.8421 149.842 69.1961 139.15 69.4261 127.914L69.5641 121.182C69.5641 121.182 78.5801 136.527 103.282 138.061L108.48 179.443Z" fill="#E29631"/>
<path d="M114.092 79.9978L108.25 71.4343L114.046 63.6133L120.256 71.4343L114.092 79.9978Z" fill="#F5B44F"/>
<path d="M92.8857 63.514C101.35 52.1785 120.164 51.3865 130.928 59.356C132.538 60.5935 134.01 62.029 135.16 63.712C132.17 61.039 128.72 59.3065 125.132 58.168C114.506 54.9505 101.856 55.9405 92.8857 63.514Z" fill="#F5B44F"/>
<path d="M80.19 62.4238C83.962 66.5818 88.608 69.8983 93.53 72.3238C90.862 71.4823 88.286 70.3933 85.802 69.0568C83.272 67.6708 80.88 66.1363 78.626 64.2058L80.19 62.4238Z" fill="#F5B44F"/>
<path d="M149.512 64.2058C145.05 67.9678 139.944 70.5913 134.608 72.3238C138.334 70.4923 141.876 68.1658 145.004 65.3443C146.016 64.4038 147.074 63.4138 147.948 62.4238L149.512 64.2058Z" fill="#F5B44F"/>
<path d="M127.708 140.784L126.65 148.803C126.65 148.803 132.262 146.575 135.16 139.893C135.16 139.893 131.848 140.784 127.708 140.784Z" fill="#F5B44F"/>
<path d="M124.12 171.077C130.79 164.939 137.552 158.999 143.716 152.317C145.188 150.683 146.752 148.951 148.086 147.169C150.754 143.555 152.594 139.249 153.882 134.843C154.526 132.616 155.032 130.339 155.4 127.963C155.446 130.339 155.17 132.715 154.756 135.041C153.836 139.744 152.18 144.347 149.466 148.258C148.178 150.188 146.522 151.921 145.05 153.653C138.748 160.385 131.71 166.226 124.12 171.077Z" fill="#F5B44F"/>
<path d="M124.12 169.047C124.534 164.048 125.086 159.147 126.972 154.445C127.524 153.158 128.582 151.772 130.008 151.623C132.354 151.227 134.24 154.197 136.31 153.999C137.138 153.851 137.782 153.306 138.058 152.415C138.702 150.287 138.334 147.713 138.472 145.386C138.886 132.665 148.592 144.842 152.18 131.477C150.432 143.505 141.784 137.664 140.542 142.07C139.53 145.584 140.864 149.396 139.76 153.059C139.162 155.385 136.448 156.623 134.378 155.583C132.998 155.039 131.388 153.306 130.146 153.405C127.294 153.504 124.902 166.127 124.12 169.047Z" fill="#F5B44F"/>
<path d="M131.02 160.683C132.036 160.683 132.86 159.796 132.86 158.703C132.86 157.609 132.036 156.723 131.02 156.723C130.003 156.723 129.18 157.609 129.18 158.703C129.18 159.796 130.003 160.683 131.02 160.683Z" fill="#F5B44F"/>
<path d="M134.7 150.288C135.716 150.288 136.54 149.402 136.54 148.308C136.54 147.215 135.716 146.328 134.7 146.328C133.684 146.328 132.86 147.215 132.86 148.308C132.86 149.402 133.684 150.288 134.7 150.288Z" fill="#F5B44F"/>
<path d="M144.36 146.327C145.376 146.327 146.2 145.441 146.2 144.347C146.2 143.254 145.376 142.367 144.36 142.367C143.344 142.367 142.52 143.254 142.52 144.347C142.52 145.441 143.344 146.327 144.36 146.327Z" fill="#F5B44F"/>
<path d="M100.752 140.784L101.81 148.803C101.81 148.803 96.1978 146.575 93.2998 139.893C93.2998 139.893 96.6118 140.784 100.752 140.784Z" fill="#F5B44F"/>
<path d="M104.34 171.077C96.7497 166.226 89.7117 160.385 83.4097 153.702C81.8917 151.97 80.2817 150.188 78.9937 148.307C76.3257 144.396 74.6237 139.793 73.7037 135.09C73.2897 132.764 73.0137 130.388 73.0597 128.012C73.4277 130.338 73.9337 132.615 74.5777 134.892C75.8657 139.298 77.7057 143.604 80.3737 147.218C81.7077 149 83.2717 150.732 84.7437 152.366C90.9077 158.999 97.6697 164.939 104.34 171.077Z" fill="#F5B44F"/>
<path d="M104.34 169.047C103.558 166.176 101.166 153.504 98.2679 153.405C97.0259 153.306 95.4619 155.039 94.0359 155.583C91.9659 156.623 89.2979 155.435 88.6539 153.059C87.5959 149.396 88.8839 145.584 87.8719 142.07C86.6759 137.664 78.0279 143.505 76.2339 131.477C79.8219 144.842 89.5279 132.615 89.9419 145.386C90.0799 147.713 89.7119 150.287 90.3559 152.415C90.6319 153.356 91.2759 153.851 92.1039 153.999C94.1739 154.197 96.0599 151.227 98.4059 151.623C99.8319 151.772 100.89 153.158 101.442 154.445C103.374 159.147 103.926 164.048 104.34 169.047Z" fill="#F5B44F"/>
<path d="M97.4396 160.683C98.4558 160.683 99.2796 159.796 99.2796 158.703C99.2796 157.609 98.4558 156.723 97.4396 156.723C96.4234 156.723 95.5996 157.609 95.5996 158.703C95.5996 159.796 96.4234 160.683 97.4396 160.683Z" fill="#F5B44F"/>
<path d="M93.7599 150.288C94.7761 150.288 95.5999 149.402 95.5999 148.308C95.5999 147.215 94.7761 146.328 93.7599 146.328C92.7437 146.328 91.9199 147.215 91.9199 148.308C91.9199 149.402 92.7437 150.288 93.7599 150.288Z" fill="#F5B44F"/>
<path d="M84.0998 146.327C85.116 146.327 85.9398 145.441 85.9398 144.347C85.9398 143.254 85.116 142.367 84.0998 142.367C83.0836 142.367 82.2598 143.254 82.2598 144.347C82.2598 145.441 83.0836 146.327 84.0998 146.327Z" fill="#F5B44F"/>
<path d="M154.848 312.401L140.22 335.418C140.22 335.418 126.236 330.023 111.93 315.668C104.432 308.144 103.88 304.679 106.042 302.996C106.364 302.748 106.732 302.501 107.146 302.352C107.146 302.352 107.008 302.105 106.824 301.709C106.134 300.174 104.754 296.313 107.422 294.482C107.79 294.234 108.25 293.987 108.802 293.838C108.802 293.838 106.64 289.433 109.492 287.799C113.218 285.72 121.084 295.224 129.824 301.115C129.41 300.719 119.336 291.264 116.714 287.849C113.678 283.938 117.818 279.978 121.406 283.295C124.35 286.017 140.312 299.679 140.312 299.679C140.312 299.679 137.69 293.937 139.07 289.631C140.128 286.364 143.44 286.859 143.992 288.641C145.418 293.294 149.052 299.184 152.18 302.897C156.366 307.946 154.848 312.401 154.848 312.401Z" fill="#FFCBA3"/>
<path d="M125.316 309.579C125.178 309.777 124.948 309.925 124.718 309.925C124.58 309.925 124.442 309.876 124.35 309.826C121.958 308.143 112.344 299.629 107.376 294.481C107.744 294.234 108.204 293.986 108.756 293.838C113.632 298.837 122.832 306.955 125.086 308.589C125.454 308.787 125.546 309.232 125.316 309.579Z" fill="#E99A5F"/>
<path d="M121.406 315.965C121.268 316.212 121.038 316.311 120.808 316.311C120.67 316.311 120.532 316.262 120.44 316.212C115.472 312.797 109.17 307.401 106.042 302.996C106.364 302.748 106.732 302.501 107.146 302.352C107.146 302.352 107.008 302.105 106.824 301.709C106.87 301.758 106.916 301.808 106.962 301.857C109.86 306.164 116.392 311.658 121.176 314.975C121.498 315.123 121.59 315.618 121.406 315.965Z" fill="#E99A5F"/>
<path d="M138.38 338.39L156.32 309.68L170.58 316.115L172.88 363.635L138.38 338.39Z" fill="#7E46E8"/>
<path d="M123.246 373.236C122.832 375.068 120.026 375.86 118.968 376.157C118.738 376.206 118.554 376.256 118.554 376.256C118.37 376.701 118.14 377.097 117.91 377.394C116.714 378.978 114.92 379.325 113.724 379.424C112.988 379.473 112.528 379.424 112.528 379.424C112.39 379.869 112.114 380.265 111.746 380.612C108.894 383.483 100.154 384.374 93.7141 382.295C84.9741 379.473 73.0601 368.633 73.0601 368.633L82.8581 344.526C93.7141 340.22 99.2341 341.507 105.674 340.913C109.354 340.566 111.608 340.022 112.896 339.626C114.138 339.23 115.472 340.022 115.748 341.358C115.978 342.447 115.84 343.883 114.552 345.566C111.47 349.526 103.282 349.179 103.282 349.179C103.282 349.179 119.658 357.594 123.2 363.683C124.58 366.009 123.384 367.247 122.142 367.89C121.314 368.336 120.486 368.435 120.486 368.435C120.486 368.435 120.762 368.682 121.176 369.029C122.096 369.92 123.614 371.652 123.246 373.236Z" fill="#FFCBA3"/>
<path d="M113.77 379.423C113.034 379.473 112.574 379.423 112.574 379.423C112.436 379.869 112.16 380.265 111.792 380.611C108.526 380.265 100.66 379.077 93.9439 375.958C93.5759 375.81 93.4379 375.364 93.5759 374.968C93.7139 374.572 94.1279 374.424 94.4959 374.572C102.776 378.433 113.264 379.225 113.402 379.225C113.494 379.225 113.632 379.275 113.77 379.423Z" fill="#E99A5F"/>
<path d="M118.968 376.157C118.738 376.206 118.554 376.256 118.554 376.256C118.37 376.701 118.14 377.097 117.91 377.394C114.552 376.454 104.892 373.484 96.5198 368.88C96.1978 368.682 96.0598 368.237 96.1978 367.89C96.3818 367.544 96.7958 367.395 97.1178 367.544C106.134 372.444 116.668 375.513 118.968 376.157Z" fill="#E99A5F"/>
<path d="M120.486 368.384C120.486 368.384 120.762 368.631 121.176 368.978C118.6 367.839 108.526 363.434 100.798 359.919C100.43 359.771 100.292 359.325 100.43 358.929C100.568 358.533 100.982 358.385 101.35 358.533C109.676 362.345 120.762 367.196 122.188 367.839C121.314 368.235 120.486 368.384 120.486 368.384Z" fill="#E99A5F"/>
<path d="M84.1001 340.863L71.2201 373.038L55.1201 364.623L57.4201 318.588L84.1001 340.863Z" fill="#7E46E8"/>
</svg>
