<svg width="260" height="506" viewBox="0 0 260 506" fill="none" xmlns="http://www.w3.org/2000/svg">
<g clip-path="url(#clip0_3171_6754)">
<path d="M56.392 473.572H69.088L83.486 266.959L54 291.61L56.392 473.572Z" fill="#552CA1"/>
<path d="M221.578 505.697H68.858C64.626 505.697 61.222 501.985 61.268 497.48C61.268 497.48 70.1 345.07 78.38 288.145C81.37 267.553 70.376 247.456 77.92 232.21C88.04 211.816 119.274 199.342 145.218 199.342C190.528 199.342 227.236 238.843 227.236 287.6L229.168 497.48C229.168 501.985 225.764 505.697 221.578 505.697Z" fill="#6232B8"/>
<path d="M141.63 505.697L146 343.882L149.91 505.697H141.63Z" fill="#552CA1"/>
<path d="M112.972 505.697L120.148 372.097L121.252 505.697H112.972Z" fill="#552CA1"/>
<path d="M170.242 505.697L171.898 372.097L178.522 505.697H170.242Z" fill="#552CA1"/>
<path d="M201.89 505.697L194.76 348.337L210.17 505.697H201.89Z" fill="#552CA1"/>
<path d="M81.6001 505.697L97.0101 348.337L89.8801 505.697H81.6001Z" fill="#552CA1"/>
<path d="M252.076 473.572H206.628L197.336 287.799C195.174 257.406 175.808 231.715 148.852 223.003C148.024 222.756 147.15 222.459 146.322 222.261L139.836 220.479L132.798 222.261C131.97 222.508 133.028 198.006 132.2 198.253C105.152 206.916 70.974 232.804 67.524 263.098C67.064 267.157 66.604 271.662 66.19 276.562C65.086 289.185 64.074 304.134 63.2 319.875C59.888 378.829 56.392 473.671 56.392 473.671H39.924C35.6 473.671 32.196 469.761 32.426 465.108C33.99 437.536 37.348 348.931 48.48 264.633C53.08 229.834 57.22 213.004 90.018 194.59C93.422 192.709 97.102 191.125 101.012 189.69C106.486 187.71 112.42 186.126 118.952 184.938L145.816 180.037L173.094 184.938C179.442 186.324 185.238 188.007 190.574 190.036C194.438 191.521 198.072 193.155 201.476 194.986C228.11 209.193 240.116 233.547 243.52 264.583C252.628 347.991 258.01 437.536 259.574 465.058C259.804 469.662 256.4 473.572 252.076 473.572Z" fill="#7E46E8"/>
<path d="M201.476 194.936L142.32 229.735L90.0181 194.491C93.4221 192.659 97.1021 191.026 101.012 189.64L146.092 217.063L190.574 190.036C194.438 191.471 198.072 193.105 201.476 194.936Z" fill="#6232B8"/>
<g opacity="0.8">
<path d="M185.054 195.729C186.388 196.471 189.516 198.303 190.804 198.996C212.746 211.222 228.57 235.23 231.744 261.564C233.446 278.592 235.746 309.43 237.31 326.706C235.654 314.232 231.514 283.245 229.904 271.266C229.122 265.128 228.34 259.138 226.592 253.248C220.612 232.26 206.306 214.489 187.814 205.332C186.48 204.639 183.306 203.055 181.926 202.362L185.054 195.729Z" fill="#6232B8"/>
</g>
<g opacity="0.8">
<path d="M170.058 205.728C172.772 207.51 179.258 211.866 181.834 213.549C199.958 225.082 213.666 243.051 217.3 265.722C217.898 269.038 218.266 272.404 218.496 275.77C219.784 293.788 221.992 326.854 223.28 345.169C221.164 326.755 217.53 294.135 215.506 276.067C215.138 272.85 214.632 269.632 213.942 266.464C208.836 242.605 194.392 227.706 174.704 216.915L166.608 212.113L170.058 205.728Z" fill="#6232B8"/>
</g>
<path d="M180.178 363.138C180.178 363.138 168.218 373.928 159.524 376.799C153.314 378.829 144.942 378.037 141.814 375.414C141.354 375.018 140.986 374.572 140.756 374.077C140.71 374.027 140.71 373.978 140.71 373.929C140.71 373.929 136.386 374.572 134.776 370.959C134.73 370.909 134.73 370.86 134.684 370.761C134.684 370.761 133.534 370.563 132.384 370.068C131.326 369.622 130.222 368.88 129.992 367.791C129.624 366.157 131.28 364.276 132.2 363.434C132.522 363.137 132.752 362.939 132.752 362.939C132.752 362.939 131.878 362.791 131.004 362.346C129.808 361.702 128.704 360.465 130.038 358.188C133.534 352.149 149.956 343.684 149.956 343.684C149.956 343.684 141.768 344.031 138.686 340.071C137.352 338.388 137.214 336.952 137.444 335.863C137.766 334.527 139.1 333.735 140.296 334.131C141.584 334.527 143.838 335.071 147.518 335.418C153.958 336.012 159.478 334.725 170.334 339.031L180.178 363.138Z" fill="#FFCBA3"/>
<path d="M159.34 370.463C153.222 373.334 145.632 374.819 141.814 375.413C141.354 375.017 140.986 374.572 140.756 374.077C144.068 373.582 152.302 372.146 158.788 369.127C159.156 368.978 159.524 369.127 159.708 369.523C159.892 369.919 159.708 370.315 159.34 370.463Z" fill="#E99A5F"/>
<path d="M156.718 363.435C148.622 367.84 138.732 370.167 134.73 370.959C134.684 370.909 134.684 370.86 134.638 370.761C134.638 370.761 133.488 370.563 132.338 370.068C132.43 369.919 132.568 369.87 132.752 369.82C132.89 369.82 145.954 367.593 156.074 362.098C156.396 361.9 156.81 362.049 156.994 362.445C157.178 362.791 157.04 363.286 156.718 363.435Z" fill="#E99A5F"/>
<path d="M152.486 354.475C144.988 357.89 135.19 362.147 132.2 363.434C132.522 363.137 132.752 362.939 132.752 362.939C132.752 362.939 131.878 362.791 131.004 362.345C132.706 361.603 143.7 356.851 151.934 353.089C152.302 352.94 152.67 353.089 152.854 353.485C152.992 353.881 152.808 354.326 152.486 354.475Z" fill="#E99A5F"/>
<path d="M169.138 335.418L182.018 367.593L198.118 359.178L195.818 313.143L169.138 335.418Z" fill="#7E46E8"/>
<path d="M143.838 0.302734C143.838 0.302734 90.3399 31.1412 83.6699 71.0382H143.47H144.16H203.96C197.336 31.1412 143.838 0.302734 143.838 0.302734Z" fill="#6232B8"/>
<path d="M144.114 33.8633C117.296 33.8633 92.8698 50.3963 81.1858 76.3343C72.3538 95.9858 64.9478 114.103 59.2898 128.606C51.6998 148.109 58.8298 170.582 75.8498 181.126L144.206 223.349L212.378 181.175C229.398 170.632 236.482 148.159 228.892 128.705C223.234 114.152 215.828 96.0353 206.996 76.3838C195.358 50.3963 170.932 33.8633 144.114 33.8633Z" fill="#7E46E8"/>
<path d="M192.184 82.917C186.434 59.652 166.838 43.416 144.436 43.416C122.034 43.416 102.438 59.6025 96.688 82.917L84.59 131.724C81.094 145.782 85.924 160.632 96.734 169.344L144.39 207.608L192.092 169.344C202.902 160.682 207.732 145.782 204.236 131.724L192.184 82.917Z" fill="#6232B8"/>
<path d="M144.436 207.905L144.298 207.806L96.642 169.543C85.694 160.732 80.864 145.882 84.406 131.675L96.504 82.8682C102.3 59.5042 121.988 43.2188 144.482 43.2188C166.976 43.2188 186.664 59.5042 192.46 82.8682L204.558 131.675C208.054 145.882 203.27 160.781 192.322 169.543L144.436 207.905ZM144.436 43.6643C122.172 43.6643 102.668 59.8013 96.918 82.9673L84.82 131.824C81.37 145.832 86.108 160.484 96.918 169.196L144.436 207.361L191.954 169.196C202.764 160.534 207.502 145.882 204.052 131.824L191.954 83.0168C186.204 59.8508 166.7 43.6643 144.436 43.6643Z" fill="#552CA1"/>
<path d="M177.51 162.563L144.206 191.174L110.902 162.563C95.354 149.198 88.638 127.22 93.744 106.529L99.402 83.5612C99.54 83.1157 99.632 82.6207 99.77 82.1752C102.622 71.8792 108.372 63.1177 115.962 56.8807C123.874 50.3467 133.718 46.5352 144.206 46.5352C164.722 46.5352 182.754 61.0387 188.596 82.0762C188.734 82.5712 188.872 83.0662 188.964 83.5612L194.668 106.529C199.82 127.22 193.058 149.198 177.51 162.563Z" fill="#F5B44F"/>
<path d="M100 99.2031L102.576 109.301C104.37 116.38 109.982 121.577 116.744 122.419L136.938 124.993L135.512 117.32C134.132 109.994 128.704 104.302 121.85 103.064L100 99.2031Z" fill="#3D3D3D"/>
<path d="M187.86 99.2031L185.284 109.301C183.49 116.38 177.878 121.577 171.116 122.419L150.922 124.993L152.348 117.32C153.728 109.994 159.156 104.302 166.01 103.064L187.86 99.2031Z" fill="#3D3D3D"/>
<path d="M144.206 107.123C145.126 120.934 145.31 135.289 145.356 149.149C145.31 163.009 145.126 177.413 144.206 191.174C143.286 177.413 143.102 163.009 143.056 149.149C143.102 135.289 143.286 120.934 144.206 107.123Z" fill="#E29631"/>
<path d="M144.022 107.371C144.068 107.322 144.068 107.272 144.114 107.223C144.16 107.272 144.16 107.322 144.206 107.371H144.022Z" fill="#E8A847"/>
<path d="M188.596 82.1271L188.366 82.5231C171.116 81.8796 152.67 91.4826 144.114 107.273C135.512 91.5321 117.066 81.8796 99.862 82.5231L99.77 82.2261C102.622 71.9301 108.372 63.1686 115.962 56.9316C123.874 50.3976 133.718 46.5861 144.206 46.5861C164.722 46.5366 182.754 61.0896 188.596 82.1271Z" fill="#E29631"/>
<path d="M185.146 73.0679C173.232 74.4539 161.502 79.3544 152.67 88.1159C149.266 91.4819 146.46 95.4914 144.252 99.8474L143.24 97.9664C135.006 83.0174 118.952 74.8994 103.266 73.0679C119.642 72.8699 136.754 81.2354 145.264 96.6794H143.24C151.75 81.2849 168.816 72.8699 185.146 73.0679Z" fill="#F5B44F"/>
<path d="M170.748 55.4936C169.69 60.6911 166.654 65.5421 162.468 68.5121C158.42 71.3336 154.372 74.3036 151.014 77.9666C148.3 80.8871 146.138 84.3521 144.298 87.9656C142.412 84.3521 140.25 80.7386 137.628 77.7191C134.638 74.2541 130.958 71.4326 127.094 69.1556L125.99 68.4626C121.666 65.6411 118.446 60.6416 117.894 55.2461C119.274 60.8396 123 65.2946 127.83 67.5716C128.52 67.9181 129.44 68.4131 130.084 68.7596C136.524 72.2246 141.768 78.0656 145.31 84.7481H143.286C146.598 78.5111 151.704 73.3631 157.408 69.7001C158.788 68.7596 160.26 67.8686 161.64 67.0271C165.826 64.5521 168.954 60.3446 170.748 55.4936Z" fill="#F5B44F"/>
<path d="M149.91 179.443L176.36 156.822C184.548 149.842 189.194 139.15 188.964 127.914L188.826 121.182C188.826 121.182 179.81 136.527 155.108 138.061L149.91 179.443Z" fill="#E29631"/>
<path d="M138.64 179.443L112.19 156.822C104.002 149.842 99.3558 139.15 99.5858 127.914L99.7238 121.182C99.7238 121.182 108.74 136.527 133.442 138.061L138.64 179.443Z" fill="#E29631"/>
<path d="M144.252 79.9978L138.41 71.4343L144.206 63.6133L150.416 71.4343L144.252 79.9978Z" fill="#F5B44F"/>
<path d="M123.046 63.514C131.51 52.1785 150.324 51.3865 161.088 59.356C162.698 60.5935 164.17 62.029 165.32 63.712C162.33 61.039 158.88 59.3065 155.292 58.168C144.666 54.9505 132.016 55.9405 123.046 63.514Z" fill="#F5B44F"/>
<path d="M110.35 62.4258C114.122 66.5838 118.768 69.9003 123.69 72.3258C121.022 71.4843 118.446 70.3953 115.962 69.0588C113.432 67.6728 111.04 66.1383 108.786 64.2078L110.35 62.4258Z" fill="#F5B44F"/>
<path d="M179.672 64.2078C175.21 67.9698 170.104 70.5933 164.768 72.3258C168.494 70.4943 172.036 68.1678 175.164 65.3463C176.176 64.4058 177.234 63.4158 178.108 62.4258L179.672 64.2078Z" fill="#F5B44F"/>
<path d="M157.868 140.784L156.81 148.803C156.81 148.803 162.422 146.575 165.32 139.893C165.32 139.893 162.008 140.784 157.868 140.784Z" fill="#F5B44F"/>
<path d="M154.28 171.077C160.95 164.939 167.712 158.999 173.876 152.317C175.348 150.683 176.912 148.951 178.246 147.169C180.914 143.555 182.754 139.249 184.042 134.843C184.686 132.616 185.192 130.339 185.56 127.963C185.606 130.339 185.33 132.715 184.916 135.041C183.996 139.744 182.34 144.347 179.626 148.258C178.338 150.188 176.682 151.921 175.21 153.653C168.908 160.385 161.87 166.226 154.28 171.077Z" fill="#F5B44F"/>
<path d="M154.28 169.047C154.694 164.048 155.246 159.147 157.132 154.445C157.684 153.158 158.742 151.772 160.168 151.623C162.514 151.227 164.4 154.197 166.47 153.999C167.298 153.851 167.942 153.306 168.218 152.415C168.862 150.287 168.494 147.713 168.632 145.386C169.046 132.665 178.752 144.842 182.34 131.477C180.592 143.505 171.944 137.664 170.702 142.07C169.69 145.584 171.024 149.396 169.92 153.059C169.322 155.385 166.608 156.623 164.538 155.583C163.158 155.039 161.548 153.306 160.306 153.405C157.454 153.504 155.062 166.127 154.28 169.047Z" fill="#F5B44F"/>
<path d="M161.18 160.683C162.196 160.683 163.02 159.796 163.02 158.703C163.02 157.609 162.196 156.723 161.18 156.723C160.164 156.723 159.34 157.609 159.34 158.703C159.34 159.796 160.164 160.683 161.18 160.683Z" fill="#F5B44F"/>
<path d="M164.86 150.288C165.876 150.288 166.7 149.402 166.7 148.308C166.7 147.215 165.876 146.328 164.86 146.328C163.844 146.328 163.02 147.215 163.02 148.308C163.02 149.402 163.844 150.288 164.86 150.288Z" fill="#F5B44F"/>
<path d="M174.52 146.327C175.536 146.327 176.36 145.441 176.36 144.347C176.36 143.254 175.536 142.367 174.52 142.367C173.504 142.367 172.68 143.254 172.68 144.347C172.68 145.441 173.504 146.327 174.52 146.327Z" fill="#F5B44F"/>
<path d="M130.912 140.784L131.97 148.803C131.97 148.803 126.358 146.575 123.46 139.893C123.46 139.893 126.772 140.784 130.912 140.784Z" fill="#F5B44F"/>
<path d="M134.5 171.077C126.91 166.226 119.872 160.385 113.57 153.702C112.052 151.97 110.442 150.188 109.154 148.307C106.486 144.396 104.784 139.793 103.864 135.09C103.45 132.764 103.174 130.388 103.22 128.012C103.588 130.338 104.094 132.615 104.738 134.892C106.026 139.298 107.866 143.604 110.534 147.218C111.868 149 113.432 150.732 114.904 152.366C121.068 158.999 127.83 164.939 134.5 171.077Z" fill="#F5B44F"/>
<path d="M134.5 169.047C133.718 166.176 131.326 153.504 128.428 153.405C127.186 153.306 125.622 155.039 124.196 155.583C122.126 156.623 119.458 155.435 118.814 153.059C117.756 149.396 119.044 145.584 118.032 142.07C116.836 137.664 108.188 143.505 106.394 131.477C109.982 144.842 119.688 132.615 120.102 145.386C120.24 147.713 119.872 150.287 120.516 152.415C120.792 153.356 121.436 153.851 122.264 153.999C124.334 154.197 126.22 151.227 128.566 151.623C129.992 151.772 131.05 153.158 131.602 154.445C133.534 159.147 134.086 164.048 134.5 169.047Z" fill="#F5B44F"/>
<path d="M127.6 160.683C128.616 160.683 129.44 159.796 129.44 158.703C129.44 157.609 128.616 156.723 127.6 156.723C126.584 156.723 125.76 157.609 125.76 158.703C125.76 159.796 126.584 160.683 127.6 160.683Z" fill="#F5B44F"/>
<path d="M123.92 150.288C124.936 150.288 125.76 149.402 125.76 148.308C125.76 147.215 124.936 146.328 123.92 146.328C122.904 146.328 122.08 147.215 122.08 148.308C122.08 149.402 122.904 150.288 123.92 150.288Z" fill="#F5B44F"/>
<path d="M114.26 146.327C115.276 146.327 116.1 145.441 116.1 144.347C116.1 143.254 115.276 142.367 114.26 142.367C113.244 142.367 112.42 143.254 112.42 144.347C112.42 145.441 113.244 146.327 114.26 146.327Z" fill="#F5B44F"/>
<path d="M144.16 237.408C153.941 237.408 161.87 228.876 161.87 218.35C161.87 207.825 153.941 199.293 144.16 199.293C134.379 199.293 126.45 207.825 126.45 218.35C126.45 228.876 134.379 237.408 144.16 237.408Z" fill="#F5B44F"/>
<path d="M144.16 238.398C133.902 238.398 125.53 229.389 125.53 218.35C125.53 207.312 133.902 198.303 144.16 198.303C154.418 198.303 162.79 207.312 162.79 218.35C162.79 229.389 154.418 238.398 144.16 238.398ZM144.16 200.332C134.914 200.332 127.37 208.45 127.37 218.4C127.37 228.349 134.914 236.467 144.16 236.467C153.406 236.467 160.95 228.349 160.95 218.4C160.95 208.45 153.406 200.332 144.16 200.332Z" fill="#FFDF8B"/>
<path d="M155.752 231.023L145.586 221.024L147.656 235.676L144.16 221.321L138.548 234.884L142.78 220.776L131.234 228.894L141.906 219.489L128.106 219.638L141.814 217.905L130.13 209.985L142.55 216.519L136.708 203.105L143.838 215.777L145.678 201.075L145.31 215.925L154.234 204.59L146.46 216.866L159.662 212.559L146.966 218.351L160.214 222.41L146.644 219.885L155.752 231.023Z" fill="#FFDF8B"/>
<path d="M111.5 207.459C95.8603 254.484 82.2443 280.818 82.2443 280.818C65.9143 312.597 48.4803 317.894 44.8463 318.933C36.5203 321.309 28.0563 314.825 24.8363 310.568C21.8003 306.459 14.9003 294.579 12.2323 266.067C8.41428 225.032 9.24228 187.907 9.24228 187.907C24.5603 177.264 44.0183 178.848 44.0643 178.947L58.1403 244.584C58.1403 244.584 65.9603 235.674 80.6803 223.299C93.2383 212.756 111.5 207.459 111.5 207.459Z" fill="#6232B8"/>
<path d="M54.0004 298.539C48.1584 315.27 38.5444 319.774 27.7804 312.894C19.9604 307.894 14.9004 289.134 12.3244 267.156C7.5404 226.219 9.2424 187.906 9.2424 187.906C8.9204 188.154 17.3384 191.124 29.1604 187.659C39.2804 184.689 44.0184 178.848 44.0644 178.947C57.6804 235.674 62.2804 274.779 54.0004 298.539Z" fill="#7E46E8"/>
<path d="M54.0462 146.97C53.5862 149.197 47.4222 151.969 44.4782 160.137C41.5342 168.304 41.5802 172.512 38.8662 177.511C36.1522 182.461 22.1682 189.54 16.4182 185.877C11.1742 182.56 9.24217 180.481 5.05617 171.126C0.870168 161.77 -1.06184 153.85 0.0881596 150.385C1.23816 146.92 3.03217 146.425 3.26217 143.208C3.49217 139.99 4.82617 137.515 9.65617 137.218C14.4862 136.921 14.1182 133.357 17.7522 132.318C17.7522 132.318 17.7522 132.268 17.7062 132.169C17.6142 131.922 17.4302 131.427 17.1082 130.635C15.1762 125.586 9.42616 110.538 7.67816 106.677C5.56216 101.974 10.0242 98.1134 15.5902 104.994C21.1562 111.874 24.0542 123.705 27.5042 130.09C32.1042 138.604 34.9102 146.475 36.0602 149.94C36.3362 150.732 36.4742 151.326 36.5662 151.573C36.6122 151.722 36.6122 151.771 36.6122 151.771C36.6122 151.771 40.0162 145.584 45.2602 143.059C50.5962 140.584 54.5062 144.742 54.0462 146.97Z" fill="#FFCBA3"/>
<path d="M30.678 166.82C30.724 167.216 30.402 167.562 30.034 167.612H29.988C29.62 167.612 29.344 167.315 29.298 166.919C29.022 161.573 31.184 156.177 36.06 150.039C36.336 150.831 36.4741 151.425 36.5661 151.673C32.2881 157.217 30.448 162.068 30.678 166.82Z" fill="#E99A5F"/>
<path d="M30.5862 149.246L30.5402 150.088C30.4942 150.929 30.4482 151.82 30.4022 152.612C30.2182 156.523 30.0802 159.641 28.4242 160.483C28.1482 160.631 27.8262 160.681 27.5502 160.681C26.5382 160.681 25.4342 159.938 24.6522 159.295C24.3302 159.047 24.2842 158.602 24.5142 158.255C24.7442 157.909 25.1582 157.859 25.4802 158.107C26.9522 159.295 27.5502 159.245 27.8262 159.097C28.7462 158.651 28.8842 155.384 29.0222 152.513C29.0682 151.672 29.1142 150.781 29.1602 149.939L29.2062 149.048C29.5282 144.148 29.7122 141.425 25.4342 138.01C24.5142 137.267 23.6402 136.525 22.8122 135.782C20.8802 134.149 18.9482 132.416 17.7062 132.119C17.6142 131.872 17.4302 131.377 17.1082 130.585C18.8102 130.436 20.9722 132.268 23.6402 134.594C24.4682 135.287 25.3422 136.03 26.2162 136.772C31.1842 140.831 30.9542 144.148 30.5862 149.246Z" fill="#E99A5F"/>
<path d="M22.72 162.513C21.8 162.513 20.006 162.018 18.488 158.602C18.304 158.256 18.488 157.81 18.81 157.612C19.132 157.414 19.546 157.612 19.73 157.959C20.604 159.889 21.708 161.028 22.72 161.028C23.364 161.028 23.962 160.582 24.284 159.84C25.066 158.107 24.79 148.306 23.318 145.98C22.122 144.049 17.292 141.723 15.544 140.98C15.176 140.832 14.992 140.386 15.13 140.04C15.268 139.644 15.682 139.446 16.004 139.594C16.28 139.693 22.7201 142.416 24.4221 145.138C26.1701 147.96 26.446 158.355 25.48 160.483C24.928 161.77 23.87 162.513 22.72 162.513Z" fill="#E99A5F"/>
<path d="M17.0622 165.977C16.9702 165.977 16.9242 165.977 16.8322 165.977C14.8082 165.73 12.7382 161.819 12.2322 157.513C11.0362 157.166 7.77019 156.226 4.91819 154.394C4.59619 154.196 4.45819 153.751 4.68819 153.355C4.87219 153.008 5.28619 152.909 5.65419 153.107C8.96619 155.236 13.0142 156.176 13.0602 156.176C13.3362 156.226 13.5662 156.523 13.6122 156.82C13.9802 161.077 15.9122 164.344 17.0622 164.492C17.4302 164.542 17.7062 163.997 17.8442 163.502C19.1322 159.443 18.2122 153.404 16.9702 151.969C15.1302 149.741 8.00019 146.276 7.95419 146.227C7.58619 146.078 7.4482 145.633 7.6322 145.237C7.8162 144.841 8.1842 144.692 8.5522 144.89C8.8742 145.039 16.0042 148.553 18.0282 150.979C19.6842 152.959 20.5122 159.641 19.1782 163.997C18.5802 165.68 17.6142 165.977 17.0622 165.977Z" fill="#E99A5F"/>
<path d="M76.77 291.857C78.702 287.897 80.036 283.591 81.232 279.334C83.486 271.265 85.096 262.949 86.614 254.683C87.166 251.812 87.672 248.644 88.316 245.822C88.362 247.852 88.362 249.832 88.316 251.861C87.902 260.92 86.476 270.028 83.578 278.591C81.876 283.294 79.944 288.095 76.77 291.857Z" fill="#552CA1"/>
</g>
<defs>
<clipPath id="clip0_3171_6754">
<rect width="260" height="506" fill="white"/>
</clipPath>
</defs>
</svg>
