<svg width="228" height="506" viewBox="0 0 228 506" fill="none" xmlns="http://www.w3.org/2000/svg">
<path d="M189.854 505.998H36.576C32.3285 505.998 28.9121 502.278 28.9582 497.765L30.8973 287.469C30.8973 238.615 67.7394 199.036 113.215 199.036C158.691 199.036 195.533 238.615 195.533 287.469L197.472 497.765C197.472 502.328 194.055 505.998 189.854 505.998Z" fill="#6232B8"/>
<path d="M109.614 505.998L114 343.912L117.924 505.998H109.614Z" fill="#552CA1"/>
<path d="M80.8516 506L88.0538 372.185L89.1618 506H80.8516Z" fill="#552CA1"/>
<path d="M138.33 506L139.992 372.185L146.641 506H138.33Z" fill="#552CA1"/>
<path d="M170.094 505.997L162.938 348.375L178.405 505.997H170.094Z" fill="#552CA1"/>
<path d="M49.3645 505.997L64.8308 348.375L57.6748 505.997H49.3645Z" fill="#552CA1"/>
<path d="M220.464 473.809H174.85L165.524 287.668C163.354 257.215 143.917 231.474 116.862 222.744C116.031 222.496 115.154 222.199 114.323 222L107.813 220.215L100.75 222C99.9187 222.248 99.1339 222.496 98.3029 222.744C71.156 231.424 53.012 257.364 49.5494 287.718C49.0877 291.785 48.626 296.298 48.2105 301.208C47.1025 313.856 46.0868 328.835 45.2096 344.607C41.8855 403.678 40.2234 473.909 40.2234 473.909H7.53643C3.19664 473.909 -0.219795 469.99 0.0110455 465.328C1.58076 437.702 3.19664 348.624 16.1237 264.456C20.8328 233.755 31.4515 208.311 57.8135 194.275C61.2299 192.44 64.9233 190.803 68.8476 189.365C74.3416 187.381 80.2973 185.794 86.8532 184.604L113.815 179.693L141.193 184.604C147.564 185.992 153.381 187.679 158.737 189.712C162.615 191.2 166.262 192.837 169.679 194.672C196.41 208.907 208.46 233.309 211.876 264.407C221.018 347.979 226.419 437.702 227.989 465.279C228.22 469.891 224.803 473.809 220.464 473.809Z" fill="#7E46E8"/>
<path d="M169.679 194.622L110.307 229.49L57.8137 194.176C61.2302 192.341 64.9236 190.704 68.8479 189.315L114.093 216.793L158.737 189.712C162.615 191.151 166.262 192.837 169.679 194.622Z" fill="#6232B8"/>
<g opacity="0.8">
<path d="M74.7111 202.558C73.3261 203.253 70.1405 204.889 68.8016 205.534C50.242 214.71 35.8838 232.515 29.8819 253.545C28.1275 259.447 27.3427 265.449 26.5578 271.599C24.9419 283.502 20.7868 314.898 19.1248 327.148C20.1866 314.6 22.8182 283.304 23.8339 271.251C24.7111 251.859 30.8976 233.458 42.9013 218.678C49.2725 210.742 57.1211 204.096 65.8007 199.186C67.1395 198.392 70.2328 196.656 71.5717 195.912L74.7111 202.558Z" fill="#6232B8"/>
</g>
<g opacity="0.8">
<path d="M90.131 212.377C87.361 214.014 80.6204 218.032 77.9427 219.569C66.1237 226.414 55.505 236.085 48.9953 248.782C46.0867 254.387 43.963 260.487 42.5779 266.786C41.239 272.341 40.5927 280.525 39.9002 286.278C38.469 298.976 34.6832 332.504 33.2058 345.598C34.1292 332.206 36.4376 298.876 37.3148 285.981C37.7764 279.98 38.0996 271.796 39.2077 265.993C40.3619 259.297 42.3009 252.75 45.1633 246.6C52.3194 230.877 64.8771 219.718 78.7275 211.137L86.6223 205.93L90.131 212.377Z" fill="#6232B8"/>
</g>
<g opacity="0.8">
<path d="M153.197 195.416C154.535 196.16 157.675 197.995 158.968 198.689C180.99 210.94 196.872 234.995 200.057 261.381C201.765 278.443 204.074 309.343 205.643 326.652C203.981 314.154 199.826 283.105 198.21 271.103C197.426 264.952 196.641 258.951 194.886 253.049C188.884 232.019 174.526 214.214 155.967 205.038C154.628 204.344 151.442 202.757 150.057 202.062L153.197 195.416Z" fill="#6232B8"/>
</g>
<g opacity="0.8">
<path d="M138.146 205.484C140.87 207.27 147.38 211.635 149.965 213.321C168.155 224.877 181.913 242.832 185.561 265.597C186.161 268.92 186.53 272.293 186.761 275.666C188.054 293.719 190.27 326.851 191.562 345.202C189.439 326.752 185.791 294.066 183.76 275.963C183.391 272.739 182.883 269.515 182.19 266.341C177.066 242.435 162.569 227.506 142.809 216.694L134.683 211.882L138.146 205.484Z" fill="#6232B8"/>
</g>
<path d="M131.082 0C131.082 0 70.602 28.2709 53.0581 77.8689L116.678 70.4292H117.37L197.102 131.732C198.949 48.9036 131.082 0 131.082 0Z" fill="#6232B8"/>
<path d="M125.911 32.736C99.1798 29.5121 73.0949 43.0524 58.7366 67.4546C47.8871 85.9546 41.5159 102.669 35.6064 116.904C27.6193 136.247 30.9434 158.368 46.6406 171.164C63.6304 185.002 106.29 221.407 106.29 221.407L178.681 187.581C196.733 179.149 205.228 157.872 200.611 137.289C197.056 121.516 191.978 103.661 184.221 82.5324C174.341 55.6999 152.642 35.9599 125.911 32.736Z" fill="#7E46E8"/>
<path d="M109.383 237.227C119.2 237.227 127.158 228.677 127.158 218.131C127.158 207.585 119.2 199.036 109.383 199.036C99.5666 199.036 91.6086 207.585 91.6086 218.131C91.6086 228.677 99.5666 237.227 109.383 237.227Z" fill="#F5B44F"/>
<path d="M109.383 238.169C99.0876 238.169 90.6851 229.143 90.6851 218.082C90.6851 207.022 99.0876 197.995 109.383 197.995C119.679 197.995 128.081 207.022 128.081 218.082C128.081 229.143 119.679 238.169 109.383 238.169ZM109.383 200.029C100.103 200.029 92.5318 208.163 92.5318 218.132C92.5318 228.101 100.103 236.235 109.383 236.235C118.663 236.235 126.234 228.101 126.234 218.132C126.234 208.163 118.663 200.029 109.383 200.029Z" fill="#FFDF8B"/>
<path d="M121.018 230.78L110.815 220.761L112.892 235.442L109.384 221.059L103.751 234.649L107.999 220.513L96.4104 228.648L107.121 219.224L93.271 219.373L107.029 217.637L95.3024 209.751L107.768 216.248L101.904 202.807L109.06 215.504L110.907 200.773L110.538 215.653L119.494 204.344L111.692 216.595L124.942 212.28L112.2 218.083L125.496 222.15L111.877 219.621L121.018 230.78Z" fill="#FFDF8B"/>
<path d="M176.512 332.407C176.973 333.052 178.774 335.78 176.973 338.309C174.942 341.136 171.202 343.269 169.864 341.632C169.033 340.591 169.494 338.904 169.54 338.805C169.356 338.954 165.293 342.327 153.382 345.352C141.147 348.477 133.991 343.963 133.991 343.963L135.607 318.172C135.607 318.172 153.936 311.873 168.063 310.385C170.464 310.137 177.435 309.939 178.174 312.965C178.589 314.7 178.266 316.436 177.897 317.577C177.666 318.272 177.481 318.718 177.389 318.916C177.343 318.966 177.343 318.966 177.343 318.966C177.343 318.966 179.328 320.553 178.081 323.727C177.897 324.124 177.712 324.57 177.389 325.066C177.666 325.215 180.667 327.398 177.527 331.167C177.25 331.514 176.927 331.861 176.512 332.258C176.419 332.258 176.466 332.308 176.512 332.407Z" fill="#FFCBA3"/>
<path d="M177.435 331.215C175.034 329.926 171.802 330.223 168.663 332.157C168.34 332.356 168.201 332.802 168.386 333.149C168.524 333.397 168.755 333.546 168.986 333.546C169.124 333.546 169.217 333.497 169.309 333.447C172.725 331.364 175.172 331.81 176.511 332.405L177.435 331.215Z" fill="#E99A5F"/>
<path d="M177.943 323.777C177.758 324.174 177.574 324.62 177.25 325.116C174.25 324.174 171.526 325.464 170.141 326.108C170.048 326.158 169.956 326.158 169.864 326.158C169.587 326.158 169.356 326.009 169.217 325.712C169.079 325.315 169.217 324.918 169.587 324.72C171.11 324.025 174.342 322.488 177.943 323.777Z" fill="#E99A5F"/>
<path d="M177.804 317.576C175.865 316.535 172.218 317.031 169.54 318.221C169.171 318.37 169.032 318.816 169.171 319.213C169.263 319.511 169.54 319.66 169.817 319.66C169.91 319.66 170.002 319.659 170.094 319.61C172.957 318.32 176.096 318.271 177.25 318.965L177.804 317.576Z" fill="#E99A5F"/>
<path d="M144.933 347.088C140.87 347.088 137.176 346.245 133.714 344.559C133.344 344.41 133.206 343.964 133.344 343.567C133.483 343.17 133.898 343.021 134.268 343.17C139.716 345.799 145.394 346.245 152.643 344.658C158.598 343.368 162.8 341.682 169.217 338.061C171.018 337.07 172.31 336.425 172.356 336.425C172.726 336.276 173.095 336.425 173.28 336.822C173.464 337.218 173.28 337.615 172.91 337.814C172.91 337.814 171.572 338.409 169.863 339.401C163.307 343.12 159.014 344.807 152.92 346.146C150.057 346.791 147.426 347.088 144.933 347.088Z" fill="#E99A5F"/>
<path d="M136.576 334.835C136.53 335.182 136.484 335.529 136.438 335.876C135.607 341.282 134.222 347.085 132.052 352.194C132.052 352.194 95.7635 354.575 65.4311 350.408C55.1356 348.97 53.9814 347.978 49.5955 346.639C51.4422 330.966 50.6112 316.087 52.504 303.588C62.384 304.927 72.1716 308.25 78.2658 310.78C83.806 313.111 99.6878 314.301 113.631 314.946C114.185 314.946 114.692 314.995 115.246 314.995C127.435 315.491 137.776 315.591 137.776 315.591C137.776 315.591 138.1 324.469 136.576 334.835Z" fill="#7E46E8"/>
<path d="M167.417 90.1704C164 66.3138 147.103 47.3177 124.85 44.0938C102.55 40.87 81.0362 54.1126 72.4489 76.4317L54.351 123.203C49.134 136.644 52.0888 152.118 61.7841 162.286L104.443 207.122L156.613 175.975C168.478 168.932 174.665 154.846 173.372 140.364C172.172 126.972 169.402 104.157 167.417 90.1704Z" fill="#6232B8"/>
<path d="M136.576 334.837C135.838 335.233 135.237 335.481 134.776 335.63C131.082 336.622 124.619 333.646 122.541 330.67C121.433 329.083 118.894 323.727 115.2 315.097C127.389 315.593 137.73 315.692 137.73 315.692C137.73 315.692 138.1 324.471 136.576 334.837Z" fill="#6232B8"/>
<path d="M110.723 220.711C110.723 220.711 109.753 217.437 109.753 216.445C109.753 215.404 114.047 211.585 117.371 202.459C119.679 196.061 125.173 187.53 130.483 181.33C135.792 175.13 128.174 174.486 121.618 179.049C115.386 183.413 107.075 188.373 104.305 189.861C103.013 190.555 97.103 179.594 89.5314 172.998C87.4539 171.162 80.8518 173.196 82.7447 178.255C84.6376 183.364 84.6376 183.364 84.6376 183.364C84.6376 183.364 82.7447 183.364 80.8518 184.405C78.959 185.447 79.8823 191.547 79.8823 191.547C79.8823 191.547 77.9894 191.547 77.0199 192.589C76.0504 193.63 75.127 198.689 75.127 198.689C75.127 198.689 72.2646 195.614 69.4483 198.689C66.6321 201.764 71.5259 207.022 72.3108 208.857C74.7577 214.66 78.6358 220.463 82.7909 224.332C87.8694 229.043 87.9156 232.763 87.9156 232.763L110.723 220.711Z" fill="#FFCBA3"/>
<path d="M115.339 218.379L85.5605 233.804C85.5605 233.804 96.7794 261.728 105.182 283.005C115.339 308.846 122.356 324.717 124.388 327.743C126.419 330.718 132.929 333.694 136.622 332.702C139.623 331.909 149.042 325.411 162.707 309.242C163.4 308.399 162.015 288.56 158.783 275.665C156.521 266.539 150.15 253.99 149.549 254.833C144.009 262.769 140.085 272.838 140.085 272.838L115.339 218.379Z" fill="#7E46E8"/>
<path d="M141.054 269.269C143.547 274.675 145.579 280.527 146.317 286.529C145.256 282.164 143.363 278.147 141.331 274.278C140.639 272.988 139.9 271.748 139.115 270.558L141.054 269.269Z" fill="#6232B8"/>
<path d="M141.747 167.89L104.674 190.854L75.6346 157.127C62.0612 141.405 58.4601 118.491 66.4472 98.8498L75.3114 77.0266C75.4961 76.5802 75.6808 76.1339 75.8655 75.6875C80.1129 65.9167 87.0843 58.1794 95.4407 53.2196C104.166 48.0118 114.508 45.8295 124.896 47.5654C145.256 50.8885 161.092 68.1486 164 89.9717C164.046 90.4677 164.139 91.0133 164.185 91.5092L166.632 115.168C168.802 136.495 159.06 157.177 141.747 167.89Z" fill="#F5B44F"/>
<path d="M73.6956 92.5996L74.8498 103.015C75.6346 110.306 80.4823 116.357 87.0843 118.341L106.752 124.144L106.429 116.307C106.106 108.818 101.489 102.321 94.8405 99.9897L73.6956 92.5996Z" fill="#3D3D3D"/>
<path d="M160.861 106.783L156.891 116.356C154.121 123.101 147.796 127.317 140.963 127.069L120.556 126.325L123.049 118.935C125.45 111.892 131.637 107.13 138.608 107.031L160.861 106.783Z" fill="#3D3D3D"/>
<path d="M116.447 107.578C115.431 121.366 113.585 135.7 111.692 149.389C109.706 163.128 107.536 177.313 104.674 190.853C105.69 177.065 107.536 162.731 109.429 149.042C111.415 135.353 113.585 121.118 116.447 107.578Z" fill="#E29631"/>
<path d="M116.217 107.827C116.263 107.777 116.31 107.727 116.31 107.678C116.356 107.727 116.356 107.777 116.356 107.877L116.217 107.827Z" fill="#E8A847"/>
<path d="M164 89.9709L163.723 90.3181C146.733 86.8959 127.066 93.4428 116.355 107.677C110.03 90.6653 93.0862 78.1666 75.9116 76.0339L75.8655 75.7363C80.1129 65.9655 87.0843 58.2282 95.4407 53.2684C104.166 48.0606 114.508 45.8783 124.896 47.6142C145.256 50.8877 161.138 68.1974 164 89.9709Z" fill="#E29631"/>
<path d="M161.83 80.4485C149.827 79.9029 137.5 82.8788 127.481 90.1201C123.603 92.8976 120.279 96.4191 117.509 100.337L116.77 98.3038C110.676 82.1348 95.9023 71.5209 80.5745 67.1562C96.8256 69.5866 112.661 80.6469 118.94 97.3614L116.909 97.0142C127.574 83.1764 145.671 77.6214 161.83 80.4485Z" fill="#F5B44F"/>
<path d="M149.965 60.7078C148.211 65.6676 144.471 69.9826 139.9 72.2641C135.515 74.3968 131.036 76.6783 127.204 79.803C124.111 82.2333 121.479 85.358 119.125 88.6314C117.74 84.7132 116.124 80.8446 113.954 77.4223C111.507 73.5041 108.229 70.0818 104.72 67.2547L103.705 66.3619C99.7804 62.8901 97.2873 57.3847 97.5182 51.9785C98.1184 57.7319 101.212 62.7413 105.644 65.8164C106.29 66.2627 107.121 66.9075 107.721 67.3539C113.631 71.8673 118.017 78.4639 120.602 85.6556L118.571 85.3084C122.726 79.6542 128.543 75.3888 134.683 72.7105C136.207 72.0161 137.777 71.3713 139.254 70.7762C143.871 68.8914 147.518 65.2708 149.965 60.7078Z" fill="#F5B44F"/>
<path d="M112.015 180.14L141.424 161.987C150.519 156.383 156.66 146.562 157.999 135.353L158.83 128.707C158.83 128.707 147.749 142.446 123.003 139.966L112.015 180.14Z" fill="#E29631"/>
<path d="M100.842 178.355L77.7582 151.672C70.6483 143.438 67.5089 132.08 69.2633 120.97L70.3251 114.324C70.3251 114.324 77.158 130.989 101.442 136.495L100.842 178.355Z" fill="#E29631"/>
<path d="M120.279 80.6951L115.662 71.3211L122.541 64.4766L127.573 73.2554L120.279 80.6951Z" fill="#F5B44F"/>
<path d="M101.581 60.9554C111.553 51.135 130.344 53.3669 139.9 62.9393C141.332 64.4272 142.578 66.064 143.501 67.8991C140.916 64.7744 137.73 62.4929 134.314 60.757C124.157 55.946 111.461 54.954 101.581 60.9554Z" fill="#F5B44F"/>
<path d="M89.1154 57.832C92.2548 62.5438 96.4099 66.6109 100.981 69.7852C98.4413 68.4956 96.0406 67.0077 93.7783 65.2717C91.4238 63.4862 89.3 61.6015 87.3148 59.32C87.2686 59.32 89.1154 57.832 89.1154 57.832Z" fill="#F5B44F"/>
<path d="M157.629 70.7757C152.689 73.7516 147.241 75.5371 141.701 76.4299C145.671 75.2395 149.503 73.454 153.012 71.1725C154.166 70.4285 155.321 69.5854 156.336 68.7422L157.629 70.7757Z" fill="#F5B44F"/>
<path d="M125.311 143.141L123.141 150.928C123.141 150.928 129.005 149.588 132.837 143.438C132.837 143.488 129.42 143.835 125.311 143.141Z" fill="#F5B44F"/>
<path d="M117.509 172.552C124.988 167.543 132.513 162.732 139.577 157.127C141.285 155.739 143.086 154.3 144.609 152.763C147.749 149.588 150.196 145.67 152.089 141.504C153.058 139.421 153.889 137.239 154.582 134.957C154.305 137.338 153.658 139.619 152.92 141.901C151.35 146.414 149.042 150.68 145.856 154.151C144.286 155.838 142.44 157.326 140.685 158.764C133.529 164.319 125.727 168.981 117.509 172.552Z" fill="#F5B44F"/>
<path d="M117.786 170.567C118.894 165.707 120.094 160.896 122.679 156.58C123.418 155.39 124.619 154.2 126.096 154.299C128.497 154.299 129.928 157.523 132.005 157.672C132.836 157.672 133.529 157.225 133.944 156.382C134.868 154.398 134.868 151.769 135.33 149.488C137.546 136.94 145.44 150.579 150.888 137.932C147.472 149.587 139.715 142.395 137.869 146.562C136.391 149.885 137.13 153.853 135.56 157.324C134.637 159.556 131.775 160.3 129.882 158.961C128.589 158.217 127.25 156.233 126.004 156.085C123.095 155.688 118.986 167.79 117.786 170.567Z" fill="#F5B44F"/>
<path d="M126.096 163.427C127.116 163.427 127.943 162.539 127.943 161.443C127.943 160.347 127.116 159.459 126.096 159.459C125.076 159.459 124.249 160.347 124.249 161.443C124.249 162.539 125.076 163.427 126.096 163.427Z" fill="#F5B44F"/>
<path d="M131.175 153.704C132.195 153.704 133.021 152.816 133.021 151.72C133.021 150.625 132.195 149.736 131.175 149.736C130.155 149.736 129.328 150.625 129.328 151.72C129.328 152.816 130.155 153.704 131.175 153.704Z" fill="#F5B44F"/>
<path d="M141.332 151.323C142.352 151.323 143.178 150.435 143.178 149.339C143.178 148.244 142.352 147.355 141.332 147.355C140.312 147.355 139.485 148.244 139.485 149.339C139.485 150.435 140.312 151.323 141.332 151.323Z" fill="#F5B44F"/>
<path d="M98.5338 138.776L98.4415 146.911C98.4415 146.911 93.1783 143.786 91.2393 136.693C91.2854 136.693 94.4248 138.132 98.5338 138.776Z" fill="#F5B44F"/>
<path d="M97.8874 169.375C91.0546 163.324 84.8681 156.43 79.5587 148.792C78.3122 146.858 76.9271 144.824 75.9114 142.741C73.7877 138.426 72.772 133.615 72.5412 128.804C72.4488 126.424 72.495 123.993 72.8643 121.662C72.9105 124.043 73.0952 126.374 73.4184 128.705C74.0647 133.268 75.3113 137.831 77.435 141.848C78.4968 143.832 79.7895 145.767 81.0361 147.651C86.2531 155.24 92.1164 162.233 97.8874 169.375Z" fill="#F5B44F"/>
<path d="M98.1646 167.392C97.7029 162.581 97.4259 157.572 95.9947 153.009C95.0713 150.38 93.8709 150.479 91.6087 151.719C90.7777 152.116 89.8082 152.563 88.7925 152.563C86.8996 152.662 85.099 151.025 84.8682 149.041C84.3142 145.272 86.1147 141.701 85.653 138.03C85.0528 133.467 75.6807 137.882 75.5884 125.631C77.2966 139.469 88.6078 128.904 87.2227 141.601C87.0381 143.933 86.2994 146.412 86.6687 148.644C86.8072 149.587 87.3612 150.231 88.1923 150.529C90.2237 151.025 92.4859 148.446 94.7943 149.19C96.2255 149.587 97.0565 151.124 97.4259 152.463C98.5801 157.374 98.4416 162.383 98.1646 167.392Z" fill="#F5B44F"/>
<path d="M92.763 157.97C93.7829 157.97 94.6097 157.082 94.6097 155.986C94.6097 154.89 93.7829 154.002 92.763 154.002C91.7431 154.002 90.9163 154.89 90.9163 155.986C90.9163 157.082 91.7431 157.97 92.763 157.97Z" fill="#F5B44F"/>
<path d="M90.5469 147.108C91.5668 147.108 92.3936 146.22 92.3936 145.125C92.3936 144.029 91.5668 143.141 90.5469 143.141C89.527 143.141 88.7002 144.029 88.7002 145.125C88.7002 146.22 89.527 147.108 90.5469 147.108Z" fill="#F5B44F"/>
<path d="M81.544 141.603C82.5639 141.603 83.3907 140.714 83.3907 139.619C83.3907 138.523 82.5639 137.635 81.544 137.635C80.5241 137.635 79.6973 138.523 79.6973 139.619C79.6973 140.714 80.5241 141.603 81.544 141.603Z" fill="#F5B44F"/>
</svg>
