<svg width="398" height="428" fill="none" xmlns="http://www.w3.org/2000/svg"><path d="M30 3h338c14.912 0 27 12.088 27 27v368c0 14.912-12.088 27-27 27H30c-14.912 0-27-12.088-27-27V30C3 15.088 15.088 3 30 3Z" fill="#767FEC" stroke="#9298F0" stroke-width="6"/><path d="M44 27h310c9.389 0 17 7.611 17 17v258c0 9.389-7.611 17-17 17H44c-9.389 0-17-7.611-17-17V44c0-9.389 7.611-17 17-17Z" fill="#fff" stroke="#9298F0" stroke-width="6"/><g clip-path="url(#a)"><path d="M199 235.5c34.518 0 62.5-27.982 62.5-62.5s-27.982-62.5-62.5-62.5-62.5 27.982-62.5 62.5 27.982 62.5 62.5 62.5Z" fill="#FFC93E"/><path d="m259.875 158.688-75 75a62.504 62.504 0 0 1-48-56.25l66.562-66.938a62.5 62.5 0 0 1 56.438 48.188Z" fill="#FFC93E"/><path d="m259.875 158.688-75 75a62.504 62.504 0 0 1-48-56.25l66.562-66.938a62.5 62.5 0 0 1 56.438 48.188Z" fill="#FFDF8B"/><path d="M199 229.812c31.377 0 56.812-25.435 56.812-56.812S230.377 116.188 199 116.188 142.188 141.623 142.188 173s25.435 56.812 56.812 56.812Z" fill="#552CA1"/><path d="M213.75 124.062a7.061 7.061 0 0 0-4 3.875 7.065 7.065 0 0 0-1.938-4.938 2.752 2.752 0 0 0-2.937 0 3.688 3.688 0 0 0-2.125 2.313 7.441 7.441 0 0 0 .812 5.125c.168.238.41.414.688.5a1.063 1.063 0 0 0 .875 0 .997.997 0 0 0 .5-.625 1.068 1.068 0 0 0 0-.875 5.258 5.258 0 0 1-.688-3.313 1.629 1.629 0 0 1 .938-1 .693.693 0 0 1 .625 0c1.375 1.188 1.437 6.625 0 12.5a1.052 1.052 0 0 0 .461 1.159c.126.08.267.132.414.154a1.126 1.126 0 0 0 1.062-.875c1.313-5.875 3.75-10.75 5.5-11.188h.563a1.503 1.503 0 0 1 .437 1.25 5.12 5.12 0 0 1-2.062 2.75 1.196 1.196 0 0 0-.438.688 1.06 1.06 0 0 0 0 .875c.171.222.414.377.688.437a1.064 1.064 0 0 0 .875 0 7.191 7.191 0 0 0 3.75-4.812 3.617 3.617 0 0 0-.875-3 2.752 2.752 0 0 0-3.125-1ZM239.062 141.125a3.298 3.298 0 0 0-2.375-1.003 3.303 3.303 0 0 0-2.375 1.003 1.993 1.993 0 0 1-2.218.451 2.007 2.007 0 0 1-.657-.451h-.312a1.948 1.948 0 0 1-.639-1.438 1.936 1.936 0 0 1 .639-1.437 3.376 3.376 0 0 0 0-4.75L230 132.375a1.19 1.19 0 0 0-1.946.387 1.194 1.194 0 0 0 .258 1.3l1.125 1.125a1 1 0 0 1 0 1.375 4.26 4.26 0 0 0-1.312 3.563A5 5 0 0 0 224 148a5.062 5.062 0 0 0 7.062 0 5.064 5.064 0 0 0 1.438-3.563 4.379 4.379 0 0 0 3.625-1.312 1 1 0 0 1 1.375 0l1.25 1.25a1.19 1.19 0 0 0 1.946-.387 1.194 1.194 0 0 0-.259-1.301l-1.375-1.562Zm-13.5 4.875a2.628 2.628 0 0 1 0-3.688 2.564 2.564 0 0 1 3.563 0 2.626 2.626 0 0 1 0 3.563 2.627 2.627 0 0 1-3.563.125ZM250.125 165.25a22.44 22.44 0 0 1-3.188-11.375 1.124 1.124 0 0 0-1-1.187 1.304 1.304 0 0 0-.812.312c-.2.199-.312.468-.313.75a11.935 11.935 0 0 0 0 2.563l-8.312 2.375a23.884 23.884 0 0 0-1.125-2.188 1.124 1.124 0 0 0-1.5-.375.986.986 0 0 0-.321.264.986.986 0 0 0-.205.786.976.976 0 0 0 .151.387 22.637 22.637 0 0 1 3 11.438 1.06 1.06 0 0 0 .937 1.125 1.062 1.062 0 0 0 1.063-1 17.43 17.43 0 0 0 0-2.375l8.75-2.438c.312.688.687 1.375 1.062 2.063a1.189 1.189 0 0 0 1.438.375 1.127 1.127 0 0 0 .375-1.5Zm-3.813-2.937-8.187 2.249a26.539 26.539 0 0 0-1.063-3.812l8.188-2.312a27.354 27.354 0 0 0 1.062 3.875ZM240.875 181.688H242a4.064 4.064 0 0 0 3.277-6.243 4.057 4.057 0 0 0-2.214-1.694 3.808 3.808 0 0 0-3.375.562 7.809 7.809 0 0 0-2.5 2.75 36.177 36.177 0 0 0-3.375 15.563 1.001 1.001 0 0 0 .312.875 1.075 1.075 0 0 0 .813.437 1.185 1.185 0 0 0 1.187-1.187 39.396 39.396 0 0 1 2.375-12.938 4.128 4.128 0 0 0 2.375 1.875Zm2.688-3.5a1.629 1.629 0 0 1-1.977 1.042 1.62 1.62 0 0 1-.956-.73 1.617 1.617 0 0 1-.192-1.187c.064-.322.241-.61.5-.812h1.812c.414.118.77.385 1 .75a1.75 1.75 0 0 1-.187.937Z" fill="#FFC93E"/><path d="M247.812 174.938a1.5 1.5 0 0 0-.875 0c-.235.231-.37.546-.375.875a39.35 39.35 0 0 1-2.375 12.938 4.187 4.187 0 0 0-2.312-1.688 3.76 3.76 0 0 0-3.063.375 3.637 3.637 0 0 0-1.937 2.438 4.065 4.065 0 0 0 2.812 5h1.063a3.692 3.692 0 0 0 2.125-.625 7.5 7.5 0 0 0 2.687-2.875A35.923 35.923 0 0 0 249 176.251a1.191 1.191 0 0 0 0-.875 1.319 1.319 0 0 0-1.188-.438Zm-8.5 17.125a1.755 1.755 0 0 1 .625-2.25c.268-.057.545-.057.813 0h.437a1.57 1.57 0 0 1 1 .75c.16.402.16.849 0 1.25a1.62 1.62 0 0 1-.562.875h-.375a1.069 1.069 0 0 1-.875 0 1.747 1.747 0 0 1-1.063-.625ZM235 205.312a3.622 3.622 0 0 0 1.313-2.75 3.748 3.748 0 0 0-2.189-3.446 3.754 3.754 0 0 0-4.04.595 3.751 3.751 0 0 0 2.041 6.539c1.438 1 3.563 3 3.563 4.312 0 0 0 .625-1 1.188a3.493 3.493 0 0 1-2.75.687c-1.125-.5-1.688-2.875-2.188-4.937-.5-2.063-1.25-5.188-3.312-5.875a4.006 4.006 0 0 0-1.858-.25 4.01 4.01 0 0 0-1.767.625 5.072 5.072 0 0 0-1.563 3.812 1.25 1.25 0 0 0 1.25 1.25 1.373 1.373 0 0 0 1.25-1.312s0-1.375.625-1.688a1.38 1.38 0 0 1 1.313 0c.687 0 1.25 2.5 1.625 4 .625 2.813 1.312 5.688 3.625 6.688a4.31 4.31 0 0 0 1.5.312 7.313 7.313 0 0 0 3.562-1.125 3.874 3.874 0 0 0 2.188-3.312 7.583 7.583 0 0 0-1.025-2.998 7.579 7.579 0 0 0-2.163-2.315Zm-2.437-4a1.2 1.2 0 0 1 .862.37 1.187 1.187 0 0 1 .325.88 1.188 1.188 0 0 1-1.187 1.188 1.256 1.256 0 0 1-1.404-.677 1.24 1.24 0 0 1 0-1.084 1.253 1.253 0 0 1 1.404-.677ZM218.062 221.376c-2.5-1.625-3.687-8.25-3.75-9.938a1.252 1.252 0 0 0-1.25-1.187 1.12 1.12 0 0 0-1.115.722 1.118 1.118 0 0 0-.072.465 29.418 29.418 0 0 0 1.687 7.5 9.425 9.425 0 0 1-.562 3 32.221 32.221 0 0 1-2.563-9.812.996.996 0 0 0-.437-.813 1.178 1.178 0 0 0 0-.937 1.25 1.25 0 0 0-1.563-.75 9.046 9.046 0 0 0-2.125 1.25 4.683 4.683 0 0 0-2-1.688 1.195 1.195 0 0 0-.937 0 1.121 1.121 0 0 0-.625.688c-.122.3-.122.637 0 .937a1.13 1.13 0 0 0 .687.625c.442.282.807.669 1.063 1.125a7.376 7.376 0 0 0-1.688 5.313c0 2.5.75 5.5 2.75 5.625a2.184 2.184 0 0 0 1.688-.813c.375 1.313.812 2.188 1.687 2.563h.813c.327.094.673.094 1 0a3.063 3.063 0 0 0 1-1c.192.183.429.313.687.375a2.133 2.133 0 0 0 1.938 0 3.874 3.874 0 0 0 1.187-1.688c.333.42.734.779 1.188 1.063a1.246 1.246 0 0 0 1.431-.498c.101-.151.167-.323.194-.502a1.318 1.318 0 0 0 0-.938 1.366 1.366 0 0 0-.313-.687Zm-8.375 1.125a29.228 29.228 0 0 1-.812-3.688v-.937a27.047 27.047 0 0 0-.813-3.625c0-.438-.312-.813-.437-1.188l.625-.437a45.573 45.573 0 0 0 2 8.937 3.922 3.922 0 0 1-.563.938Zm-4.437-4.938a5.759 5.759 0 0 1 .437-2.5c.298.958.507 1.942.625 2.938a17.662 17.662 0 0 1-.562 2.312 11.372 11.372 0 0 1-.5-2.75ZM195.875 213.126l-16.063-4.25a1.625 1.625 0 0 0-.937 0c-.255.192-.45.452-.563.75a1.625 1.625 0 0 0 0 .937c.192.255.452.45.75.563l16.063 4.187a1.187 1.187 0 0 0 1.187-.937 1.365 1.365 0 0 0 0-.875 1.117 1.117 0 0 0-.437-.375ZM195 217.876l-5.625-1.75a1.563 1.563 0 0 0-1.625.437 1.438 1.438 0 0 0 0 1.625c.812 2 .937 3.938.375 4.563-.563.625-1.625.25-3.125.25s-3.25-1.375-3.375-2.125.812-2.25 2.437-3.438a1.43 1.43 0 0 0 .625-1.5 1.617 1.617 0 0 0-1.125-1.25l-5.937-1.75a1.2 1.2 0 0 0-.938 0 1.13 1.13 0 0 0-.625.688 1.25 1.25 0 0 0 .813 1.562l4.437 1.25a5.757 5.757 0 0 0-2.125 4.75c.313 1.813 2.063 3.188 5.125 4a9.24 9.24 0 0 0 2.438.375 3.681 3.681 0 0 0 2.875-1.125 5.881 5.881 0 0 0 .625-5.375l4.062 1.25a1.25 1.25 0 0 0 1.5-.812 1.18 1.18 0 0 0-.028-1.002 1.166 1.166 0 0 0-.323-.398 1.175 1.175 0 0 0-.461-.225ZM174.563 204.562a.941.941 0 0 0-.563-.312.939.939 0 0 0-.812 0 26.004 26.004 0 0 0-5.063 5.25 7.113 7.113 0 0 1-2.875 1 30.186 30.186 0 0 1 6.25-7.313 1.123 1.123 0 0 0-.687-1.937 1.065 1.065 0 0 0-.813.312 39.809 39.809 0 0 0-6.25 6.25 6.673 6.673 0 0 1-1.187.313 20.535 20.535 0 0 1 2.562-2.687 31.875 31.875 0 0 0 3.188-3.313c2.5-3.063 2.187-5.063 2.062-5.438a1.07 1.07 0 0 0-.872-.892 1.07 1.07 0 0 0-.44.017 1.124 1.124 0 0 0-.875 1.313c.082.349.082.713 0 1.063a7.895 7.895 0 0 0-1.313-2.001.812.812 0 0 0 0-.75.816.816 0 0 0-.75-.499h-2.75l.563 2.625a1.053 1.053 0 0 0 .687.687c.241.097.51.097.75 0a4.374 4.374 0 0 1 1.188 3.063c-.813.937-1.875 1.937-2.813 2.812-2.125 2-3.687 3.438-3.375 4.938a1.876 1.876 0 0 0 1.125 1.437c.452.106.923.106 1.375 0a1.512 1.512 0 0 0 0 .75 2.184 2.184 0 0 0 1.313 1.375c.636.154 1.3.154 1.937 0a4.87 4.87 0 0 0 0 1.625 1.18 1.18 0 0 0 .75 1.062h.375c.179-.021.351-.085.5-.187a.998.998 0 0 0 .375-.812c0-2.875 4.625-7.25 6.25-8.25a1.005 1.005 0 0 0 .188-1.501ZM160.75 185.5a1.379 1.379 0 0 0-.875 0H157l-1.312-6.25 3.125 2.125a.997.997 0 0 0 .812 0 1.25 1.25 0 0 0 .75-.5 1.119 1.119 0 0 0-.312-1.625l-6.25-4.188-4.813 5.813a1.063 1.063 0 0 0 0 1.563 1.19 1.19 0 0 0 1.625 0l2.75-3.188 1.375 6.813-3.375.624a1.19 1.19 0 0 0-.75.438 1.064 1.064 0 0 0 0 .875 1.128 1.128 0 0 0 1.125.938l3.438-.625 1 4.875a1.06 1.06 0 0 0 1.125.937c.303-.068.57-.246.75-.5a2.018 2.018 0 0 0 0-.875l-1-4.875 2.875-.5c.285-.07.532-.25.687-.5a1.064 1.064 0 0 0 0-.875c.078-.156.121-.326.125-.5ZM159.688 161.874a4.5 4.5 0 0 0-.5-6.937 3.373 3.373 0 0 0-3.75.375 3.237 3.237 0 0 0-1.5 2.375 4.064 4.064 0 0 0 1.312 2.812c-.91-.17-1.808-.4-2.687-.687-2.375-.75-4.875-1.5-6.25.5a2.181 2.181 0 0 0 0 2.062 5.87 5.87 0 0 0 2 2.563h-.563a5.43 5.43 0 0 0-3 3.375 1.06 1.06 0 0 0 0 .875c.192.254.452.449.75.562h.313a1.062 1.062 0 0 0 1.062-.812 3.375 3.375 0 0 1 1.75-1.875 4.74 4.74 0 0 1 3.375 0l.625.312h.5l1 .438a1.19 1.19 0 0 0 1.563-.5 1.192 1.192 0 0 0-.438-1.25 18.016 18.016 0 0 0-2.312-.938 9.625 9.625 0 0 1-4.375-3.375s2.187 0 3.437.5a13.067 13.067 0 0 0 5.75.875 7.503 7.503 0 0 1 1.75 2.125 1.815 1.815 0 0 1-.875 2.375 1.19 1.19 0 0 0-.625 1.5 1.252 1.252 0 0 0 1.563.625 4.064 4.064 0 0 0 1.937-5.375 6.262 6.262 0 0 0-1.812-2.5Zm-2.938-4.625a1.82 1.82 0 0 1 .938-.375H158a2.059 2.059 0 0 1 .75 1.875c0 .282-.068.561-.198.811-.131.25-.32.465-.552.627-.687-.688-1.812-1.813-1.75-2.375.063-.563.313-.438.5-.563ZM176.75 140.063l-2.312-1a2.614 2.614 0 0 0-2.063 0 2.363 2.363 0 0 0-1.187 1.687v1.625a2.434 2.434 0 0 0-1.875 0 2.559 2.559 0 0 0-1.563 1.875l-.437 1.813a2.497 2.497 0 0 0-2 0 2.369 2.369 0 0 0-1.625 1.937l-1.063 3.813c-.091.284-.091.59 0 .875.167.238.409.414.688.5h.312c.249-.008.488-.098.681-.256.192-.159.326-.376.382-.619l1.062-3.75a2.502 2.502 0 0 0 2-.563 2.447 2.447 0 0 0 1.25-1.562l.438-1.813a2.75 2.75 0 0 0 2 0 2.494 2.494 0 0 0 1.125-1.625l.312-1.625 2.375.938a1.068 1.068 0 0 0 .875 0 1.127 1.127 0 0 0 1.25-.563 1.063 1.063 0 0 0 0-.875.937.937 0 0 0-.625-.812ZM161 142.751a2.314 2.314 0 0 0 1.938 0 2.432 2.432 0 0 0 1.25-1.563l.5-1.812a2.439 2.439 0 0 0 3.125-1.813v-1.625l2.312.938a1.115 1.115 0 0 0 .884.007 1.116 1.116 0 0 0 .616-.632 1.185 1.185 0 0 0-.625-1.438l-1.5-1.187a2.312 2.312 0 0 0-3.25 1.875v1.625a2.624 2.624 0 0 0-1.937 0 2.247 2.247 0 0 0-1.125 1.5l-.5 1.812a2.317 2.317 0 0 0-1.938 0 2.498 2.498 0 0 0-1.25 1.5l-1 3.813a1.053 1.053 0 0 0 .399 1.2c.124.087.265.147.414.175a1.189 1.189 0 0 0 1.125-.875l1-3.75-.438.25ZM180.25 127.813a6.932 6.932 0 0 1 3.25 3.437h-.75c-1.937.563-2.312.625-2.187 1.5a.94.94 0 0 0 .812.875h.438l1.937-.5a12.001 12.001 0 0 1-1.062 5 .94.94 0 0 0 .5 1.375 1 1 0 0 0 1.062-.625c.95-1.94 1.38-4.094 1.25-6.25h1.125a12.506 12.506 0 0 0 4.563 5.25.996.996 0 0 0 1.6-.328 1.012 1.012 0 0 0 0-.781.99.99 0 0 0-.225-.328 10.814 10.814 0 0 1-3.75-4.063l2.25-.562a1.001 1.001 0 0 0 .687-1.25.95.95 0 0 0-.159-.348.95.95 0 0 0-1.028-.34l-2.375.563a6.743 6.743 0 0 1 1.125-4.625 1.066 1.066 0 0 0 0-1.438 1.004 1.004 0 0 0-1.438 0 8.75 8.75 0 0 0-1.5 6.25h-.937a1.189 1.189 0 0 0 0-.437 8.875 8.875 0 0 0-4.375-4.563.933.933 0 0 0-.787-.022.936.936 0 0 0-.526.585 1.005 1.005 0 0 0 .5 1.625ZM217.625 195.875l-16.937-18.813 1.562 25.251-4-24.938-12.375 22.062L196 176.25l-22.313 11.938 21.001-14.063-25.188-2.062 25.312-.438-20.125-15.375 21.501 13.313-8.563-23.75 10.875 22.812 5.625-24.687-3.187 25.125L219 151.312l-16.188 19.438 24.75-5.187-24.125 7.562L227 182.188l-24.375-6.688 15 20.375Z" fill="#FFC93E"/></g><g clip-path="url(#b)"><path d="M100.05 85.125a2.508 2.508 0 0 1-.585 2.016 2.5 2.5 0 0 1-1.915.86H95.5a18.775 18.775 0 0 0-30.8-15.626 14.57 14.57 0 0 0-1.975 1.95L56.8 58.9a2.5 2.5 0 0 1 2.35-3.4H95.5l4.55 29.625Z" fill="#E8A847"/><path d="M100.5 55.5h-5V58h5v-2.5Z" fill="#E8A847"/><path d="M100.5 55.5h-5V58h5v-2.5Z" fill="#E8A847"/><path d="m103 55.5-.001-.056c-.046-2.137-2.861.056-4.999.056a2.5 2.5 0 0 0 5 0Z" fill="#E8A847"/><path d="M89.25 63h-20a1.25 1.25 0 1 0 0 2.5h20a1.25 1.25 0 1 0 0-2.5Z" fill="#F1CB91"/><path d="M56.75 58h43.75a2.499 2.499 0 0 1-2.5 2.5H56.75a1.25 1.25 0 0 1 0-2.5Z" fill="#FFC93E"/><path d="m82.275 58-2.5 2.5H75.5L78 58h4.275Z" fill="#FFDF8B"/><path d="M89.2 76.3a16.249 16.249 0 1 0-24.887 20.899 16.249 16.249 0 0 0 24.887-20.9Zm1.3 10.4-10.55-.925L88 78.949a13.55 13.55 0 0 1 2.5 7.75Zm-14.65-3.076-6.9-8.124A13.825 13.825 0 0 1 76.7 73l-.85 10.624Zm1.95 6.25L84.55 98a13.822 13.822 0 0 1-7.75 2.499l1-10.624ZM86.425 77.1l-8.175 6.75.925-10.625A13.674 13.674 0 0 1 86.425 77v.1Zm-19.3.025 6.825 8.124-10.575-.924a13.676 13.676 0 0 1 3.65-7.2h.1ZM63 86.798l10.55.925-8.05 6.825A13.55 13.55 0 0 1 63 86.8Zm4 9.7 8.175-6.85-.925 10.625a13.672 13.672 0 0 1-7.175-3.775H67Zm19.4-.124-6.75-8.126 10.575.925a13.675 13.675 0 0 1-3.75 7.2H86.4Z" fill="#680B1A"/><path d="M76.75 88a1.25 1.25 0 1 0 0-2.5 1.25 1.25 0 0 0 0 2.5Z" fill="#E8A847"/></g><g clip-path="url(#c)"><path d="M335.125 103H307.25a2.5 2.5 0 0 1-2.5-2.25L300.275 58a2.502 2.502 0 0 1 2.225-2.675l34.6-2.15a2.495 2.495 0 0 1 1.913.719 2.501 2.501 0 0 1 .737 1.906l-2.225 44.825a2.503 2.503 0 0 1-2.4 2.375Z" fill="#E8A847"/><path d="m339.075 71.426-1.45 29.2a2.5 2.5 0 0 1-2.5 2.375H307.5l31.575-31.575Z" fill="#F1CB91"/><path d="M315 95.5v3.75a1.252 1.252 0 0 1-1.25 1.25 1.252 1.252 0 0 1-1.25-1.25V98l2.5-2.5Z" fill="#F1CB91"/><path d="M335 81.75a1.252 1.252 0 0 1-1.25 1.25h-6.25l2.5-2.5h3.75a1.25 1.25 0 0 1 1.25 1.25ZM333.75 78h-1.25l2.15-2.15c.218.25.342.568.35.9a1.252 1.252 0 0 1-1.25 1.25Z" fill="#D6985D"/><path d="M337.75 58h-13l5.25 9.075v4.675a1.252 1.252 0 0 0 2.134.884c.234-.234.366-.552.366-.884v-4.675L337.75 58ZM320.25 85.5h-13l5.25 9.075v4.675a1.252 1.252 0 0 0 1.25 1.25 1.252 1.252 0 0 0 1.25-1.25v-4.675l5.25-9.075Z" fill="#CC7E35"/><path d="M315 95.5v3.75a1.252 1.252 0 0 1-1.25 1.25 1.252 1.252 0 0 1-1.25-1.25V98l2.5-2.5Z" fill="#D6985D"/><path d="M317.5 78a5.002 5.002 0 0 1-5 5 5.002 5.002 0 0 1-5-5h10ZM317.5 70.5a5.002 5.002 0 0 1-5 5 5.002 5.002 0 0 1-5-5h10ZM313.75 63h-7.5a1.25 1.25 0 0 0 0 2.5h7.5a1.25 1.25 0 0 0 0-2.5ZM313.75 58h-7.5a1.25 1.25 0 0 0 0 2.5h7.5a1.25 1.25 0 0 0 0-2.5ZM333.75 80.5h-7.5a1.25 1.25 0 0 0 0 2.5h7.5a1.25 1.25 0 0 0 0-2.5ZM333.75 75.5h-7.5a1.25 1.25 0 0 0 0 2.5h7.5a1.25 1.25 0 0 0 0-2.5Z" fill="#CC7E35"/><path d="M335 81.75a1.252 1.252 0 0 1-1.25 1.25h-6.25l2.5-2.5h3.75a1.25 1.25 0 0 1 1.25 1.25ZM335 76.75a1.252 1.252 0 0 1-1.25 1.25h-1.25l2.15-2.15c.218.25.342.568.35.9ZM330 100.5a2.5 2.5 0 1 0 0-5 2.5 2.5 0 0 0 0 5ZM330 93a2.5 2.5 0 1 0 0-5 2.5 2.5 0 0 0 0 5Z" fill="#D6985D"/><path d="M320 68a2.5 2.5 0 1 0 0-5 2.5 2.5 0 0 0 0 5Z" fill="#CC7E35"/></g><g clip-path="url(#d)"><path d="M85.5 265.5h-.675c-1-3.7-2.65-3.7-3.65 0h-1.35c-1-3.7-2.65-3.7-3.65 0h-1.35c-1-3.7-2.65-3.7-3.65 0H70.5A2.5 2.5 0 0 0 68 268v20a2.5 2.5 0 0 0 2.5 2.5h3.75v-10a3.75 3.75 0 1 1 7.5 0v10h3.75A2.5 2.5 0 0 0 88 288v-20a2.501 2.501 0 0 0-2.5-2.5Z" fill="#252FB5"/><path d="M83 280.5v10h-2.5v-10a2.501 2.501 0 0 0-5 0v10H73v-10a5.002 5.002 0 0 1 8.535-3.536A5.002 5.002 0 0 1 83 280.5Z" fill="#FFC93E"/><path d="M63 258H53a2.5 2.5 0 0 0-2.5 2.5V288a2.5 2.5 0 0 0 2.5 2.5h10a2.5 2.5 0 0 0 2.5-2.5v-27.5A2.5 2.5 0 0 0 63 258ZM103 258H93a2.5 2.5 0 0 0-2.5 2.5V288a2.5 2.5 0 0 0 2.5 2.5h10a2.5 2.5 0 0 0 2.5-2.5v-27.5a2.5 2.5 0 0 0-2.5-2.5ZM104.85 248.174c-1-3.8-2.65-3.8-3.675 0h-1.35c-1-3.7-2.65-3.7-3.65 0h-1.35c-1.025-3.725-2.675-3.725-3.675 0a1.25 1.25 0 0 0-.65 1.075v3.75a2.501 2.501 0 0 0 2.5 2.5h10a2.5 2.5 0 0 0 2.5-2.5v-3.75a1.255 1.255 0 0 0-.65-1.075ZM64.85 248.176c-1-3.8-2.65-3.8-3.675 0h-1.35c-1-3.7-2.65-3.7-3.65 0h-1.35c-1.025-3.9-2.675-3.9-3.675-.175a1.249 1.249 0 0 0-.65 1.25v3.75a2.501 2.501 0 0 0 2.5 2.5h10a2.503 2.503 0 0 0 2.5-2.5v-3.75a1.247 1.247 0 0 0-.65-1.075Z" fill="#252FB5"/><path d="M65.5 250.5h-15v2.5h15v-2.5ZM105.5 250.5h-15v2.5h15v-2.5Z" fill="#FFC93E"/><path d="m59.775 250.5-2.5 2.5H53l2.5-2.5h4.275ZM99.775 250.5l-2.5 2.5H93l2.5-2.5h4.275ZM75.5 280.5v6.55l-2.5 2.5V283l2.5-2.5ZM80.5 282.074v-1.575a2.501 2.501 0 0 0-2.5-2.5l2.05-2.05a5.004 5.004 0 0 1 2.95 3.7l-2.5 2.425Z" fill="#FFDF8B"/><path d="M55.5 261.75a1.25 1.25 0 0 0-2.5 0v2.5a1.25 1.25 0 0 0 2.5 0v-2.5ZM55.5 269.25a1.25 1.25 0 0 0-2.5 0v7.5a1.25 1.25 0 0 0 2.5 0v-7.5ZM95.5 261.75a1.25 1.25 0 0 0-2.5 0v2.5a1.25 1.25 0 0 0 2.5 0v-2.5ZM95.5 269.25a1.25 1.25 0 0 0-2.5 0v7.5a1.25 1.25 0 0 0 2.5 0v-7.5Z" fill="#5058C4"/></g><g clip-path="url(#e)"><path d="m339.368 288.61-.459.459a2.5 2.5 0 0 1-3.536 0l-9.086-9.086 3.995-3.995 9.086 9.086a2.5 2.5 0 0 1 0 3.536Z" fill="#7E46E8"/><path d="m330.27 276.019-3.977 3.978-1.998-1.998 5.975-5.975a2.824 2.824 0 0 1 0 3.995Z" fill="#7E46E8"/><path d="m312.3 266.024 11.975 11.975 4-3.975-11.975-12s-11.8-3.8-15-12.875l-4.2-4.325s-.775 13.175 15.2 21.2Z" fill="#767FEC"/><path d="m328.279 281.993 3.995-3.995-1.997-1.998-3.995 3.996 1.997 1.997Z" fill="#552CA1"/><path d="m307.937 276.033 3.995 3.995-9.086 9.087a2.5 2.5 0 0 1-3.535 0l-.46-.46a2.5 2.5 0 0 1 0-3.535l9.086-9.087ZM307.947 272.006l5.992 5.993-1.997 1.997-3.995-3.995a2.825 2.825 0 0 1 0-3.995Z" fill="#7E46E8"/><path d="m325.925 266.024-11.975 11.975-3.95-3.975 11.975-12s11.8-3.8 15-12.875l4.3-4.325s.625 13.175-15.35 21.2Z" fill="#9298F0"/><path d="m311.946 280.024-3.995-3.995-1.998 1.998 3.995 3.995 1.998-1.998Z" fill="#552CA1"/></g><defs><clipPath id="a"><path fill="#fff" transform="translate(124 98)" d="M0 0h150v150H0z"/></clipPath><clipPath id="b"><path fill="#fff" transform="translate(48 48)" d="M0 0h60v60H0z"/></clipPath><clipPath id="c"><path fill="#fff" transform="translate(290 48)" d="M0 0h60v60H0z"/></clipPath><clipPath id="d"><path fill="#fff" transform="translate(48 238)" d="M0 0h60v60H0z"/></clipPath><clipPath id="e"><path fill="#fff" transform="translate(290 238)" d="M0 0h60v60H0z"/></clipPath></defs></svg>