<svg width="398" height="546" viewBox="0 0 398 546" fill="none" xmlns="http://www.w3.org/2000/svg">
<path d="M30 3H368C382.912 3 395 15.0883 395 30V516C395 530.912 382.912 543 368 543H30C15.0883 543 3 530.912 3 516V30C3 15.0883 15.0883 3 30 3Z" fill="#767FEC" stroke="#9298F0" stroke-width="6"/>
<path d="M60 39H338C347.389 39 355 46.6112 355 56V464C355 473.389 347.389 481 338 481H60C50.6112 481 43 473.389 43 464V56C43 46.6112 50.6112 39 60 39Z" fill="white" stroke="#9298F0" stroke-width="6"/>
<g clip-path="url(#clip0_5001_4188)">
<path d="M257.667 459.76H137.098C133.757 459.76 131.07 456.826 131.106 453.265L132.632 287.352C132.632 248.808 161.612 217.582 197.383 217.582C233.154 217.582 262.134 248.808 262.134 287.352L263.659 453.265C263.659 456.826 260.972 459.76 257.667 459.76Z" fill="#6232B8"/>
<path d="M194.55 459.761L198 331.844L201.087 459.761H194.55Z" fill="#552CA1"/>
<path d="M171.925 459.761L177.591 354.148L178.462 459.761H171.925Z" fill="#552CA1"/>
<path d="M217.138 459.761L218.446 354.148L223.675 459.761H217.138Z" fill="#552CA1"/>
<path d="M242.124 459.761L236.495 335.365L248.66 459.761H242.124Z" fill="#552CA1"/>
<path d="M147.158 459.761L159.324 335.365L153.695 459.761H147.158Z" fill="#552CA1"/>
<path d="M281.744 434.366H250.948L243.613 287.509C241.906 263.483 226.617 243.174 205.336 236.287C204.682 236.092 203.992 235.857 203.338 235.701L198.218 234.292L192.662 235.701C192.008 235.896 191.391 236.092 190.737 236.287C169.383 243.135 154.094 263.483 152.387 287.548L145.052 434.405H114.256C110.842 434.405 108.155 431.314 108.336 427.635C109.571 405.84 113.82 335.092 121.011 269.157C123.662 244.779 133.067 224.861 153.804 213.787C156.491 212.34 159.396 211.048 162.483 209.953C166.805 208.387 171.489 207.135 176.646 206.196L197.855 202.322L219.39 206.196C224.402 207.292 228.977 208.622 233.19 210.227C236.241 211.401 239.109 212.692 241.797 214.14C262.824 225.37 272.302 244.622 274.989 269.157C282.18 335.092 286.429 405.879 287.664 427.635C287.845 431.274 285.158 434.366 281.744 434.366Z" fill="#7E46E8"/>
<path d="M241.797 214.099L205.336 236.286L198.073 240.708L190.737 236.247L153.767 213.747C156.455 212.299 159.36 211.008 162.447 209.912L198.036 231.59L233.154 210.225C236.24 211.36 239.109 212.651 241.797 214.099Z" fill="#6232B8"/>
<g opacity="0.8">
<path d="M169.274 219.97C168.185 220.518 165.679 221.809 164.626 222.318C150.027 229.557 138.733 243.605 134.012 260.196C132.632 264.853 132.014 269.587 131.397 274.44C130.126 283.831 126.857 308.6 125.55 318.266C126.385 308.366 128.455 283.674 129.254 274.166C129.944 258.866 134.811 244.348 144.253 232.687C149.264 226.427 155.438 221.183 162.265 217.309C163.318 216.683 165.752 215.314 166.805 214.727L169.274 219.97Z" fill="#6232B8"/>
</g>
<g opacity="0.8">
<path d="M181.404 227.718C179.225 229.009 173.923 232.179 171.816 233.392C162.519 238.792 154.167 246.422 149.046 256.44C146.758 260.861 145.088 265.674 143.998 270.644C142.945 275.027 142.437 281.483 141.892 286.022C140.766 296.04 137.788 322.492 136.626 332.822C137.353 322.257 139.168 295.961 139.858 285.787C140.221 281.053 140.476 274.596 141.347 270.018C142.255 264.735 143.78 259.57 146.032 254.718C151.661 242.313 161.539 233.509 172.434 226.74L178.644 222.631L181.404 227.718Z" fill="#6232B8"/>
</g>
<g opacity="0.8">
<path d="M228.832 214.727C229.885 215.314 232.355 216.761 233.372 217.309C250.694 226.974 263.187 245.953 265.693 266.77C267.036 280.231 268.852 304.609 270.087 318.266C268.779 308.405 265.511 283.909 264.24 274.44C263.623 269.587 263.005 264.853 261.625 260.196C256.904 243.605 245.61 229.557 231.011 222.318C229.958 221.77 227.452 220.518 226.363 219.97L228.832 214.727Z" fill="#6232B8"/>
</g>
<g opacity="0.8">
<path d="M216.993 222.631C219.136 224.04 224.256 227.483 226.29 228.813C240.598 237.931 251.42 252.135 254.289 270.057C254.761 272.679 255.052 275.34 255.233 278C256.25 292.244 257.993 318.383 259.01 332.861C257.34 318.305 254.471 292.518 252.873 278.235C252.582 275.692 252.183 273.148 251.638 270.644C247.607 251.783 236.204 240.005 220.661 231.474L214.269 227.679L216.993 222.631Z" fill="#6232B8"/>
</g>
<path d="M197.746 60.2402C197.746 60.2402 155.51 84.6185 150.245 116.158H197.455H198H245.21C239.981 84.6185 197.746 60.2402 197.746 60.2402Z" fill="#6232B8"/>
<path d="M197.964 86.7695C176.791 86.7695 157.508 99.8391 148.284 120.343C141.311 135.878 135.464 150.2 130.997 161.665C125.005 177.083 130.634 194.848 144.071 203.183L198.036 236.561L251.856 203.222C265.293 194.887 270.886 177.122 264.894 161.743C260.427 150.239 254.58 135.917 247.607 120.383C238.419 99.8391 219.136 86.7695 197.964 86.7695Z" fill="#7E46E8"/>
<path d="M235.914 125.546C231.374 107.155 215.904 94.3203 198.218 94.3203C180.532 94.3203 165.062 107.116 160.522 125.546L150.971 164.129C148.211 175.242 152.024 186.981 160.558 193.868L198.182 224.116L235.841 193.868C244.375 187.02 248.188 175.242 245.428 164.129L235.914 125.546Z" fill="#6232B8"/>
<path d="M198.218 224.351L198.109 224.273L160.486 194.025C151.843 187.06 148.029 175.321 150.826 164.09L160.377 125.508C164.953 107.038 180.496 94.1641 198.254 94.1641C216.013 94.1641 231.556 107.038 236.132 125.508L245.683 164.09C248.443 175.321 244.666 187.099 236.023 194.025L198.218 224.351ZM198.218 94.5162C180.641 94.5162 165.243 107.273 160.704 125.586L151.153 164.208C148.429 175.281 152.169 186.864 160.704 193.751L198.218 223.921L235.732 193.751C244.266 186.903 248.007 175.321 245.283 164.208L235.732 125.625C231.193 107.312 215.795 94.5162 198.218 94.5162Z" fill="#552CA1"/>
<path d="M198 247.675C205.722 247.675 211.982 240.93 211.982 232.61C211.982 224.29 205.722 217.545 198 217.545C190.278 217.545 184.019 224.29 184.019 232.61C184.019 240.93 190.278 247.675 198 247.675Z" fill="#F5B44F"/>
<path d="M198 248.457C189.902 248.457 183.292 241.336 183.292 232.61C183.292 223.883 189.902 216.762 198 216.762C206.099 216.762 212.708 223.883 212.708 232.61C212.708 241.336 206.099 248.457 198 248.457ZM198 218.366C190.701 218.366 184.745 224.783 184.745 232.649C184.745 240.514 190.701 246.931 198 246.931C205.3 246.931 211.255 240.514 211.255 232.649C211.255 224.783 205.3 218.366 198 218.366Z" fill="#FFDF8B"/>
<path d="M207.152 242.625L199.126 234.721L200.76 246.303L198 234.956L193.57 245.677L196.911 234.525L187.795 240.942L196.221 233.508L185.326 233.625L196.148 232.256L186.924 225.995L196.729 231.16L192.117 220.556L197.746 230.573L199.199 218.951L198.908 230.69L205.953 221.729L199.816 231.434L210.239 228.029L200.215 232.608L210.674 235.816L199.961 233.821L207.152 242.625Z" fill="#FFDF8B"/>
<path d="M200.215 274.674L214.233 290.13C216.013 292.126 215.976 295.296 214.161 297.213L190.991 321.591C189.139 323.509 186.197 323.47 184.418 321.513L170.4 306.056C168.621 304.061 168.657 300.891 170.473 298.974L193.642 274.596C195.494 272.639 198.436 272.678 200.215 274.674Z" fill="#767FEC"/>
<path d="M187.723 323.783C187.686 323.783 187.686 323.783 187.65 323.783C186.197 323.783 184.854 323.157 183.873 322.022L169.855 306.566C168.839 305.47 168.294 303.983 168.33 302.457C168.33 300.892 168.911 299.444 169.964 298.387L193.134 274.009C195.24 271.779 198.69 271.818 200.76 274.127L214.778 289.583C216.848 291.853 216.812 295.57 214.669 297.801L191.463 322.14C190.446 323.235 189.139 323.783 187.723 323.783ZM196.874 273.931C195.894 273.931 194.877 274.322 194.114 275.144L170.945 299.522C170.182 300.305 169.783 301.361 169.746 302.496C169.746 303.631 170.146 304.687 170.872 305.509L184.89 320.966C185.616 321.787 186.597 322.218 187.65 322.257H187.686C188.703 322.257 189.684 321.827 190.446 321.044L213.616 296.666C215.177 295.022 215.214 292.361 213.689 290.679L199.671 275.222C198.944 274.361 197.927 273.931 196.874 273.931Z" fill="#9298F0"/>
<path d="M205.118 271.974L215.105 290.718C216.376 293.105 215.613 296.196 213.398 297.566L185.326 314.979C183.111 316.348 180.242 315.526 178.971 313.139L168.947 294.396C167.676 292.009 168.439 288.918 170.654 287.548L198.726 270.135C200.978 268.766 203.811 269.587 205.118 271.974Z" fill="#767FEC"/>
<path d="M183.002 316.427C182.53 316.427 182.057 316.348 181.585 316.231C180.205 315.84 179.043 314.861 178.317 313.531L168.33 294.788C167.604 293.457 167.422 291.892 167.785 290.405C168.148 288.918 169.056 287.666 170.291 286.883L198.363 269.47C199.598 268.688 201.051 268.492 202.431 268.883C203.811 269.274 204.973 270.253 205.699 271.583L215.686 290.327C217.175 293.105 216.267 296.666 213.689 298.231L185.616 315.644C184.854 316.153 183.946 316.427 183.002 316.427ZM201.051 270.253C200.361 270.253 199.707 270.448 199.09 270.801L171.017 288.214C170.11 288.761 169.456 289.701 169.165 290.796C168.875 291.892 169.02 293.027 169.565 294.005L179.552 312.748C180.06 313.727 180.932 314.431 181.948 314.744C182.965 315.057 184.019 314.901 184.926 314.314L212.998 296.901C214.887 295.727 215.541 293.144 214.451 291.109L204.464 272.366C203.956 271.387 203.084 270.683 202.067 270.37C201.741 270.292 201.414 270.253 201.051 270.253Z" fill="#9298F0"/>
<path d="M209.512 270.643L215.94 291.108C216.775 293.73 215.468 296.586 213.035 297.486L182.348 308.678C179.915 309.578 177.264 308.169 176.429 305.547L170.037 285.043C169.202 282.421 170.509 279.565 172.942 278.665L203.629 267.473C206.062 266.612 208.713 268.021 209.512 270.643Z" fill="#767FEC"/>
<path d="M180.859 309.735C180.06 309.735 179.225 309.539 178.462 309.148C177.191 308.444 176.211 307.27 175.738 305.822L169.311 285.357C168.366 282.344 169.892 279.017 172.688 278L203.375 266.809C204.718 266.3 206.207 266.417 207.478 267.122C208.749 267.826 209.73 269 210.202 270.448L216.63 290.913C217.102 292.4 216.993 293.965 216.339 295.335C215.686 296.704 214.596 297.761 213.253 298.27L182.566 309.461C182.021 309.617 181.44 309.735 180.859 309.735ZM205.118 268.022C204.682 268.022 204.283 268.1 203.847 268.257L173.16 279.448C171.09 280.191 170.001 282.617 170.691 284.809L177.118 305.274C177.445 306.33 178.172 307.23 179.116 307.7C180.06 308.209 181.113 308.287 182.13 307.935L212.817 296.744C213.797 296.391 214.633 295.609 215.068 294.591C215.504 293.574 215.613 292.439 215.286 291.344L208.858 270.878C208.532 269.822 207.805 268.922 206.861 268.452C206.316 268.178 205.699 268.022 205.118 268.022Z" fill="#9298F0"/>
<path d="M214.161 270.251L216.376 291.734C216.666 294.473 214.814 296.977 212.272 297.29L180.096 301.164C177.554 301.477 175.23 299.481 174.94 296.742L172.724 275.26C172.434 272.521 174.286 270.016 176.828 269.703L209.004 265.829C211.582 265.516 213.87 267.512 214.161 270.251Z" fill="#767FEC"/>
<path d="M179.552 301.986C178.353 301.986 177.155 301.556 176.211 300.734C175.085 299.756 174.395 298.386 174.213 296.86L171.998 275.377C171.671 272.208 173.814 269.312 176.755 268.96L208.931 265.086C210.347 264.93 211.764 265.36 212.89 266.338C214.015 267.317 214.705 268.686 214.887 270.212L217.102 291.695C217.429 294.864 215.286 297.76 212.345 298.112L180.169 301.986C179.988 301.947 179.77 301.986 179.552 301.986ZM209.549 266.573C209.403 266.573 209.258 266.573 209.113 266.612L176.937 270.486C174.794 270.76 173.233 272.834 173.451 275.182L175.666 296.664C175.775 297.799 176.283 298.777 177.119 299.521C177.954 300.225 178.971 300.538 180.024 300.421L212.2 296.547C214.342 296.273 215.904 294.199 215.686 291.851L213.471 270.369C213.362 269.234 212.853 268.256 212.018 267.512C211.292 266.886 210.42 266.573 209.549 266.573Z" fill="#9298F0"/>
<path d="M219.245 271.662L216.231 293.028C215.831 295.767 213.471 297.645 210.929 297.254L178.898 292.049C176.356 291.619 174.613 289.075 174.976 286.336L177.99 264.971C178.39 262.232 180.75 260.354 183.292 260.745L215.323 265.949C217.865 266.341 219.608 268.923 219.245 271.662Z" fill="#767FEC"/>
<path d="M211.655 298.074C211.401 298.074 211.11 298.035 210.856 297.996L178.825 292.792C175.884 292.322 173.85 289.348 174.322 286.179L177.336 264.814C177.554 263.287 178.317 261.918 179.479 261.018C180.641 260.118 182.058 259.727 183.474 259.961L215.504 265.166C216.921 265.4 218.192 266.222 219.027 267.474C219.862 268.727 220.225 270.253 220.008 271.779L216.993 293.144C216.775 294.67 216.013 296.04 214.851 296.94C213.906 297.683 212.781 298.074 211.655 298.074ZM182.602 261.448C181.767 261.448 180.968 261.722 180.278 262.27C179.443 262.935 178.898 263.914 178.716 265.048L175.702 286.414C175.375 288.722 176.864 290.874 179.007 291.227L211.038 296.431C212.091 296.587 213.108 296.314 213.943 295.648C214.778 294.983 215.323 294.005 215.504 292.87L218.519 271.505C218.664 270.37 218.41 269.274 217.792 268.374C217.175 267.474 216.267 266.887 215.214 266.692L183.183 261.487C183.002 261.448 182.784 261.448 182.602 261.448Z" fill="#9298F0"/>
<path d="M224.075 274.203L216.303 294.12C215.323 296.664 212.563 297.877 210.202 296.781L180.351 283.242C177.99 282.185 176.864 279.211 177.881 276.668L185.653 256.751C186.633 254.207 189.393 252.994 191.754 254.09L221.605 267.629C223.93 268.724 225.055 271.659 224.075 274.203Z" fill="#767FEC"/>
<path d="M211.982 297.994C211.292 297.994 210.565 297.838 209.912 297.525L180.06 283.986C178.753 283.399 177.7 282.264 177.155 280.816C176.61 279.368 176.61 277.803 177.191 276.394L184.963 256.477C186.125 253.542 189.284 252.134 192.008 253.386L221.86 266.925C224.583 268.177 225.891 271.581 224.729 274.516L216.957 294.434C216.085 296.664 214.088 297.994 211.982 297.994ZM189.938 254.481C188.413 254.481 186.96 255.46 186.306 257.064L178.535 276.981C178.135 278.038 178.135 279.173 178.535 280.229C178.934 281.286 179.697 282.107 180.641 282.538L210.493 296.077C212.49 296.977 214.814 295.96 215.65 293.807L223.421 273.89C224.256 271.738 223.312 269.234 221.315 268.334L191.463 254.834C190.955 254.599 190.446 254.481 189.938 254.481Z" fill="#9298F0"/>
<path d="M228.687 278.155L216.812 295.608C215.286 297.838 212.381 298.308 210.311 296.664L184.2 276.003C182.13 274.36 181.694 271.229 183.22 268.999L195.095 251.586C196.62 249.355 199.525 248.886 201.595 250.529L227.706 271.19C229.74 272.795 230.212 275.925 228.687 278.155Z" fill="#767FEC"/>
<path d="M213.035 298.425C211.945 298.425 210.819 298.073 209.839 297.291L183.728 276.63C181.331 274.751 180.823 271.112 182.566 268.53L194.441 251.117C196.184 248.534 199.562 247.986 201.958 249.864L228.069 270.525C230.466 272.404 230.975 276.043 229.232 278.625L217.356 296.038C216.339 297.604 214.705 298.425 213.035 298.425ZM198.835 250.334C197.637 250.334 196.438 250.921 195.676 252.056L183.801 269.469C182.529 271.347 182.893 274.008 184.636 275.377L210.747 296.038C212.49 297.408 214.959 297.017 216.231 295.138L228.106 277.725C228.723 276.825 228.977 275.691 228.832 274.595C228.687 273.46 228.106 272.482 227.27 271.817L201.159 251.156C200.433 250.569 199.634 250.334 198.835 250.334Z" fill="#9298F0"/>
<path d="M231.919 282.931L216.412 296.626C214.415 298.387 211.473 298.074 209.875 295.922L189.357 268.922C187.723 266.77 188.013 263.6 190.011 261.879L205.518 248.183C207.515 246.422 210.457 246.735 212.054 248.887L232.573 275.887C234.207 278 233.917 281.17 231.919 282.931Z" fill="#767FEC"/>
<path d="M213.471 298.543C213.289 298.543 213.107 298.543 212.926 298.504C211.51 298.347 210.202 297.604 209.294 296.391L188.776 269.391C187.868 268.178 187.432 266.691 187.578 265.126C187.723 263.6 188.413 262.191 189.539 261.213L205.045 247.517C207.333 245.482 210.747 245.834 212.635 248.339L233.154 275.339C235.042 277.804 234.715 281.482 232.391 283.517L216.884 297.213C215.904 298.073 214.705 298.543 213.471 298.543ZM208.459 247.83C207.588 247.83 206.716 248.143 205.99 248.769L190.483 262.465C189.684 263.169 189.175 264.187 189.066 265.321C188.958 266.456 189.284 267.552 189.938 268.413L210.456 295.413C211.836 297.213 214.306 297.487 215.976 296L231.483 282.304C233.154 280.817 233.408 278.156 232.028 276.356L211.51 249.356C210.711 248.339 209.585 247.83 208.459 247.83Z" fill="#9298F0"/>
<path d="M233.844 287.391L216.158 297.565C213.906 298.856 211.074 297.956 209.875 295.491L194.623 264.734C193.424 262.308 194.26 259.256 196.547 257.965L214.233 247.791C216.485 246.5 219.317 247.4 220.516 249.865L235.768 280.621C236.967 283.047 236.132 286.1 233.844 287.391Z" fill="#767FEC"/>
<path d="M213.979 298.974C212.054 298.974 210.202 297.878 209.222 295.921L193.969 265.165C192.553 262.348 193.57 258.826 196.184 257.3L213.87 247.126C216.485 245.6 219.753 246.695 221.17 249.513L236.422 280.269C237.838 283.087 236.822 286.608 234.207 288.135L216.521 298.308C215.686 298.739 214.851 298.974 213.979 298.974ZM216.412 247.987C215.795 247.987 215.141 248.143 214.56 248.495L196.874 258.669C195.966 259.217 195.276 260.078 194.95 261.174C194.659 262.269 194.732 263.404 195.24 264.382L210.493 295.139C211.001 296.117 211.8 296.861 212.817 297.213C213.834 297.526 214.887 297.448 215.795 296.9L233.481 286.726C235.405 285.63 236.132 283.048 235.078 281.013L219.826 250.256C219.172 248.769 217.792 247.987 216.412 247.987Z" fill="#9298F0"/>
<path d="M235.006 292.283L215.686 298.152C213.217 298.896 210.638 297.369 209.948 294.709L201.123 261.135C200.433 258.474 201.85 255.696 204.319 254.952L223.639 249.083C226.109 248.339 228.687 249.865 229.377 252.526L238.202 286.1C238.892 288.722 237.476 291.5 235.006 292.283Z" fill="#767FEC"/>
<path d="M214.415 299.13C213.507 299.13 212.599 298.895 211.8 298.386C210.529 297.643 209.621 296.391 209.258 294.904L200.433 261.33C199.634 258.239 201.305 255.03 204.138 254.169L223.458 248.299C224.838 247.869 226.29 248.065 227.561 248.808C228.832 249.552 229.74 250.804 230.103 252.291L238.928 285.865C239.328 287.352 239.146 288.917 238.456 290.286C237.766 291.656 236.604 292.634 235.224 293.026L215.904 298.895C215.396 299.052 214.887 299.13 214.415 299.13ZM224.91 249.63C224.547 249.63 224.184 249.669 223.821 249.786L204.501 255.656C202.431 256.282 201.196 258.63 201.777 260.899L210.602 294.473C210.892 295.569 211.546 296.469 212.454 297.017C213.362 297.565 214.415 297.721 215.432 297.408L234.752 291.539C235.769 291.226 236.604 290.521 237.112 289.543C237.621 288.565 237.766 287.43 237.476 286.334L228.651 252.76C228.36 251.665 227.707 250.765 226.799 250.217C226.218 249.826 225.564 249.63 224.91 249.63Z" fill="#9298F0"/>
<path d="M234.57 297.877L214.524 298.19C211.946 298.229 209.839 295.999 209.803 293.26L209.331 258.356C209.294 255.577 211.364 253.308 213.907 253.269L233.953 252.956C236.531 252.916 238.638 255.147 238.674 257.886L239.146 292.79C239.182 295.569 237.112 297.838 234.57 297.877Z" fill="#767FEC"/>
<path d="M214.415 298.974C211.473 298.974 209.076 296.43 209.04 293.261L208.568 258.356C208.532 255.148 210.892 252.526 213.87 252.487L233.953 252.174C235.405 252.135 236.749 252.722 237.766 253.817C238.783 254.913 239.364 256.361 239.4 257.887L239.872 292.791C239.909 294.356 239.364 295.804 238.347 296.9C237.33 297.995 235.986 298.622 234.57 298.661L214.524 298.974C214.488 298.974 214.451 298.974 214.415 298.974ZM234.025 253.739C233.989 253.739 233.989 253.739 233.953 253.739L213.906 254.052C211.728 254.091 210.021 256.008 210.021 258.356L210.493 293.261C210.529 295.569 212.272 297.448 214.415 297.448C214.451 297.448 214.451 297.448 214.488 297.448L234.534 297.135C235.587 297.135 236.568 296.665 237.294 295.843C238.02 295.022 238.42 293.965 238.42 292.83L237.948 257.926C237.948 256.791 237.512 255.735 236.749 254.952C236.023 254.169 235.042 253.739 234.025 253.739Z" fill="#9298F0"/>
<path d="M233.009 303.436L213.507 298.427C211.001 297.801 209.476 295.062 210.057 292.401L217.574 258.475C218.155 255.775 220.697 254.132 223.167 254.758L242.669 259.767C245.174 260.393 246.7 263.132 246.119 265.793L238.601 299.719C238.02 302.419 235.514 304.062 233.009 303.436Z" fill="#767FEC"/>
<path d="M234.098 304.335C233.662 304.335 233.263 304.296 232.827 304.179L213.325 299.17C211.909 298.818 210.747 297.879 209.984 296.548C209.222 295.218 209.004 293.692 209.331 292.166L216.848 258.24C217.538 255.148 220.443 253.192 223.349 253.935L242.85 258.944C244.266 259.296 245.429 260.235 246.191 261.566C246.954 262.896 247.172 264.461 246.845 265.948L239.328 299.913C239.001 301.44 238.129 302.692 236.894 303.514C236.023 304.061 235.079 304.335 234.098 304.335ZM233.154 302.653C234.171 302.927 235.224 302.731 236.132 302.144C237.04 301.557 237.657 300.618 237.911 299.522L245.429 265.596C245.937 263.327 244.63 261.018 242.523 260.509L223.022 255.5C222.005 255.227 220.952 255.422 220.044 256.009C219.136 256.596 218.519 257.535 218.264 258.631L210.747 292.557C210.239 294.827 211.546 297.135 213.652 297.644L233.154 302.653Z" fill="#9298F0"/>
<path d="M237.584 288.957L228.905 280.935L231.011 293.065L227.743 281.248L223.385 292.674L226.581 280.818L217.211 287.9L225.818 279.761L214.378 280.27L225.709 278.47L215.831 272.209L226.254 277.296L221.097 266.3L227.343 276.631L228.505 264.383L228.542 276.709L235.696 267.083L229.522 277.452L240.381 273.539L229.994 278.705L241.107 281.678L229.74 279.996L237.584 288.957Z" fill="#F5B44F"/>
<path d="M224.329 188.509L198.036 211.126L171.744 188.509C159.469 177.944 154.167 160.57 158.198 144.213L162.665 126.057C162.774 125.705 162.846 125.313 162.955 124.961C165.207 116.822 169.746 109.896 175.739 104.965C181.985 99.8002 189.756 96.7871 198.036 96.7871C214.233 96.7871 228.469 108.252 233.081 124.883C233.19 125.274 233.299 125.665 233.372 126.057L237.875 144.213C241.942 160.57 236.604 177.944 224.329 188.509Z" fill="#F5B44F"/>
<path d="M163.137 138.422L165.171 146.404C166.587 152 171.017 156.109 176.356 156.774L192.299 158.809L191.173 152.744C190.083 146.952 185.798 142.452 180.387 141.474L163.137 138.422Z" fill="#3D3D3D"/>
<path d="M232.5 138.422L230.467 146.404C229.05 152 224.62 156.109 219.281 156.774L203.339 158.809L204.464 152.744C205.554 146.952 209.839 142.452 215.25 141.474L232.5 138.422Z" fill="#3D3D3D"/>
<path d="M198.036 144.684C198.763 155.601 198.908 166.949 198.944 177.905C198.908 188.862 198.763 200.249 198.036 211.127C197.31 200.249 197.165 188.862 197.128 177.905C197.165 166.949 197.31 155.601 198.036 144.684Z" fill="#E29631"/>
<path d="M197.891 144.878C197.928 144.838 197.928 144.799 197.964 144.76C198.001 144.799 198.001 144.838 198.037 144.878H197.891Z" fill="#E8A847"/>
<path d="M233.081 124.922L232.9 125.235C219.281 124.726 204.718 132.318 197.964 144.8C191.173 132.357 176.61 124.726 163.028 125.235L162.955 125C165.207 116.861 169.746 109.935 175.738 105.005C181.985 99.8393 189.756 96.8263 198.036 96.8263C214.233 96.7871 228.469 108.291 233.081 124.922Z" fill="#E29631"/>
<path d="M230.357 117.761C220.952 118.856 211.691 122.73 204.718 129.656C202.031 132.317 199.816 135.487 198.073 138.93L197.274 137.443C190.773 125.626 178.099 119.208 165.715 117.761C178.644 117.604 192.153 124.217 198.872 136.426H197.274C203.992 124.256 217.465 117.604 230.357 117.761Z" fill="#F5B44F"/>
<path d="M218.991 103.869C218.155 107.978 215.759 111.813 212.454 114.161C209.258 116.391 206.062 118.739 203.411 121.635C201.269 123.943 199.562 126.683 198.109 129.539C196.62 126.683 194.913 123.826 192.843 121.439C190.483 118.7 187.578 116.469 184.527 114.669L183.655 114.122C180.242 111.891 177.7 107.939 177.264 103.674C178.353 108.096 181.295 111.617 185.108 113.417C185.653 113.691 186.379 114.083 186.888 114.356C191.972 117.096 196.112 121.713 198.908 126.996H197.31C199.925 122.065 203.956 117.996 208.459 115.1C209.549 114.356 210.711 113.652 211.8 112.987C215.105 111.03 217.574 107.704 218.991 103.869Z" fill="#F5B44F"/>
<path d="M202.54 201.853L223.421 183.971C229.885 178.453 233.553 170.001 233.372 161.119L233.263 155.797C233.263 155.797 226.145 167.927 206.643 169.14L202.54 201.853Z" fill="#E29631"/>
<path d="M193.642 201.853L172.761 183.971C166.296 178.453 162.629 170.001 162.81 161.119L162.919 155.797C162.919 155.797 170.037 167.927 189.539 169.14L193.642 201.853Z" fill="#E29631"/>
<path d="M198.073 123.239L193.46 116.47L198.036 110.287L202.939 116.47L198.073 123.239Z" fill="#F5B44F"/>
<path d="M181.331 110.209C188.013 101.248 202.866 100.622 211.364 106.922C212.635 107.9 213.797 109.035 214.705 110.365C212.345 108.252 209.621 106.883 206.788 105.983C198.399 103.439 188.413 104.222 181.331 110.209Z" fill="#F5B44F"/>
<path d="M171.308 109.348C174.286 112.635 177.954 115.256 181.84 117.174C179.733 116.509 177.7 115.648 175.739 114.591C173.741 113.495 171.853 112.282 170.073 110.756L171.308 109.348Z" fill="#F5B44F"/>
<path d="M226.036 110.756C222.513 113.73 218.482 115.804 214.27 117.174C217.211 115.726 220.007 113.887 222.477 111.656C223.276 110.913 224.111 110.13 224.801 109.348L226.036 110.756Z" fill="#F5B44F"/>
<path d="M208.822 171.292L207.987 177.631C207.987 177.631 212.418 175.87 214.705 170.588C214.705 170.588 212.091 171.292 208.822 171.292Z" fill="#F5B44F"/>
<path d="M205.99 195.239C211.255 190.387 216.594 185.691 221.46 180.408C222.622 179.117 223.857 177.748 224.91 176.339C227.016 173.482 228.469 170.078 229.486 166.595C229.994 164.835 230.394 163.035 230.684 161.156C230.721 163.035 230.503 164.913 230.176 166.752C229.449 170.469 228.142 174.108 225.999 177.2C224.983 178.726 223.675 180.095 222.513 181.465C217.538 186.787 211.982 191.404 205.99 195.239Z" fill="#F5B44F"/>
<path d="M205.99 193.636C206.316 189.683 206.752 185.809 208.241 182.092C208.677 181.075 209.512 179.979 210.638 179.862C212.49 179.549 213.979 181.896 215.613 181.74C216.267 181.623 216.775 181.192 216.993 180.488C217.502 178.805 217.211 176.77 217.32 174.931C217.647 164.875 225.31 174.501 228.142 163.936C226.762 173.444 219.935 168.827 218.954 172.309C218.155 175.088 219.208 178.101 218.337 180.996C217.865 182.836 215.722 183.814 214.088 182.992C212.998 182.562 211.727 181.192 210.747 181.27C208.495 181.349 206.607 191.327 205.99 193.636Z" fill="#F5B44F"/>
<path d="M211.437 187.021C212.239 187.021 212.89 186.32 212.89 185.456C212.89 184.591 212.239 183.891 211.437 183.891C210.635 183.891 209.984 184.591 209.984 185.456C209.984 186.32 210.635 187.021 211.437 187.021Z" fill="#F5B44F"/>
<path d="M214.342 178.804C215.145 178.804 215.795 178.103 215.795 177.239C215.795 176.375 215.145 175.674 214.342 175.674C213.54 175.674 212.89 176.375 212.89 177.239C212.89 178.103 213.54 178.804 214.342 178.804Z" fill="#F5B44F"/>
<path d="M221.969 175.673C222.771 175.673 223.421 174.973 223.421 174.108C223.421 173.244 222.771 172.543 221.969 172.543C221.166 172.543 220.516 173.244 220.516 174.108C220.516 174.973 221.166 175.673 221.969 175.673Z" fill="#F5B44F"/>
<path d="M187.541 171.292L188.376 177.631C188.376 177.631 183.946 175.87 181.658 170.588C181.658 170.588 184.273 171.292 187.541 171.292Z" fill="#F5B44F"/>
<path d="M190.374 195.239C184.382 191.404 178.826 186.787 173.85 181.504C172.652 180.134 171.381 178.726 170.364 177.239C168.258 174.147 166.914 170.508 166.188 166.791C165.861 164.952 165.643 163.074 165.679 161.195C165.97 163.034 166.369 164.834 166.878 166.634C167.894 170.117 169.347 173.521 171.453 176.378C172.507 177.787 173.741 179.156 174.903 180.447C179.77 185.691 185.108 190.387 190.374 195.239Z" fill="#F5B44F"/>
<path d="M190.374 193.636C189.756 191.366 187.868 181.349 185.58 181.27C184.6 181.192 183.365 182.562 182.239 182.992C180.605 183.814 178.498 182.875 177.99 180.996C177.155 178.101 178.172 175.088 177.373 172.309C176.428 168.827 169.601 173.444 168.185 163.936C171.017 174.501 178.68 164.836 179.007 174.931C179.116 176.77 178.825 178.805 179.334 180.488C179.552 181.231 180.06 181.623 180.714 181.74C182.348 181.896 183.837 179.549 185.689 179.862C186.815 179.979 187.65 181.075 188.086 182.092C189.611 185.809 190.047 189.683 190.374 193.636Z" fill="#F5B44F"/>
<path d="M184.927 187.021C185.729 187.021 186.379 186.32 186.379 185.456C186.379 184.591 185.729 183.891 184.927 183.891C184.124 183.891 183.474 184.591 183.474 185.456C183.474 186.32 184.124 187.021 184.927 187.021Z" fill="#F5B44F"/>
<path d="M182.021 178.804C182.824 178.804 183.474 178.103 183.474 177.239C183.474 176.375 182.824 175.674 182.021 175.674C181.219 175.674 180.569 176.375 180.569 177.239C180.569 178.103 181.219 178.804 182.021 178.804Z" fill="#F5B44F"/>
<path d="M174.395 175.673C175.197 175.673 175.847 174.973 175.847 174.108C175.847 173.244 175.197 172.543 174.395 172.543C173.593 172.543 172.942 173.244 172.942 174.108C172.942 174.973 173.593 175.673 174.395 175.673Z" fill="#F5B44F"/>
<path d="M230.248 306.956L218.7 325.151C218.7 325.151 207.66 320.886 196.366 309.538C190.446 303.591 190.01 300.851 191.717 299.521C191.972 299.325 192.262 299.13 192.589 299.012C192.589 299.012 192.48 298.817 192.335 298.504C191.79 297.291 190.7 294.238 192.807 292.791C193.097 292.595 193.46 292.399 193.896 292.282C193.896 292.282 192.189 288.799 194.441 287.508C197.383 285.864 203.593 293.378 210.493 298.034C210.166 297.721 202.213 290.247 200.143 287.547C197.746 284.456 201.014 281.325 203.847 283.947C206.171 286.099 218.773 296.899 218.773 296.899C218.773 296.899 216.703 292.36 217.792 288.956C218.627 286.373 221.242 286.764 221.678 288.173C222.804 291.851 225.673 296.508 228.142 299.443C231.447 303.434 230.248 306.956 230.248 306.956Z" fill="#FFCBA3"/>
<path d="M206.934 304.725C206.825 304.881 206.643 304.999 206.462 304.999C206.353 304.999 206.244 304.96 206.171 304.92C204.283 303.59 196.693 296.86 192.771 292.79C193.061 292.594 193.424 292.399 193.86 292.281C197.709 296.233 204.973 302.651 206.752 303.942C207.043 304.099 207.115 304.451 206.934 304.725Z" fill="#E99A5F"/>
<path d="M203.847 309.773C203.738 309.969 203.556 310.047 203.375 310.047C203.266 310.047 203.157 310.008 203.084 309.969C199.162 307.269 194.187 303.004 191.717 299.521C191.971 299.326 192.262 299.13 192.589 299.013C192.589 299.013 192.48 298.817 192.335 298.504C192.371 298.543 192.407 298.582 192.444 298.621C194.731 302.026 199.888 306.369 203.665 308.991C203.919 309.108 203.992 309.5 203.847 309.773Z" fill="#E99A5F"/>
<path d="M217.247 327.5L231.41 304.805L242.668 309.892L244.484 347.457L217.247 327.5Z" fill="#7E46E8"/>
<path d="M205.299 355.049C204.973 356.497 202.757 357.123 201.922 357.357C201.741 357.397 201.595 357.436 201.595 357.436C201.45 357.788 201.268 358.101 201.087 358.336C200.143 359.588 198.726 359.862 197.782 359.94C197.201 359.979 196.838 359.94 196.838 359.94C196.729 360.292 196.511 360.605 196.221 360.879C193.969 363.149 187.069 363.853 181.985 362.21C175.085 359.979 165.679 351.41 165.679 351.41L173.414 332.353C181.985 328.949 186.343 329.966 191.427 329.497C194.332 329.223 196.112 328.792 197.128 328.479C198.109 328.166 199.162 328.792 199.38 329.849C199.562 330.71 199.453 331.844 198.436 333.175C196.003 336.305 189.538 336.031 189.538 336.031C189.538 336.031 202.467 342.684 205.263 347.497C206.353 349.336 205.408 350.314 204.428 350.823C203.774 351.175 203.121 351.253 203.121 351.253C203.121 351.253 203.338 351.449 203.665 351.723C204.392 352.427 205.59 353.797 205.299 355.049Z" fill="#FFCBA3"/>
<path d="M197.819 359.938C197.237 359.977 196.874 359.938 196.874 359.938C196.765 360.29 196.548 360.603 196.257 360.877C193.679 360.603 187.469 359.664 182.166 357.199C181.876 357.082 181.767 356.729 181.876 356.416C181.985 356.103 182.312 355.986 182.602 356.103C189.139 359.155 197.419 359.782 197.528 359.782C197.601 359.782 197.71 359.821 197.819 359.938Z" fill="#E99A5F"/>
<path d="M201.922 357.356C201.741 357.395 201.595 357.434 201.595 357.434C201.45 357.786 201.269 358.099 201.087 358.334C198.436 357.591 190.81 355.243 184.2 351.604C183.946 351.447 183.837 351.095 183.946 350.821C184.091 350.547 184.418 350.43 184.672 350.547C191.79 354.421 200.106 356.847 201.922 357.356Z" fill="#E99A5F"/>
<path d="M203.121 351.212C203.121 351.212 203.339 351.408 203.665 351.682C201.632 350.782 193.679 347.299 187.578 344.521C187.287 344.404 187.178 344.052 187.287 343.739C187.396 343.426 187.723 343.308 188.013 343.426C194.587 346.439 203.339 350.273 204.464 350.782C203.774 351.095 203.121 351.212 203.121 351.212Z" fill="#E99A5F"/>
<path d="M174.395 329.456L164.226 354.891L151.516 348.239L153.332 311.848L174.395 329.456Z" fill="#7E46E8"/>
</g>
<defs>
<clipPath id="clip0_5001_4188">
<rect width="180" height="400" fill="white" transform="translate(108 60)"/>
</clipPath>
</defs>
</svg>
