<svg width="398" height="428" viewBox="0 0 398 428" fill="none" xmlns="http://www.w3.org/2000/svg">
<path d="M30 3H368C382.912 3 395 15.0883 395 30V398C395 412.912 382.912 425 368 425H30C15.0883 425 3 412.912 3 398V30C3 15.0883 15.0883 3 30 3Z" fill="#767FEC" stroke="#9298F0" stroke-width="6"/>
<path d="M44 27H354C363.389 27 371 34.6112 371 44V302C371 311.389 363.389 319 354 319H44C34.6112 319 27 311.389 27 302V44C27 34.6112 34.6112 27 44 27Z" fill="white" stroke="#9298F0" stroke-width="6"/>
<g clip-path="url(#clip0_5021_3435)">
<path d="M199 235.5C233.518 235.5 261.5 207.518 261.5 173C261.5 138.482 233.518 110.5 199 110.5C164.482 110.5 136.5 138.482 136.5 173C136.5 207.518 164.482 235.5 199 235.5Z" fill="#FFC93E"/>
<path d="M259.875 158.688L184.875 233.688C171.931 230.638 160.296 223.539 151.664 213.423C143.031 203.307 137.851 190.7 136.875 177.438L203.437 110.5C216.759 111.448 229.426 116.639 239.582 125.311C249.739 133.983 256.85 145.68 259.875 158.688Z" fill="#FFC93E"/>
<path d="M259.875 158.688L184.875 233.688C171.931 230.638 160.296 223.539 151.664 213.423C143.031 203.307 137.851 190.7 136.875 177.438L203.437 110.5C216.759 111.448 229.426 116.639 239.582 125.311C249.739 133.983 256.85 145.68 259.875 158.688Z" fill="#FFDF8B"/>
<path d="M199 229.812C230.377 229.812 255.812 204.377 255.812 173C255.812 141.623 230.377 116.188 199 116.188C167.623 116.188 142.188 141.623 142.188 173C142.188 204.377 167.623 229.812 199 229.812Z" fill="#552CA1"/>
<path d="M213.75 124.062C212.855 124.403 212.04 124.922 211.352 125.588C210.664 126.255 210.119 127.054 209.75 127.937C209.77 126.102 209.075 124.331 207.812 122.999C207.373 122.722 206.864 122.574 206.344 122.574C205.824 122.574 205.315 122.722 204.875 122.999C204.372 123.205 203.921 123.518 203.554 123.918C203.187 124.318 202.912 124.794 202.75 125.312C202.397 127.062 202.685 128.881 203.562 130.437C203.73 130.675 203.972 130.851 204.25 130.937C204.387 130.999 204.537 131.031 204.687 131.031C204.838 131.031 204.987 130.999 205.125 130.937C205.247 130.873 205.354 130.784 205.44 130.676C205.526 130.569 205.589 130.445 205.625 130.312C205.687 130.174 205.719 130.025 205.719 129.874C205.719 129.723 205.687 129.574 205.625 129.437C205.037 128.439 204.795 127.274 204.937 126.124C205.011 125.899 205.134 125.693 205.296 125.521C205.458 125.348 205.655 125.213 205.875 125.124C205.972 125.075 206.079 125.049 206.187 125.049C206.296 125.049 206.403 125.075 206.5 125.124C207.875 126.312 207.937 131.749 206.5 137.624C206.463 137.768 206.457 137.919 206.483 138.065C206.508 138.212 206.563 138.351 206.646 138.475C206.728 138.599 206.836 138.704 206.961 138.783C207.087 138.863 207.228 138.915 207.375 138.937C207.624 138.929 207.863 138.839 208.056 138.681C208.248 138.522 208.382 138.305 208.437 138.062C209.75 132.187 212.187 127.312 213.937 126.874C213.937 126.874 214.25 126.874 214.5 126.874C214.664 127.035 214.788 127.232 214.864 127.448C214.94 127.665 214.965 127.896 214.937 128.124C214.587 129.251 213.859 130.222 212.875 130.874C212.653 131.045 212.498 131.288 212.437 131.562C212.375 131.699 212.343 131.848 212.343 131.999C212.343 132.15 212.375 132.299 212.437 132.437C212.608 132.659 212.851 132.814 213.125 132.874C213.262 132.936 213.412 132.969 213.562 132.969C213.713 132.969 213.862 132.936 214 132.874C214.94 132.396 215.763 131.717 216.411 130.886C217.059 130.054 217.516 129.09 217.75 128.062C217.837 127.528 217.804 126.982 217.652 126.463C217.501 125.944 217.235 125.465 216.875 125.062C216.531 124.581 216.041 124.225 215.478 124.045C214.915 123.865 214.309 123.871 213.75 124.062Z" fill="#FFC93E"/>
<path d="M239.062 141.125C238.754 140.807 238.384 140.555 237.977 140.383C237.569 140.21 237.13 140.122 236.687 140.122C236.245 140.122 235.806 140.21 235.398 140.383C234.99 140.555 234.621 140.807 234.312 141.125C234.126 141.318 233.903 141.471 233.656 141.576C233.409 141.68 233.143 141.734 232.875 141.734C232.607 141.734 232.341 141.68 232.094 141.576C231.847 141.471 231.624 141.318 231.437 141.125H231.125C230.924 140.943 230.763 140.721 230.653 140.474C230.543 140.226 230.486 139.958 230.486 139.687C230.486 139.416 230.543 139.149 230.653 138.901C230.763 138.653 230.924 138.432 231.125 138.25C231.751 137.618 232.102 136.764 232.102 135.875C232.102 134.985 231.751 134.132 231.125 133.5L230 132.375C229.889 132.264 229.758 132.176 229.613 132.116C229.468 132.056 229.313 132.025 229.156 132.025C228.999 132.025 228.844 132.056 228.7 132.116C228.555 132.176 228.423 132.264 228.312 132.375C228.202 132.486 228.114 132.617 228.054 132.762C227.994 132.907 227.963 133.062 227.963 133.219C227.963 133.375 227.994 133.53 228.054 133.675C228.114 133.82 228.202 133.952 228.312 134.062L229.437 135.187C229.613 135.373 229.711 135.619 229.711 135.875C229.711 136.131 229.613 136.377 229.437 136.562C228.957 137.014 228.589 137.571 228.361 138.189C228.133 138.807 228.053 139.47 228.125 140.125C227.207 140.119 226.304 140.365 225.517 140.838C224.729 141.311 224.088 141.991 223.661 142.805C223.235 143.618 223.041 144.533 223.101 145.45C223.161 146.366 223.472 147.249 224 148C224.945 148.92 226.212 149.435 227.531 149.435C228.85 149.435 230.117 148.92 231.062 148C231.991 147.047 232.507 145.768 232.5 144.437C233.164 144.51 233.836 144.429 234.465 144.202C235.093 143.974 235.661 143.606 236.125 143.125C236.311 142.949 236.557 142.851 236.812 142.851C237.068 142.851 237.314 142.949 237.5 143.125L238.75 144.375C238.861 144.486 238.992 144.574 239.137 144.634C239.282 144.694 239.437 144.724 239.594 144.724C239.75 144.724 239.906 144.694 240.05 144.634C240.195 144.574 240.327 144.486 240.437 144.375C240.548 144.264 240.636 144.133 240.696 143.988C240.756 143.843 240.787 143.688 240.787 143.531C240.787 143.374 240.756 143.219 240.696 143.074C240.636 142.93 240.548 142.798 240.437 142.687L239.062 141.125ZM225.562 146C225.078 145.509 224.806 144.846 224.806 144.156C224.806 143.466 225.078 142.804 225.562 142.312C226.04 141.85 226.679 141.592 227.344 141.592C228.008 141.592 228.647 141.85 229.125 142.312C229.573 142.797 229.822 143.433 229.822 144.094C229.822 144.754 229.573 145.39 229.125 145.875C228.656 146.34 228.028 146.612 227.368 146.635C226.708 146.658 226.063 146.431 225.562 146Z" fill="#FFC93E"/>
<path d="M250.125 165.25C248.065 161.811 246.965 157.883 246.937 153.875C246.955 153.586 246.861 153.302 246.675 153.081C246.489 152.86 246.225 152.719 245.937 152.688C245.639 152.696 245.352 152.806 245.125 153C244.925 153.199 244.813 153.468 244.812 153.75C244.72 154.602 244.72 155.461 244.812 156.313L236.5 158.688C236.163 157.94 235.787 157.209 235.375 156.5C235.22 156.258 234.978 156.084 234.7 156.014C234.421 155.944 234.125 155.984 233.875 156.125C233.751 156.189 233.641 156.279 233.554 156.389C233.466 156.498 233.403 156.625 233.368 156.76C233.332 156.896 233.326 157.037 233.349 157.175C233.371 157.314 233.423 157.446 233.5 157.562C235.496 161.042 236.531 164.989 236.5 169C236.482 169.272 236.569 169.54 236.744 169.75C236.918 169.959 237.167 170.094 237.437 170.125C237.709 170.125 237.97 170.022 238.167 169.836C238.365 169.65 238.484 169.396 238.5 169.125C238.554 168.334 238.554 167.541 238.5 166.75L247.25 164.312C247.562 165 247.937 165.687 248.312 166.375C248.474 166.592 248.704 166.747 248.965 166.815C249.227 166.883 249.503 166.86 249.75 166.75C249.992 166.595 250.166 166.354 250.236 166.075C250.306 165.796 250.266 165.501 250.125 165.25ZM246.312 162.313L238.125 164.562C237.866 163.267 237.511 161.993 237.062 160.75L245.25 158.438C245.508 159.754 245.864 161.049 246.312 162.313Z" fill="#FFC93E"/>
<path d="M240.875 181.688H242C242.958 181.653 243.872 181.28 244.582 180.636C245.292 179.992 245.751 179.117 245.878 178.167C246.005 177.217 245.792 176.253 245.277 175.445C244.762 174.636 243.977 174.036 243.063 173.751C242.495 173.575 241.894 173.534 241.308 173.632C240.722 173.73 240.167 173.963 239.688 174.313C238.645 175.015 237.788 175.959 237.188 177.063C234.921 181.936 233.768 187.252 233.813 192.626C233.79 192.786 233.807 192.949 233.861 193.102C233.915 193.254 234.006 193.391 234.125 193.501C234.219 193.63 234.341 193.736 234.481 193.812C234.622 193.888 234.778 193.931 234.938 193.938C235.252 193.938 235.555 193.813 235.777 193.59C236 193.368 236.125 193.066 236.125 192.751C236.186 188.335 236.989 183.962 238.5 179.813C239.026 180.716 239.874 181.386 240.875 181.688ZM243.563 178.188C243.429 178.582 243.149 178.909 242.782 179.103C242.414 179.297 241.986 179.342 241.586 179.23C241.185 179.118 240.843 178.857 240.63 178.5C240.416 178.144 240.347 177.719 240.438 177.313C240.502 176.991 240.679 176.703 240.938 176.501H241.313H242.75C243.164 176.619 243.52 176.886 243.75 177.251C243.776 177.574 243.711 177.899 243.563 178.188Z" fill="#FFC93E"/>
<path d="M247.812 174.938C247.527 174.851 247.223 174.851 246.937 174.938C246.702 175.169 246.567 175.484 246.562 175.813C246.502 180.228 245.699 184.602 244.187 188.751C243.639 187.934 242.82 187.337 241.875 187.063C241.367 186.905 240.831 186.857 240.303 186.921C239.775 186.986 239.267 187.162 238.812 187.438C238.329 187.675 237.904 188.017 237.569 188.438C237.233 188.86 236.997 189.351 236.875 189.876C236.587 190.912 236.721 192.02 237.248 192.957C237.775 193.894 238.652 194.584 239.687 194.876H240.75C241.506 194.89 242.247 194.672 242.875 194.251C244.011 193.549 244.938 192.556 245.562 191.376C247.796 186.644 248.969 181.483 249 176.251C249.111 175.97 249.111 175.657 249 175.376C248.855 175.209 248.67 175.081 248.462 175.004C248.255 174.928 248.031 174.905 247.812 174.938ZM239.312 192.063C239.121 191.677 239.079 191.234 239.195 190.819C239.31 190.404 239.575 190.046 239.937 189.813C240.205 189.756 240.482 189.756 240.75 189.813H241.187C241.397 189.863 241.594 189.955 241.766 190.084C241.938 190.213 242.081 190.376 242.187 190.563C242.347 190.965 242.347 191.412 242.187 191.813C242.101 192.159 241.903 192.466 241.625 192.688H241.25C241.112 192.75 240.963 192.783 240.812 192.783C240.662 192.783 240.512 192.75 240.375 192.688C239.957 192.616 239.579 192.394 239.312 192.063Z" fill="#FFC93E"/>
<path d="M235 205.312C235.405 204.977 235.733 204.557 235.959 204.082C236.186 203.607 236.307 203.088 236.313 202.562C236.32 201.838 236.117 201.127 235.728 200.515C235.34 199.903 234.783 199.417 234.124 199.116C233.465 198.814 232.733 198.71 232.016 198.815C231.299 198.921 230.628 199.232 230.084 199.711C229.541 200.19 229.147 200.816 228.952 201.514C228.756 202.211 228.767 202.951 228.983 203.643C229.199 204.334 229.611 204.949 230.168 205.411C230.726 205.874 231.405 206.165 232.125 206.25C233.563 207.25 235.688 209.25 235.688 210.562C235.688 210.562 235.688 211.187 234.688 211.75C234.303 212.05 233.859 212.266 233.385 212.384C232.912 212.503 232.419 212.521 231.938 212.437C230.813 211.937 230.25 209.562 229.75 207.5C229.25 205.437 228.5 202.312 226.438 201.625C225.847 201.396 225.21 201.31 224.58 201.375C223.95 201.441 223.344 201.655 222.813 202C222.299 202.49 221.895 203.083 221.626 203.74C221.357 204.397 221.229 205.103 221.25 205.812C221.25 206.144 221.382 206.462 221.616 206.696C221.851 206.931 222.169 207.062 222.5 207.062C222.832 207.032 223.142 206.883 223.372 206.641C223.602 206.4 223.736 206.083 223.75 205.75C223.75 205.75 223.75 204.375 224.375 204.062C224.577 203.953 224.802 203.896 225.031 203.896C225.261 203.896 225.486 203.953 225.688 204.062C226.375 204.062 226.938 206.562 227.313 208.062C227.938 210.875 228.625 213.75 230.938 214.75C231.415 214.943 231.923 215.048 232.438 215.062C233.702 215.002 234.93 214.614 236 213.937C236.63 213.634 237.165 213.166 237.55 212.582C237.935 211.999 238.156 211.323 238.188 210.625C238.061 209.564 237.712 208.543 237.163 207.627C236.613 206.711 235.876 205.923 235 205.312ZM232.563 201.312C232.724 201.312 232.884 201.345 233.032 201.408C233.18 201.472 233.314 201.565 233.425 201.682C233.536 201.799 233.622 201.937 233.678 202.089C233.734 202.24 233.759 202.401 233.75 202.562C233.75 202.877 233.625 203.179 233.402 203.402C233.18 203.625 232.878 203.75 232.563 203.75C232.38 203.791 232.189 203.791 232.006 203.75C231.823 203.708 231.652 203.625 231.505 203.508C231.359 203.391 231.24 203.242 231.159 203.073C231.077 202.904 231.035 202.719 231.035 202.531C231.035 202.343 231.077 202.158 231.159 201.989C231.24 201.82 231.359 201.671 231.505 201.554C231.652 201.437 231.823 201.354 232.006 201.312C232.189 201.271 232.38 201.271 232.563 201.312Z" fill="#FFC93E"/>
<path d="M218.062 221.376C215.562 219.751 214.375 213.126 214.312 211.438C214.296 211.118 214.158 210.816 213.925 210.594C213.692 210.373 213.383 210.25 213.062 210.251C212.904 210.242 212.746 210.266 212.597 210.323C212.449 210.379 212.315 210.466 212.203 210.578C212.09 210.691 212.003 210.825 211.947 210.973C211.89 211.121 211.866 211.28 211.875 211.438C212.107 214.001 212.674 216.523 213.562 218.938C213.539 219.962 213.349 220.975 213 221.938C211.633 218.823 210.768 215.511 210.437 212.126C210.435 211.965 210.394 211.807 210.318 211.666C210.242 211.525 210.133 211.404 210 211.313C210.064 211.165 210.096 211.006 210.096 210.844C210.096 210.683 210.064 210.524 210 210.376C209.887 210.073 209.661 209.826 209.37 209.686C209.078 209.546 208.744 209.525 208.437 209.626C207.675 209.944 206.96 210.364 206.312 210.876C205.819 210.135 205.126 209.549 204.312 209.188C204.164 209.125 204.005 209.092 203.844 209.092C203.682 209.092 203.523 209.125 203.375 209.188C203.228 209.252 203.096 209.346 202.988 209.464C202.88 209.583 202.799 209.723 202.75 209.876C202.628 210.176 202.628 210.513 202.75 210.813C202.813 210.96 202.908 211.092 203.026 211.2C203.145 211.308 203.285 211.389 203.437 211.438C203.879 211.72 204.244 212.107 204.5 212.563C203.264 214.045 202.658 215.952 202.812 217.876C202.812 220.376 203.562 223.376 205.562 223.501C205.886 223.499 206.206 223.425 206.498 223.284C206.789 223.144 207.046 222.94 207.25 222.688C207.625 224.001 208.062 224.876 208.937 225.251H209.75C210.077 225.345 210.423 225.345 210.75 225.251C211.157 225 211.499 224.658 211.75 224.251C211.942 224.434 212.179 224.564 212.437 224.626C212.737 224.779 213.069 224.859 213.406 224.859C213.743 224.859 214.075 224.779 214.375 224.626C214.916 224.181 215.326 223.598 215.562 222.938C215.895 223.358 216.296 223.717 216.75 224.001C216.922 224.057 217.105 224.076 217.286 224.054C217.466 224.033 217.64 223.973 217.794 223.877C217.949 223.782 218.081 223.655 218.181 223.503C218.282 223.352 218.348 223.18 218.375 223.001C218.49 222.699 218.49 222.365 218.375 222.063C218.337 221.809 218.229 221.571 218.062 221.376ZM209.687 222.501C209.337 221.29 209.066 220.059 208.875 218.813V217.876C208.687 216.65 208.416 215.439 208.062 214.251C208.062 213.813 207.75 213.438 207.625 213.063L208.25 212.626C208.615 215.665 209.285 218.659 210.25 221.563C210.107 221.9 209.918 222.216 209.687 222.501ZM205.25 217.563C205.208 216.708 205.357 215.854 205.687 215.063C205.985 216.021 206.194 217.005 206.312 218.001C206.177 218.783 205.989 219.556 205.75 220.313C205.471 219.421 205.303 218.497 205.25 217.563Z" fill="#FFC93E"/>
<path d="M195.875 213.126L179.812 208.876C179.507 208.784 179.181 208.784 178.875 208.876C178.62 209.068 178.425 209.328 178.312 209.626C178.22 209.931 178.22 210.258 178.312 210.563C178.504 210.818 178.764 211.013 179.062 211.126L195.125 215.313C195.401 215.319 195.671 215.229 195.887 215.058C196.104 214.887 196.254 214.646 196.312 214.376C196.408 214.092 196.408 213.785 196.312 213.501C196.202 213.34 196.051 213.211 195.875 213.126Z" fill="#FFC93E"/>
<path d="M195 217.876L189.375 216.126C189.091 216.036 188.786 216.03 188.499 216.107C188.211 216.185 187.951 216.343 187.75 216.563C187.586 216.802 187.498 217.086 187.498 217.376C187.498 217.666 187.586 217.949 187.75 218.188C188.562 220.188 188.687 222.126 188.125 222.751C187.562 223.376 186.5 223.001 185 223.001C183.5 223.001 181.75 221.626 181.625 220.876C181.5 220.126 182.437 218.626 184.062 217.438C184.306 217.28 184.496 217.053 184.607 216.785C184.719 216.517 184.747 216.222 184.687 215.938C184.632 215.647 184.498 215.377 184.299 215.156C184.101 214.936 183.846 214.774 183.562 214.688L177.625 212.938C177.477 212.875 177.317 212.842 177.156 212.842C176.995 212.842 176.836 212.875 176.687 212.938C176.54 213.002 176.408 213.096 176.301 213.214C176.193 213.333 176.112 213.473 176.062 213.626C175.964 213.941 175.995 214.282 176.147 214.574C176.299 214.867 176.561 215.088 176.875 215.188L181.312 216.438C180.61 217.007 180.051 217.734 179.682 218.559C179.313 219.384 179.143 220.285 179.187 221.188C179.5 223.001 181.25 224.376 184.312 225.188C185.105 225.421 185.924 225.548 186.75 225.563C187.282 225.595 187.815 225.51 188.311 225.316C188.807 225.122 189.256 224.822 189.625 224.438C190.152 223.658 190.484 222.762 190.593 221.827C190.702 220.892 190.584 219.944 190.25 219.063L194.312 220.313C194.619 220.393 194.944 220.353 195.223 220.203C195.501 220.052 195.712 219.801 195.812 219.501C195.881 219.342 195.914 219.17 195.909 218.997C195.904 218.824 195.862 218.654 195.784 218.499C195.707 218.344 195.597 218.208 195.461 218.101C195.326 217.993 195.168 217.916 195 217.876Z" fill="#FFC93E"/>
<path d="M174.563 204.562C174.418 204.395 174.219 204.285 174 204.25C173.873 204.189 173.734 204.157 173.594 204.157C173.453 204.157 173.314 204.189 173.188 204.25C171.262 205.753 169.558 207.521 168.125 209.5C167.25 210.037 166.269 210.378 165.25 210.5C166.929 207.744 169.039 205.275 171.5 203.187C171.658 203.038 171.769 202.845 171.82 202.634C171.87 202.422 171.858 202.2 171.786 201.995C171.713 201.79 171.582 201.611 171.41 201.479C171.237 201.346 171.029 201.267 170.813 201.25C170.663 201.242 170.513 201.265 170.373 201.319C170.233 201.373 170.106 201.456 170 201.562C167.691 203.407 165.595 205.503 163.75 207.812C163.365 207.953 162.967 208.057 162.563 208.125C163.334 207.154 164.192 206.254 165.125 205.438C166.266 204.412 167.331 203.305 168.313 202.125C170.813 199.062 170.5 197.062 170.375 196.687C170.353 196.54 170.301 196.4 170.222 196.274C170.142 196.148 170.037 196.041 169.913 195.958C169.79 195.876 169.65 195.82 169.503 195.795C169.357 195.77 169.207 195.776 169.063 195.812C168.774 195.873 168.52 196.044 168.356 196.29C168.193 196.535 168.132 196.835 168.188 197.125C168.27 197.474 168.27 197.838 168.188 198.188C167.854 197.458 167.412 196.783 166.875 196.187C166.935 196.072 166.967 195.943 166.967 195.812C166.967 195.682 166.935 195.553 166.875 195.437C166.813 195.289 166.709 195.163 166.576 195.074C166.442 194.985 166.285 194.938 166.125 194.938H163.375L163.938 197.563C163.989 197.724 164.078 197.87 164.198 197.99C164.318 198.109 164.464 198.198 164.625 198.25C164.866 198.347 165.135 198.347 165.375 198.25C166.154 199.078 166.58 200.176 166.563 201.313C165.75 202.25 164.688 203.25 163.75 204.125C161.625 206.125 160.063 207.563 160.375 209.063C160.425 209.378 160.554 209.676 160.751 209.927C160.948 210.179 161.206 210.376 161.5 210.5C161.952 210.606 162.423 210.606 162.875 210.5C162.812 210.746 162.812 211.004 162.875 211.25C162.976 211.563 163.147 211.849 163.374 212.088C163.601 212.326 163.879 212.509 164.188 212.625C164.824 212.779 165.488 212.779 166.125 212.625C166.034 213.163 166.034 213.712 166.125 214.25C166.133 214.481 166.208 214.704 166.342 214.893C166.475 215.082 166.66 215.228 166.875 215.312H167.25C167.429 215.291 167.601 215.227 167.75 215.125C167.871 215.028 167.968 214.904 168.034 214.763C168.099 214.622 168.13 214.468 168.125 214.313C168.125 211.438 172.75 207.063 174.375 206.063C174.494 205.983 174.595 205.878 174.67 205.756C174.745 205.634 174.794 205.498 174.811 205.355C174.829 205.213 174.816 205.069 174.773 204.932C174.73 204.795 174.658 204.669 174.563 204.562Z" fill="#FFC93E"/>
<path d="M160.75 185.5C160.466 185.405 160.159 185.405 159.875 185.5H157L155.688 179.25L158.813 181.375C158.941 181.432 159.079 181.461 159.219 181.461C159.359 181.461 159.497 181.432 159.625 181.375C159.929 181.307 160.196 181.129 160.375 180.875C160.468 180.75 160.533 180.607 160.567 180.455C160.602 180.304 160.604 180.147 160.575 179.994C160.546 179.841 160.485 179.696 160.397 179.568C160.309 179.44 160.195 179.332 160.063 179.25L153.813 175.062L149 180.875C148.892 180.975 148.806 181.095 148.747 181.23C148.688 181.364 148.658 181.509 148.658 181.656C148.658 181.803 148.688 181.948 148.747 182.083C148.806 182.217 148.892 182.338 149 182.438C149.22 182.644 149.511 182.759 149.813 182.759C150.114 182.759 150.405 182.644 150.625 182.438L153.375 179.25L154.75 186.063L151.375 186.687C151.079 186.733 150.811 186.89 150.625 187.125C150.563 187.262 150.531 187.412 150.531 187.563C150.531 187.713 150.563 187.863 150.625 188C150.67 188.265 150.808 188.505 151.014 188.677C151.221 188.849 151.482 188.941 151.75 188.938L155.188 188.313L156.188 193.188C156.219 193.458 156.353 193.707 156.563 193.881C156.772 194.056 157.041 194.143 157.313 194.125C157.616 194.057 157.883 193.879 158.063 193.625C158.127 193.337 158.127 193.038 158.063 192.75L157.063 187.875L159.938 187.375C160.223 187.305 160.47 187.125 160.625 186.875C160.687 186.738 160.719 186.588 160.719 186.437C160.719 186.287 160.687 186.137 160.625 186C160.703 185.844 160.746 185.674 160.75 185.5Z" fill="#FFC93E"/>
<path d="M159.688 161.874C160.17 161.416 160.545 160.857 160.785 160.237C161.025 159.616 161.125 158.951 161.078 158.287C161.03 157.624 160.835 156.979 160.509 156.4C160.182 155.82 159.731 155.321 159.188 154.937C158.596 154.619 157.923 154.485 157.255 154.552C156.587 154.619 155.954 154.883 155.438 155.312C155.026 155.57 154.677 155.918 154.418 156.329C154.158 156.74 153.994 157.204 153.938 157.687C153.986 158.761 154.458 159.772 155.25 160.499C154.34 160.329 153.442 160.099 152.563 159.812C150.188 159.062 147.688 158.312 146.313 160.312C146.143 160.629 146.054 160.983 146.054 161.343C146.054 161.703 146.143 162.057 146.313 162.374C146.725 163.399 147.418 164.288 148.313 164.937H147.75C147.037 165.251 146.401 165.716 145.883 166.298C145.366 166.88 144.979 167.567 144.75 168.312C144.688 168.449 144.656 168.598 144.656 168.749C144.656 168.9 144.688 169.049 144.75 169.187C144.942 169.441 145.202 169.636 145.5 169.749H145.813C146.056 169.756 146.294 169.679 146.488 169.531C146.681 169.383 146.818 169.173 146.875 168.937C147.189 168.106 147.818 167.432 148.625 167.062C149.712 166.648 150.913 166.648 152 167.062L152.625 167.374H153.125L154.125 167.812C154.4 167.945 154.715 167.968 155.006 167.875C155.297 167.782 155.541 167.58 155.688 167.312C155.747 167.083 155.737 166.843 155.659 166.62C155.581 166.397 155.439 166.203 155.25 166.062C154.502 165.696 153.729 165.383 152.938 165.124C151.181 164.451 149.66 163.277 148.563 161.749C148.563 161.749 150.75 161.749 152 162.249C153.827 162.969 155.792 163.268 157.75 163.124C158.459 163.718 159.053 164.439 159.5 165.249C159.693 165.681 159.709 166.171 159.546 166.615C159.382 167.058 159.052 167.421 158.625 167.624C158.35 167.748 158.132 167.972 158.016 168.25C157.9 168.529 157.894 168.841 158 169.124C158.136 169.404 158.371 169.623 158.66 169.739C158.949 169.854 159.271 169.858 159.563 169.749C160.528 169.289 161.273 168.466 161.636 167.46C161.999 166.453 161.95 165.345 161.5 164.374C161.114 163.402 160.491 162.543 159.688 161.874ZM156.75 157.249C157.021 157.038 157.346 156.908 157.688 156.874H158C158.275 157.096 158.489 157.385 158.62 157.714C158.752 158.042 158.796 158.398 158.75 158.749C158.75 159.031 158.682 159.31 158.552 159.56C158.421 159.81 158.232 160.025 158 160.187C157.313 159.499 156.188 158.374 156.25 157.812C156.313 157.249 156.563 157.374 156.75 157.249Z" fill="#FFC93E"/>
<path d="M176.75 140.063L174.438 139.063C174.112 138.923 173.761 138.852 173.406 138.852C173.052 138.852 172.701 138.923 172.375 139.063C172.063 139.236 171.794 139.478 171.588 139.771C171.383 140.063 171.246 140.398 171.188 140.75V142.375C170.891 142.251 170.572 142.188 170.25 142.188C169.928 142.188 169.61 142.251 169.313 142.375C168.917 142.533 168.567 142.787 168.294 143.115C168.021 143.442 167.834 143.832 167.75 144.25L167.313 146.063C166.997 145.925 166.657 145.854 166.313 145.854C165.968 145.854 165.628 145.925 165.313 146.063C164.887 146.2 164.508 146.454 164.221 146.797C163.933 147.14 163.748 147.557 163.688 148L162.625 151.813C162.534 152.097 162.534 152.403 162.625 152.688C162.792 152.926 163.034 153.102 163.313 153.188H163.625C163.874 153.18 164.113 153.09 164.306 152.932C164.498 152.773 164.632 152.556 164.688 152.313L165.75 148.563C166.104 148.618 166.466 148.596 166.811 148.499C167.156 148.402 167.477 148.232 167.75 148C168.057 147.843 168.327 147.622 168.543 147.353C168.758 147.084 168.914 146.772 169 146.438L169.438 144.625C170.081 144.876 170.795 144.876 171.438 144.625C171.726 144.445 171.974 144.208 172.167 143.929C172.361 143.649 172.495 143.333 172.563 143L172.875 141.375L175.25 142.313C175.388 142.375 175.537 142.407 175.688 142.407C175.838 142.407 175.988 142.375 176.125 142.313C176.366 142.37 176.62 142.345 176.846 142.244C177.072 142.142 177.258 141.968 177.375 141.75C177.437 141.613 177.469 141.463 177.469 141.313C177.469 141.162 177.437 141.013 177.375 140.875C177.361 140.694 177.294 140.52 177.183 140.376C177.072 140.232 176.922 140.123 176.75 140.063Z" fill="#FFC93E"/>
<path d="M161 142.751C161.304 142.891 161.634 142.963 161.969 142.963C162.303 142.963 162.634 142.891 162.938 142.751C163.245 142.594 163.515 142.373 163.73 142.104C163.946 141.834 164.102 141.522 164.188 141.188L164.688 139.376C165.012 139.479 165.354 139.514 165.692 139.477C166.031 139.44 166.358 139.333 166.652 139.162C166.946 138.991 167.202 138.761 167.402 138.486C167.601 138.21 167.741 137.896 167.813 137.563V135.938L170.125 136.876C170.264 136.937 170.414 136.969 170.566 136.97C170.718 136.971 170.868 136.942 171.009 136.883C171.149 136.825 171.276 136.739 171.382 136.63C171.487 136.521 171.57 136.392 171.625 136.251C171.713 135.976 171.699 135.679 171.583 135.414C171.468 135.15 171.261 134.936 171 134.813L169.5 133.626C169.166 133.475 168.801 133.406 168.435 133.425C168.069 133.443 167.713 133.548 167.395 133.731C167.078 133.914 166.808 134.17 166.609 134.478C166.41 134.786 166.287 135.136 166.25 135.501V137.126C165.628 136.879 164.935 136.879 164.313 137.126C164.028 137.28 163.781 137.494 163.586 137.753C163.392 138.012 163.256 138.31 163.188 138.626L162.688 140.438C162.384 140.298 162.053 140.226 161.719 140.226C161.384 140.226 161.054 140.298 160.75 140.438C160.452 140.592 160.187 140.803 159.973 141.061C159.758 141.319 159.597 141.617 159.5 141.938L158.5 145.751C158.453 145.894 158.437 146.046 158.454 146.197C158.47 146.347 158.518 146.492 158.595 146.622C158.672 146.752 158.776 146.865 158.899 146.951C159.023 147.038 159.164 147.098 159.313 147.126C159.57 147.121 159.818 147.034 160.021 146.876C160.224 146.718 160.37 146.499 160.438 146.251L161.438 142.501L161 142.751Z" fill="#FFC93E"/>
<path d="M180.25 127.813C181.703 128.542 182.853 129.759 183.5 131.25H182.75C180.813 131.813 180.438 131.875 180.563 132.75C180.575 132.968 180.663 133.174 180.812 133.334C180.96 133.493 181.159 133.596 181.375 133.625H181.813L183.75 133.125C183.759 134.849 183.397 136.554 182.688 138.125C182.615 138.245 182.57 138.38 182.556 138.52C182.542 138.659 182.56 138.801 182.608 138.933C182.656 139.065 182.733 139.184 182.833 139.282C182.933 139.381 183.055 139.455 183.188 139.5C183.409 139.53 183.634 139.484 183.827 139.371C184.019 139.257 184.168 139.083 184.25 138.875C185.2 136.935 185.63 134.781 185.5 132.625H186.625C187.619 134.771 189.201 136.592 191.188 137.875C191.373 138.051 191.619 138.149 191.875 138.149C192.131 138.149 192.377 138.051 192.563 137.875C192.659 137.782 192.736 137.67 192.788 137.547C192.84 137.423 192.867 137.29 192.867 137.156C192.867 137.022 192.84 136.889 192.788 136.766C192.736 136.642 192.659 136.531 192.563 136.438C190.982 135.431 189.689 134.031 188.813 132.375L191.063 131.813C191.19 131.777 191.31 131.716 191.414 131.633C191.518 131.551 191.604 131.448 191.668 131.332C191.732 131.215 191.773 131.087 191.787 130.955C191.801 130.823 191.788 130.69 191.75 130.563C191.721 130.437 191.667 130.319 191.591 130.215C191.514 130.112 191.417 130.025 191.306 129.96C191.195 129.896 191.071 129.855 190.943 129.84C190.815 129.826 190.686 129.837 190.563 129.875L188.188 130.438C187.989 128.81 188.388 127.166 189.313 125.813C189.493 125.616 189.593 125.36 189.593 125.094C189.593 124.828 189.493 124.571 189.313 124.375C189.219 124.279 189.108 124.202 188.984 124.15C188.861 124.097 188.728 124.07 188.594 124.07C188.46 124.07 188.327 124.097 188.203 124.15C188.08 124.202 187.968 124.279 187.875 124.375C186.6 126.193 186.064 128.427 186.375 130.625H185.438C185.465 130.48 185.465 130.332 185.438 130.188C184.589 128.181 183.031 126.557 181.063 125.625C180.941 125.565 180.808 125.531 180.672 125.528C180.536 125.524 180.401 125.55 180.276 125.603C180.152 125.657 180.04 125.737 179.949 125.837C179.858 125.938 179.79 126.058 179.75 126.188C179.638 126.316 179.561 126.471 179.525 126.637C179.49 126.804 179.498 126.977 179.548 127.139C179.598 127.302 179.689 127.449 179.811 127.567C179.934 127.685 180.085 127.769 180.25 127.813Z" fill="#FFC93E"/>
<path d="M217.625 195.875L200.688 177.062L202.25 202.313L198.25 177.375L185.875 199.437L196 176.25L173.687 188.188L194.688 174.125L169.5 172.063L194.812 171.625L174.687 156.25L196.188 169.563L187.625 145.813L198.5 168.625L204.125 143.938L200.938 169.063L219 151.312L202.812 170.75L227.562 165.563L203.437 173.125L227 182.188L202.625 175.5L217.625 195.875Z" fill="#FFC93E"/>
</g>
<g clip-path="url(#clip1_5021_3435)">
<path d="M100.05 85.1251C100.104 85.4834 100.08 85.8492 99.9791 86.1972C99.8781 86.5453 99.7026 86.8672 99.4648 87.1407C99.227 87.4141 98.9326 87.6326 98.6019 87.781C98.2713 87.9294 97.9124 88.0042 97.55 88.0001H95.5C95.7431 84.3288 94.9022 80.667 93.0817 77.4697C91.2612 74.2724 88.5414 71.6804 85.2601 70.0158C81.9789 68.3512 78.281 67.6874 74.6257 68.1069C70.9703 68.5263 67.5188 70.0105 64.7 72.3751C63.9811 72.9608 63.3198 73.6137 62.725 74.3251L56.8 58.9001C56.6533 58.5199 56.6017 58.1097 56.6498 57.7051C56.6978 57.3005 56.8441 56.9137 57.0758 56.5785C57.3074 56.2434 57.6175 55.9699 57.979 55.7819C58.3405 55.5939 58.7425 55.4972 59.15 55.5001H95.5L100.05 85.1251Z" fill="#E8A847"/>
<path d="M100.5 55.5H95.5V58H100.5V55.5Z" fill="#E8A847"/>
<path d="M100.5 55.5H95.5V58H100.5V55.5Z" fill="#E8A847"/>
<path d="M103 55.5C103 55.4814 103 55.4629 102.999 55.4445C102.953 53.3066 100.138 55.5 98 55.5C98 56.8807 99.1193 58 100.5 58C101.881 58 103 56.8807 103 55.5Z" fill="#E8A847"/>
<path d="M89.25 63H69.25C68.5596 63 68 63.5596 68 64.25C68 64.9404 68.5596 65.5 69.25 65.5H89.25C89.9404 65.5 90.5 64.9404 90.5 64.25C90.5 63.5596 89.9404 63 89.25 63Z" fill="#F1CB91"/>
<path d="M56.75 58H100.5C100.5 58.663 100.237 59.2989 99.7678 59.7678C99.2989 60.2366 98.663 60.5 98 60.5H56.75C56.4185 60.5 56.1005 60.3683 55.8661 60.1339C55.6317 59.8995 55.5 59.5815 55.5 59.25C55.5 58.9185 55.6317 58.6005 55.8661 58.3661C56.1005 58.1317 56.4185 58 56.75 58Z" fill="#FFC93E"/>
<path d="M82.275 58L79.775 60.5H75.5L78 58H82.275Z" fill="#FFDF8B"/>
<path d="M89.1999 76.2995C87.1333 73.8386 84.3833 72.0457 81.2978 71.1476C78.2123 70.2494 74.9298 70.2863 71.8652 71.2535C68.8006 72.2207 66.0917 74.0749 64.0808 76.5815C62.0699 79.0882 60.8473 82.1348 60.5677 85.3362C60.2881 88.5376 60.964 91.75 62.51 94.5673C64.0559 97.3846 66.4024 99.6802 69.2529 101.164C72.1034 102.648 75.3299 103.253 78.5244 102.904C81.7189 102.554 84.738 101.265 87.1999 99.1995C88.8354 97.8275 90.1845 96.1467 91.1702 94.2532C92.1558 92.3596 92.7588 90.2905 92.9445 88.1638C93.1302 86.0372 92.8951 83.8948 92.2526 81.8591C91.6101 79.8234 90.5728 77.9342 89.1999 76.2995ZM90.4999 86.6995L79.9499 85.7745L87.9999 78.9495C89.6082 81.2154 90.4809 83.9209 90.4999 86.6995ZM75.8499 83.6245L68.9499 75.4995C71.2237 73.907 73.9242 73.0358 76.6999 72.9995L75.8499 83.6245ZM77.7999 89.8745L84.5499 97.9995C82.2762 99.592 79.5757 100.463 76.7999 100.499L77.7999 89.8745ZM86.4249 77.0995L78.2499 83.8495L79.1749 73.2245C81.92 73.7142 84.4497 75.0314 86.4249 76.9995V77.0995ZM67.1249 77.1245L73.9499 85.2495L63.3749 84.3245C63.8394 81.6119 65.1115 79.1025 67.0249 77.1245H67.1249ZM62.9999 86.7995L73.5499 87.7245L65.4999 94.5495C63.8917 92.2836 63.0189 89.578 62.9999 86.7995ZM66.9999 96.4995L75.1749 89.6495L74.2499 100.274C71.5317 99.7703 69.03 98.4541 67.0749 96.4995H66.9999ZM86.3999 96.3745L79.6499 88.2495L90.2249 89.1745C89.7325 91.8987 88.4249 94.4094 86.4749 96.3745H86.3999Z" fill="#680B1A"/>
<path d="M76.75 88C77.4404 88 78 87.4404 78 86.75C78 86.0596 77.4404 85.5 76.75 85.5C76.0596 85.5 75.5 86.0596 75.5 86.75C75.5 87.4404 76.0596 88 76.75 88Z" fill="#E8A847"/>
</g>
<g clip-path="url(#clip2_5021_3435)">
<path d="M335.125 103H307.25C306.628 103.003 306.027 102.774 305.565 102.358C305.103 101.942 304.812 101.368 304.75 100.75L300.275 57.9996C300.226 57.3521 300.431 56.7108 300.846 56.2116C301.261 55.7123 301.854 55.3942 302.5 55.3246L337.1 53.1746C337.452 53.153 337.804 53.2059 338.133 53.3299C338.463 53.4538 338.763 53.646 339.013 53.8938C339.263 54.1416 339.458 54.4395 339.585 54.7679C339.712 55.0964 339.768 55.448 339.75 55.7996L337.525 100.625C337.494 101.249 337.231 101.839 336.787 102.279C336.342 102.718 335.75 102.975 335.125 103Z" fill="#E8A847"/>
<path d="M339.075 71.4258L337.625 100.626C337.593 101.267 337.315 101.871 336.85 102.313C336.385 102.755 335.767 103.002 335.125 103.001H307.5L339.075 71.4258Z" fill="#F1CB91"/>
<path d="M315 95.5V99.25C315 99.5815 314.868 99.8995 314.634 100.134C314.399 100.368 314.082 100.5 313.75 100.5C313.418 100.5 313.101 100.368 312.866 100.134C312.632 99.8995 312.5 99.5815 312.5 99.25V98L315 95.5Z" fill="#F1CB91"/>
<path d="M335 81.75C335 82.0815 334.868 82.3995 334.634 82.6339C334.399 82.8683 334.082 83 333.75 83H327.5L330 80.5H333.75C334.082 80.5 334.399 80.6317 334.634 80.8661C334.868 81.1005 335 81.4185 335 81.75Z" fill="#D6985D"/>
<path d="M333.75 77.9996H332.5L334.65 75.8496C334.868 76.0997 334.992 76.418 335 76.7496C335 77.0811 334.868 77.3991 334.634 77.6335C334.399 77.8679 334.082 77.9996 333.75 77.9996Z" fill="#D6985D"/>
<path d="M337.75 58H324.75L330 67.075V71.75C330 72.0815 330.132 72.3995 330.366 72.6339C330.601 72.8683 330.918 73 331.25 73C331.582 73 331.899 72.8683 332.134 72.6339C332.368 72.3995 332.5 72.0815 332.5 71.75V67.075L337.75 58Z" fill="#CC7E35"/>
<path d="M320.25 85.5H307.25L312.5 94.575V99.25C312.5 99.5815 312.632 99.8995 312.866 100.134C313.101 100.368 313.418 100.5 313.75 100.5C314.082 100.5 314.399 100.368 314.634 100.134C314.868 99.8995 315 99.5815 315 99.25V94.575L320.25 85.5Z" fill="#CC7E35"/>
<path d="M315 95.5V99.25C315 99.5815 314.868 99.8995 314.634 100.134C314.399 100.368 314.082 100.5 313.75 100.5C313.418 100.5 313.101 100.368 312.866 100.134C312.632 99.8995 312.5 99.5815 312.5 99.25V98L315 95.5Z" fill="#D6985D"/>
<path d="M317.5 78C317.5 79.3261 316.973 80.5979 316.036 81.5355C315.098 82.4732 313.826 83 312.5 83C311.174 83 309.902 82.4732 308.964 81.5355C308.027 80.5979 307.5 79.3261 307.5 78H317.5Z" fill="#CC7E35"/>
<path d="M317.5 70.5C317.5 71.8261 316.973 73.0979 316.036 74.0355C315.098 74.9732 313.826 75.5 312.5 75.5C311.174 75.5 309.902 74.9732 308.964 74.0355C308.027 73.0979 307.5 71.8261 307.5 70.5H317.5Z" fill="#CC7E35"/>
<path d="M313.75 63H306.25C305.56 63 305 63.5596 305 64.25C305 64.9404 305.56 65.5 306.25 65.5H313.75C314.44 65.5 315 64.9404 315 64.25C315 63.5596 314.44 63 313.75 63Z" fill="#CC7E35"/>
<path d="M313.75 58H306.25C305.56 58 305 58.5596 305 59.25C305 59.9404 305.56 60.5 306.25 60.5H313.75C314.44 60.5 315 59.9404 315 59.25C315 58.5596 314.44 58 313.75 58Z" fill="#CC7E35"/>
<path d="M333.75 80.5H326.25C325.56 80.5 325 81.0596 325 81.75C325 82.4404 325.56 83 326.25 83H333.75C334.44 83 335 82.4404 335 81.75C335 81.0596 334.44 80.5 333.75 80.5Z" fill="#CC7E35"/>
<path d="M333.75 75.5H326.25C325.56 75.5 325 76.0596 325 76.75C325 77.4404 325.56 78 326.25 78H333.75C334.44 78 335 77.4404 335 76.75C335 76.0596 334.44 75.5 333.75 75.5Z" fill="#CC7E35"/>
<path d="M335 81.75C335 82.0815 334.868 82.3995 334.634 82.6339C334.399 82.8683 334.082 83 333.75 83H327.5L330 80.5H333.75C334.082 80.5 334.399 80.6317 334.634 80.8661C334.868 81.1005 335 81.4185 335 81.75Z" fill="#D6985D"/>
<path d="M335 76.7496C335 77.0811 334.868 77.3991 334.634 77.6335C334.399 77.8679 334.082 77.9996 333.75 77.9996H332.5L334.65 75.8496C334.868 76.0997 334.992 76.418 335 76.7496Z" fill="#D6985D"/>
<path d="M330 100.5C331.381 100.5 332.5 99.3807 332.5 98C332.5 96.6193 331.381 95.5 330 95.5C328.619 95.5 327.5 96.6193 327.5 98C327.5 99.3807 328.619 100.5 330 100.5Z" fill="#D6985D"/>
<path d="M330 93C331.381 93 332.5 91.8807 332.5 90.5C332.5 89.1193 331.381 88 330 88C328.619 88 327.5 89.1193 327.5 90.5C327.5 91.8807 328.619 93 330 93Z" fill="#D6985D"/>
<path d="M320 68C321.381 68 322.5 66.8807 322.5 65.5C322.5 64.1193 321.381 63 320 63C318.619 63 317.5 64.1193 317.5 65.5C317.5 66.8807 318.619 68 320 68Z" fill="#CC7E35"/>
</g>
<g clip-path="url(#clip3_5021_3435)">
<path d="M85.5 265.5H84.825C83.825 261.8 82.175 261.8 81.175 265.5H79.825C78.825 261.8 77.175 261.8 76.175 265.5H74.825C73.825 261.8 72.175 261.8 71.175 265.5H70.5C69.837 265.5 69.2011 265.763 68.7322 266.232C68.2634 266.701 68 267.337 68 268V288C68 288.663 68.2634 289.299 68.7322 289.767C69.2011 290.236 69.837 290.5 70.5 290.5H74.25V280.5C74.25 279.505 74.6451 278.551 75.3483 277.848C76.0516 277.145 77.0054 276.75 78 276.75C78.9946 276.75 79.9484 277.145 80.6517 277.848C81.3549 278.551 81.75 279.505 81.75 280.5V290.5H85.5C86.163 290.5 86.7989 290.236 87.2678 289.767C87.7366 289.299 88 288.663 88 288V268C88 267.337 87.7366 266.701 87.2678 266.232C86.7989 265.763 86.163 265.5 85.5 265.5Z" fill="#252FB5"/>
<path d="M83 280.5V290.5H80.5V280.5C80.5 279.837 80.2366 279.201 79.7678 278.732C79.2989 278.263 78.663 278 78 278C77.337 278 76.7011 278.263 76.2322 278.732C75.7634 279.201 75.5 279.837 75.5 280.5V290.5H73V280.5C73 279.174 73.5268 277.902 74.4645 276.964C75.4021 276.027 76.6739 275.5 78 275.5C79.3261 275.5 80.5978 276.027 81.5355 276.964C82.4732 277.902 83 279.174 83 280.5Z" fill="#FFC93E"/>
<path d="M63 258H53C51.6193 258 50.5 259.119 50.5 260.5V288C50.5 289.381 51.6193 290.5 53 290.5H63C64.3807 290.5 65.5 289.381 65.5 288V260.5C65.5 259.119 64.3807 258 63 258Z" fill="#252FB5"/>
<path d="M103 258H93C91.6193 258 90.5 259.119 90.5 260.5V288C90.5 289.381 91.6193 290.5 93 290.5H103C104.381 290.5 105.5 289.381 105.5 288V260.5C105.5 259.119 104.381 258 103 258Z" fill="#252FB5"/>
<path d="M104.85 248.174C103.85 244.374 102.2 244.374 101.175 248.174H99.825C98.825 244.474 97.175 244.474 96.175 248.174H94.825C93.8 244.449 92.15 244.449 91.15 248.174C90.9564 248.28 90.7943 248.435 90.6801 248.624C90.566 248.813 90.5038 249.029 90.5 249.249V252.999C90.5 253.662 90.7634 254.298 91.2322 254.767C91.7011 255.236 92.337 255.499 93 255.499H103C103.663 255.499 104.299 255.236 104.768 254.767C105.237 254.298 105.5 253.662 105.5 252.999V249.249C105.496 249.029 105.434 248.813 105.32 248.624C105.206 248.435 105.044 248.28 104.85 248.174Z" fill="#252FB5"/>
<path d="M64.8501 248.176C63.8501 244.376 62.2001 244.376 61.1751 248.176H59.8251C58.8251 244.476 57.1751 244.476 56.1751 248.176H54.8251C53.8001 244.276 52.1501 244.276 51.1501 248.001C50.9286 248.12 50.7481 248.302 50.6322 248.525C50.5162 248.748 50.4702 249.001 50.5001 249.251V253.001C50.5001 253.664 50.7635 254.3 51.2323 254.769C51.7012 255.237 52.337 255.501 53.0001 255.501H63.0001C63.6631 255.501 64.299 255.237 64.7678 254.769C65.2367 254.3 65.5001 253.664 65.5001 253.001V249.251C65.4962 249.03 65.4341 248.814 65.3199 248.626C65.2058 248.437 65.0437 248.282 64.8501 248.176Z" fill="#252FB5"/>
<path d="M65.5 250.5H50.5V253H65.5V250.5Z" fill="#FFC93E"/>
<path d="M105.5 250.5H90.5V253H105.5V250.5Z" fill="#FFC93E"/>
<path d="M59.775 250.5L57.275 253H53L55.5 250.5H59.775Z" fill="#FFDF8B"/>
<path d="M99.775 250.5L97.275 253H93L95.5 250.5H99.775Z" fill="#FFDF8B"/>
<path d="M75.5 280.5V287.05L73 289.55V283L75.5 280.5Z" fill="#FFDF8B"/>
<path d="M80.5 282.074V280.499C80.5 279.836 80.2366 279.2 79.7678 278.731C79.2989 278.263 78.663 277.999 78 277.999L80.05 275.949C80.809 276.274 81.4757 276.783 81.9904 277.428C82.5052 278.074 82.852 278.837 83 279.649L80.5 282.074Z" fill="#FFDF8B"/>
<path d="M55.5 261.75C55.5 261.06 54.9404 260.5 54.25 260.5C53.5596 260.5 53 261.06 53 261.75V264.25C53 264.94 53.5596 265.5 54.25 265.5C54.9404 265.5 55.5 264.94 55.5 264.25V261.75Z" fill="#5058C4"/>
<path d="M55.5 269.25C55.5 268.56 54.9404 268 54.25 268C53.5596 268 53 268.56 53 269.25V276.75C53 277.44 53.5596 278 54.25 278C54.9404 278 55.5 277.44 55.5 276.75V269.25Z" fill="#5058C4"/>
<path d="M95.5 261.75C95.5 261.06 94.9404 260.5 94.25 260.5C93.5596 260.5 93 261.06 93 261.75V264.25C93 264.94 93.5596 265.5 94.25 265.5C94.9404 265.5 95.5 264.94 95.5 264.25V261.75Z" fill="#5058C4"/>
<path d="M95.5 269.25C95.5 268.56 94.9404 268 94.25 268C93.5596 268 93 268.56 93 269.25V276.75C93 277.44 93.5596 278 94.25 278C94.9404 278 95.5 277.44 95.5 276.75V269.25Z" fill="#5058C4"/>
</g>
<g clip-path="url(#clip4_5021_3435)">
<path d="M339.368 288.61L338.909 289.069C338.44 289.538 337.804 289.801 337.141 289.801C336.478 289.801 335.842 289.538 335.373 289.069L326.287 279.983L330.282 275.988L339.368 285.074C339.837 285.543 340.1 286.179 340.1 286.842C340.1 287.505 339.837 288.141 339.368 288.61Z" fill="#7E46E8"/>
<path d="M330.27 276.019L326.293 279.997L324.295 277.999L330.27 272.024C330.8 272.554 331.098 273.272 331.098 274.021C331.098 274.771 330.8 275.489 330.27 276.019Z" fill="#7E46E8"/>
<path d="M312.3 266.024L324.275 277.999L328.275 274.024L316.3 262.024C316.3 262.024 304.5 258.224 301.3 249.149L297.1 244.824C297.1 244.824 296.325 257.999 312.3 266.024Z" fill="#767FEC"/>
<path d="M328.279 281.993L332.274 277.998L330.277 276L326.282 279.996L328.279 281.993Z" fill="#552CA1"/>
<path d="M307.937 276.033L311.932 280.028L302.846 289.115C302.377 289.584 301.741 289.847 301.078 289.847C300.415 289.847 299.779 289.584 299.311 289.115L298.851 288.655C298.382 288.186 298.119 287.55 298.119 286.887C298.119 286.224 298.382 285.588 298.851 285.12L307.937 276.033Z" fill="#7E46E8"/>
<path d="M307.947 272.006L313.939 277.999L311.942 279.996L307.947 276.001C307.417 275.471 307.119 274.753 307.119 274.003C307.119 273.254 307.417 272.536 307.947 272.006Z" fill="#7E46E8"/>
<path d="M325.925 266.024L313.95 277.999L310 274.024L321.975 262.024C321.975 262.024 333.775 258.224 336.975 249.149L341.275 244.824C341.275 244.824 341.9 257.999 325.925 266.024Z" fill="#9298F0"/>
<path d="M311.946 280.024L307.951 276.029L305.953 278.027L309.948 282.022L311.946 280.024Z" fill="#552CA1"/>
</g>
<defs>
<clipPath id="clip0_5021_3435">
<rect width="150" height="150" fill="white" transform="translate(124 98)"/>
</clipPath>
<clipPath id="clip1_5021_3435">
<rect width="60" height="60" fill="white" transform="translate(48 48)"/>
</clipPath>
<clipPath id="clip2_5021_3435">
<rect width="60" height="60" fill="white" transform="translate(290 48)"/>
</clipPath>
<clipPath id="clip3_5021_3435">
<rect width="60" height="60" fill="white" transform="translate(48 238)"/>
</clipPath>
<clipPath id="clip4_5021_3435">
<rect width="60" height="60" fill="white" transform="translate(290 238)"/>
</clipPath>
</defs>
</svg>
