<svg width="398" height="428" fill="none" xmlns="http://www.w3.org/2000/svg"><path d="M30 3h338c14.912 0 27 12.088 27 27v368c0 14.912-12.088 27-27 27H30c-14.912 0-27-12.088-27-27V30C3 15.088 15.088 3 30 3Z" fill="#767FEC" stroke="#9298F0" stroke-width="6"/><g clip-path="url(#a)"><path d="M44 27h310c9.389 0 17 7.611 17 17v258c0 9.389-7.611 17-17 17H44c-9.389 0-17-7.611-17-17V44c0-9.389 7.611-17 17-17Z" fill="#fff" stroke="#9298F0" stroke-width="6"/><g clip-path="url(#b)"><path d="M141.957 297.85h-75.69c-2.097 0-3.784-1.835-3.761-4.06l.957-103.696c0-24.089 18.193-43.606 40.649-43.606 22.457 0 40.65 19.517 40.65 43.606l.957 103.696c0 2.225-1.687 4.06-3.762 4.06Z" fill="#6232B8"/><path d="m102.334 297.851 2.166-79.949 1.938 79.949h-4.104ZM88.13 297.85l3.557-66.008.547 66.008h-4.103ZM116.515 297.85l.82-66.008 3.283 66.008h-4.103ZM132.2 297.851l-3.534-77.747 7.638 77.747H132.2ZM72.582 297.851l7.638-77.747-3.534 77.747h-4.104Z" fill="#552CA1"/><path d="M157.073 281.978H137.74l-4.605-91.785c-1.072-15.016-10.67-27.709-24.03-32.014-.41-.122-.843-.269-1.254-.366l-3.214-.881-3.488.881c-.411.122-.798.244-1.209.366-13.405 4.28-23.003 16.998-24.075 32.038l-4.605 91.786H51.927c-2.143 0-3.83-1.932-3.716-4.231.775-13.622 3.443-57.84 7.957-99.049 1.664-15.236 7.569-27.685 20.587-34.606a39.103 39.103 0 0 1 5.449-2.397c2.712-.978 5.653-1.761 8.89-2.348l13.315-2.421 13.519 2.421c3.146.685 6.019 1.517 8.664 2.519a46.969 46.969 0 0 1 5.403 2.446c13.2 7.019 19.15 19.052 20.837 34.386 4.514 41.209 7.182 85.451 7.957 99.049.114 2.274-1.573 4.206-3.716 4.206Z" fill="#7E46E8"/><path d="m131.995 144.312-22.89 13.867-4.559 2.764-4.606-2.788-23.208-14.063a39.109 39.109 0 0 1 5.448-2.397l22.343 13.549 22.046-13.353a41.876 41.876 0 0 1 5.426 2.421Z" fill="#6232B8"/><path d="M86.467 147.98c-.684.343-2.257 1.15-2.918 1.468-9.165 4.524-16.256 13.304-19.22 23.674-.866 2.91-1.253 5.869-1.64 8.902-.799 5.869-2.85 21.35-3.671 27.391.524-6.187 1.823-21.619 2.325-27.562.433-9.563 3.488-18.636 9.416-25.924a39.505 39.505 0 0 1 11.308-9.612c.66-.391 2.188-1.247 2.85-1.614l1.55 3.277Z" fill="#6232B8" opacity=".8"/><path d="M94.081 152.824c-1.368.807-4.696 2.788-6.019 3.546-5.836 3.375-11.08 8.144-14.294 14.405-1.436 2.764-2.485 5.772-3.169 8.878-.661 2.739-.98 6.774-1.322 9.611l-3.306 29.25c.456-6.603 1.596-23.038 2.029-29.397.228-2.959.388-6.994.935-9.856.57-3.301 1.527-6.53 2.94-9.562 3.534-7.753 9.736-13.256 16.575-17.487l3.898-2.567 1.733 3.179ZM123.856 144.703c.661.367 2.211 1.272 2.849 1.614 10.875 6.041 18.718 17.902 20.291 30.913.843 8.413 1.983 23.65 2.759 32.185-.821-6.163-2.873-21.473-3.671-27.391-.388-3.033-.775-5.992-1.641-8.902-2.964-10.37-10.055-19.15-19.219-23.674-.662-.343-2.235-1.125-2.919-1.468l1.551-3.277Z" fill="#6232B8" opacity=".8"/><path d="M116.423 149.645c1.346.88 4.56 3.032 5.837 3.864 8.982 5.698 15.776 14.576 17.577 25.777.297 1.638.479 3.301.593 4.965.638 8.902 1.733 25.239 2.371 34.288-1.049-9.098-2.85-25.215-3.853-34.142a47.64 47.64 0 0 0-.775-4.744c-2.531-11.788-9.689-19.15-19.447-24.481l-4.012-2.373 1.709-3.154Z" fill="#6232B8" opacity=".8"/><path d="M104.34 48.15S77.826 63.387 74.52 83.1h59.618C130.855 63.387 104.34 48.15 104.34 48.15Z" fill="#6232B8"/><path d="M104.477 64.73c-13.291 0-25.397 8.169-31.188 20.984a559.036 559.036 0 0 0-10.852 25.826c-3.761 9.636-.228 20.739 8.208 25.949l33.878 20.861 33.787-20.837c8.435-5.209 11.946-16.312 8.184-25.924a546.966 546.966 0 0 0-10.852-25.85c-5.767-12.84-17.873-21.008-31.165-21.008Z" fill="#7E46E8"/><path d="M128.301 88.968c-2.849-11.495-12.561-19.517-23.664-19.517-11.103 0-20.815 7.998-23.665 19.517l-5.996 24.114c-1.732 6.945.662 14.282 6.02 18.587l23.618 18.904 23.642-18.904c5.357-4.28 7.751-11.642 6.019-18.587l-5.974-24.114Z" fill="#6232B8"/><path d="m104.637 150.72-.068-.049-23.62-18.904c-5.425-4.354-7.82-11.691-6.064-18.71l5.996-24.114c2.873-11.543 12.63-19.59 23.779-19.59 11.148 0 20.906 8.047 23.778 19.59l5.996 24.114c1.733 7.019-.638 14.381-6.064 18.71l-23.733 18.953Zm0-81.146c-11.034 0-20.7 7.972-23.55 19.418l-5.997 24.139c-1.71 6.921.639 14.16 5.996 18.464l23.551 18.856 23.551-18.856c5.357-4.28 7.705-11.519 5.995-18.464l-5.995-24.114c-2.85-11.446-12.517-19.443-23.551-19.443Z" fill="#552CA1"/><path d="M104.5 165.296c4.848 0 8.778-4.215 8.778-9.415 0-5.201-3.93-9.416-8.778-9.416-4.847 0-8.777 4.215-8.777 9.416 0 5.2 3.93 9.415 8.777 9.415Z" fill="#F5B44F"/><path d="M104.5 165.786c-5.084 0-9.233-4.451-9.233-9.905 0-5.453 4.15-9.904 9.233-9.904 5.084 0 9.233 4.451 9.233 9.904 0 5.454-4.149 9.905-9.233 9.905Zm0-18.807c-4.582 0-8.321 4.011-8.321 8.927 0 4.916 3.739 8.927 8.321 8.927 4.583 0 8.321-4.011 8.321-8.927 0-4.916-3.738-8.927-8.321-8.927Z" fill="#FFDF8B"/><path d="m110.245 162.142-5.038-4.94 1.026 7.239-1.733-7.093-2.781 6.702 2.097-6.971-5.722 4.011 5.289-4.646-6.84.073 6.794-.856-5.79-3.913 6.155 3.228-2.895-6.628 3.533 6.261.912-7.263-.182 7.337 4.423-5.601-3.853 6.065 6.543-2.127-6.292 2.861 6.566 2.005-6.726-1.247 4.514 5.503Z" fill="#FFDF8B"/><path d="m105.891 182.172 8.8 9.66c1.117 1.247 1.094 3.228-.045 4.427L100.1 211.495c-1.162 1.198-3.01 1.174-4.126-.049l-8.8-9.66c-1.118-1.247-1.095-3.228.045-4.427l14.546-15.236c1.162-1.223 3.009-1.199 4.126.049Z" fill="#767FEC"/><path d="M98.048 212.865h-.045c-.912 0-1.756-.392-2.371-1.101l-8.8-9.66a3.643 3.643 0 0 1-.958-2.568c0-.978.365-1.883 1.026-2.544l14.545-15.236c1.323-1.394 3.488-1.37 4.788.073l8.8 9.661c1.3 1.418 1.277 3.742-.068 5.136l-14.568 15.212a3.148 3.148 0 0 1-2.349 1.027Zm5.746-31.158c-.616 0-1.254.245-1.733.758l-14.545 15.237c-.48.489-.73 1.149-.753 1.858 0 .71.251 1.37.707 1.884l8.8 9.66a2.401 2.401 0 0 0 1.733.807h.023c.638 0 1.254-.269 1.732-.758l14.546-15.237c.98-1.027 1.003-2.69.045-3.742l-8.8-9.66a2.272 2.272 0 0 0-1.755-.807Z" fill="#9298F0"/><path d="m108.969 180.483 6.269 11.715c.798 1.492.319 3.424-1.071 4.28l-17.624 10.883c-1.39.856-3.191.343-3.99-1.149l-6.291-11.715c-.799-1.492-.32-3.424 1.071-4.28l17.623-10.883c1.414-.856 3.192-.342 4.013 1.149Z" fill="#767FEC"/><path d="M95.084 208.267c-.296 0-.592-.049-.889-.123-.866-.244-1.596-.856-2.051-1.687l-6.27-11.715a3.806 3.806 0 0 1-.342-2.739 3.611 3.611 0 0 1 1.573-2.201l17.623-10.883a3.137 3.137 0 0 1 2.553-.367c.867.245 1.596.856 2.052 1.687l6.27 11.715c.935 1.737.365 3.962-1.254 4.94l-17.623 10.884a2.97 2.97 0 0 1-1.642.489Zm11.331-28.859a2.47 2.47 0 0 0-1.231.342l-17.623 10.883c-.57.343-.98.93-1.163 1.615a2.67 2.67 0 0 0 .251 2.005l6.27 11.715c.319.611.866 1.051 1.504 1.247.639.196 1.3.098 1.87-.269l17.623-10.883c1.185-.734 1.596-2.348.912-3.62l-6.27-11.714a2.529 2.529 0 0 0-1.504-1.248 2.703 2.703 0 0 0-.639-.073Z" fill="#9298F0"/><path d="m111.727 179.653 4.035 12.79c.525 1.639-.296 3.424-1.823 3.987l-19.265 6.994c-1.527.563-3.192-.318-3.716-1.956l-4.013-12.815c-.524-1.639.297-3.424 1.824-3.987l19.265-6.994c1.527-.538 3.192.342 3.693 1.981Z" fill="#767FEC"/><path d="M93.74 204.085a3.342 3.342 0 0 1-1.505-.367 3.665 3.665 0 0 1-1.71-2.079l-4.035-12.791c-.593-1.883.364-3.962 2.12-4.597l19.264-6.995a3.07 3.07 0 0 1 2.577.196 3.667 3.667 0 0 1 1.709 2.078l4.036 12.791c.296.93.228 1.908-.183 2.764-.41.856-1.094 1.516-1.938 1.834l-19.264 6.995a3.968 3.968 0 0 1-1.072.171Zm15.229-26.071a2.29 2.29 0 0 0-.798.147l-19.265 6.994c-1.3.465-1.983 1.981-1.55 3.351l4.035 12.791c.205.66.661 1.223 1.254 1.516a2.325 2.325 0 0 0 1.892.147l19.265-6.995a2.462 2.462 0 0 0 1.413-1.345 2.958 2.958 0 0 0 .137-2.03l-4.035-12.791c-.205-.66-.661-1.222-1.254-1.516a2.501 2.501 0 0 0-1.094-.269Z" fill="#9298F0"/><path d="m114.645 179.409 1.391 13.426c.182 1.712-.98 3.278-2.576 3.473l-20.2 2.421c-1.595.196-3.054-1.051-3.237-2.763l-1.39-13.427c-.183-1.712.98-3.277 2.576-3.473l20.199-2.421c1.619-.195 3.055 1.052 3.237 2.764Z" fill="#767FEC"/><path d="M92.919 199.242a3.214 3.214 0 0 1-2.098-.782c-.706-.612-1.14-1.468-1.254-2.422l-1.39-13.426c-.206-1.981 1.14-3.791 2.986-4.011l20.199-2.421a3.233 3.233 0 0 1 2.486.782c.706.612 1.139 1.468 1.253 2.422l1.391 13.426c.205 1.981-1.14 3.791-2.986 4.011l-20.2 2.421c-.114-.024-.25 0-.387 0Zm18.831-22.133c-.091 0-.182 0-.274.025l-20.199 2.421c-1.345.171-2.325 1.467-2.188 2.935l1.39 13.426a2.69 2.69 0 0 0 .912 1.786c.525.44 1.163.635 1.824.562l20.199-2.421c1.345-.171 2.326-1.468 2.189-2.935l-1.391-13.427a2.683 2.683 0 0 0-.912-1.785 2.375 2.375 0 0 0-1.55-.587Z" fill="#9298F0"/><path d="m117.837 180.287-1.892 13.353c-.251 1.712-1.733 2.886-3.329 2.642l-20.108-3.253c-1.596-.269-2.69-1.859-2.462-3.571l1.892-13.353c.251-1.712 1.733-2.886 3.329-2.641l20.108 3.253c1.596.244 2.69 1.858 2.462 3.57Z" fill="#767FEC"/><path d="M113.072 196.796a3.4 3.4 0 0 1-.501-.049l-20.108-3.253c-1.847-.293-3.124-2.152-2.827-4.133l1.892-13.353c.137-.954.616-1.81 1.345-2.372.73-.563 1.619-.807 2.508-.661l20.108 3.253a3.31 3.31 0 0 1 2.211 1.443c.525.783.753 1.736.616 2.69l-1.892 13.353c-.137.954-.616 1.81-1.345 2.373-.593.464-1.3.709-2.007.709Zm-18.238-22.891c-.525 0-1.026.171-1.46.513-.524.416-.866 1.027-.98 1.737l-1.892 13.353c-.205 1.443.73 2.788 2.075 3.008l20.108 3.253a2.34 2.34 0 0 0 1.824-.489c.524-.416.866-1.027.98-1.737l1.892-13.353a2.783 2.783 0 0 0-.456-1.956 2.49 2.49 0 0 0-1.618-1.052l-20.108-3.253c-.114-.024-.251-.024-.365-.024Z" fill="#9298F0"/><path d="m120.869 181.878-4.879 12.448c-.615 1.59-2.348 2.348-3.83 1.663l-18.74-8.462c-1.482-.66-2.189-2.519-1.55-4.108l4.879-12.449c.615-1.589 2.348-2.348 3.83-1.663l18.74 8.462c1.459.685 2.166 2.519 1.55 4.109Z" fill="#767FEC"/><path d="M113.277 196.747a3.05 3.05 0 0 1-1.299-.294l-18.74-8.462c-.821-.367-1.482-1.076-1.824-1.981a3.732 3.732 0 0 1 .023-2.763l4.879-12.449c.729-1.834 2.712-2.714 4.422-1.932l18.741 8.462c1.709.783 2.53 2.911 1.801 4.745l-4.879 12.448c-.547 1.394-1.801 2.226-3.124 2.226Zm-13.838-27.196c-.958 0-1.87.612-2.28 1.614l-4.879 12.449a2.83 2.83 0 0 0 0 2.029c.251.661.73 1.174 1.323 1.443l18.74 8.462c1.254.563 2.713-.073 3.237-1.418l4.879-12.448c.524-1.346-.069-2.911-1.322-3.473l-18.741-8.438a2.27 2.27 0 0 0-.957-.22Z" fill="#9298F0"/><path d="m123.765 184.348-7.455 10.907c-.958 1.394-2.782 1.688-4.081.661l-16.392-12.913c-1.3-1.027-1.573-2.984-.616-4.378l7.455-10.883c.958-1.394 2.782-1.688 4.081-.66l16.392 12.913c1.277 1.002 1.573 2.959.616 4.353Z" fill="#767FEC"/><path d="M113.939 197.016a3.21 3.21 0 0 1-2.007-.709L95.54 183.394c-1.504-1.174-1.823-3.449-.73-5.063l7.456-10.883c1.094-1.614 3.215-1.957 4.719-.783l16.392 12.913c1.505 1.174 1.824 3.449.73 5.063l-7.455 10.883a3.227 3.227 0 0 1-2.713 1.492Zm-8.914-30.057c-.753 0-1.505.367-1.984 1.076l-7.455 10.883c-.798 1.174-.57 2.837.524 3.693l16.392 12.913c1.095.856 2.645.611 3.443-.563l7.455-10.883a2.817 2.817 0 0 0 .456-1.956 2.641 2.641 0 0 0-.98-1.737l-16.392-12.913a2.272 2.272 0 0 0-1.459-.513Z" fill="#9298F0"/><path d="m125.794 187.332-9.735 8.56c-1.254 1.101-3.101.905-4.104-.44l-12.88-16.875c-1.027-1.345-.844-3.326.41-4.402l9.734-8.56c1.254-1.101 3.101-.905 4.104.44l12.881 16.875c1.026 1.321.844 3.302-.41 4.402Z" fill="#767FEC"/><path d="M114.212 197.089c-.114 0-.228 0-.342-.024a3.303 3.303 0 0 1-2.28-1.321l-12.88-16.875a3.803 3.803 0 0 1-.753-2.666c.091-.954.524-1.834 1.231-2.445l9.735-8.56c1.436-1.272 3.579-1.052 4.765.513l12.881 16.875c1.185 1.541.98 3.84-.479 5.112l-9.735 8.56c-.615.538-1.368.831-2.143.831Zm-3.146-31.695c-.547 0-1.094.195-1.55.586l-9.735 8.56a2.706 2.706 0 0 0-.89 1.786 2.744 2.744 0 0 0 .548 1.932l12.881 16.875c.866 1.125 2.416 1.296 3.465.366l9.735-8.559c1.049-.93 1.208-2.593.342-3.718l-12.881-16.875c-.502-.636-1.208-.953-1.915-.953Z" fill="#9298F0"/><path d="m127.002 190.119-11.103 6.359c-1.413.807-3.192.245-3.944-1.296l-9.575-19.223c-.753-1.516-.228-3.424 1.208-4.231l11.103-6.359c1.413-.807 3.192-.244 3.944 1.297l9.575 19.222c.753 1.517.228 3.424-1.208 4.231Z" fill="#767FEC"/><path d="M114.531 197.358c-1.208 0-2.371-.685-2.986-1.908l-9.575-19.223c-.89-1.76-.251-3.962 1.39-4.915l11.103-6.359c1.641-.954 3.693-.269 4.582 1.492l9.576 19.223c.889 1.76.25 3.962-1.391 4.915l-11.103 6.359c-.524.269-1.048.416-1.596.416Zm1.528-31.867a2.26 2.26 0 0 0-1.163.318l-11.103 6.359c-.57.342-1.003.88-1.208 1.565-.182.685-.137 1.394.182 2.005l9.576 19.223c.319.611.82 1.076 1.459 1.296.638.196 1.299.147 1.869-.195l11.103-6.359c1.208-.685 1.664-2.299 1.003-3.571l-9.575-19.223a2.334 2.334 0 0 0-2.143-1.418Z" fill="#9298F0"/><path d="m127.731 193.176-12.128 3.669c-1.551.464-3.169-.49-3.602-2.153l-5.54-20.983c-.434-1.663.456-3.4 2.006-3.864l12.129-3.669c1.55-.465 3.168.489 3.602 2.152l5.54 20.984c.433 1.639-.456 3.375-2.007 3.864Z" fill="#767FEC"/><path d="M114.805 197.457c-.57 0-1.14-.147-1.642-.465-.798-.465-1.368-1.247-1.596-2.177l-5.539-20.983c-.502-1.932.547-3.938 2.325-4.476l12.129-3.668c.866-.269 1.778-.147 2.576.318.798.464 1.368 1.247 1.596 2.176l5.54 20.984c.25.929.136 1.908-.297 2.763-.433.856-1.162 1.468-2.029 1.712l-12.128 3.669c-.32.098-.639.147-.935.147Zm6.589-30.938c-.228 0-.456.025-.684.098l-12.129 3.668c-1.3.392-2.075 1.859-1.71 3.278l5.54 20.983c.182.685.593 1.248 1.163 1.59a2.29 2.29 0 0 0 1.869.245l12.129-3.669a2.49 2.49 0 0 0 1.482-1.247 2.78 2.78 0 0 0 .228-2.006l-5.54-20.983c-.183-.685-.593-1.248-1.163-1.59a2.12 2.12 0 0 0-1.185-.367Z" fill="#9298F0"/><path d="m127.458 196.674-12.585.196c-1.618.024-2.941-1.37-2.964-3.082l-.296-21.815c-.023-1.736 1.277-3.155 2.873-3.179l12.584-.196c1.619-.024 2.941 1.37 2.964 3.081l.296 21.816c.023 1.736-1.276 3.155-2.872 3.179Z" fill="#767FEC"/><path d="M114.805 197.359c-1.847 0-3.352-1.59-3.374-3.571l-.297-21.815c-.023-2.006 1.459-3.644 3.329-3.669l12.607-.195c.912-.025 1.756.342 2.394 1.027a3.861 3.861 0 0 1 1.026 2.543l.296 21.815a3.6 3.6 0 0 1-.957 2.568c-.638.685-1.482 1.076-2.371 1.101l-12.585.196h-.068Zm12.311-28.272h-.046l-12.584.195c-1.368.025-2.44 1.223-2.44 2.691l.297 21.815c.022 1.443 1.117 2.617 2.462 2.617h.045l12.585-.196c.661 0 1.277-.293 1.733-.807a2.814 2.814 0 0 0 .706-1.883l-.296-21.815c0-.71-.273-1.37-.752-1.859a2.337 2.337 0 0 0-1.71-.758Z" fill="#9298F0"/><path d="m126.478 200.146-12.243-3.131c-1.573-.391-2.531-2.103-2.166-3.766l4.719-21.204c.365-1.687 1.961-2.715 3.511-2.323l12.243 3.13c1.573.391 2.531 2.103 2.166 3.766l-4.719 21.204c-.365 1.688-1.938 2.715-3.511 2.324Z" fill="#767FEC"/><path d="M127.161 200.708a2.94 2.94 0 0 1-.797-.098l-12.243-3.13c-.889-.22-1.619-.807-2.098-1.639a3.816 3.816 0 0 1-.41-2.739l4.719-21.204c.433-1.932 2.257-3.155 4.081-2.69l12.243 3.13c.889.221 1.619.808 2.097 1.639a3.83 3.83 0 0 1 .411 2.739l-4.72 21.228a3.561 3.561 0 0 1-1.527 2.25 3.266 3.266 0 0 1-1.756.514Zm-.592-1.052c.638.172 1.299.049 1.869-.318.57-.366.958-.953 1.117-1.638l4.72-21.204c.319-1.418-.502-2.861-1.824-3.179l-12.243-3.131c-.638-.171-1.299-.049-1.869.318-.57.367-.958.954-1.118 1.639l-4.719 21.204c-.319 1.418.502 2.861 1.824 3.179l12.243 3.13Z" fill="#9298F0"/><path d="m129.35 191.097-5.448-5.014 1.322 7.582-2.052-7.386-2.736 7.141 2.006-7.41-5.881 4.427 5.403-5.087-7.182.318 7.113-1.125-6.201-3.913 6.543 3.179-3.237-6.872 3.921 6.456.73-7.655.023 7.704 4.491-6.016-3.876 6.481 6.817-2.446-6.521 3.228 6.977 1.859-7.136-1.052 4.924 5.601ZM121.029 128.318l-16.506 14.136-16.506-14.136c-7.706-6.603-11.035-17.462-8.504-27.685l2.804-11.347c.069-.22.114-.465.183-.685 1.413-5.087 4.263-9.416 8.025-12.497 3.92-3.229 8.8-5.112 13.998-5.112 10.168 0 19.105 7.166 22 17.56.068.244.137.49.182.734l2.827 11.347c2.554 10.223-.798 21.082-8.503 27.685Z" fill="#F5B44F"/><path d="m82.614 97.014 1.276 4.989c.89 3.497 3.67 6.065 7.022 6.481l10.009 1.272-.707-3.791c-.684-3.62-3.374-6.432-6.771-7.044l-10.83-1.907ZM126.158 97.014l-1.276 4.989c-.89 3.497-3.671 6.065-7.022 6.481l-10.009 1.272.707-3.791c.684-3.62 3.374-6.432 6.771-7.044l10.829-1.907Z" fill="#3D3D3D"/><path d="M104.523 100.928c.456 6.823.547 13.916.57 20.763-.023 6.848-.114 13.965-.57 20.764-.456-6.799-.548-13.916-.57-20.764.022-6.847.114-13.94.57-20.763Z" fill="#E29631"/><path d="M104.431 101.05c.023-.025.023-.049.046-.073.023.024.023.048.045.073h-.091Z" fill="#E8A847"/><path d="m126.523 88.577-.114.196c-8.549-.318-17.691 4.427-21.932 12.228-4.263-7.777-13.405-12.546-21.932-12.228l-.046-.147c1.414-5.087 4.264-9.415 8.026-12.497 3.92-3.228 8.8-5.111 13.998-5.111 10.168-.025 19.105 7.165 22 17.56Z" fill="#E29631"/><path d="M124.813 84.101c-5.905.685-11.718 3.106-16.096 7.435-1.687 1.663-3.077 3.644-4.172 5.796l-.501-.93c-4.081-7.385-12.038-11.396-19.812-12.3 8.116-.099 16.597 4.035 20.815 11.665h-1.003c4.218-7.606 12.676-11.763 20.769-11.666Z" fill="#F5B44F"/><path d="M117.677 75.42c-.524 2.567-2.029 4.964-4.103 6.431-2.007 1.394-4.013 2.862-5.677 4.671-1.345 1.443-2.417 3.155-3.329 4.94-.934-1.785-2.006-3.57-3.305-5.062-1.482-1.712-3.306-3.106-5.221-4.23l-.547-.343c-2.143-1.394-3.74-3.864-4.013-6.53.684 2.764 2.53 4.965 4.925 6.09.342.17.797.415 1.117.587 3.191 1.712 5.79 4.597 7.546 7.899h-1.003c1.641-3.082 4.172-5.625 6.999-7.435.684-.465 1.413-.905 2.097-1.32 2.075-1.223 3.625-3.302 4.514-5.699Z" fill="#F5B44F"/><path d="m107.35 136.658 13.109-11.176c4.058-3.449 6.36-8.731 6.246-14.283l-.068-3.326s-4.469 7.582-16.711 8.34l-2.576 20.445ZM101.764 136.658l-13.109-11.176c-4.058-3.449-6.36-8.731-6.247-14.283l.069-3.326s4.468 7.582 16.71 8.34l2.577 20.445Z" fill="#E29631"/><path d="m104.546 87.525-2.896-4.231 2.873-3.864 3.077 3.864-3.054 4.23Z" fill="#F5B44F"/><path d="M94.035 79.382c4.195-5.6 13.52-5.992 18.855-2.055.797.612 1.527 1.321 2.097 2.153-1.482-1.321-3.192-2.177-4.97-2.74-5.266-1.59-11.536-1.1-15.982 2.642ZM87.743 78.842c1.87 2.054 4.172 3.693 6.612 4.891a22.134 22.134 0 0 1-3.83-1.614c-1.254-.685-2.44-1.443-3.557-2.397l.775-.88ZM122.1 79.722c-2.211 1.859-4.742 3.155-7.386 4.011 1.846-.905 3.602-2.054 5.152-3.448.502-.465 1.026-.954 1.459-1.443l.775.88ZM111.294 117.557l-.524 3.962s2.781-1.1 4.217-4.402c0 0-1.641.44-3.693.44ZM109.516 132.524c3.305-3.032 6.657-5.967 9.712-9.269.729-.807 1.504-1.663 2.166-2.543 1.322-1.786 2.234-3.913 2.872-6.09.319-1.1.57-2.225.752-3.399.023 1.174-.114 2.347-.319 3.497-.456 2.323-1.276 4.598-2.622 6.53-.638.954-1.459 1.81-2.188 2.666a54.167 54.167 0 0 1-10.373 8.608Z" fill="#F5B44F"/><path d="M109.516 131.521c.205-2.47.478-4.891 1.413-7.214.274-.636.798-1.321 1.505-1.394 1.163-.196 2.097 1.272 3.123 1.174.411-.074.73-.343.866-.783.32-1.052.137-2.323.206-3.473.205-6.285 5.015-.269 6.794-6.872-.867 5.943-5.153 3.057-5.768 5.234-.502 1.736.159 3.619-.388 5.429-.296 1.149-1.641 1.761-2.667 1.247-.684-.269-1.482-1.125-2.098-1.076-1.413.049-2.599 6.286-2.986 7.728Z" fill="#F5B44F"/><path d="M112.935 127.388c.504 0 .912-.438.912-.978s-.408-.978-.912-.978c-.503 0-.912.438-.912.978s.409.978.912.978ZM114.759 122.253c.504 0 .912-.438.912-.978s-.408-.978-.912-.978-.912.438-.912.978.408.978.912.978ZM119.547 120.296c.503 0 .912-.438.912-.978s-.409-.978-.912-.978c-.504 0-.912.438-.912.978s.408.978.912.978ZM97.934 117.557l.524 3.962s-2.781-1.1-4.217-4.402c0 0 1.641.44 3.693.44ZM99.712 132.525a54.934 54.934 0 0 1-10.373-8.584c-.752-.856-1.55-1.736-2.189-2.666-1.322-1.932-2.165-4.206-2.621-6.53-.206-1.149-.342-2.323-.32-3.497.183 1.15.434 2.275.753 3.4.638 2.176 1.55 4.304 2.872 6.089.662.881 1.437 1.737 2.166 2.544 3.055 3.277 6.407 6.212 9.712 9.244Z" fill="#F5B44F"/><path d="M99.712 131.521c-.387-1.418-1.573-7.679-3.01-7.728-.615-.049-1.39.807-2.097 1.076-1.026.514-2.348-.073-2.667-1.247-.524-1.81.114-3.693-.388-5.429-.592-2.177-4.878.709-5.767-5.234 1.778 6.603 6.588.562 6.793 6.872.069 1.15-.114 2.421.206 3.473.136.465.456.709.866.783 1.026.098 1.96-1.37 3.123-1.174.707.073 1.231.758 1.505 1.394.957 2.323 1.231 4.744 1.436 7.214Z" fill="#F5B44F"/><path d="M96.293 127.388c.503 0 .911-.438.911-.978s-.408-.978-.911-.978c-.504 0-.912.438-.912.978s.408.978.912.978ZM94.469 122.253c.503 0 .912-.438.912-.978s-.409-.978-.912-.978c-.504 0-.912.438-.912.978s.408.978.912.978ZM89.681 120.296c.504 0 .912-.438.912-.978s-.408-.978-.912-.978-.912.438-.912.978.408.978.912.978Z" fill="#F5B44F"/><path d="m124.745 202.349-7.25 11.372s-6.931-2.666-14.021-9.758c-3.716-3.718-3.99-5.43-2.918-6.261.16-.122.342-.245.547-.318 0 0-.068-.122-.159-.318-.342-.758-1.026-2.666.296-3.571a2.31 2.31 0 0 1 .684-.318s-1.072-2.176.342-2.983c1.847-1.027 5.745 3.668 10.077 6.578-.205-.195-5.198-4.866-6.498-6.554-1.504-1.932.547-3.888 2.326-2.25 1.459 1.345 9.37 8.095 9.37 8.095s-1.3-2.837-.616-4.964c.524-1.615 2.166-1.37 2.44-.49.706 2.299 2.507 5.21 4.058 7.044 2.074 2.494 1.322 4.696 1.322 4.696Z" fill="#FFCBA3"/><path d="M110.108 200.955a.381.381 0 0 1-.296.171.397.397 0 0 1-.182-.049c-1.186-.831-5.951-5.038-8.413-7.581.182-.123.41-.245.684-.318 2.417 2.47 6.976 6.481 8.093 7.288.183.098.228.318.114.489ZM108.171 204.11a.329.329 0 0 1-.297.171.397.397 0 0 1-.182-.049c-2.462-1.687-5.586-4.353-7.136-6.53.159-.122.342-.244.547-.318 0 0-.068-.122-.16-.318l.069.074c1.436 2.127 4.674 4.842 7.045 6.481.159.073.205.318.114.489Z" fill="#E99A5F"/><path d="m116.583 215.189 8.892-14.185 7.067 3.179 1.14 23.479-17.099-12.473Z" fill="#7E46E8"/><path d="M109.083 232.405c-.206.904-1.596 1.296-2.121 1.442-.114.025-.205.049-.205.049-.091.22-.205.416-.319.563-.593.782-1.482.954-2.075 1.003-.364.024-.592 0-.592 0-.069.22-.206.415-.388.587-1.413 1.418-5.745 1.858-8.937.831-4.331-1.394-10.236-6.75-10.236-6.75l4.856-11.91c5.38-2.128 8.116-1.492 11.308-1.786 1.824-.171 2.941-.44 3.579-.635.616-.196 1.277.195 1.413.856.114.538.046 1.247-.592 2.078-1.528 1.957-5.586 1.786-5.586 1.786s8.116 4.157 9.872 7.165c.684 1.15.091 1.761-.525 2.079-.41.22-.82.269-.82.269s.136.123.342.294c.456.44 1.208 1.296 1.026 2.079Z" fill="#FFCBA3"/><path d="M104.386 235.462c-.365.024-.592 0-.592 0-.069.22-.206.416-.388.587-1.619-.171-5.517-.758-8.846-2.299-.182-.074-.25-.294-.182-.489.068-.196.273-.269.456-.196 4.103 1.908 9.301 2.299 9.37 2.299.045 0 .114.024.182.098ZM106.962 233.848a5.604 5.604 0 0 0-.205.049c-.091.22-.205.416-.319.563-1.664-.465-6.452-1.932-10.601-4.207-.16-.098-.228-.318-.16-.489.091-.171.296-.245.456-.171 4.468 2.421 9.689 3.937 10.829 4.255ZM107.715 230.008s.136.122.342.294c-1.277-.563-6.27-2.74-10.1-4.476-.182-.073-.25-.294-.182-.489.068-.196.273-.269.456-.196 4.126 1.883 9.62 4.28 10.327 4.598a3.993 3.993 0 0 1-.843.269Z" fill="#E99A5F"/><path d="m89.681 216.41-6.383 15.896-7.98-4.157 1.14-22.745 13.223 11.006Z" fill="#7E46E8"/></g><path d="M331.094 297.999h-75.967c-2.105 0-3.798-1.838-3.775-4.068l.961-103.901c0-24.137 18.26-43.692 40.798-43.692s40.798 19.555 40.798 43.692l.961 103.901c0 2.255-1.694 4.068-3.776 4.068Z" fill="#6232B8"/><path d="m291.326 298 2.174-80.082L295.445 298h-4.119ZM277.071 297.999l3.57-66.114.549 66.114h-4.119ZM305.558 297.999l.824-66.114 3.295 66.114h-4.119ZM321.301 298l-3.547-77.877L325.42 298h-4.119ZM261.466 298l7.665-77.877L265.584 298h-4.118Z" fill="#552CA1"/><path d="M346.265 282.096h-22.607l-4.622-91.967c-1.076-15.047-10.709-27.765-24.117-32.077-.412-.123-.847-.27-1.259-.368l-3.226-.882-3.501.882c-.412.122-.801.245-1.213.368-13.454 4.288-22.447 17.104-24.163 32.101a236.234 236.234 0 0 0-.663 6.665c-.549 6.249-1.053 13.65-1.487 21.442-1.648 29.186-2.472 63.885-2.472 63.885h-16.2c-2.151 0-3.844-1.936-3.73-4.24.778-13.649 1.579-57.66 7.986-99.245 2.334-15.168 7.597-27.739 20.662-34.674a42.31 42.31 0 0 1 5.469-2.426c2.723-.98 5.674-1.765 8.924-2.353l13.362-2.426 13.569 2.426c3.158.686 6.041 1.52 8.695 2.524a47.057 47.057 0 0 1 5.423 2.451c13.249 7.033 19.221 19.089 20.914 34.454 4.53 41.291 7.208 85.62 7.986 99.245.114 2.279-1.579 4.215-3.73 4.215Z" fill="#7E46E8"/><path d="m321.095 144.157-29.425 17.227-26.017-17.447a39.26 39.26 0 0 1 5.469-2.402l22.424 13.576 22.126-13.38a47.166 47.166 0 0 1 5.423 2.426Z" fill="#6232B8"/><path d="M274.028 148.079c-.687.343-2.265 1.151-2.929 1.47-9.198 4.533-16.314 13.331-19.289 23.721-.87 2.916-1.259 5.881-1.648 8.919-.8 5.882-2.86 21.393-3.683 27.446.526-6.2 1.83-21.662 2.333-27.617.435-9.582 3.501-18.673 9.451-25.975a39.62 39.62 0 0 1 11.349-9.631c.663-.392 2.196-1.25 2.86-1.617l1.556 3.284Z" fill="#6232B8" opacity=".8"/><path d="M281.67 152.93c-1.373.808-4.713 2.793-6.041 3.553-5.857 3.382-11.12 8.16-14.346 14.433-1.442 2.769-2.494 5.784-3.181 8.896-.663 2.744-.984 6.788-1.327 9.63-.709 6.273-2.586 22.839-3.318 29.308.458-6.616 1.602-23.084 2.037-29.455.229-2.965.389-7.008.938-9.875.572-3.309 1.533-6.543 2.952-9.582 3.546-7.768 9.77-13.281 16.634-17.521l3.913-2.573 1.739 3.186ZM312.926 144.549c.664.367 2.22 1.274 2.861 1.617 10.914 6.053 18.785 17.938 20.364 30.974.847 8.43 1.991 23.697 2.769 32.249-.824-6.175-2.883-21.515-3.684-27.446-.389-3.038-.778-6.003-1.648-8.919-2.974-10.391-10.09-19.188-19.289-23.721-.663-.343-2.242-1.127-2.929-1.471l1.556-3.283Z" fill="#6232B8" opacity=".8"/><path d="M305.467 149.523c1.35.883 4.576 3.039 5.858 3.872 9.015 5.71 15.834 14.581 17.641 25.828.298 1.642.481 3.309.595 4.975.641 8.92 1.739 25.289 2.38 34.356-1.053-9.116-2.86-25.265-3.867-34.209a47.797 47.797 0 0 0-.778-4.754c-2.54-11.811-9.725-19.187-19.518-24.529l-4.027-2.377 1.716-3.162Z" fill="#6232B8" opacity=".8"/><path d="M301.966 48s-29.975 13.968-38.67 38.473l31.531-3.676h.343l39.517 30.288C335.602 72.162 301.966 48 301.966 48Z" fill="#6232B8"/><path d="M299.403 64.174c-13.248-1.593-26.176 5.097-33.292 17.153-5.377 9.14-8.535 17.399-11.464 24.432-3.958 9.557-2.311 20.486 5.469 26.808 8.42 6.837 29.563 24.824 29.563 24.824l35.878-16.713c8.947-4.166 13.157-14.678 10.869-24.848-1.762-7.792-4.279-16.614-8.123-27.053-4.897-13.257-15.651-23.01-28.9-24.603Z" fill="#7E46E8"/><path d="M291.212 165.207c4.865 0 8.809-4.224 8.809-9.435 0-5.21-3.944-9.434-8.809-9.434-4.865 0-8.809 4.224-8.809 9.434 0 5.211 3.944 9.435 8.809 9.435Z" fill="#F5B44F"/><path d="M291.212 165.673c-5.103 0-9.267-4.46-9.267-9.924 0-5.465 4.164-9.925 9.267-9.925 5.102 0 9.267 4.46 9.267 9.925 0 5.464-4.165 9.924-9.267 9.924Zm0-18.844c-4.599 0-8.352 4.019-8.352 8.944 0 4.926 3.753 8.945 8.352 8.945s8.352-4.019 8.352-8.945c0-4.925-3.753-8.944-8.352-8.944Z" fill="#FFDF8B"/><path d="m296.978 162.023-5.057-4.95 1.03 7.253-1.739-7.106-2.792 6.714 2.106-6.984-5.744 4.019 5.309-4.656-6.865.074 6.819-.858-5.812-3.896 6.178 3.21-2.906-6.641 3.547 6.273.915-7.278-.183 7.352 4.439-5.587-3.867 6.052 6.567-2.132-6.315 2.867 6.59 2.01-6.75-1.25 4.53 5.514Z" fill="#FFDF8B"/><path d="M324.482 212.232c.228.319 1.121 1.667.228 2.916-1.006 1.397-2.86 2.451-3.523 1.642-.412-.514-.183-1.348-.16-1.397-.092.074-2.106 1.74-8.009 3.235-6.064 1.544-9.61-.686-9.61-.686l.801-12.743s9.084-3.112 16.085-3.847c1.19-.122 4.645-.22 5.011 1.274.206.858.046 1.716-.137 2.279a6.58 6.58 0 0 1-.252.662l-.023.024s.984.785.367 2.353c-.092.196-.183.417-.344.662.138.073 1.625 1.151.069 3.014a5.409 5.409 0 0 1-.503.539c-.046 0-.023.024 0 .073Z" fill="#FFCBA3"/><path d="M324.939 211.644c-1.19-.637-2.791-.49-4.347.466a.378.378 0 0 0-.138.49c.069.123.183.196.298.196a.312.312 0 0 0 .16-.049c1.693-1.029 2.906-.809 3.569-.514l.458-.589ZM325.191 207.969c-.091.196-.183.417-.343.662-1.487-.466-2.837.171-3.524.49-.046.024-.091.024-.137.024-.138 0-.252-.073-.321-.22a.388.388 0 0 1 .184-.49c.755-.343 2.356-1.103 4.141-.466ZM325.122 204.905c-.961-.514-2.768-.269-4.095.319-.184.074-.252.294-.184.49.046.147.184.221.321.221.046 0 .091 0 .137-.025 1.419-.637 2.975-.661 3.547-.318l.274-.687ZM308.831 219.486c-2.014 0-3.844-.417-5.561-1.25-.183-.073-.251-.294-.183-.49.069-.196.275-.269.458-.196 2.7 1.299 5.514 1.519 9.107.735 2.952-.637 5.034-1.47 8.214-3.259.893-.49 1.533-.809 1.556-.809.183-.073.366 0 .458.196.091.196 0 .393-.183.491 0 0-.664.294-1.51.784-3.249 1.838-5.377 2.671-8.398 3.332-1.418.319-2.723.466-3.958.466Z" fill="#E99A5F"/><path d="m304.689 213.432-.069.515c-.411 2.671-1.098 5.538-2.173 8.062 0 0-17.985 1.176-33.018-.882-5.103-.711-5.675-1.201-7.849-1.863.916-7.743.504-15.095 1.442-21.27 4.897.662 9.747 2.304 12.768 3.553 2.746 1.152 10.617 1.74 17.527 2.059.275 0 .526.024.801.024a404.35 404.35 0 0 0 11.166.294s.16 4.387-.595 9.508Z" fill="#7E46E8"/><path d="M319.974 92.55c-1.693-11.787-10.068-21.173-21.097-22.766-11.051-1.593-21.714 4.95-25.97 15.977l-8.97 23.109c-2.585 6.641-1.121 14.286 3.684 19.31l21.143 22.152 25.856-15.389c5.88-3.48 8.946-10.439 8.306-17.595-.595-6.616-1.968-17.888-2.952-24.799ZM304.689 213.433a5.504 5.504 0 0 1-.892.392c-1.831.49-5.034-.98-6.064-2.451-.549-.784-1.808-3.43-3.638-7.694a404.35 404.35 0 0 0 11.166.294s.183 4.337-.572 9.459Z" fill="#6232B8"/><path d="M291.876 157.047s-.481-1.618-.481-2.108c0-.514 2.128-2.401 3.776-6.91 1.144-3.161 3.866-7.376 6.498-10.439 2.631-3.063-1.144-3.382-4.393-1.128-3.089 2.157-7.208 4.607-8.581 5.343-.641.343-3.569-5.073-7.322-8.332-1.03-.907-4.302.098-3.364 2.597l.938 2.524s-.938 0-1.876.515-.48 3.529-.48 3.529-.938 0-1.419.514c-.48.515-.938 3.014-.938 3.014s-1.419-1.519-2.815 0c-1.395 1.52 1.03 4.117 1.419 5.024 1.213 2.867 3.135 5.734 5.194 7.646 2.517 2.327 2.54 4.165 2.54 4.165l11.304-5.954Z" fill="#FFCBA3"/><path d="m294.164 155.895-14.759 7.621s5.56 13.796 9.725 24.308c5.034 12.768 8.512 20.609 9.518 22.104 1.007 1.47 4.233 2.941 6.064 2.45 1.487-.392 6.155-3.602 12.928-11.59.343-.417-.343-10.219-1.945-16.59-1.121-4.509-4.279-10.709-4.576-10.292-2.746 3.92-4.691 8.895-4.691 8.895l-12.264-26.906Z" fill="#7E46E8"/><path d="M306.909 181.037c1.235 2.671 2.242 5.563 2.608 8.528-.526-2.157-1.464-4.142-2.471-6.053-.343-.637-.71-1.25-1.098-1.838l.961-.637Z" fill="#6232B8"/><path d="m307.252 130.95-18.374 11.346-14.392-16.664c-6.728-7.768-8.512-19.089-4.554-28.793l4.393-10.782.275-.662c2.105-4.827 5.56-8.65 9.702-11.1 4.324-2.573 9.45-3.652 14.598-2.794 10.091 1.642 17.939 10.17 19.381 20.952.023.245.068.514.091.76l1.213 11.688c1.075 10.537-3.753 20.756-12.333 26.049Z" fill="#F5B44F"/><path d="m273.524 93.75.572 5.146c.389 3.602 2.792 6.592 6.064 7.572l9.748 2.867-.161-3.872c-.16-3.7-2.448-6.91-5.743-8.062l-10.48-3.651ZM316.725 100.76l-1.968 4.729c-1.373 3.333-4.508 5.416-7.894 5.293l-10.114-.367 1.236-3.652c1.19-3.479 4.256-5.832 7.711-5.881l11.029-.122Z" fill="#3D3D3D"/><path d="M294.713 101.152c-.504 6.813-1.419 13.895-2.357 20.658-.984 6.788-2.059 13.796-3.478 20.486.503-6.812 1.419-13.894 2.357-20.658.984-6.763 2.059-13.796 3.478-20.486Z" fill="#E29631"/><path d="M294.598 101.275c.023-.025.046-.049.046-.074.023.025.023.049.023.098l-.069-.024Z" fill="#E8A847"/><path d="m318.281 92.452-.138.171c-8.42-1.69-18.168 1.544-23.476 8.577-3.135-8.405-11.532-14.58-20.044-15.634l-.023-.147c2.105-4.828 5.56-8.65 9.702-11.101 4.324-2.573 9.45-3.651 14.598-2.794 10.091 1.618 17.962 10.17 19.381 20.928Z" fill="#E29631"/><path d="M317.205 87.747c-5.949-.27-12.058 1.2-17.024 4.778-1.922 1.373-3.569 3.113-4.942 5.048l-.366-1.004c-3.02-7.989-10.342-13.233-17.939-15.39 8.054 1.201 15.903 6.666 19.014 14.924l-1.006-.171c5.285-6.837 14.255-9.582 22.263-8.185Z" fill="#F5B44F"/><path d="M311.325 77.995c-.87 2.45-2.723 4.582-4.988 5.71-2.174 1.053-4.394 2.18-6.293 3.724-1.533 1.2-2.837 2.745-4.004 4.362-.687-1.936-1.487-3.847-2.563-5.538-1.213-1.936-2.837-3.627-4.576-5.024l-.504-.44c-1.945-1.716-3.18-4.436-3.066-7.107a9.527 9.527 0 0 0 4.027 6.837c.321.22.733.539 1.03.76 2.929 2.23 5.103 5.488 6.384 9.041l-1.007-.171c2.06-2.794 4.943-4.901 7.986-6.224a55.642 55.642 0 0 1 2.265-.956c2.288-.931 4.096-2.72 5.309-4.974Z" fill="#F5B44F"/><path d="m292.516 137.001 14.576-8.968c4.507-2.769 7.551-7.621 8.214-13.159l.412-3.284s-5.492 6.788-17.756 5.562l-5.446 19.849ZM286.979 136.12l-11.441-13.183c-3.524-4.068-5.08-9.68-4.21-15.169l.526-3.284s3.387 8.234 15.422 10.954l-.297 20.682Z" fill="#E29631"/><path d="m296.612 87.87-2.288-4.63 3.409-3.383 2.494 4.338-3.615 3.676ZM287.345 78.116c4.942-4.852 14.255-3.75 18.991.98.71.735 1.328 1.544 1.785 2.45-1.281-1.543-2.86-2.67-4.553-3.528-5.034-2.377-11.327-2.867-16.223.098ZM281.167 76.572c1.556 2.328 3.615 4.338 5.88 5.906a22.79 22.79 0 0 1-3.569-2.23c-1.167-.882-2.22-1.813-3.204-2.94-.023 0 .893-.736.893-.736ZM315.123 82.968c-2.448 1.47-5.148 2.352-7.894 2.793a21.846 21.846 0 0 0 5.606-2.597 17.253 17.253 0 0 0 1.647-1.201l.641 1.005ZM299.106 118.723l-1.075 3.847s2.905-.662 4.805-3.7c0 .024-1.694.196-3.73-.147ZM295.239 133.252c3.707-2.475 7.437-4.851 10.937-7.621.847-.686 1.739-1.396 2.494-2.156 1.556-1.568 2.769-3.504 3.707-5.563a24.407 24.407 0 0 0 1.236-3.234c-.137 1.176-.458 2.303-.824 3.43-.778 2.23-1.922 4.338-3.501 6.053-.778.833-1.693 1.568-2.562 2.279a53.668 53.668 0 0 1-11.487 6.812Z" fill="#F5B44F"/><path d="M295.376 132.273c.549-2.402 1.144-4.779 2.426-6.911.366-.588.961-1.176 1.693-1.127 1.19 0 1.899 1.593 2.929 1.666.412 0 .755-.22.961-.637.457-.98.457-2.279.686-3.406 1.099-6.2 5.011.539 7.711-5.71-1.693 5.759-5.537 2.206-6.452 4.264-.733 1.642-.366 3.603-1.144 5.318-.458 1.103-1.877 1.47-2.815.809-.64-.368-1.304-1.348-1.922-1.422-1.441-.196-3.478 5.783-4.073 7.156Z" fill="#F5B44F"/><path d="M299.495 128.746c.505 0 .915-.439.915-.981 0-.541-.41-.98-.915-.98-.506 0-.915.439-.915.98 0 .542.409.981.915.981ZM302.012 123.941c.505 0 .915-.439.915-.98 0-.542-.41-.981-.915-.981-.506 0-.915.439-.915.981 0 .541.409.98.915.98ZM307.046 122.765c.505 0 .915-.439.915-.98 0-.541-.41-.98-.915-.98-.506 0-.915.439-.915.98 0 .541.409.98.915.98ZM285.835 116.564l-.046 4.019s-2.608-1.544-3.57-5.048c.023 0 1.579.711 3.616 1.029ZM285.514 131.685a57.378 57.378 0 0 1-9.084-10.169c-.617-.956-1.304-1.961-1.807-2.99-1.053-2.132-1.556-4.509-1.671-6.886-.045-1.176-.022-2.377.161-3.529.022 1.177.114 2.328.274 3.48.32 2.254.938 4.509 1.991 6.494.526.98 1.167 1.936 1.785 2.867 2.585 3.749 5.491 7.204 8.351 10.733Z" fill="#F5B44F"/><path d="M285.652 130.703c-.229-2.377-.366-4.852-1.076-7.106-.457-1.299-1.052-1.25-2.173-.637-.412.196-.893.416-1.396.416-.938.05-1.831-.759-1.945-1.739-.275-1.863.618-3.627.389-5.44-.298-2.255-4.943-.074-4.988-6.127.846 6.837 6.452 1.618 5.766 7.891-.092 1.152-.458 2.377-.275 3.48.069.465.343.784.755.931 1.007.245 2.128-1.029 3.272-.662.71.196 1.122.956 1.305 1.617.572 2.426.503 4.901.366 7.376Z" fill="#F5B44F"/><path d="M282.975 126.048c.505 0 .915-.439.915-.98 0-.541-.41-.98-.915-.98-.506 0-.916.439-.916.98 0 .541.41.98.916.98ZM281.876 120.683c.506 0 .915-.439.915-.98 0-.541-.409-.98-.915-.98-.505 0-.915.439-.915.98 0 .541.41.98.915.98ZM277.414 117.962c.506 0 .916-.439.916-.98 0-.541-.41-.98-.916-.98-.505 0-.915.439-.915.98 0 .541.41.98.915.98Z" fill="#F5B44F"/></g><defs><clipPath id="a"><path fill="#fff" transform="translate(24 24)" d="M0 0h350v298H0z"/></clipPath><clipPath id="b"><path fill="#fff" transform="translate(48 48)" d="M0 0h113v250H0z"/></clipPath></defs></svg>