<svg width="398" height="428" viewBox="0 0 398 428" fill="none" xmlns="http://www.w3.org/2000/svg">
<path d="M30 3H368C382.912 3 395 15.0883 395 30V398C395 412.912 382.912 425 368 425H30C15.0883 425 3 412.912 3 398V30C3 15.0883 15.0883 3 30 3Z" fill="#767FEC" stroke="#9298F0" stroke-width="6"/>
<g clip-path="url(#clip0_5021_3158)">
<path d="M44 27H354C363.389 27 371 34.6112 371 44V302C371 311.389 363.389 319 354 319H44C34.6112 319 27 311.389 27 302V44C27 34.6112 34.6112 27 44 27Z" fill="white" stroke="#9298F0" stroke-width="6"/>
<g clip-path="url(#clip1_5021_3158)">
<path d="M141.957 297.85H66.2673C64.1699 297.85 62.4828 296.015 62.5056 293.79L63.4631 190.094C63.4631 166.005 81.6561 146.488 104.112 146.488C126.569 146.488 144.762 166.005 144.762 190.094L145.719 293.79C145.719 296.015 144.032 297.85 141.957 297.85Z" fill="#6232B8"/>
<path d="M102.334 297.851L104.5 217.902L106.438 297.851H102.334Z" fill="#552CA1"/>
<path d="M88.1309 297.85L91.6874 231.842L92.2345 297.85H88.1309Z" fill="#552CA1"/>
<path d="M116.515 297.85L117.335 231.842L120.618 297.85H116.515Z" fill="#552CA1"/>
<path d="M132.2 297.851L128.666 220.104L136.304 297.851H132.2Z" fill="#552CA1"/>
<path d="M72.5825 297.851L80.2199 220.104L76.6862 297.851H72.5825Z" fill="#552CA1"/>
<path d="M157.073 281.978H137.74L133.135 190.193C132.063 175.177 122.465 162.484 109.105 158.179C108.695 158.057 108.262 157.91 107.851 157.813L104.637 156.932L101.149 157.813C100.738 157.935 100.351 158.057 99.9405 158.179C86.5351 162.459 76.9371 175.177 75.8655 190.217L71.2603 282.003H51.9274C49.7843 282.003 48.0973 280.071 48.2113 277.772C48.9864 264.15 51.6538 219.932 56.1679 178.723C57.8321 163.487 63.7369 151.038 76.7547 144.117C78.4417 143.212 80.2656 142.405 82.2035 141.72C84.9164 140.742 87.8574 139.959 91.0948 139.372L104.409 136.951L117.928 139.372C121.074 140.057 123.947 140.889 126.592 141.891C128.507 142.625 130.308 143.432 131.995 144.337C145.195 151.356 151.145 163.389 152.832 178.723C157.346 219.932 160.014 264.174 160.789 277.772C160.903 280.046 159.216 281.978 157.073 281.978Z" fill="#7E46E8"/>
<path d="M131.995 144.312L109.105 158.179L104.546 160.943L99.9403 158.155L76.7317 144.092C78.4188 143.187 80.2426 142.38 82.1805 141.695L104.523 155.244L126.569 141.891C128.507 142.6 130.308 143.407 131.995 144.312Z" fill="#6232B8"/>
<g opacity="0.8">
<path d="M86.4667 147.98C85.7827 148.323 84.2096 149.13 83.5485 149.448C74.3836 153.972 67.2933 162.752 64.3296 173.122C63.4632 176.032 63.0757 178.991 62.6881 182.024C61.8902 187.893 59.8383 203.374 59.0176 209.415C59.5419 203.228 60.8414 187.796 61.343 181.853C61.7762 172.29 64.8311 163.217 70.7587 155.929C73.9048 152.016 77.7805 148.738 82.0666 146.317C82.7278 145.926 84.2552 145.07 84.9164 144.703L86.4667 147.98Z" fill="#6232B8"/>
</g>
<g opacity="0.8">
<path d="M94.0812 152.824C92.7133 153.631 89.3848 155.612 88.0625 156.37C82.2261 159.745 76.9825 164.514 73.7679 170.775C72.3317 173.539 71.2829 176.547 70.599 179.653C69.9378 182.392 69.6187 186.427 69.2767 189.264C68.5699 195.525 66.7005 212.058 65.9709 218.514C66.4269 211.911 67.5668 195.476 68 189.117C68.228 186.158 68.3876 182.123 68.9347 179.261C69.5047 175.96 70.4622 172.731 71.8757 169.699C75.4094 161.946 81.6105 156.443 88.45 152.212L92.3485 149.645L94.0812 152.824Z" fill="#6232B8"/>
</g>
<g opacity="0.8">
<path d="M123.856 144.703C124.517 145.07 126.067 145.975 126.705 146.317C137.58 152.358 145.423 164.219 146.996 177.23C147.839 185.643 148.979 200.88 149.755 209.415C148.934 203.252 146.882 187.942 146.084 182.024C145.696 178.991 145.309 176.032 144.443 173.122C141.479 162.752 134.388 153.972 125.224 149.448C124.562 149.105 122.989 148.323 122.305 147.98L123.856 144.703Z" fill="#6232B8"/>
</g>
<g opacity="0.8">
<path d="M116.423 149.645C117.769 150.525 120.983 152.677 122.26 153.509C131.242 159.207 138.036 168.085 139.837 179.286C140.134 180.924 140.316 182.587 140.43 184.251C141.068 193.153 142.163 209.49 142.801 218.539C141.752 209.441 139.951 193.324 138.948 184.397C138.766 182.808 138.515 181.218 138.173 179.653C135.642 167.865 128.484 160.503 118.726 155.172L114.714 152.799L116.423 149.645Z" fill="#6232B8"/>
</g>
<path d="M104.34 48.1504C104.34 48.1504 77.826 63.3868 74.5203 83.0988H104.158H104.5H134.138C130.855 63.3868 104.34 48.1504 104.34 48.1504Z" fill="#6232B8"/>
<path d="M104.477 64.7305C91.1859 64.7305 79.08 72.8989 73.2893 85.7142C68.912 95.4234 65.2415 104.374 62.4373 111.54C58.6756 121.176 62.2093 132.279 70.6447 137.489L104.523 158.35L138.31 137.513C146.745 132.304 150.256 121.201 146.494 111.589C143.69 104.399 140.02 95.4479 135.642 85.7386C129.875 72.8989 117.769 64.7305 104.477 64.7305Z" fill="#7E46E8"/>
<path d="M128.301 88.9675C125.452 77.4729 115.74 69.4512 104.637 69.4512C93.5341 69.4512 83.8221 77.4485 80.9723 88.9675L74.9763 113.082C73.2437 120.027 75.6375 127.364 80.9951 131.669L104.614 150.573L128.256 131.669C133.613 127.389 136.007 120.027 134.275 113.082L128.301 88.9675Z" fill="#6232B8"/>
<path d="M104.637 150.72L104.569 150.671L80.9495 131.767C75.5236 127.413 73.1297 120.076 74.8852 113.057L80.8812 88.9432C83.7537 77.3997 93.5114 69.3535 104.66 69.3535C115.808 69.3535 125.566 77.3997 128.438 88.9432L134.434 113.057C136.167 120.076 133.796 127.438 128.37 131.767L104.637 150.72ZM104.637 69.5736C93.6026 69.5736 83.9361 77.5465 81.0863 88.9921L75.0904 113.131C73.3805 120.052 75.7287 127.291 81.0863 131.595L104.637 150.451L128.188 131.595C133.545 127.315 135.893 120.076 134.183 113.131L128.188 89.0166C125.338 77.5709 115.671 69.5736 104.637 69.5736Z" fill="#552CA1"/>
<path d="M104.5 165.296C109.348 165.296 113.278 161.081 113.278 155.881C113.278 150.68 109.348 146.465 104.5 146.465C99.6526 146.465 95.7229 150.68 95.7229 155.881C95.7229 161.081 99.6526 165.296 104.5 165.296Z" fill="#F5B44F"/>
<path d="M104.5 165.786C99.4161 165.786 95.2668 161.335 95.2668 155.881C95.2668 150.428 99.4161 145.977 104.5 145.977C109.584 145.977 113.733 150.428 113.733 155.881C113.733 161.335 109.584 165.786 104.5 165.786ZM104.5 146.979C99.9177 146.979 96.1788 150.99 96.1788 155.906C96.1788 160.822 99.9177 164.833 104.5 164.833C109.083 164.833 112.821 160.822 112.821 155.906C112.821 150.99 109.083 146.979 104.5 146.979Z" fill="#FFDF8B"/>
<path d="M110.245 162.142L105.207 157.202L106.233 164.441L104.5 157.348L101.719 164.05L103.816 157.079L98.0937 161.09L103.383 156.444L96.5435 156.517L103.337 155.661L97.5466 151.748L103.702 154.976L100.807 148.348L104.34 154.609L105.252 147.346L105.07 154.683L109.493 149.082L105.64 155.147L112.183 153.02L105.891 155.881L112.457 157.886L105.731 156.639L110.245 162.142Z" fill="#FFDF8B"/>
<path d="M105.891 182.172L114.691 191.832C115.808 193.079 115.785 195.06 114.646 196.259L100.1 211.495C98.9375 212.693 97.0909 212.669 95.9738 211.446L87.1736 201.786C86.0565 200.539 86.0793 198.558 87.2192 197.359L101.765 182.123C102.927 180.9 104.774 180.924 105.891 182.172Z" fill="#767FEC"/>
<path d="M98.0484 212.865C98.0256 212.865 98.0256 212.865 98.0028 212.865C97.0909 212.865 96.2473 212.473 95.6318 211.764L86.8316 202.104C86.1933 201.419 85.8513 200.49 85.8741 199.536C85.8741 198.558 86.2389 197.653 86.9 196.992L101.445 181.756C102.768 180.362 104.933 180.386 106.233 181.829L115.033 191.49C116.333 192.908 116.31 195.232 114.965 196.626L100.397 211.838C99.7583 212.522 98.9375 212.865 98.0484 212.865ZM103.794 181.707C103.178 181.707 102.54 181.952 102.061 182.465L87.5156 197.702C87.0368 198.191 86.7861 198.851 86.7633 199.56C86.7633 200.27 87.014 200.93 87.47 201.444L96.2701 211.104C96.7261 211.617 97.3416 211.886 98.0028 211.911H98.0256C98.6639 211.911 99.2795 211.642 99.7583 211.153L114.304 195.916C115.284 194.889 115.307 193.226 114.349 192.174L105.549 182.514C105.093 181.976 104.455 181.707 103.794 181.707Z" fill="#9298F0"/>
<path d="M108.969 180.483L115.238 192.198C116.036 193.69 115.557 195.622 114.167 196.478L96.5435 207.361C95.1528 208.217 93.3517 207.704 92.5538 206.212L86.2615 194.497C85.4635 193.005 85.9423 191.073 87.333 190.217L104.956 179.334C106.37 178.478 108.148 178.992 108.969 180.483Z" fill="#767FEC"/>
<path d="M95.0844 208.267C94.7881 208.267 94.4917 208.218 94.1953 208.144C93.329 207.9 92.5994 207.288 92.1435 206.457L85.8739 194.742C85.418 193.911 85.304 192.932 85.532 192.003C85.7599 191.074 86.3299 190.291 87.105 189.802L104.728 178.919C105.503 178.43 106.415 178.307 107.281 178.552C108.148 178.797 108.877 179.408 109.333 180.239L115.603 191.954C116.538 193.691 115.968 195.916 114.349 196.894L96.7259 207.778C96.2471 208.095 95.6772 208.267 95.0844 208.267ZM106.415 179.408C105.982 179.408 105.572 179.53 105.184 179.75L87.561 190.633C86.9911 190.976 86.5807 191.563 86.3983 192.248C86.2159 192.932 86.3071 193.642 86.6491 194.253L92.9186 205.968C93.2378 206.579 93.7849 207.019 94.4233 207.215C95.0616 207.411 95.7228 207.313 96.2927 206.946L113.916 196.063C115.101 195.329 115.512 193.715 114.828 192.443L108.558 180.729C108.239 180.117 107.692 179.677 107.054 179.481C106.848 179.432 106.643 179.408 106.415 179.408Z" fill="#9298F0"/>
<path d="M111.727 179.653L115.762 192.443C116.287 194.082 115.466 195.867 113.939 196.43L94.6741 203.424C93.1466 203.987 91.4824 203.106 90.958 201.468L86.9455 188.653C86.4211 187.014 87.2419 185.229 88.7694 184.666L108.034 177.672C109.561 177.134 111.226 178.014 111.727 179.653Z" fill="#767FEC"/>
<path d="M93.7394 204.085C93.2379 204.085 92.7135 203.962 92.2348 203.718C91.4368 203.278 90.8213 202.544 90.5249 201.639L86.4896 188.848C85.8969 186.965 86.8544 184.886 88.6098 184.251L107.874 177.256C108.718 176.938 109.653 177.011 110.451 177.452C111.248 177.892 111.864 178.626 112.16 179.53L116.196 192.321C116.492 193.251 116.424 194.229 116.013 195.085C115.603 195.941 114.919 196.601 114.075 196.919L94.811 203.914C94.469 204.011 94.1042 204.085 93.7394 204.085ZM108.969 178.014C108.695 178.014 108.444 178.063 108.171 178.161L88.9062 185.155C87.6067 185.62 86.9228 187.136 87.3559 188.506L91.3912 201.297C91.5964 201.957 92.0524 202.52 92.6451 202.813C93.2379 203.131 93.899 203.18 94.5374 202.96L113.802 195.965C114.417 195.745 114.942 195.256 115.215 194.62C115.489 193.984 115.557 193.275 115.352 192.59L111.317 179.799C111.112 179.139 110.656 178.577 110.063 178.283C109.721 178.112 109.333 178.014 108.969 178.014Z" fill="#9298F0"/>
<path d="M114.645 179.409L116.036 192.835C116.218 194.547 115.056 196.113 113.46 196.308L93.2607 198.729C91.6648 198.925 90.2057 197.678 90.0233 195.966L88.6326 182.539C88.4502 180.827 89.6129 179.262 91.2088 179.066L111.408 176.645C113.027 176.45 114.463 177.697 114.645 179.409Z" fill="#767FEC"/>
<path d="M92.9187 199.242C92.1664 199.242 91.414 198.973 90.8213 198.46C90.1145 197.848 89.6814 196.992 89.5674 196.038L88.1767 182.612C87.9715 180.631 89.3166 178.821 91.1633 178.601L111.362 176.18C112.252 176.082 113.141 176.351 113.848 176.962C114.554 177.574 114.987 178.43 115.101 179.384L116.492 192.81C116.697 194.791 115.352 196.601 113.506 196.821L93.3063 199.242C93.1923 199.218 93.0555 199.242 92.9187 199.242ZM111.75 177.109C111.659 177.109 111.568 177.109 111.476 177.134L91.2772 179.555C89.9321 179.726 88.9518 181.022 89.0886 182.49L90.4793 195.916C90.5477 196.625 90.8669 197.237 91.3912 197.702C91.9156 198.142 92.5539 198.337 93.2151 198.264L113.414 195.843C114.759 195.672 115.74 194.375 115.603 192.908L114.212 179.481C114.144 178.772 113.825 178.161 113.3 177.696C112.844 177.305 112.297 177.109 111.75 177.109Z" fill="#9298F0"/>
<path d="M117.837 180.287L115.945 193.64C115.694 195.352 114.212 196.526 112.616 196.282L92.5084 193.029C90.9125 192.76 89.8182 191.17 90.0461 189.458L91.9384 176.105C92.1892 174.393 93.6711 173.219 95.2669 173.464L115.375 176.717C116.971 176.961 118.065 178.575 117.837 180.287Z" fill="#767FEC"/>
<path d="M113.072 196.796C112.913 196.796 112.73 196.772 112.571 196.747L92.4628 193.494C90.6161 193.201 89.3394 191.342 89.6358 189.361L91.528 176.008C91.6648 175.054 92.1436 174.198 92.8731 173.636C93.6027 173.073 94.4918 172.829 95.3809 172.975L115.489 176.228C116.378 176.375 117.176 176.888 117.7 177.671C118.225 178.454 118.453 179.407 118.316 180.361L116.424 193.714C116.287 194.668 115.808 195.524 115.079 196.087C114.486 196.551 113.779 196.796 113.072 196.796ZM94.8338 173.905C94.3094 173.905 93.8079 174.076 93.3747 174.418C92.8503 174.834 92.5084 175.445 92.3944 176.155L90.5021 189.508C90.2969 190.951 91.2317 192.296 92.5768 192.516L112.685 195.769C113.346 195.867 113.984 195.695 114.509 195.28C115.033 194.864 115.375 194.253 115.489 193.543L117.381 180.19C117.472 179.481 117.313 178.796 116.925 178.234C116.538 177.671 115.968 177.304 115.307 177.182L95.1986 173.929C95.0846 173.905 94.9478 173.905 94.8338 173.905Z" fill="#9298F0"/>
<path d="M120.869 181.878L115.99 194.326C115.375 195.916 113.642 196.674 112.16 195.989L93.42 187.527C91.9381 186.867 91.2314 185.008 91.8697 183.419L96.7486 170.97C97.3641 169.381 99.0968 168.622 100.579 169.307L119.319 177.769C120.778 178.454 121.485 180.288 120.869 181.878Z" fill="#767FEC"/>
<path d="M113.277 196.747C112.844 196.747 112.388 196.649 111.978 196.453L93.2377 187.991C92.417 187.624 91.7558 186.915 91.4139 186.01C91.0719 185.105 91.0719 184.127 91.4367 183.247L96.3155 170.798C97.045 168.964 99.0285 168.084 100.738 168.866L119.479 177.328C121.188 178.111 122.009 180.239 121.28 182.073L116.401 194.521C115.854 195.915 114.6 196.747 113.277 196.747ZM99.4388 169.551C98.4813 169.551 97.5694 170.163 97.159 171.165L92.2802 183.614C92.0294 184.274 92.0294 184.983 92.2802 185.643C92.531 186.304 93.0097 186.817 93.6025 187.086L112.343 195.548C113.597 196.111 115.056 195.475 115.58 194.13L120.459 181.682C120.983 180.336 120.39 178.771 119.137 178.209L100.396 169.771C100.077 169.624 99.758 169.551 99.4388 169.551Z" fill="#9298F0"/>
<path d="M123.765 184.348L116.31 195.255C115.352 196.649 113.528 196.943 112.229 195.916L95.837 183.003C94.5375 181.976 94.2639 180.019 95.2214 178.625L102.676 167.742C103.634 166.348 105.458 166.054 106.757 167.082L123.149 179.995C124.426 180.997 124.722 182.954 123.765 184.348Z" fill="#767FEC"/>
<path d="M113.939 197.016C113.255 197.016 112.548 196.796 111.932 196.307L95.5405 183.394C94.0358 182.22 93.7166 179.945 94.8109 178.331L102.266 167.448C103.36 165.834 105.481 165.491 106.985 166.665L123.377 179.578C124.882 180.752 125.201 183.027 124.107 184.641L116.652 195.524C116.013 196.502 114.987 197.016 113.939 197.016ZM105.025 166.959C104.272 166.959 103.52 167.326 103.041 168.035L95.5861 178.918C94.7881 180.092 95.0161 181.755 96.1104 182.611L112.502 195.524C113.597 196.38 115.147 196.135 115.945 194.961L123.4 184.078C123.787 183.516 123.947 182.807 123.856 182.122C123.765 181.413 123.4 180.801 122.876 180.385L106.484 167.472C106.028 167.105 105.526 166.959 105.025 166.959Z" fill="#9298F0"/>
<path d="M125.794 187.332L116.059 195.892C114.805 196.993 112.958 196.797 111.955 195.452L99.0741 178.577C98.0482 177.232 98.2305 175.251 99.4844 174.175L109.219 165.615C110.473 164.514 112.32 164.71 113.323 166.055L126.204 182.93C127.23 184.251 127.048 186.232 125.794 187.332Z" fill="#767FEC"/>
<path d="M114.212 197.089C114.098 197.089 113.984 197.089 113.87 197.065C112.981 196.967 112.16 196.502 111.59 195.744L98.7093 178.869C98.1393 178.111 97.8657 177.182 97.9569 176.203C98.0481 175.249 98.4813 174.369 99.188 173.758L108.923 165.198C110.359 163.926 112.502 164.146 113.688 165.711L126.569 182.586C127.754 184.127 127.549 186.426 126.09 187.698L116.355 196.258C115.74 196.796 114.987 197.089 114.212 197.089ZM111.066 165.394C110.519 165.394 109.972 165.589 109.516 165.98L99.7808 174.54C99.2792 174.98 98.9601 175.616 98.8917 176.326C98.8233 177.035 99.0284 177.72 99.4388 178.258L112.32 195.133C113.186 196.258 114.736 196.429 115.785 195.499L125.52 186.94C126.569 186.01 126.728 184.347 125.862 183.222L112.981 166.347C112.479 165.711 111.773 165.394 111.066 165.394Z" fill="#9298F0"/>
<path d="M127.002 190.119L115.899 196.478C114.486 197.285 112.707 196.723 111.955 195.182L102.38 175.959C101.627 174.443 102.152 172.535 103.588 171.728L114.691 165.369C116.104 164.562 117.883 165.125 118.635 166.666L128.21 185.888C128.963 187.405 128.438 189.312 127.002 190.119Z" fill="#767FEC"/>
<path d="M114.531 197.358C113.323 197.358 112.16 196.673 111.545 195.45L101.97 176.227C101.08 174.467 101.719 172.265 103.36 171.312L114.463 164.953C116.104 163.999 118.156 164.684 119.045 166.445L128.621 185.668C129.51 187.428 128.871 189.63 127.23 190.583L116.127 196.942C115.603 197.211 115.079 197.358 114.531 197.358ZM116.059 165.491C115.671 165.491 115.261 165.589 114.896 165.809L103.793 172.168C103.223 172.51 102.79 173.048 102.585 173.733C102.403 174.418 102.448 175.127 102.767 175.738L112.343 194.961C112.662 195.572 113.163 196.037 113.802 196.257C114.44 196.453 115.101 196.404 115.671 196.062L126.774 189.703C127.982 189.018 128.438 187.404 127.777 186.132L118.202 166.909C117.792 165.98 116.925 165.491 116.059 165.491Z" fill="#9298F0"/>
<path d="M127.731 193.176L115.603 196.845C114.052 197.309 112.434 196.355 112.001 194.692L106.461 173.709C106.027 172.046 106.917 170.309 108.467 169.845L120.596 166.176C122.146 165.711 123.764 166.665 124.198 168.328L129.738 189.312C130.171 190.951 129.282 192.687 127.731 193.176Z" fill="#767FEC"/>
<path d="M114.805 197.457C114.235 197.457 113.665 197.31 113.163 196.992C112.365 196.527 111.795 195.745 111.567 194.815L106.028 173.832C105.526 171.9 106.575 169.894 108.353 169.356L120.482 165.688C121.348 165.419 122.26 165.541 123.058 166.006C123.856 166.47 124.426 167.253 124.654 168.182L130.194 189.166C130.444 190.095 130.33 191.074 129.897 191.929C129.464 192.785 128.735 193.397 127.868 193.641L115.74 197.31C115.42 197.408 115.101 197.457 114.805 197.457ZM121.394 166.519C121.166 166.519 120.938 166.544 120.71 166.617L108.581 170.285C107.281 170.677 106.506 172.144 106.871 173.563L112.411 194.546C112.593 195.231 113.004 195.794 113.574 196.136C114.144 196.478 114.805 196.576 115.443 196.381L127.572 192.712C128.21 192.516 128.735 192.076 129.054 191.465C129.373 190.853 129.464 190.144 129.282 189.459L123.742 168.476C123.559 167.791 123.149 167.228 122.579 166.886C122.214 166.641 121.804 166.519 121.394 166.519Z" fill="#9298F0"/>
<path d="M127.458 196.674L114.873 196.87C113.255 196.894 111.932 195.5 111.909 193.788L111.613 171.973C111.59 170.237 112.89 168.818 114.486 168.794L127.07 168.598C128.689 168.574 130.011 169.968 130.034 171.679L130.33 193.495C130.353 195.231 129.054 196.65 127.458 196.674Z" fill="#767FEC"/>
<path d="M114.805 197.359C112.958 197.359 111.453 195.769 111.431 193.788L111.134 171.973C111.111 169.967 112.593 168.329 114.463 168.304L127.07 168.109C127.982 168.084 128.826 168.451 129.464 169.136C130.102 169.821 130.467 170.725 130.49 171.679L130.786 193.494C130.809 194.473 130.467 195.378 129.829 196.062C129.191 196.747 128.347 197.138 127.458 197.163L114.873 197.359C114.85 197.359 114.828 197.359 114.805 197.359ZM127.116 169.087C127.093 169.087 127.093 169.087 127.07 169.087L114.486 169.282C113.118 169.307 112.046 170.505 112.046 171.973L112.343 193.788C112.365 195.231 113.46 196.405 114.805 196.405C114.828 196.405 114.828 196.405 114.85 196.405L127.435 196.209C128.096 196.209 128.712 195.916 129.168 195.402C129.624 194.888 129.874 194.228 129.874 193.519L129.578 171.704C129.578 170.994 129.305 170.334 128.826 169.845C128.37 169.356 127.754 169.087 127.116 169.087Z" fill="#9298F0"/>
<path d="M126.478 200.146L114.235 197.015C112.662 196.624 111.704 194.912 112.069 193.249L116.788 172.045C117.153 170.358 118.749 169.33 120.299 169.722L132.542 172.852C134.115 173.243 135.073 174.955 134.708 176.618L129.989 197.822C129.624 199.51 128.051 200.537 126.478 200.146Z" fill="#767FEC"/>
<path d="M127.161 200.708C126.888 200.708 126.637 200.684 126.364 200.61L114.121 197.48C113.232 197.26 112.502 196.673 112.023 195.841C111.545 195.01 111.408 194.056 111.613 193.102L116.332 171.898C116.765 169.966 118.589 168.743 120.413 169.208L132.656 172.338C133.545 172.559 134.275 173.146 134.753 173.977C135.232 174.809 135.369 175.787 135.164 176.716L130.444 197.944C130.239 198.898 129.692 199.681 128.917 200.194C128.37 200.537 127.777 200.708 127.161 200.708ZM126.569 199.656C127.207 199.828 127.868 199.705 128.438 199.338C129.008 198.972 129.396 198.385 129.555 197.7L134.275 176.496C134.594 175.078 133.773 173.635 132.451 173.317L120.208 170.186C119.57 170.015 118.909 170.137 118.339 170.504C117.769 170.871 117.381 171.458 117.221 172.143L112.502 193.347C112.183 194.765 113.004 196.208 114.326 196.526L126.569 199.656Z" fill="#9298F0"/>
<path d="M129.35 191.097L123.902 186.083L125.224 193.665L123.172 186.279L120.436 193.42L122.442 186.01L116.561 190.437L121.964 185.35L114.782 185.668L121.895 184.543L115.694 180.63L122.237 183.809L119 176.937L122.921 183.393L123.651 175.738L123.674 183.442L128.165 177.426L124.289 183.907L131.106 181.461L124.585 184.689L131.562 186.548L124.426 185.496L129.35 191.097Z" fill="#F5B44F"/>
<path d="M121.029 128.318L104.523 142.454L88.0168 128.318C80.311 121.715 76.9824 110.856 79.513 100.633L82.3172 89.2857C82.3856 89.0656 82.4312 88.821 82.4996 88.6009C83.9131 83.5139 86.7629 79.1851 90.5246 76.1036C94.4459 72.8753 99.3247 70.9922 104.523 70.9922C114.691 70.9922 123.628 78.1579 126.523 88.552C126.591 88.7965 126.66 89.0411 126.705 89.2857L129.532 100.633C132.086 110.856 128.734 121.715 121.029 128.318Z" fill="#F5B44F"/>
<path d="M82.6135 97.0137L83.8902 102.003C84.7794 105.5 87.5607 108.068 90.9121 108.484L100.921 109.756L100.214 105.965C99.5298 102.345 96.8396 99.5327 93.4427 98.9213L82.6135 97.0137Z" fill="#3D3D3D"/>
<path d="M126.158 97.0137L124.882 102.003C123.992 105.5 121.211 108.068 117.86 108.484L107.851 109.756L108.558 105.965C109.242 102.345 111.932 99.5327 115.329 98.9213L126.158 97.0137Z" fill="#3D3D3D"/>
<path d="M104.523 100.928C104.979 107.751 105.07 114.844 105.093 121.691C105.07 128.539 104.979 135.656 104.523 142.455C104.067 135.656 103.975 128.539 103.953 121.691C103.975 114.844 104.067 107.751 104.523 100.928Z" fill="#E29631"/>
<path d="M104.431 101.05C104.454 101.025 104.454 101.001 104.477 100.977C104.5 101.001 104.5 101.025 104.522 101.05H104.431Z" fill="#E8A847"/>
<path d="M126.523 88.5774L126.409 88.7731C117.86 88.4551 108.718 93.1997 104.477 101.001C100.214 93.2242 91.0717 88.4551 82.5451 88.7731L82.4995 88.6263C83.913 83.5394 86.7628 79.2106 90.5245 76.1291C94.4458 72.9008 99.3246 71.0176 104.523 71.0176C114.691 70.9932 123.628 78.1834 126.523 88.5774Z" fill="#E29631"/>
<path d="M124.813 84.1013C118.908 84.7861 113.095 87.2073 108.717 91.5361C107.03 93.1991 105.64 95.1801 104.545 97.3323L104.044 96.4029C99.963 89.0171 92.0064 85.0062 84.2322 84.1013C92.3484 84.0035 100.829 88.1366 105.047 95.7671H104.044C108.262 88.1611 116.72 84.0035 124.813 84.1013Z" fill="#F5B44F"/>
<path d="M117.677 75.4192C117.153 77.9871 115.648 80.3838 113.574 81.8512C111.567 83.2452 109.561 84.7126 107.897 86.5224C106.552 87.9654 105.48 89.6773 104.568 91.4626C103.634 89.6773 102.562 87.892 101.263 86.4001C99.7807 84.6882 97.9569 83.2942 96.0418 82.1692L95.4947 81.8268C93.3516 80.4327 91.7558 77.9626 91.4822 75.2969C92.1661 78.0605 94.0128 80.2615 96.4066 81.3865C96.7486 81.5577 97.2045 81.8023 97.5237 81.9735C100.715 83.6855 103.314 86.5713 105.07 89.873H104.067C105.708 86.7914 108.239 84.248 111.066 82.4382C111.75 81.9735 112.479 81.5333 113.163 81.1175C115.238 79.8947 116.788 77.8159 117.677 75.4192Z" fill="#F5B44F"/>
<path d="M107.35 136.658L120.459 125.482C124.517 122.033 126.819 116.751 126.705 111.199L126.637 107.873C126.637 107.873 122.168 115.455 109.926 116.213L107.35 136.658Z" fill="#E29631"/>
<path d="M101.764 136.658L88.6551 125.482C84.597 122.033 82.2943 116.751 82.4083 111.199L82.4767 107.873C82.4767 107.873 86.9452 115.455 99.1879 116.213L101.764 136.658Z" fill="#E29631"/>
<path d="M104.546 87.5248L101.65 83.2938L104.523 79.4297L107.6 83.2938L104.546 87.5248Z" fill="#F5B44F"/>
<path d="M94.0354 79.3817C98.2303 73.7812 107.555 73.3899 112.89 77.3274C113.687 77.9388 114.417 78.648 114.987 79.4795C113.505 78.1589 111.795 77.3029 110.017 76.7404C104.751 75.1507 98.4811 75.6399 94.0354 79.3817Z" fill="#F5B44F"/>
<path d="M87.7432 78.8418C89.6126 80.8961 91.9152 82.5347 94.3547 83.7331C93.0324 83.3173 91.7557 82.7793 90.5246 82.119C89.2706 81.4342 88.0851 80.676 86.968 79.7222L87.7432 78.8418Z" fill="#F5B44F"/>
<path d="M122.1 79.7222C119.889 81.5809 117.358 82.8771 114.714 83.7331C116.56 82.8282 118.316 81.6788 119.866 80.2847C120.368 79.8201 120.892 79.3309 121.325 78.8418L122.1 79.7222Z" fill="#F5B44F"/>
<path d="M111.294 117.557L110.77 121.519C110.77 121.519 113.551 120.419 114.987 117.117C114.987 117.117 113.346 117.557 111.294 117.557Z" fill="#F5B44F"/>
<path d="M109.516 132.524C112.821 129.492 116.173 126.557 119.228 123.255C119.957 122.448 120.732 121.592 121.394 120.712C122.716 118.926 123.628 116.799 124.266 114.622C124.585 113.522 124.836 112.397 125.018 111.223C125.041 112.397 124.904 113.57 124.699 114.72C124.243 117.043 123.423 119.318 122.077 121.25C121.439 122.204 120.618 123.06 119.889 123.916C116.765 127.242 113.277 130.128 109.516 132.524Z" fill="#F5B44F"/>
<path d="M109.516 131.521C109.721 129.051 109.994 126.63 110.929 124.307C111.203 123.671 111.727 122.986 112.434 122.913C113.597 122.717 114.531 124.185 115.557 124.087C115.968 124.013 116.287 123.744 116.423 123.304C116.743 122.252 116.56 120.981 116.629 119.831C116.834 113.546 121.644 119.562 123.423 112.959C122.556 118.902 118.27 116.016 117.655 118.193C117.153 119.929 117.814 121.812 117.267 123.622C116.971 124.771 115.626 125.383 114.6 124.869C113.916 124.6 113.118 123.744 112.502 123.793C111.089 123.842 109.903 130.079 109.516 131.521Z" fill="#F5B44F"/>
<path d="M112.935 127.388C113.439 127.388 113.847 126.95 113.847 126.41C113.847 125.87 113.439 125.432 112.935 125.432C112.432 125.432 112.023 125.87 112.023 126.41C112.023 126.95 112.432 127.388 112.935 127.388Z" fill="#F5B44F"/>
<path d="M114.759 122.253C115.263 122.253 115.671 121.815 115.671 121.275C115.671 120.735 115.263 120.297 114.759 120.297C114.255 120.297 113.847 120.735 113.847 121.275C113.847 121.815 114.255 122.253 114.759 122.253Z" fill="#F5B44F"/>
<path d="M119.547 120.296C120.05 120.296 120.459 119.858 120.459 119.318C120.459 118.778 120.05 118.34 119.547 118.34C119.043 118.34 118.635 118.778 118.635 119.318C118.635 119.858 119.043 120.296 119.547 120.296Z" fill="#F5B44F"/>
<path d="M97.934 117.557L98.4584 121.519C98.4584 121.519 95.677 120.419 94.2407 117.117C94.2407 117.117 95.8822 117.557 97.934 117.557Z" fill="#F5B44F"/>
<path d="M99.7123 132.525C95.9506 130.128 92.4625 127.243 89.3391 123.941C88.5868 123.085 87.7888 122.205 87.1505 121.275C85.8282 119.343 84.9847 117.069 84.5287 114.745C84.3235 113.596 84.1867 112.422 84.2095 111.248C84.3919 112.398 84.6427 113.523 84.9618 114.648C85.6002 116.824 86.5121 118.952 87.8344 120.737C88.4956 121.618 89.2707 122.474 90.0003 123.281C93.0552 126.558 96.4066 129.493 99.7123 132.525Z" fill="#F5B44F"/>
<path d="M99.7122 131.521C99.3246 130.103 98.1391 123.842 96.7028 123.793C96.0873 123.744 95.3121 124.6 94.6054 124.869C93.5795 125.383 92.2572 124.796 91.938 123.622C91.4136 121.812 92.052 119.929 91.5504 118.193C90.9577 116.016 86.6716 118.902 85.7825 112.959C87.5607 119.562 92.3712 113.521 92.5763 119.831C92.6447 120.981 92.4623 122.252 92.7815 123.304C92.9183 123.769 93.2375 124.013 93.6479 124.087C94.6738 124.185 95.6085 122.717 96.7712 122.913C97.478 122.986 98.0023 123.671 98.2759 124.307C99.2334 126.63 99.507 129.051 99.7122 131.521Z" fill="#F5B44F"/>
<path d="M96.2925 127.388C96.7962 127.388 97.2045 126.95 97.2045 126.41C97.2045 125.87 96.7962 125.432 96.2925 125.432C95.7889 125.432 95.3806 125.87 95.3806 126.41C95.3806 126.95 95.7889 127.388 96.2925 127.388Z" fill="#F5B44F"/>
<path d="M94.4686 122.253C94.9722 122.253 95.3805 121.815 95.3805 121.275C95.3805 120.735 94.9722 120.297 94.4686 120.297C93.9649 120.297 93.5566 120.735 93.5566 121.275C93.5566 121.815 93.9649 122.253 94.4686 122.253Z" fill="#F5B44F"/>
<path d="M89.681 120.296C90.1846 120.296 90.5929 119.858 90.5929 119.318C90.5929 118.778 90.1846 118.34 89.681 118.34C89.1773 118.34 88.769 118.778 88.769 119.318C88.769 119.858 89.1773 120.296 89.681 120.296Z" fill="#F5B44F"/>
<path d="M124.745 202.349L117.495 213.721C117.495 213.721 110.564 211.055 103.474 203.963C99.7581 200.245 99.4845 198.533 100.556 197.702C100.716 197.58 100.898 197.457 101.103 197.384C101.103 197.384 101.035 197.262 100.944 197.066C100.602 196.308 99.9176 194.4 101.24 193.495C101.422 193.373 101.65 193.251 101.924 193.177C101.924 193.177 100.852 191.001 102.266 190.194C104.113 189.167 108.011 193.862 112.343 196.772C112.138 196.577 107.145 191.906 105.845 190.218C104.341 188.286 106.392 186.33 108.171 187.968C109.63 189.313 117.541 196.063 117.541 196.063C117.541 196.063 116.241 193.226 116.925 191.099C117.449 189.484 119.091 189.729 119.365 190.609C120.071 192.908 121.872 195.819 123.423 197.653C125.497 200.147 124.745 202.349 124.745 202.349Z" fill="#FFCBA3"/>
<path d="M110.108 200.955C110.04 201.053 109.926 201.126 109.812 201.126C109.744 201.126 109.675 201.102 109.63 201.077C108.444 200.246 103.679 196.039 101.217 193.496C101.399 193.373 101.627 193.251 101.901 193.178C104.318 195.648 108.877 199.659 109.994 200.466C110.177 200.564 110.222 200.784 110.108 200.955Z" fill="#E99A5F"/>
<path d="M108.171 204.11C108.102 204.232 107.988 204.281 107.874 204.281C107.806 204.281 107.737 204.257 107.692 204.232C105.23 202.545 102.106 199.879 100.556 197.702C100.715 197.58 100.898 197.458 101.103 197.384C101.103 197.384 101.035 197.262 100.943 197.066C100.966 197.091 100.989 197.115 101.012 197.14C102.448 199.267 105.686 201.982 108.057 203.621C108.216 203.694 108.262 203.939 108.171 204.11Z" fill="#E99A5F"/>
<path d="M116.583 215.189L125.475 201.004L132.542 204.183L133.682 227.662L116.583 215.189Z" fill="#7E46E8"/>
<path d="M109.083 232.405C108.877 233.309 107.487 233.701 106.962 233.847C106.848 233.872 106.757 233.896 106.757 233.896C106.666 234.116 106.552 234.312 106.438 234.459C105.845 235.241 104.956 235.413 104.363 235.462C103.999 235.486 103.771 235.462 103.771 235.462C103.702 235.682 103.565 235.877 103.383 236.049C101.97 237.467 97.6379 237.907 94.4461 236.88C90.1145 235.486 84.2097 230.13 84.2097 230.13L89.0657 218.22C94.4461 216.092 97.1819 216.728 100.374 216.434C102.198 216.263 103.315 215.994 103.953 215.799C104.569 215.603 105.23 215.994 105.366 216.655C105.48 217.193 105.412 217.902 104.774 218.733C103.246 220.69 99.1882 220.519 99.1882 220.519C99.1882 220.519 107.304 224.676 109.06 227.684C109.744 228.834 109.151 229.445 108.535 229.763C108.125 229.983 107.715 230.032 107.715 230.032C107.715 230.032 107.851 230.155 108.057 230.326C108.513 230.766 109.265 231.622 109.083 232.405Z" fill="#FFCBA3"/>
<path d="M104.386 235.462C104.021 235.486 103.794 235.462 103.794 235.462C103.725 235.682 103.588 235.878 103.406 236.049C101.787 235.878 97.8888 235.291 94.5602 233.75C94.3778 233.676 94.3094 233.456 94.3778 233.261C94.4462 233.065 94.6514 232.992 94.8338 233.065C98.9375 234.973 104.135 235.364 104.204 235.364C104.249 235.364 104.318 235.388 104.386 235.462Z" fill="#E99A5F"/>
<path d="M106.962 233.848C106.848 233.873 106.757 233.897 106.757 233.897C106.666 234.117 106.552 234.313 106.438 234.46C104.774 233.995 99.9859 232.528 95.8366 230.253C95.677 230.155 95.6086 229.935 95.677 229.764C95.7682 229.593 95.9734 229.519 96.133 229.593C100.601 232.014 105.822 233.53 106.962 233.848Z" fill="#E99A5F"/>
<path d="M107.715 230.008C107.715 230.008 107.851 230.13 108.057 230.302C106.78 229.739 101.787 227.562 97.9569 225.826C97.7745 225.753 97.7062 225.532 97.7746 225.337C97.8429 225.141 98.0481 225.068 98.2305 225.141C102.357 227.024 107.851 229.421 108.558 229.739C108.125 229.935 107.715 230.008 107.715 230.008Z" fill="#E99A5F"/>
<path d="M89.6813 216.41L83.2977 232.306L75.3184 228.149L76.4583 205.404L89.6813 216.41Z" fill="#7E46E8"/>
</g>
<path d="M331.094 297.999H255.127C253.022 297.999 251.329 296.161 251.352 293.931L252.313 190.03C252.313 165.893 270.573 146.338 293.111 146.338C315.649 146.338 333.909 165.893 333.909 190.03L334.87 293.931C334.87 296.186 333.176 297.999 331.094 297.999Z" fill="#6232B8"/>
<path d="M291.326 298L293.5 217.918L295.445 298H291.326Z" fill="#552CA1"/>
<path d="M277.071 297.999L280.641 231.885L281.19 297.999H277.071Z" fill="#552CA1"/>
<path d="M305.558 297.999L306.382 231.885L309.677 297.999H305.558Z" fill="#552CA1"/>
<path d="M321.301 298L317.754 220.123L325.42 298H321.301Z" fill="#552CA1"/>
<path d="M261.466 298L269.131 220.123L265.584 298H261.466Z" fill="#552CA1"/>
<path d="M346.265 282.096H323.658L319.036 190.129C317.96 175.082 308.327 162.364 294.919 158.052C294.507 157.929 294.072 157.782 293.66 157.684L290.434 156.802L286.933 157.684C286.521 157.806 286.132 157.929 285.72 158.052C272.266 162.34 263.273 175.156 261.557 190.153C261.329 192.162 261.1 194.392 260.894 196.818C260.345 203.067 259.841 210.468 259.407 218.26C257.759 247.446 256.935 282.145 256.935 282.145H240.735C238.584 282.145 236.891 280.209 237.005 277.905C237.783 264.256 238.584 220.245 244.991 178.66C247.325 163.492 252.588 150.921 265.653 143.986C267.346 143.079 269.177 142.27 271.122 141.56C273.845 140.58 276.796 139.795 280.046 139.207L293.408 136.781L306.977 139.207C310.135 139.893 313.018 140.727 315.672 141.731C317.594 142.466 319.402 143.275 321.095 144.182C334.344 151.215 340.316 163.271 342.009 178.636C346.539 219.927 349.217 264.256 349.995 277.881C350.109 280.16 348.416 282.096 346.265 282.096Z" fill="#7E46E8"/>
<path d="M321.095 144.157L291.67 161.384L265.653 143.937C267.347 143.03 269.177 142.221 271.122 141.535L293.546 155.111L315.672 141.731C317.594 142.442 319.402 143.275 321.095 144.157Z" fill="#6232B8"/>
<g opacity="0.8">
<path d="M274.028 148.079C273.341 148.422 271.763 149.23 271.099 149.549C261.901 154.082 254.785 162.88 251.81 173.27C250.94 176.186 250.551 179.151 250.162 182.189C249.362 188.071 247.302 203.582 246.479 209.635C247.005 203.435 248.309 187.973 248.812 182.018C249.247 172.436 252.313 163.345 258.263 156.043C261.42 152.122 265.31 148.838 269.612 146.412C270.275 146.02 271.808 145.162 272.472 144.795L274.028 148.079Z" fill="#6232B8"/>
</g>
<g opacity="0.8">
<path d="M281.67 152.93C280.297 153.738 276.957 155.723 275.629 156.483C269.772 159.865 264.509 164.643 261.283 170.916C259.841 173.685 258.789 176.7 258.102 179.812C257.439 182.556 257.118 186.6 256.775 189.442C256.066 195.715 254.189 212.281 253.457 218.75C253.915 212.134 255.059 195.666 255.494 189.295C255.723 186.33 255.883 182.287 256.432 179.42C257.004 176.111 257.965 172.877 259.384 169.838C262.93 162.07 269.154 156.557 276.018 152.317L279.931 149.744L281.67 152.93Z" fill="#6232B8"/>
</g>
<g opacity="0.8">
<path d="M312.926 144.549C313.59 144.916 315.146 145.823 315.787 146.166C326.701 152.219 334.572 164.104 336.151 177.14C336.998 185.57 338.142 200.837 338.92 209.389C338.096 203.214 336.037 187.874 335.236 181.943C334.847 178.905 334.458 175.94 333.588 173.024C330.614 162.633 323.498 153.836 314.299 149.303C313.636 148.96 312.057 148.176 311.37 147.832L312.926 144.549Z" fill="#6232B8"/>
</g>
<g opacity="0.8">
<path d="M305.467 149.523C306.817 150.406 310.043 152.562 311.325 153.395C320.34 159.105 327.159 167.976 328.966 179.223C329.264 180.865 329.447 182.532 329.561 184.198C330.202 193.118 331.3 209.487 331.941 218.554C330.888 209.438 329.081 193.289 328.074 184.345C327.891 182.752 327.639 181.159 327.296 179.591C324.756 167.78 317.571 160.404 307.778 155.062L303.751 152.685L305.467 149.523Z" fill="#6232B8"/>
</g>
<path d="M301.966 48C301.966 48 271.991 61.9678 263.296 86.4728L294.827 82.797H295.17L334.687 113.085C335.602 72.1619 301.966 48 301.966 48Z" fill="#6232B8"/>
<path d="M299.403 64.1738C286.155 62.581 273.227 69.2708 266.111 81.3273C260.734 90.4676 257.576 98.7258 254.647 105.759C250.689 115.316 252.336 126.245 260.116 132.567C268.536 139.404 289.679 157.391 289.679 157.391L325.557 140.678C334.504 136.512 338.714 126 336.426 115.83C334.664 108.038 332.147 99.2159 328.303 88.7768C323.406 75.5196 312.652 65.7666 299.403 64.1738Z" fill="#7E46E8"/>
<path d="M291.212 165.207C296.077 165.207 300.021 160.983 300.021 155.772C300.021 150.562 296.077 146.338 291.212 146.338C286.347 146.338 282.403 150.562 282.403 155.772C282.403 160.983 286.347 165.207 291.212 165.207Z" fill="#F5B44F"/>
<path d="M291.212 165.673C286.109 165.673 281.945 161.213 281.945 155.749C281.945 150.284 286.109 145.824 291.212 145.824C296.314 145.824 300.479 150.284 300.479 155.749C300.479 161.213 296.314 165.673 291.212 165.673ZM291.212 146.829C286.613 146.829 282.86 150.848 282.86 155.773C282.86 160.699 286.613 164.718 291.212 164.718C295.811 164.718 299.564 160.699 299.564 155.773C299.564 150.848 295.811 146.829 291.212 146.829Z" fill="#FFDF8B"/>
<path d="M296.978 162.023L291.921 157.073L292.951 164.326L291.212 157.22L288.42 163.934L290.526 156.95L284.782 160.969L290.091 156.313L283.226 156.387L290.045 155.529L284.233 151.633L290.411 154.843L287.505 148.202L291.052 154.475L291.967 147.197L291.784 154.549L296.223 148.962L292.356 155.014L298.923 152.882L292.608 155.749L299.198 157.759L292.448 156.509L296.978 162.023Z" fill="#FFDF8B"/>
<path d="M324.482 212.232C324.71 212.551 325.603 213.899 324.71 215.148C323.704 216.545 321.85 217.599 321.187 216.79C320.775 216.276 321.004 215.442 321.027 215.393C320.935 215.467 318.921 217.133 313.018 218.628C306.954 220.172 303.408 217.942 303.408 217.942L304.209 205.199C304.209 205.199 313.293 202.087 320.294 201.352C321.484 201.23 324.939 201.132 325.305 202.626C325.511 203.484 325.351 204.342 325.168 204.905C325.054 205.248 324.962 205.469 324.916 205.567C324.893 205.591 324.893 205.591 324.893 205.591C324.893 205.591 325.877 206.376 325.26 207.944C325.168 208.14 325.077 208.361 324.916 208.606C325.054 208.679 326.541 209.757 324.985 211.62C324.848 211.791 324.688 211.963 324.482 212.159C324.436 212.159 324.459 212.183 324.482 212.232Z" fill="#FFCBA3"/>
<path d="M324.939 211.644C323.749 211.007 322.148 211.154 320.592 212.11C320.431 212.208 320.363 212.429 320.454 212.6C320.523 212.723 320.637 212.796 320.752 212.796C320.82 212.796 320.866 212.772 320.912 212.747C322.605 211.718 323.818 211.938 324.481 212.233L324.939 211.644Z" fill="#E99A5F"/>
<path d="M325.191 207.969C325.1 208.165 325.008 208.386 324.848 208.631C323.361 208.165 322.011 208.802 321.324 209.121C321.278 209.145 321.233 209.145 321.187 209.145C321.049 209.145 320.935 209.072 320.866 208.925C320.798 208.729 320.866 208.533 321.05 208.435C321.805 208.092 323.406 207.332 325.191 207.969Z" fill="#E99A5F"/>
<path d="M325.122 204.905C324.161 204.391 322.354 204.636 321.027 205.224C320.843 205.298 320.775 205.518 320.843 205.714C320.889 205.861 321.027 205.935 321.164 205.935C321.21 205.935 321.255 205.935 321.301 205.91C322.72 205.273 324.276 205.249 324.848 205.592L325.122 204.905Z" fill="#E99A5F"/>
<path d="M308.831 219.486C306.817 219.486 304.987 219.069 303.27 218.236C303.087 218.163 303.019 217.942 303.087 217.746C303.156 217.55 303.362 217.477 303.545 217.55C306.245 218.849 309.059 219.069 312.652 218.285C315.604 217.648 317.686 216.815 320.866 215.026C321.759 214.536 322.399 214.217 322.422 214.217C322.605 214.144 322.788 214.217 322.88 214.413C322.971 214.609 322.88 214.806 322.697 214.904C322.697 214.904 322.033 215.198 321.187 215.688C317.938 217.526 315.81 218.359 312.789 219.02C311.371 219.339 310.066 219.486 308.831 219.486Z" fill="#E99A5F"/>
<path d="M304.689 213.432C304.666 213.604 304.643 213.775 304.62 213.947C304.209 216.618 303.522 219.485 302.447 222.009C302.447 222.009 284.462 223.185 269.429 221.127C264.326 220.416 263.754 219.926 261.58 219.264C262.496 211.521 262.084 204.169 263.022 197.994C267.919 198.656 272.769 200.298 275.79 201.547C278.536 202.699 286.407 203.287 293.317 203.606C293.592 203.606 293.843 203.63 294.118 203.63C300.159 203.875 305.284 203.924 305.284 203.924C305.284 203.924 305.444 208.311 304.689 213.432Z" fill="#7E46E8"/>
<path d="M319.974 92.5494C318.281 80.7625 309.906 71.3771 298.877 69.7843C287.826 68.1915 277.163 74.7343 272.907 85.7615L263.937 108.87C261.352 115.511 262.816 123.156 267.621 128.18L288.764 150.332L314.62 134.943C320.5 131.463 323.566 124.504 322.926 117.348C322.331 110.732 320.958 99.4598 319.974 92.5494Z" fill="#6232B8"/>
<path d="M304.689 213.433C304.323 213.629 304.026 213.751 303.797 213.825C301.966 214.315 298.763 212.845 297.733 211.374C297.184 210.59 295.925 207.944 294.095 203.68C300.136 203.925 305.261 203.974 305.261 203.974C305.261 203.974 305.444 208.311 304.689 213.433Z" fill="#6232B8"/>
<path d="M291.876 157.047C291.876 157.047 291.395 155.429 291.395 154.939C291.395 154.425 293.523 152.538 295.171 148.029C296.315 144.868 299.037 140.653 301.669 137.59C304.3 134.527 300.525 134.208 297.276 136.462C294.187 138.619 290.068 141.069 288.695 141.805C288.054 142.148 285.126 136.732 281.373 133.473C280.343 132.566 277.071 133.571 278.009 136.07C278.947 138.594 278.947 138.594 278.947 138.594C278.947 138.594 278.009 138.594 277.071 139.109C276.133 139.624 276.591 142.638 276.591 142.638C276.591 142.638 275.653 142.638 275.172 143.152C274.692 143.667 274.234 146.166 274.234 146.166C274.234 146.166 272.815 144.647 271.419 146.166C270.024 147.686 272.449 150.283 272.838 151.19C274.051 154.057 275.973 156.924 278.032 158.836C280.549 161.163 280.572 163.001 280.572 163.001L291.876 157.047Z" fill="#FFCBA3"/>
<path d="M294.164 155.895L279.405 163.516C279.405 163.516 284.965 177.312 289.13 187.824C294.164 200.592 297.642 208.433 298.648 209.928C299.655 211.398 302.881 212.869 304.712 212.378C306.199 211.986 310.867 208.776 317.64 200.788C317.983 200.371 317.297 190.569 315.695 184.198C314.574 179.689 311.416 173.489 311.119 173.906C308.373 177.826 306.428 182.801 306.428 182.801L294.164 155.895Z" fill="#7E46E8"/>
<path d="M306.909 181.037C308.144 183.708 309.151 186.6 309.517 189.565C308.991 187.408 308.053 185.423 307.046 183.512C306.703 182.875 306.336 182.262 305.948 181.674L306.909 181.037Z" fill="#6232B8"/>
<path d="M307.252 130.95L288.878 142.296L274.486 125.632C267.758 117.864 265.974 106.543 269.932 96.839L274.325 86.0568C274.417 85.8363 274.508 85.6158 274.6 85.3952C276.705 80.5677 280.16 76.745 284.302 74.2945C288.626 71.7215 293.752 70.6432 298.9 71.5009C308.991 73.1427 316.839 81.6705 318.281 92.4526C318.304 92.6977 318.349 92.9672 318.372 93.2123L319.585 104.901C320.66 115.438 315.832 125.657 307.252 130.95Z" fill="#F5B44F"/>
<path d="M273.524 93.75L274.096 98.896C274.485 102.498 276.888 105.488 280.16 106.468L289.908 109.335L289.747 105.463C289.587 101.763 287.299 98.553 284.004 97.4012L273.524 93.75Z" fill="#3D3D3D"/>
<path d="M316.725 100.76L314.757 105.489C313.384 108.822 310.249 110.905 306.863 110.782L296.749 110.415L297.985 106.763C299.175 103.284 302.241 100.931 305.696 100.882L316.725 100.76Z" fill="#3D3D3D"/>
<path d="M294.713 101.152C294.209 107.965 293.294 115.047 292.356 121.81C291.372 128.598 290.297 135.606 288.878 142.296C289.381 135.484 290.297 128.402 291.235 121.638C292.219 114.875 293.294 107.842 294.713 101.152Z" fill="#E29631"/>
<path d="M294.598 101.275C294.621 101.25 294.644 101.226 294.644 101.201C294.667 101.226 294.667 101.25 294.667 101.299L294.598 101.275Z" fill="#E8A847"/>
<path d="M318.281 92.4516L318.143 92.6231C309.723 90.9323 299.975 94.1669 294.667 101.2C291.532 92.7946 283.135 86.6194 274.623 85.5657L274.6 85.4187C276.705 80.5912 280.16 76.7684 284.302 74.3179C288.626 71.7449 293.752 70.6667 298.9 71.5243C308.991 73.1417 316.862 81.6939 318.281 92.4516Z" fill="#E29631"/>
<path d="M317.205 87.747C311.256 87.4775 305.147 88.9478 300.181 92.5255C298.259 93.8978 296.612 95.6376 295.239 97.5735L294.873 96.5688C291.853 88.5802 284.531 83.3361 276.934 81.1797C284.988 82.3804 292.837 87.845 295.948 96.1032L294.942 95.9317C300.227 89.0948 309.197 86.3502 317.205 87.747Z" fill="#F5B44F"/>
<path d="M311.325 77.9945C310.455 80.445 308.602 82.5769 306.337 83.7042C304.163 84.7579 301.943 85.8851 300.044 87.4289C298.511 88.6297 297.207 90.1735 296.04 91.7908C295.353 89.8549 294.553 87.9435 293.477 86.2527C292.264 84.3168 290.64 82.6259 288.901 81.2292L288.397 80.7881C286.452 79.0727 285.217 76.3527 285.331 73.6816C285.629 76.5242 287.162 78.9992 289.358 80.5185C289.679 80.7391 290.091 81.0576 290.388 81.2782C293.317 83.5081 295.491 86.7673 296.772 90.3205L295.765 90.149C297.825 87.3554 300.708 85.248 303.751 83.9247C304.506 83.5816 305.284 83.2631 306.016 82.969C308.304 82.0378 310.112 80.249 311.325 77.9945Z" fill="#F5B44F"/>
<path d="M292.516 137.001L307.092 128.033C311.599 125.264 314.643 120.412 315.306 114.874L315.718 111.59C315.718 111.59 310.226 118.378 297.962 117.152L292.516 137.001Z" fill="#E29631"/>
<path d="M286.979 136.12L275.538 122.937C272.014 118.869 270.458 113.257 271.328 107.768L271.854 104.484C271.854 104.484 275.241 112.718 287.276 115.438L286.979 136.12Z" fill="#E29631"/>
<path d="M296.612 87.8705L294.324 83.2391L297.733 79.8574L300.227 84.1948L296.612 87.8705Z" fill="#F5B44F"/>
<path d="M287.345 78.1157C292.287 73.2637 301.6 74.3665 306.336 79.0959C307.046 79.8311 307.664 80.6397 308.121 81.5464C306.84 80.0026 305.261 78.8754 303.568 78.0177C298.534 75.6407 292.241 75.1506 287.345 78.1157Z" fill="#F5B44F"/>
<path d="M281.167 76.5723C282.723 78.9002 284.782 80.9096 287.047 82.478C285.789 81.8408 284.599 81.1057 283.478 80.248C282.311 79.3658 281.258 78.4346 280.274 77.3074C280.251 77.3074 281.167 76.5723 281.167 76.5723Z" fill="#F5B44F"/>
<path d="M315.123 82.9676C312.675 84.4379 309.975 85.3201 307.229 85.7612C309.197 85.173 311.096 84.2909 312.835 83.1636C313.407 82.7961 313.979 82.3795 314.482 81.9629L315.123 82.9676Z" fill="#F5B44F"/>
<path d="M299.106 118.723L298.031 122.57C298.031 122.57 300.936 121.908 302.836 118.87C302.836 118.894 301.142 119.066 299.106 118.723Z" fill="#F5B44F"/>
<path d="M295.239 133.252C298.946 130.777 302.676 128.401 306.176 125.631C307.023 124.945 307.915 124.235 308.67 123.475C310.226 121.907 311.439 119.971 312.377 117.912C312.858 116.883 313.27 115.805 313.613 114.678C313.476 115.854 313.155 116.981 312.789 118.108C312.011 120.338 310.867 122.446 309.288 124.161C308.51 124.994 307.595 125.729 306.726 126.44C303.179 129.185 299.312 131.488 295.239 133.252Z" fill="#F5B44F"/>
<path d="M295.376 132.273C295.925 129.871 296.52 127.494 297.802 125.362C298.168 124.774 298.763 124.186 299.495 124.235C300.685 124.235 301.394 125.828 302.424 125.901C302.836 125.901 303.179 125.681 303.385 125.264C303.842 124.284 303.842 122.985 304.071 121.858C305.17 115.658 309.082 122.397 311.782 116.148C310.089 121.907 306.245 118.354 305.33 120.412C304.597 122.054 304.964 124.015 304.186 125.73C303.728 126.833 302.309 127.2 301.371 126.539C300.731 126.171 300.067 125.191 299.449 125.117C298.008 124.921 295.971 130.9 295.376 132.273Z" fill="#F5B44F"/>
<path d="M299.495 128.746C300 128.746 300.41 128.307 300.41 127.765C300.41 127.224 300 126.785 299.495 126.785C298.989 126.785 298.58 127.224 298.58 127.765C298.58 128.307 298.989 128.746 299.495 128.746Z" fill="#F5B44F"/>
<path d="M302.012 123.941C302.517 123.941 302.927 123.502 302.927 122.961C302.927 122.419 302.517 121.98 302.012 121.98C301.506 121.98 301.097 122.419 301.097 122.961C301.097 123.502 301.506 123.941 302.012 123.941Z" fill="#F5B44F"/>
<path d="M307.046 122.765C307.551 122.765 307.961 122.326 307.961 121.785C307.961 121.244 307.551 120.805 307.046 120.805C306.54 120.805 306.131 121.244 306.131 121.785C306.131 122.326 306.54 122.765 307.046 122.765Z" fill="#F5B44F"/>
<path d="M285.835 116.564L285.789 120.583C285.789 120.583 283.181 119.039 282.219 115.535C282.242 115.535 283.798 116.246 285.835 116.564Z" fill="#F5B44F"/>
<path d="M285.514 131.685C282.128 128.695 279.062 125.289 276.43 121.516C275.813 120.56 275.126 119.555 274.623 118.526C273.57 116.394 273.067 114.017 272.952 111.64C272.907 110.464 272.93 109.263 273.113 108.111C273.135 109.288 273.227 110.439 273.387 111.591C273.707 113.845 274.325 116.1 275.378 118.085C275.904 119.065 276.545 120.021 277.163 120.952C279.748 124.701 282.654 128.156 285.514 131.685Z" fill="#F5B44F"/>
<path d="M285.652 130.703C285.423 128.326 285.286 125.851 284.576 123.597C284.119 122.298 283.524 122.347 282.403 122.96C281.991 123.156 281.51 123.376 281.007 123.376C280.069 123.426 279.176 122.617 279.062 121.637C278.787 119.774 279.68 118.01 279.451 116.197C279.153 113.942 274.508 116.123 274.463 110.07C275.309 116.907 280.915 111.688 280.229 117.961C280.137 119.113 279.771 120.338 279.954 121.441C280.023 121.906 280.297 122.225 280.709 122.372C281.716 122.617 282.837 121.343 283.981 121.71C284.691 121.906 285.103 122.666 285.286 123.327C285.858 125.753 285.789 128.228 285.652 130.703Z" fill="#F5B44F"/>
<path d="M282.975 126.048C283.48 126.048 283.89 125.609 283.89 125.068C283.89 124.527 283.48 124.088 282.975 124.088C282.469 124.088 282.059 124.527 282.059 125.068C282.059 125.609 282.469 126.048 282.975 126.048Z" fill="#F5B44F"/>
<path d="M281.876 120.683C282.382 120.683 282.791 120.244 282.791 119.703C282.791 119.162 282.382 118.723 281.876 118.723C281.371 118.723 280.961 119.162 280.961 119.703C280.961 120.244 281.371 120.683 281.876 120.683Z" fill="#F5B44F"/>
<path d="M277.414 117.962C277.92 117.962 278.33 117.523 278.33 116.982C278.33 116.441 277.92 116.002 277.414 116.002C276.909 116.002 276.499 116.441 276.499 116.982C276.499 117.523 276.909 117.962 277.414 117.962Z" fill="#F5B44F"/>
</g>
<defs>
<clipPath id="clip0_5021_3158">
<rect width="350" height="298" fill="white" transform="translate(24 24)"/>
</clipPath>
<clipPath id="clip1_5021_3158">
<rect width="113" height="250" fill="white" transform="translate(48 48)"/>
</clipPath>
</defs>
</svg>
