<svg width="368" height="540" viewBox="0 0 368 540" fill="none" xmlns="http://www.w3.org/2000/svg">
<path d="M3 30C3 15.0883 15.0883 3 30 3H338C352.912 3 365 15.0883 365 30V510C365 524.912 352.912 537 338 537H30C15.0883 537 3 524.912 3 510V30Z" fill="#767FEC" stroke="#9298F0" stroke-width="6"/>
<path d="M27 44C27 34.6112 34.6112 27 44 27H324C333.389 27 341 34.6112 341 44V291C341 300.389 333.389 308 324 308H44C34.6112 308 27 300.389 27 291V44Z" fill="white" stroke="#9298F0" stroke-width="6"/>
<g clip-path="url(#clip0_3241_4728)">
<path d="M93.125 103H65.25C64.6281 103.003 64.0273 102.774 63.5651 102.358C63.1028 101.942 62.8122 101.369 62.75 100.75L58.275 58.0001C58.2258 57.3526 58.4305 56.7113 58.8458 56.212C59.2611 55.7128 59.8543 55.3947 60.5 55.3251L95.1 53.1751C95.4515 53.1535 95.8036 53.2064 96.1332 53.3303C96.4628 53.4543 96.7626 53.6465 97.0128 53.8943C97.2629 54.1421 97.4579 54.44 97.585 54.7684C97.7121 55.0969 97.7683 55.4484 97.75 55.8001L95.525 100.625C95.4942 101.249 95.2308 101.839 94.7865 102.279C94.3423 102.719 93.7495 102.976 93.125 103Z" fill="#E8A847"/>
<path d="M97.075 71.4248L95.625 100.625C95.5929 101.266 95.3154 101.87 94.85 102.312C94.3846 102.754 93.7669 103.001 93.125 103H65.5L97.075 71.4248Z" fill="#F1CB91"/>
<path d="M73 95.5V99.25C73 99.5815 72.8683 99.8995 72.6339 100.134C72.3995 100.368 72.0815 100.5 71.75 100.5C71.4185 100.5 71.1005 100.368 70.8661 100.134C70.6317 99.8995 70.5 99.5815 70.5 99.25V98L73 95.5Z" fill="#F1CB91"/>
<path d="M93 81.75C93 82.0815 92.8683 82.3995 92.6339 82.6339C92.3995 82.8683 92.0815 83 91.75 83H85.5L88 80.5H91.75C92.0815 80.5 92.3995 80.6317 92.6339 80.8661C92.8683 81.1005 93 81.4185 93 81.75Z" fill="#D6985D"/>
<path d="M91.75 78.0001H90.5L92.65 75.8501C92.8679 76.1002 92.9916 76.4185 93 76.7501C93 77.0816 92.8683 77.3996 92.6339 77.634C92.3995 77.8684 92.0815 78.0001 91.75 78.0001Z" fill="#D6985D"/>
<path d="M95.75 58H82.75L88 67.075V71.75C88 72.0815 88.1317 72.3995 88.3661 72.6339C88.6005 72.8683 88.9185 73 89.25 73C89.5815 73 89.8995 72.8683 90.1339 72.6339C90.3683 72.3995 90.5 72.0815 90.5 71.75V67.075L95.75 58Z" fill="#CC7E35"/>
<path d="M78.25 85.5H65.25L70.5 94.575V99.25C70.5 99.5815 70.6317 99.8995 70.8661 100.134C71.1005 100.368 71.4185 100.5 71.75 100.5C72.0815 100.5 72.3995 100.368 72.6339 100.134C72.8683 99.8995 73 99.5815 73 99.25V94.575L78.25 85.5Z" fill="#CC7E35"/>
<path d="M73 95.5V99.25C73 99.5815 72.8683 99.8995 72.6339 100.134C72.3995 100.368 72.0815 100.5 71.75 100.5C71.4185 100.5 71.1005 100.368 70.8661 100.134C70.6317 99.8995 70.5 99.5815 70.5 99.25V98L73 95.5Z" fill="#D6985D"/>
<path d="M75.5 78C75.5 79.3261 74.9732 80.5979 74.0355 81.5355C73.0979 82.4732 71.8261 83 70.5 83C69.1739 83 67.9021 82.4732 66.9645 81.5355C66.0268 80.5979 65.5 79.3261 65.5 78H75.5Z" fill="#CC7E35"/>
<path d="M75.5 70.5C75.5 71.8261 74.9732 73.0979 74.0355 74.0355C73.0979 74.9732 71.8261 75.5 70.5 75.5C69.1739 75.5 67.9021 74.9732 66.9645 74.0355C66.0268 73.0979 65.5 71.8261 65.5 70.5H75.5Z" fill="#CC7E35"/>
<path d="M71.75 63H64.25C63.5596 63 63 63.5596 63 64.25C63 64.9404 63.5596 65.5 64.25 65.5H71.75C72.4404 65.5 73 64.9404 73 64.25C73 63.5596 72.4404 63 71.75 63Z" fill="#CC7E35"/>
<path d="M71.75 58H64.25C63.5596 58 63 58.5596 63 59.25C63 59.9404 63.5596 60.5 64.25 60.5H71.75C72.4404 60.5 73 59.9404 73 59.25C73 58.5596 72.4404 58 71.75 58Z" fill="#CC7E35"/>
<path d="M91.75 80.5H84.25C83.5596 80.5 83 81.0596 83 81.75C83 82.4404 83.5596 83 84.25 83H91.75C92.4404 83 93 82.4404 93 81.75C93 81.0596 92.4404 80.5 91.75 80.5Z" fill="#CC7E35"/>
<path d="M91.75 75.5H84.25C83.5596 75.5 83 76.0596 83 76.75C83 77.4404 83.5596 78 84.25 78H91.75C92.4404 78 93 77.4404 93 76.75C93 76.0596 92.4404 75.5 91.75 75.5Z" fill="#CC7E35"/>
<path d="M93 81.75C93 82.0815 92.8683 82.3995 92.6339 82.6339C92.3995 82.8683 92.0815 83 91.75 83H85.5L88 80.5H91.75C92.0815 80.5 92.3995 80.6317 92.6339 80.8661C92.8683 81.1005 93 81.4185 93 81.75Z" fill="#D6985D"/>
<path d="M93 76.7501C93 77.0816 92.8683 77.3996 92.6339 77.634C92.3995 77.8684 92.0815 78.0001 91.75 78.0001H90.5L92.65 75.8501C92.8679 76.1002 92.9916 76.4185 93 76.7501Z" fill="#D6985D"/>
<path d="M88 100.5C89.3807 100.5 90.5 99.3807 90.5 98C90.5 96.6193 89.3807 95.5 88 95.5C86.6193 95.5 85.5 96.6193 85.5 98C85.5 99.3807 86.6193 100.5 88 100.5Z" fill="#D6985D"/>
<path d="M88 93C89.3807 93 90.5 91.8807 90.5 90.5C90.5 89.1193 89.3807 88 88 88C86.6193 88 85.5 89.1193 85.5 90.5C85.5 91.8807 86.6193 93 88 93Z" fill="#D6985D"/>
<path d="M78 68C79.3807 68 80.5 66.8807 80.5 65.5C80.5 64.1193 79.3807 63 78 63C76.6193 63 75.5 64.1193 75.5 65.5C75.5 66.8807 76.6193 68 78 68Z" fill="#CC7E35"/>
</g>
<g clip-path="url(#clip1_3241_4728)">
<path d="M312.05 85.1251C312.104 85.4834 312.08 85.8492 311.979 86.1972C311.878 86.5453 311.703 86.8672 311.465 87.1407C311.227 87.4141 310.933 87.6326 310.602 87.781C310.271 87.9294 309.912 88.0042 309.55 88.0001H307.5C307.743 84.3288 306.902 80.667 305.082 77.4697C303.261 74.2724 300.541 71.6804 297.26 70.0158C293.979 68.3512 290.281 67.6874 286.626 68.1069C282.97 68.5263 279.519 70.0105 276.7 72.3751C275.981 72.9608 275.32 73.6137 274.725 74.3251L268.8 58.9001C268.653 58.5199 268.602 58.1097 268.65 57.7051C268.698 57.3005 268.844 56.9137 269.076 56.5785C269.307 56.2434 269.618 55.9699 269.979 55.7819C270.341 55.5939 270.743 55.4972 271.15 55.5001H307.5L312.05 85.1251Z" fill="#E8A847"/>
<path d="M312.5 55.5H307.5V58H312.5V55.5Z" fill="#E8A847"/>
<path d="M312.5 55.5H307.5V58H312.5V55.5Z" fill="#E8A847"/>
<path d="M315 55.5C315 55.4814 315 55.4629 314.999 55.4445C314.953 53.3066 312.138 55.5 310 55.5C310 56.8807 311.119 58 312.5 58C313.881 58 315 56.8807 315 55.5Z" fill="#E8A847"/>
<path d="M301.25 63H281.25C280.56 63 280 63.5596 280 64.25C280 64.9404 280.56 65.5 281.25 65.5H301.25C301.94 65.5 302.5 64.9404 302.5 64.25C302.5 63.5596 301.94 63 301.25 63Z" fill="#F1CB91"/>
<path d="M268.75 58H312.5C312.5 58.663 312.237 59.2989 311.768 59.7678C311.299 60.2366 310.663 60.5 310 60.5H268.75C268.418 60.5 268.101 60.3683 267.866 60.1339C267.632 59.8995 267.5 59.5815 267.5 59.25C267.5 58.9185 267.632 58.6005 267.866 58.3661C268.101 58.1317 268.418 58 268.75 58Z" fill="#FFC93E"/>
<path d="M294.275 58L291.775 60.5H287.5L290 58H294.275Z" fill="#FFDF8B"/>
<path d="M301.2 76.2999C299.133 73.8391 296.383 72.0462 293.298 71.1481C290.212 70.2499 286.93 70.2868 283.865 71.254C280.801 72.2212 278.092 74.0753 276.081 76.582C274.07 79.0887 272.847 82.1353 272.568 85.3367C272.288 88.538 272.964 91.7505 274.51 94.5678C276.056 97.385 278.402 99.6807 281.253 101.165C284.103 102.648 287.33 103.254 290.524 102.904C293.719 102.554 296.738 101.265 299.2 99.1999C300.835 97.828 302.184 96.1472 303.17 94.2537C304.156 92.3601 304.759 90.2909 304.944 88.1643C305.13 86.0377 304.895 83.8953 304.253 81.8596C303.61 79.8239 302.573 77.9347 301.2 76.2999ZM302.5 86.6999L291.95 85.7749L300 78.9499C301.608 81.2158 302.481 83.9214 302.5 86.6999ZM287.85 83.6249L280.95 75.4999C283.224 73.9074 285.924 73.0363 288.7 72.9999L287.85 83.6249ZM289.8 89.875L296.55 98C294.276 99.5925 291.576 100.464 288.8 100.5L289.8 89.875ZM298.425 77.1L290.25 83.8499L291.175 73.225C293.92 73.7147 296.45 75.0319 298.425 77V77.1ZM279.125 77.1249L285.95 85.2499L275.375 84.3249C275.839 81.6123 277.111 79.103 279.025 77.1249H279.125ZM275 86.7999L285.55 87.725L277.5 94.55C275.892 92.2841 275.019 89.5785 275 86.7999ZM279 96.4999L287.175 89.6499L286.25 100.275C283.532 99.7708 281.03 98.4546 279.075 96.4999H279ZM298.4 96.375L291.65 88.25L302.225 89.1749C301.733 91.8992 300.425 94.4099 298.475 96.375H298.4Z" fill="#680B1A"/>
<path d="M288.75 88C289.44 88 290 87.4404 290 86.75C290 86.0596 289.44 85.5 288.75 85.5C288.06 85.5 287.5 86.0596 287.5 86.75C287.5 87.4404 288.06 88 288.75 88Z" fill="#E8A847"/>
</g>
<g clip-path="url(#clip2_3241_4728)">
<path d="M309.368 277.61L308.909 278.069C308.44 278.538 307.804 278.801 307.141 278.801C306.478 278.801 305.842 278.538 305.373 278.069L296.287 268.983L300.282 264.988L309.368 274.074C309.837 274.543 310.1 275.179 310.1 275.842C310.1 276.505 309.837 277.141 309.368 277.61Z" fill="#7E46E8"/>
<path d="M300.27 265.02L296.293 268.997L294.295 266.999L300.27 261.024C300.8 261.554 301.098 262.273 301.098 263.022C301.098 263.771 300.8 264.49 300.27 265.02Z" fill="#7E46E8"/>
<path d="M282.3 255.025L294.275 267L298.275 263.025L286.3 251.025C286.3 251.025 274.5 247.225 271.3 238.15L267.1 233.825C267.1 233.825 266.325 247 282.3 255.025Z" fill="#767FEC"/>
<path d="M298.279 270.993L302.274 266.998L300.277 265L296.282 268.995L298.279 270.993Z" fill="#552CA1"/>
<path d="M277.937 265.034L281.932 269.029L272.846 278.116C272.377 278.584 271.741 278.848 271.078 278.848C270.415 278.848 269.779 278.584 269.311 278.116L268.851 277.656C268.382 277.187 268.119 276.551 268.119 275.888C268.119 275.225 268.382 274.589 268.851 274.121L277.937 265.034Z" fill="#7E46E8"/>
<path d="M277.947 261.007L283.939 267L281.942 268.997L277.947 265.002C277.417 264.472 277.119 263.754 277.119 263.004C277.119 262.255 277.417 261.537 277.947 261.007Z" fill="#7E46E8"/>
<path d="M295.925 255.025L283.95 267L280 263.025L291.975 251.025C291.975 251.025 303.775 247.225 306.975 238.15L311.275 233.825C311.275 233.825 311.9 247 295.925 255.025Z" fill="#9298F0"/>
<path d="M281.946 269.023L277.951 265.028L275.953 267.026L279.948 271.021L281.946 269.023Z" fill="#552CA1"/>
</g>
<g clip-path="url(#clip3_3241_4728)">
<path d="M85.5 254.5H84.825C83.825 250.8 82.175 250.8 81.175 254.5H79.825C78.825 250.8 77.175 250.8 76.175 254.5H74.825C73.825 250.8 72.175 250.8 71.175 254.5H70.5C69.837 254.5 69.2011 254.763 68.7322 255.232C68.2634 255.701 68 256.337 68 257V277C68 277.663 68.2634 278.299 68.7322 278.768C69.2011 279.237 69.837 279.5 70.5 279.5H74.25V269.5C74.25 268.506 74.6451 267.552 75.3483 266.848C76.0516 266.145 77.0054 265.75 78 265.75C78.9946 265.75 79.9484 266.145 80.6517 266.848C81.3549 267.552 81.75 268.506 81.75 269.5V279.5H85.5C86.163 279.5 86.7989 279.237 87.2678 278.768C87.7366 278.299 88 277.663 88 277V257C88 256.337 87.7366 255.701 87.2678 255.232C86.7989 254.763 86.163 254.5 85.5 254.5Z" fill="#252FB5"/>
<path d="M83 269.5V279.5H80.5V269.5C80.5 268.837 80.2366 268.201 79.7678 267.732C79.2989 267.263 78.663 267 78 267C77.337 267 76.7011 267.263 76.2322 267.732C75.7634 268.201 75.5 268.837 75.5 269.5V279.5H73V269.5C73 268.174 73.5268 266.902 74.4645 265.964C75.4021 265.027 76.6739 264.5 78 264.5C79.3261 264.5 80.5979 265.027 81.5355 265.964C82.4732 266.902 83 268.174 83 269.5Z" fill="#FFC93E"/>
<path d="M63 247H53C51.6193 247 50.5 248.119 50.5 249.5V277C50.5 278.381 51.6193 279.5 53 279.5H63C64.3807 279.5 65.5 278.381 65.5 277V249.5C65.5 248.119 64.3807 247 63 247Z" fill="#252FB5"/>
<path d="M103 247H93C91.6193 247 90.5 248.119 90.5 249.5V277C90.5 278.381 91.6193 279.5 93 279.5H103C104.381 279.5 105.5 278.381 105.5 277V249.5C105.5 248.119 104.381 247 103 247Z" fill="#252FB5"/>
<path d="M104.85 237.175C103.85 233.375 102.2 233.375 101.175 237.175H99.825C98.825 233.475 97.175 233.475 96.175 237.175H94.825C93.8 233.45 92.15 233.45 91.15 237.175C90.9564 237.281 90.7943 237.436 90.6801 237.625C90.566 237.814 90.5038 238.03 90.5 238.25V242C90.5 242.663 90.7634 243.299 91.2322 243.768C91.7011 244.237 92.337 244.5 93 244.5H103C103.663 244.5 104.299 244.237 104.768 243.768C105.237 243.299 105.5 242.663 105.5 242V238.25C105.496 238.03 105.434 237.814 105.32 237.625C105.206 237.436 105.044 237.281 104.85 237.175Z" fill="#252FB5"/>
<path d="M64.8501 237.175C63.8501 233.375 62.2001 233.375 61.1751 237.175H59.8251C58.8251 233.475 57.1751 233.475 56.1751 237.175H54.8251C53.8001 233.275 52.1501 233.275 51.1501 237C50.9286 237.119 50.7481 237.302 50.6322 237.524C50.5162 237.747 50.4702 238 50.5001 238.25V242C50.5001 242.663 50.7635 243.299 51.2323 243.768C51.7012 244.236 52.337 244.5 53.0001 244.5H63.0001C63.6631 244.5 64.299 244.236 64.7678 243.768C65.2367 243.299 65.5001 242.663 65.5001 242V238.25C65.4962 238.029 65.4341 237.814 65.3199 237.625C65.2058 237.436 65.0437 237.281 64.8501 237.175Z" fill="#252FB5"/>
<path d="M65.5 239.5H50.5V242H65.5V239.5Z" fill="#FFC93E"/>
<path d="M105.5 239.5H90.5V242H105.5V239.5Z" fill="#FFC93E"/>
<path d="M59.775 239.5L57.275 242H53L55.5 239.5H59.775Z" fill="#FFDF8B"/>
<path d="M99.775 239.5L97.275 242H93L95.5 239.5H99.775Z" fill="#FFDF8B"/>
<path d="M75.5 269.5V276.05L73 278.55V272L75.5 269.5Z" fill="#FFDF8B"/>
<path d="M80.5 271.075V269.5C80.5 268.837 80.2366 268.201 79.7678 267.732C79.2989 267.264 78.663 267 78 267L80.05 264.95C80.809 265.275 81.4757 265.783 81.9904 266.429C82.5052 267.075 82.852 267.838 83 268.65L80.5 271.075Z" fill="#FFDF8B"/>
<path d="M55.5 250.75C55.5 250.06 54.9404 249.5 54.25 249.5C53.5596 249.5 53 250.06 53 250.75V253.25C53 253.94 53.5596 254.5 54.25 254.5C54.9404 254.5 55.5 253.94 55.5 253.25V250.75Z" fill="#5058C4"/>
<path d="M55.5 258.25C55.5 257.56 54.9404 257 54.25 257C53.5596 257 53 257.56 53 258.25V265.75C53 266.44 53.5596 267 54.25 267C54.9404 267 55.5 266.44 55.5 265.75V258.25Z" fill="#5058C4"/>
<path d="M95.5 250.75C95.5 250.06 94.9404 249.5 94.25 249.5C93.5596 249.5 93 250.06 93 250.75V253.25C93 253.94 93.5596 254.5 94.25 254.5C94.9404 254.5 95.5 253.94 95.5 253.25V250.75Z" fill="#5058C4"/>
<path d="M95.5 258.25C95.5 257.56 94.9404 257 94.25 257C93.5596 257 93 257.56 93 258.25V265.75C93 266.44 93.5596 267 94.25 267C94.9404 267 95.5 266.44 95.5 265.75V258.25Z" fill="#5058C4"/>
</g>
<g clip-path="url(#clip4_3241_4728)">
<path d="M184 229.5C218.518 229.5 246.5 201.518 246.5 167C246.5 132.482 218.518 104.5 184 104.5C149.482 104.5 121.5 132.482 121.5 167C121.5 201.518 149.482 229.5 184 229.5Z" fill="#FFC93E"/>
<path d="M244.875 152.688L169.875 227.688C156.931 224.638 145.296 217.539 136.664 207.423C128.031 197.307 122.851 184.701 121.875 171.438L188.438 104.5C201.759 105.448 214.426 110.639 224.582 119.311C234.739 127.983 241.85 139.68 244.875 152.688Z" fill="#FFC93E"/>
<path d="M244.875 152.688L169.875 227.688C156.931 224.638 145.296 217.539 136.664 207.423C128.031 197.307 122.851 184.701 121.875 171.438L188.438 104.5C201.759 105.448 214.426 110.639 224.582 119.311C234.739 127.983 241.85 139.68 244.875 152.688Z" fill="#FFDF8B"/>
<path d="M184 223.812C215.377 223.812 240.812 198.377 240.812 167C240.812 135.623 215.377 110.188 184 110.188C152.623 110.188 127.188 135.623 127.188 167C127.188 198.377 152.623 223.812 184 223.812Z" fill="#552CA1"/>
<path d="M198.75 118.062C197.855 118.403 197.04 118.923 196.352 119.589C195.664 120.255 195.119 121.054 194.75 121.937C194.77 120.102 194.075 118.331 192.812 117C192.373 116.722 191.864 116.575 191.344 116.575C190.824 116.575 190.315 116.722 189.875 117C189.372 117.205 188.921 117.519 188.554 117.918C188.187 118.318 187.912 118.794 187.75 119.312C187.397 121.063 187.685 122.882 188.562 124.437C188.73 124.676 188.972 124.851 189.25 124.937C189.387 124.999 189.537 125.032 189.687 125.032C189.838 125.032 189.987 124.999 190.125 124.937C190.247 124.873 190.354 124.785 190.44 124.677C190.526 124.569 190.589 124.445 190.625 124.312C190.687 124.175 190.719 124.026 190.719 123.875C190.719 123.724 190.687 123.575 190.625 123.437C190.037 122.439 189.795 121.275 189.937 120.125C190.011 119.9 190.134 119.694 190.296 119.521C190.458 119.348 190.655 119.213 190.875 119.125C190.972 119.075 191.079 119.05 191.187 119.05C191.296 119.05 191.403 119.075 191.5 119.125C192.875 120.312 192.937 125.75 191.5 131.625C191.463 131.769 191.457 131.919 191.483 132.066C191.508 132.212 191.563 132.352 191.646 132.475C191.728 132.599 191.836 132.704 191.961 132.784C192.087 132.863 192.228 132.916 192.375 132.937C192.624 132.93 192.863 132.84 193.056 132.681C193.248 132.523 193.382 132.305 193.437 132.062C194.75 126.187 197.187 121.312 198.937 120.875C198.937 120.875 199.25 120.875 199.5 120.875C199.664 121.036 199.788 121.232 199.864 121.449C199.94 121.666 199.965 121.897 199.937 122.125C199.587 123.252 198.859 124.223 197.875 124.875C197.653 125.045 197.498 125.289 197.437 125.562C197.375 125.7 197.343 125.849 197.343 126C197.343 126.151 197.375 126.3 197.437 126.437C197.608 126.66 197.851 126.815 198.125 126.875C198.262 126.937 198.412 126.969 198.562 126.969C198.713 126.969 198.862 126.937 199 126.875C199.94 126.397 200.763 125.718 201.411 124.886C202.059 124.054 202.516 123.09 202.75 122.062C202.837 121.529 202.804 120.982 202.652 120.463C202.501 119.944 202.235 119.465 201.875 119.062C201.531 118.582 201.041 118.225 200.478 118.045C199.915 117.865 199.309 117.871 198.75 118.062Z" fill="#FFC93E"/>
<path d="M224.062 135.125C223.754 134.807 223.384 134.555 222.977 134.383C222.569 134.21 222.13 134.122 221.687 134.122C221.245 134.122 220.806 134.21 220.398 134.383C219.99 134.555 219.621 134.807 219.312 135.125C219.126 135.318 218.903 135.471 218.656 135.576C218.409 135.68 218.143 135.734 217.875 135.734C217.607 135.734 217.341 135.68 217.094 135.576C216.847 135.471 216.624 135.318 216.437 135.125H216.125C215.924 134.943 215.763 134.721 215.653 134.474C215.543 134.226 215.486 133.958 215.486 133.687C215.486 133.416 215.543 133.149 215.653 132.901C215.763 132.653 215.924 132.432 216.125 132.25C216.751 131.618 217.102 130.764 217.102 129.875C217.102 128.985 216.751 128.132 216.125 127.5L215 126.375C214.889 126.264 214.758 126.176 214.613 126.116C214.468 126.056 214.313 126.025 214.156 126.025C213.999 126.025 213.844 126.056 213.7 126.116C213.555 126.176 213.423 126.264 213.312 126.375C213.202 126.486 213.114 126.617 213.054 126.762C212.994 126.907 212.963 127.062 212.963 127.219C212.963 127.375 212.994 127.53 213.054 127.675C213.114 127.82 213.202 127.952 213.312 128.062L214.437 129.187C214.613 129.373 214.711 129.619 214.711 129.875C214.711 130.131 214.613 130.377 214.437 130.562C213.957 131.014 213.589 131.571 213.361 132.189C213.133 132.807 213.053 133.47 213.125 134.125C212.207 134.119 211.304 134.365 210.517 134.838C209.729 135.311 209.088 135.991 208.661 136.805C208.235 137.618 208.041 138.533 208.101 139.45C208.161 140.366 208.472 141.249 209 142C209.945 142.92 211.212 143.435 212.531 143.435C213.85 143.435 215.117 142.92 216.062 142C216.991 141.047 217.507 139.768 217.5 138.437C218.164 138.51 218.836 138.429 219.465 138.202C220.093 137.974 220.661 137.606 221.125 137.125C221.311 136.949 221.557 136.851 221.812 136.851C222.068 136.851 222.314 136.949 222.5 137.125L223.75 138.375C223.861 138.486 223.992 138.574 224.137 138.634C224.282 138.694 224.437 138.724 224.594 138.724C224.75 138.724 224.906 138.694 225.05 138.634C225.195 138.574 225.327 138.486 225.437 138.375C225.548 138.264 225.636 138.133 225.696 137.988C225.756 137.843 225.787 137.688 225.787 137.531C225.787 137.374 225.756 137.219 225.696 137.074C225.636 136.93 225.548 136.798 225.437 136.687L224.062 135.125ZM210.562 140C210.078 139.509 209.806 138.846 209.806 138.156C209.806 137.466 210.078 136.804 210.562 136.312C211.04 135.85 211.679 135.592 212.344 135.592C213.008 135.592 213.647 135.85 214.125 136.312C214.573 136.797 214.822 137.433 214.822 138.094C214.822 138.754 214.573 139.39 214.125 139.875C213.656 140.34 213.028 140.612 212.368 140.635C211.708 140.658 211.063 140.431 210.562 140Z" fill="#FFC93E"/>
<path d="M235.125 159.25C233.065 155.811 231.965 151.883 231.937 147.875C231.955 147.586 231.861 147.302 231.675 147.081C231.489 146.86 231.225 146.719 230.937 146.688C230.639 146.696 230.352 146.806 230.125 147C229.925 147.199 229.813 147.468 229.812 147.75C229.72 148.602 229.72 149.461 229.812 150.312L221.5 152.688C221.163 151.94 220.787 151.209 220.375 150.5C220.22 150.258 219.978 150.084 219.7 150.014C219.421 149.944 219.125 149.984 218.875 150.125C218.751 150.189 218.641 150.279 218.554 150.389C218.466 150.498 218.403 150.625 218.368 150.76C218.332 150.896 218.326 151.037 218.349 151.175C218.371 151.314 218.423 151.446 218.5 151.562C220.496 155.042 221.531 158.989 221.5 163C221.482 163.272 221.569 163.54 221.744 163.75C221.918 163.959 222.167 164.094 222.437 164.125C222.709 164.125 222.97 164.022 223.167 163.836C223.365 163.65 223.484 163.396 223.5 163.125C223.554 162.334 223.554 161.541 223.5 160.75L232.25 158.312C232.562 159 232.937 159.687 233.312 160.375C233.474 160.592 233.704 160.747 233.965 160.815C234.227 160.883 234.503 160.86 234.75 160.75C234.992 160.595 235.166 160.354 235.236 160.075C235.306 159.796 235.266 159.501 235.125 159.25ZM231.312 156.312L223.125 158.562C222.866 157.267 222.511 155.993 222.062 154.75L230.25 152.438C230.508 153.754 230.864 155.049 231.312 156.312Z" fill="#FFC93E"/>
<path d="M225.875 175.688H227C227.958 175.652 228.872 175.28 229.582 174.636C230.292 173.991 230.751 173.117 230.878 172.167C231.005 171.217 230.792 170.252 230.277 169.444C229.762 168.636 228.977 168.036 228.063 167.75C227.495 167.574 226.894 167.534 226.308 167.631C225.722 167.729 225.167 167.962 224.688 168.313C223.645 169.015 222.788 169.958 222.188 171.063C219.921 175.935 218.768 181.251 218.813 186.625C218.79 186.785 218.807 186.949 218.861 187.101C218.915 187.253 219.006 187.39 219.125 187.5C219.219 187.629 219.341 187.736 219.481 187.812C219.622 187.887 219.778 187.93 219.938 187.938C220.252 187.938 220.555 187.812 220.777 187.59C221 187.367 221.125 187.065 221.125 186.75C221.186 182.335 221.989 177.961 223.5 173.813C224.026 174.716 224.874 175.386 225.875 175.688ZM228.563 172.188C228.429 172.581 228.149 172.909 227.782 173.102C227.414 173.296 226.986 173.342 226.586 173.23C226.185 173.118 225.843 172.857 225.63 172.5C225.416 172.143 225.347 171.718 225.438 171.313C225.502 170.991 225.679 170.703 225.938 170.5H226.313H227.75C228.164 170.618 228.52 170.886 228.75 171.25C228.776 171.574 228.711 171.899 228.563 172.188Z" fill="#FFC93E"/>
<path d="M232.812 168.937C232.527 168.85 232.223 168.85 231.937 168.937C231.702 169.168 231.567 169.483 231.562 169.812C231.502 174.227 230.699 178.601 229.187 182.75C228.639 181.933 227.82 181.336 226.875 181.062C226.367 180.904 225.831 180.856 225.303 180.92C224.775 180.985 224.267 181.161 223.812 181.437C223.329 181.674 222.904 182.016 222.569 182.437C222.233 182.859 221.997 183.35 221.875 183.875C221.587 184.911 221.721 186.019 222.248 186.956C222.775 187.893 223.652 188.583 224.687 188.875H225.75C226.506 188.889 227.247 188.671 227.875 188.25C229.011 187.548 229.938 186.555 230.562 185.375C232.796 180.643 233.969 175.482 234 170.25C234.111 169.969 234.111 169.656 234 169.375C233.855 169.208 233.67 169.08 233.462 169.003C233.255 168.927 233.031 168.904 232.812 168.937ZM224.312 186.062C224.121 185.676 224.079 185.233 224.195 184.818C224.31 184.403 224.575 184.045 224.937 183.812C225.205 183.755 225.482 183.755 225.75 183.812H226.187C226.397 183.862 226.594 183.954 226.766 184.083C226.938 184.212 227.081 184.375 227.187 184.562C227.347 184.964 227.347 185.411 227.187 185.812C227.101 186.158 226.903 186.465 226.625 186.687H226.25C226.112 186.749 225.963 186.782 225.812 186.782C225.662 186.782 225.512 186.749 225.375 186.687C224.957 186.615 224.579 186.393 224.312 186.062Z" fill="#FFC93E"/>
<path d="M220 199.312C220.405 198.977 220.733 198.557 220.959 198.082C221.186 197.607 221.307 197.088 221.313 196.562C221.32 195.838 221.117 195.127 220.728 194.515C220.34 193.903 219.783 193.417 219.124 193.116C218.465 192.814 217.733 192.71 217.016 192.815C216.299 192.921 215.628 193.232 215.084 193.711C214.541 194.19 214.147 194.816 213.952 195.514C213.756 196.211 213.767 196.951 213.983 197.643C214.199 198.334 214.611 198.949 215.168 199.411C215.726 199.874 216.405 200.165 217.125 200.25C218.563 201.25 220.688 203.25 220.688 204.562C220.688 204.562 220.688 205.187 219.688 205.75C219.303 206.05 218.859 206.266 218.385 206.384C217.912 206.503 217.419 206.521 216.938 206.437C215.813 205.937 215.25 203.562 214.75 201.5C214.25 199.437 213.5 196.312 211.438 195.625C210.847 195.396 210.21 195.31 209.58 195.375C208.95 195.441 208.344 195.655 207.813 196C207.299 196.49 206.895 197.083 206.626 197.74C206.357 198.397 206.229 199.103 206.25 199.812C206.25 200.144 206.382 200.462 206.616 200.696C206.851 200.931 207.169 201.062 207.5 201.062C207.832 201.032 208.142 200.883 208.372 200.641C208.602 200.4 208.736 200.083 208.75 199.75C208.75 199.75 208.75 198.375 209.375 198.062C209.577 197.953 209.802 197.896 210.031 197.896C210.261 197.896 210.486 197.953 210.688 198.062C211.375 198.062 211.938 200.562 212.313 202.062C212.938 204.875 213.625 207.75 215.938 208.75C216.415 208.943 216.923 209.048 217.438 209.062C218.702 209.002 219.93 208.614 221 207.937C221.63 207.634 222.165 207.166 222.55 206.582C222.935 205.999 223.156 205.323 223.188 204.625C223.061 203.564 222.712 202.543 222.163 201.627C221.613 200.711 220.876 199.923 220 199.312ZM217.563 195.312C217.724 195.312 217.884 195.345 218.032 195.408C218.18 195.472 218.314 195.565 218.425 195.682C218.536 195.799 218.622 195.937 218.678 196.089C218.734 196.24 218.759 196.401 218.75 196.562C218.75 196.877 218.625 197.179 218.402 197.402C218.18 197.625 217.878 197.75 217.563 197.75C217.38 197.791 217.189 197.791 217.006 197.75C216.823 197.708 216.652 197.625 216.505 197.508C216.359 197.391 216.24 197.242 216.159 197.073C216.077 196.904 216.035 196.719 216.035 196.531C216.035 196.343 216.077 196.158 216.159 195.989C216.24 195.82 216.359 195.671 216.505 195.554C216.652 195.437 216.823 195.354 217.006 195.312C217.189 195.271 217.38 195.271 217.563 195.312Z" fill="#FFC93E"/>
<path d="M203.062 215.375C200.562 213.75 199.375 207.125 199.312 205.437C199.296 205.117 199.158 204.815 198.925 204.594C198.692 204.372 198.383 204.249 198.062 204.25C197.904 204.241 197.746 204.265 197.597 204.322C197.449 204.378 197.315 204.465 197.203 204.577C197.09 204.69 197.003 204.824 196.947 204.972C196.89 205.12 196.866 205.279 196.875 205.437C197.107 208 197.674 210.522 198.562 212.937C198.539 213.961 198.349 214.974 198 215.937C196.633 212.822 195.768 209.51 195.437 206.125C195.435 205.964 195.394 205.806 195.318 205.665C195.242 205.524 195.133 205.403 195 205.312C195.064 205.164 195.096 205.005 195.096 204.844C195.096 204.682 195.064 204.523 195 204.375C194.887 204.072 194.661 203.825 194.37 203.685C194.078 203.545 193.744 203.524 193.437 203.625C192.675 203.943 191.96 204.363 191.312 204.875C190.819 204.134 190.126 203.548 189.312 203.187C189.164 203.124 189.005 203.091 188.844 203.091C188.682 203.091 188.523 203.124 188.375 203.187C188.228 203.251 188.096 203.345 187.988 203.463C187.88 203.582 187.799 203.722 187.75 203.875C187.628 204.175 187.628 204.512 187.75 204.812C187.813 204.959 187.908 205.091 188.026 205.199C188.145 205.307 188.285 205.388 188.437 205.437C188.879 205.719 189.244 206.106 189.5 206.562C188.264 208.044 187.658 209.951 187.812 211.875C187.812 214.375 188.562 217.375 190.562 217.5C190.886 217.498 191.206 217.424 191.498 217.283C191.789 217.143 192.046 216.939 192.25 216.687C192.625 218 193.062 218.875 193.937 219.25H194.75C195.077 219.344 195.423 219.344 195.75 219.25C196.157 218.999 196.499 218.657 196.75 218.25C196.942 218.433 197.179 218.563 197.437 218.625C197.737 218.778 198.069 218.858 198.406 218.858C198.743 218.858 199.075 218.778 199.375 218.625C199.916 218.18 200.326 217.597 200.562 216.937C200.895 217.357 201.296 217.716 201.75 218C201.922 218.056 202.105 218.075 202.286 218.053C202.466 218.032 202.64 217.972 202.794 217.876C202.949 217.781 203.081 217.654 203.181 217.502C203.282 217.351 203.348 217.179 203.375 217C203.49 216.698 203.49 216.364 203.375 216.062C203.337 215.808 203.229 215.57 203.062 215.375ZM194.687 216.5C194.337 215.289 194.066 214.058 193.875 212.812V211.875C193.687 210.649 193.416 209.438 193.062 208.25C193.062 207.812 192.75 207.437 192.625 207.062L193.25 206.625C193.615 209.664 194.285 212.658 195.25 215.562C195.107 215.899 194.918 216.215 194.687 216.5ZM190.25 211.562C190.208 210.707 190.357 209.853 190.687 209.062C190.985 210.02 191.194 211.004 191.312 212C191.177 212.782 190.989 213.555 190.75 214.312C190.471 213.42 190.303 212.496 190.25 211.562Z" fill="#FFC93E"/>
<path d="M180.875 207.125L164.812 202.875C164.507 202.783 164.181 202.783 163.875 202.875C163.62 203.067 163.425 203.327 163.312 203.625C163.22 203.931 163.22 204.257 163.312 204.563C163.504 204.817 163.764 205.012 164.062 205.125L180.125 209.313C180.401 209.319 180.671 209.229 180.887 209.058C181.104 208.886 181.254 208.645 181.312 208.375C181.408 208.091 181.408 207.784 181.312 207.5C181.202 207.339 181.051 207.21 180.875 207.125Z" fill="#FFC93E"/>
<path d="M180 211.875L174.375 210.125C174.091 210.035 173.786 210.029 173.499 210.107C173.211 210.184 172.951 210.342 172.75 210.563C172.586 210.802 172.498 211.085 172.498 211.375C172.498 211.665 172.586 211.948 172.75 212.188C173.562 214.188 173.687 216.125 173.125 216.75C172.562 217.375 171.5 217 170 217C168.5 217 166.75 215.625 166.625 214.875C166.5 214.125 167.437 212.625 169.062 211.438C169.306 211.28 169.496 211.052 169.607 210.785C169.719 210.517 169.747 210.222 169.687 209.938C169.632 209.647 169.498 209.376 169.299 209.156C169.101 208.936 168.846 208.774 168.562 208.688L162.625 206.938C162.477 206.874 162.317 206.841 162.156 206.841C161.995 206.841 161.836 206.874 161.687 206.938C161.54 207.001 161.408 207.095 161.301 207.214C161.193 207.333 161.112 207.473 161.062 207.625C160.964 207.94 160.995 208.281 161.147 208.574C161.299 208.867 161.561 209.087 161.875 209.188L166.312 210.438C165.61 211.007 165.051 211.733 164.682 212.559C164.313 213.384 164.143 214.285 164.187 215.188C164.5 217 166.25 218.375 169.312 219.188C170.105 219.421 170.924 219.547 171.75 219.563C172.282 219.594 172.815 219.51 173.311 219.316C173.807 219.121 174.256 218.822 174.625 218.438C175.152 217.657 175.484 216.762 175.593 215.826C175.702 214.891 175.584 213.943 175.25 213.063L179.312 214.313C179.619 214.392 179.944 214.353 180.223 214.202C180.501 214.051 180.712 213.8 180.812 213.5C180.881 213.341 180.914 213.169 180.909 212.996C180.904 212.823 180.862 212.654 180.784 212.499C180.707 212.344 180.597 212.208 180.461 212.1C180.326 211.993 180.168 211.916 180 211.875Z" fill="#FFC93E"/>
<path d="M159.563 198.562C159.418 198.395 159.219 198.285 159 198.25C158.873 198.189 158.734 198.157 158.594 198.157C158.453 198.157 158.314 198.189 158.188 198.25C156.262 199.753 154.558 201.521 153.125 203.5C152.25 204.037 151.269 204.378 150.25 204.5C151.929 201.744 154.039 199.275 156.5 197.187C156.658 197.038 156.769 196.845 156.82 196.634C156.87 196.422 156.858 196.2 156.786 195.995C156.713 195.79 156.582 195.611 156.41 195.479C156.237 195.346 156.029 195.267 155.813 195.25C155.663 195.242 155.513 195.265 155.373 195.319C155.233 195.373 155.106 195.456 155 195.562C152.691 197.407 150.595 199.503 148.75 201.812C148.365 201.953 147.967 202.057 147.563 202.125C148.334 201.154 149.192 200.254 150.125 199.438C151.266 198.412 152.331 197.305 153.313 196.125C155.813 193.062 155.5 191.062 155.375 190.687C155.353 190.54 155.301 190.4 155.222 190.274C155.142 190.148 155.037 190.041 154.913 189.958C154.79 189.876 154.65 189.82 154.503 189.795C154.357 189.77 154.207 189.776 154.063 189.812C153.774 189.873 153.52 190.044 153.356 190.29C153.193 190.535 153.132 190.835 153.188 191.125C153.27 191.474 153.27 191.838 153.188 192.188C152.854 191.458 152.412 190.783 151.875 190.187C151.935 190.072 151.967 189.943 151.967 189.812C151.967 189.682 151.935 189.553 151.875 189.437C151.813 189.289 151.709 189.163 151.576 189.074C151.442 188.985 151.285 188.938 151.125 188.938H148.375L148.938 191.563C148.989 191.724 149.078 191.87 149.198 191.99C149.318 192.109 149.464 192.198 149.625 192.25C149.866 192.347 150.135 192.347 150.375 192.25C151.154 193.078 151.58 194.176 151.563 195.313C150.75 196.25 149.688 197.25 148.75 198.125C146.625 200.125 145.063 201.563 145.375 203.062C145.425 203.378 145.554 203.676 145.751 203.927C145.948 204.179 146.206 204.376 146.5 204.5C146.952 204.606 147.423 204.606 147.875 204.5C147.812 204.746 147.812 205.004 147.875 205.25C147.976 205.563 148.147 205.849 148.374 206.088C148.601 206.326 148.879 206.509 149.188 206.625C149.824 206.779 150.488 206.779 151.125 206.625C151.034 207.163 151.034 207.712 151.125 208.25C151.133 208.481 151.208 208.704 151.342 208.893C151.475 209.082 151.66 209.228 151.875 209.312H152.25C152.429 209.291 152.601 209.227 152.75 209.125C152.871 209.028 152.968 208.904 153.034 208.763C153.099 208.622 153.13 208.468 153.125 208.312C153.125 205.438 157.75 201.063 159.375 200.063C159.494 199.983 159.595 199.878 159.67 199.756C159.745 199.634 159.794 199.498 159.811 199.355C159.829 199.213 159.816 199.069 159.773 198.932C159.73 198.795 159.658 198.669 159.563 198.562Z" fill="#FFC93E"/>
<path d="M145.75 179.5C145.466 179.405 145.159 179.405 144.875 179.5H142L140.688 173.25L143.813 175.375C143.94 175.432 144.079 175.461 144.219 175.461C144.359 175.461 144.497 175.432 144.625 175.375C144.929 175.307 145.196 175.129 145.375 174.875C145.468 174.75 145.533 174.607 145.567 174.455C145.602 174.304 145.604 174.147 145.575 173.994C145.546 173.841 145.485 173.696 145.397 173.568C145.309 173.44 145.195 173.332 145.063 173.25L138.813 169.062L134 174.875C133.892 174.975 133.806 175.095 133.747 175.23C133.688 175.364 133.658 175.509 133.658 175.656C133.658 175.803 133.688 175.948 133.747 176.083C133.806 176.217 133.892 176.338 134 176.438C134.22 176.644 134.511 176.759 134.813 176.759C135.114 176.759 135.405 176.644 135.625 176.438L138.375 173.25L139.75 180.063L136.375 180.687C136.079 180.733 135.811 180.89 135.625 181.125C135.563 181.262 135.531 181.412 135.531 181.563C135.531 181.713 135.563 181.863 135.625 182C135.67 182.265 135.808 182.505 136.014 182.677C136.221 182.849 136.482 182.941 136.75 182.938L140.188 182.312L141.188 187.187C141.219 187.458 141.353 187.707 141.563 187.881C141.772 188.056 142.041 188.143 142.313 188.125C142.616 188.057 142.883 187.879 143.063 187.625C143.127 187.337 143.127 187.038 143.063 186.75L142.063 181.875L144.938 181.375C145.223 181.305 145.47 181.125 145.625 180.875C145.687 180.738 145.719 180.588 145.719 180.437C145.719 180.287 145.687 180.137 145.625 180C145.703 179.844 145.746 179.674 145.75 179.5Z" fill="#FFC93E"/>
<path d="M144.688 155.875C145.17 155.417 145.545 154.858 145.785 154.238C146.025 153.617 146.125 152.952 146.078 152.288C146.03 151.625 145.835 150.98 145.509 150.401C145.182 149.821 144.731 149.322 144.188 148.938C143.596 148.62 142.923 148.486 142.255 148.553C141.587 148.62 140.954 148.884 140.438 149.313C140.026 149.571 139.677 149.919 139.418 150.33C139.158 150.741 138.994 151.205 138.938 151.688C138.986 152.762 139.458 153.773 140.25 154.5C139.34 154.33 138.442 154.1 137.563 153.813C135.188 153.063 132.688 152.313 131.313 154.313C131.143 154.63 131.054 154.984 131.054 155.344C131.054 155.704 131.143 156.058 131.313 156.375C131.725 157.4 132.418 158.288 133.313 158.938H132.75C132.037 159.252 131.401 159.717 130.883 160.299C130.366 160.881 129.979 161.568 129.75 162.313C129.688 162.45 129.656 162.599 129.656 162.75C129.656 162.901 129.688 163.05 129.75 163.188C129.942 163.442 130.202 163.637 130.5 163.75H130.813C131.056 163.757 131.294 163.68 131.488 163.532C131.681 163.384 131.818 163.174 131.875 162.938C132.189 162.107 132.818 161.433 133.625 161.063C134.712 160.649 135.913 160.649 137 161.063L137.625 161.375H138.125L139.125 161.813C139.4 161.946 139.715 161.969 140.006 161.876C140.297 161.783 140.541 161.581 140.688 161.313C140.747 161.084 140.737 160.844 140.659 160.621C140.581 160.398 140.439 160.204 140.25 160.063C139.502 159.697 138.729 159.383 137.938 159.125C136.181 158.452 134.66 157.278 133.563 155.75C133.563 155.75 135.75 155.75 137 156.25C138.827 156.97 140.792 157.269 142.75 157.125C143.459 157.719 144.053 158.44 144.5 159.25C144.693 159.682 144.709 160.172 144.546 160.616C144.382 161.059 144.052 161.422 143.625 161.625C143.35 161.749 143.132 161.973 143.016 162.251C142.9 162.53 142.894 162.842 143 163.125C143.136 163.405 143.371 163.624 143.66 163.74C143.949 163.855 144.271 163.859 144.563 163.75C145.528 163.29 146.273 162.467 146.636 161.461C146.999 160.454 146.95 159.346 146.5 158.375C146.114 157.403 145.491 156.544 144.688 155.875ZM141.75 151.25C142.021 151.039 142.346 150.909 142.688 150.875H143C143.275 151.097 143.489 151.386 143.62 151.714C143.752 152.043 143.796 152.399 143.75 152.75C143.75 153.032 143.682 153.311 143.552 153.561C143.421 153.811 143.232 154.026 143 154.188C142.313 153.5 141.188 152.375 141.25 151.813C141.313 151.25 141.563 151.375 141.75 151.25Z" fill="#FFC93E"/>
<path d="M161.75 134.063L159.438 133.063C159.112 132.923 158.761 132.852 158.406 132.852C158.052 132.852 157.701 132.923 157.375 133.063C157.063 133.236 156.794 133.478 156.588 133.771C156.383 134.063 156.246 134.398 156.188 134.75V136.375C155.891 136.251 155.572 136.188 155.25 136.188C154.928 136.188 154.61 136.251 154.313 136.375C153.917 136.533 153.567 136.787 153.294 137.115C153.021 137.442 152.834 137.832 152.75 138.25L152.313 140.063C151.997 139.925 151.657 139.854 151.313 139.854C150.968 139.854 150.628 139.925 150.313 140.063C149.887 140.2 149.508 140.454 149.221 140.797C148.933 141.14 148.748 141.557 148.688 142L147.625 145.813C147.534 146.097 147.534 146.403 147.625 146.688C147.792 146.926 148.034 147.102 148.313 147.188H148.625C148.874 147.18 149.113 147.09 149.306 146.932C149.498 146.773 149.632 146.556 149.688 146.313L150.75 142.563C151.104 142.618 151.466 142.596 151.811 142.499C152.156 142.402 152.477 142.232 152.75 142C153.057 141.843 153.327 141.622 153.543 141.353C153.758 141.084 153.914 140.772 154 140.438L154.438 138.625C155.081 138.876 155.795 138.876 156.438 138.625C156.726 138.445 156.974 138.208 157.167 137.929C157.361 137.649 157.495 137.333 157.563 137L157.875 135.375L160.25 136.313C160.388 136.375 160.537 136.407 160.688 136.407C160.838 136.407 160.988 136.375 161.125 136.313C161.366 136.37 161.62 136.345 161.846 136.244C162.072 136.142 162.258 135.968 162.375 135.75C162.437 135.613 162.469 135.463 162.469 135.313C162.469 135.162 162.437 135.013 162.375 134.875C162.361 134.694 162.294 134.52 162.183 134.376C162.072 134.232 161.922 134.123 161.75 134.063Z" fill="#FFC93E"/>
<path d="M146 136.75C146.304 136.89 146.634 136.963 146.969 136.963C147.303 136.963 147.634 136.89 147.938 136.75C148.245 136.593 148.515 136.373 148.73 136.103C148.946 135.834 149.102 135.522 149.188 135.188L149.688 133.375C150.012 133.479 150.354 133.513 150.692 133.476C151.031 133.44 151.358 133.332 151.652 133.162C151.946 132.991 152.202 132.761 152.402 132.485C152.601 132.21 152.741 131.896 152.813 131.563V129.938L155.125 130.875C155.264 130.936 155.414 130.968 155.566 130.969C155.718 130.971 155.868 130.941 156.009 130.883C156.149 130.825 156.276 130.738 156.382 130.63C156.488 130.521 156.57 130.392 156.625 130.25C156.713 129.976 156.699 129.678 156.583 129.414C156.468 129.149 156.261 128.936 156 128.813L154.5 127.625C154.166 127.475 153.801 127.406 153.435 127.424C153.069 127.443 152.713 127.548 152.395 127.731C152.078 127.914 151.808 128.17 151.609 128.477C151.41 128.785 151.287 129.136 151.25 129.5V131.125C150.628 130.878 149.935 130.878 149.313 131.125C149.028 131.28 148.781 131.494 148.586 131.752C148.392 132.011 148.256 132.309 148.188 132.625L147.688 134.438C147.384 134.298 147.053 134.225 146.719 134.225C146.384 134.225 146.054 134.298 145.75 134.438C145.452 134.591 145.187 134.803 144.973 135.061C144.758 135.318 144.597 135.617 144.5 135.938L143.5 139.75C143.453 139.894 143.437 140.046 143.454 140.196C143.47 140.346 143.518 140.492 143.595 140.622C143.672 140.752 143.776 140.864 143.899 140.951C144.023 141.038 144.164 141.097 144.313 141.125C144.57 141.121 144.818 141.033 145.021 140.875C145.224 140.717 145.37 140.498 145.438 140.25L146.438 136.5L146 136.75Z" fill="#FFC93E"/>
<path d="M165.25 121.813C166.703 122.542 167.853 123.759 168.5 125.25H167.75C165.813 125.813 165.438 125.875 165.563 126.75C165.575 126.968 165.663 127.174 165.812 127.334C165.96 127.493 166.159 127.596 166.375 127.625H166.813L168.75 127.125C168.759 128.849 168.397 130.554 167.688 132.125C167.615 132.245 167.57 132.38 167.556 132.52C167.542 132.659 167.56 132.801 167.608 132.933C167.656 133.065 167.733 133.184 167.833 133.282C167.933 133.381 168.055 133.455 168.188 133.5C168.409 133.53 168.634 133.484 168.827 133.371C169.019 133.257 169.168 133.083 169.25 132.875C170.2 130.935 170.63 128.781 170.5 126.625H171.625C172.619 128.771 174.201 130.592 176.188 131.875C176.373 132.051 176.619 132.149 176.875 132.149C177.131 132.149 177.377 132.051 177.563 131.875C177.659 131.782 177.736 131.67 177.788 131.547C177.84 131.423 177.867 131.29 177.867 131.156C177.867 131.022 177.84 130.889 177.788 130.766C177.736 130.642 177.659 130.531 177.563 130.438C175.982 129.431 174.689 128.031 173.813 126.375L176.063 125.813C176.19 125.777 176.31 125.716 176.414 125.633C176.518 125.551 176.604 125.448 176.668 125.332C176.732 125.215 176.773 125.087 176.787 124.955C176.801 124.823 176.788 124.69 176.75 124.563C176.721 124.437 176.667 124.319 176.591 124.215C176.514 124.112 176.417 124.025 176.306 123.96C176.195 123.896 176.071 123.855 175.943 123.84C175.815 123.826 175.686 123.837 175.563 123.875L173.188 124.438C172.989 122.81 173.388 121.166 174.313 119.813C174.493 119.616 174.593 119.36 174.593 119.094C174.593 118.828 174.493 118.571 174.313 118.375C174.219 118.279 174.108 118.202 173.984 118.15C173.861 118.097 173.728 118.07 173.594 118.07C173.46 118.07 173.327 118.097 173.203 118.15C173.08 118.202 172.968 118.279 172.875 118.375C171.6 120.193 171.064 122.427 171.375 124.625H170.438C170.465 124.48 170.465 124.332 170.438 124.188C169.589 122.181 168.031 120.557 166.063 119.625C165.941 119.565 165.808 119.531 165.672 119.528C165.536 119.524 165.401 119.55 165.276 119.603C165.152 119.657 165.04 119.737 164.949 119.837C164.858 119.938 164.79 120.058 164.75 120.188C164.638 120.316 164.561 120.471 164.525 120.637C164.49 120.804 164.498 120.977 164.548 121.139C164.598 121.302 164.689 121.449 164.811 121.567C164.934 121.685 165.085 121.769 165.25 121.813Z" fill="#FFC93E"/>
<path d="M202.625 189.875L185.688 171.062L187.25 196.313L183.25 171.375L170.875 193.437L181 170.25L158.687 182.188L179.688 168.125L154.5 166.063L179.812 165.625L159.687 150.25L181.188 163.562L172.625 139.813L183.5 162.625L189.125 137.938L185.938 163.062L204 145.312L187.812 164.75L212.562 159.563L188.438 167.125L212 176.188L187.625 169.5L202.625 189.875Z" fill="#FFC93E"/>
</g>
<defs>
<clipPath id="clip0_3241_4728">
<rect width="60" height="60" fill="white" transform="translate(48 48)"/>
</clipPath>
<clipPath id="clip1_3241_4728">
<rect width="60" height="60" fill="white" transform="translate(260 48)"/>
</clipPath>
<clipPath id="clip2_3241_4728">
<rect width="60" height="60" fill="white" transform="translate(260 227)"/>
</clipPath>
<clipPath id="clip3_3241_4728">
<rect width="60" height="60" fill="white" transform="translate(48 227)"/>
</clipPath>
<clipPath id="clip4_3241_4728">
<rect width="150" height="150" fill="white" transform="translate(109 92)"/>
</clipPath>
</defs>
</svg>
