<svg width="368" height="540" viewBox="0 0 368 540" fill="none" xmlns="http://www.w3.org/2000/svg">
<path d="M3 30C3 15.0883 15.0883 3 30 3H338C352.912 3 365 15.0883 365 30V510C365 524.912 352.912 537 338 537H30C15.0883 537 3 524.912 3 510V30Z" fill="#767FEC" stroke="#9298F0" stroke-width="6"/>
<path d="M27 44C27 34.6112 34.6112 27 44 27H324C333.389 27 341 34.6112 341 44V291C341 300.389 333.389 308 324 308H44C34.6112 308 27 300.389 27 291V44Z" fill="white" stroke="#9298F0" stroke-width="6"/>
<g clip-path="url(#clip0_3010_17267)">
<path d="M138.631 286.857H65.6206C63.5974 286.857 61.9701 285.103 61.992 282.976L62.9157 183.843C62.9157 160.813 80.4647 142.155 102.126 142.155C123.787 142.155 141.336 160.813 141.336 183.843L142.26 282.976C142.26 285.103 140.633 286.857 138.631 286.857Z" fill="#6232B8"/>
<path d="M100.411 286.857L102.5 210.426L104.369 286.857H100.411Z" fill="#552CA1"/>
<path d="M86.7102 286.857L90.1408 223.753L90.6686 286.857H86.7102Z" fill="#552CA1"/>
<path d="M114.089 286.857L114.881 223.753L118.048 286.857H114.089Z" fill="#552CA1"/>
<path d="M129.219 286.857L125.811 212.531L133.178 286.857H129.219Z" fill="#552CA1"/>
<path d="M71.7123 286.857L79.0793 212.531L75.6707 286.857H71.7123Z" fill="#552CA1"/>
<path d="M153.212 271.683H134.563L130.121 183.936C129.087 169.581 119.829 157.446 106.942 153.331C106.546 153.214 106.129 153.074 105.733 152.981L102.632 152.139L99.2673 152.981C98.8714 153.098 98.4976 153.214 98.1017 153.331C85.1709 157.423 75.9126 169.581 74.879 183.96L70.4368 271.706H51.7882C49.721 271.706 48.0937 269.859 48.2036 267.662C48.9513 254.639 51.5243 212.367 55.8786 172.971C57.4839 158.405 63.1796 146.504 75.7366 139.888C77.364 139.022 79.1233 138.251 80.9925 137.596C83.6095 136.661 86.4464 135.913 89.5691 135.352L102.412 133.037L115.453 135.352C118.488 136.006 121.258 136.801 123.809 137.76C125.657 138.461 127.394 139.233 129.021 140.098C141.754 146.808 147.494 158.311 149.121 172.971C153.476 212.367 156.049 254.662 156.796 267.662C156.906 269.836 155.279 271.683 153.212 271.683Z" fill="#7E46E8"/>
<path d="M129.022 140.074L106.942 153.331L102.544 155.973L98.1019 153.308L75.7148 139.864C77.3422 138.999 79.1015 138.227 80.9707 137.573L102.522 150.526L123.788 137.76C125.657 138.438 127.394 139.209 129.022 140.074Z" fill="#6232B8"/>
<g opacity="0.8">
<path d="M85.1049 143.582C84.4451 143.909 82.9277 144.681 82.29 144.985C73.4495 149.31 66.6103 157.703 63.7514 167.617C62.9157 170.399 62.5419 173.228 62.168 176.127C61.3983 181.739 59.4191 196.538 58.6274 202.313C59.1332 196.398 60.3867 181.645 60.8705 175.964C61.2884 166.822 64.2352 158.148 69.9529 151.18C72.9877 147.439 76.7262 144.307 80.8606 141.992C81.4983 141.618 82.9717 140.799 83.6095 140.449L85.1049 143.582Z" fill="#6232B8"/>
</g>
<g opacity="0.8">
<path d="M92.4501 148.211C91.1307 148.983 87.92 150.877 86.6445 151.601C81.0147 154.828 75.9567 159.387 72.856 165.373C71.4705 168.015 70.4589 170.89 69.7992 173.86C69.1614 176.478 68.8536 180.336 68.5237 183.048C67.842 189.034 66.0387 204.839 65.335 211.011C65.7748 204.698 66.8743 188.987 67.2922 182.908C67.5121 180.079 67.666 176.221 68.1938 173.486C68.7436 170.329 69.6672 167.243 71.0307 164.344C74.4393 156.932 80.4209 151.672 87.0183 147.627L90.7788 145.172L92.4501 148.211Z" fill="#6232B8"/>
</g>
<g opacity="0.8">
<path d="M121.171 140.449C121.808 140.799 123.304 141.665 123.919 141.992C134.409 147.767 141.974 159.106 143.492 171.545C144.305 179.588 145.405 194.154 146.153 202.313C145.361 196.421 143.382 181.785 142.612 176.127C142.238 173.228 141.864 170.399 141.029 167.617C138.17 157.703 131.331 149.31 122.49 144.985C121.852 144.657 120.335 143.909 119.675 143.582L121.171 140.449Z" fill="#6232B8"/>
</g>
<g opacity="0.8">
<path d="M114.001 145.172C115.299 146.014 118.399 148.071 119.631 148.866C128.295 154.314 134.849 162.801 136.586 173.509C136.872 175.075 137.048 176.665 137.158 178.255C137.774 186.766 138.829 202.384 139.445 211.035C138.433 202.337 136.696 186.929 135.728 178.395C135.553 176.876 135.311 175.356 134.981 173.86C132.54 162.59 125.635 155.553 116.222 150.456L112.352 148.188L114.001 145.172Z" fill="#6232B8"/>
</g>
<path d="M102.346 48.1431C102.346 48.1431 76.7704 62.7091 73.5817 81.5537H102.17H102.5H131.089C127.922 62.7091 102.346 48.1431 102.346 48.1431Z" fill="#6232B8"/>
<path d="M102.478 63.9946C89.6571 63.9946 77.9797 71.8037 72.394 84.055C68.1716 93.3371 64.6311 101.894 61.9261 108.745C58.2976 117.957 61.7062 128.571 69.843 133.551L102.522 153.495L135.113 133.575C143.25 128.595 146.636 117.98 143.008 108.792C140.303 101.918 136.762 93.3605 132.54 84.0784C126.976 71.8037 115.299 63.9946 102.478 63.9946Z" fill="#7E46E8"/>
<path d="M125.459 87.1644C122.71 76.1756 113.342 68.5068 102.632 68.5068C91.9222 68.5068 82.5539 76.1522 79.805 87.1644L74.0213 110.218C72.35 116.858 74.6591 123.872 79.827 127.987L102.61 146.06L125.415 127.987C130.583 123.895 132.892 116.858 131.221 110.218L125.459 87.1644Z" fill="#6232B8"/>
<path d="M102.632 146.2L102.566 146.153L79.783 128.08C74.5491 123.918 72.24 116.904 73.9333 110.194L79.717 87.1408C82.4879 76.1052 91.9002 68.4131 102.654 68.4131C113.408 68.4131 122.82 76.1052 125.591 87.1408L131.374 110.194C133.046 116.904 130.759 123.942 125.525 128.08L102.632 146.2ZM102.632 68.6235C91.9881 68.6235 82.6639 76.2455 79.915 87.1876L74.1313 110.264C72.4819 116.881 74.747 123.801 79.915 127.916L102.632 145.943L125.349 127.916C130.517 123.825 132.782 116.904 131.133 110.264L125.349 87.211C122.6 76.2689 113.276 68.6235 102.632 68.6235Z" fill="#552CA1"/>
<path d="M102.5 160.135C107.176 160.135 110.967 156.105 110.967 151.134C110.967 146.162 107.176 142.132 102.5 142.132C97.8241 142.132 94.0334 146.162 94.0334 151.134C94.0334 156.105 97.8241 160.135 102.5 160.135Z" fill="#F5B44F"/>
<path d="M102.5 160.603C97.596 160.603 93.5936 156.347 93.5936 151.134C93.5936 145.92 97.596 141.665 102.5 141.665C107.404 141.665 111.407 145.92 111.407 151.134C111.407 156.347 107.404 160.603 102.5 160.603ZM102.5 142.623C98.0798 142.623 94.4733 146.458 94.4733 151.157C94.4733 155.856 98.0798 159.691 102.5 159.691C106.92 159.691 110.527 155.856 110.527 151.157C110.527 146.458 106.92 142.623 102.5 142.623Z" fill="#FFDF8B"/>
<path d="M108.042 157.119L103.182 152.396L104.171 159.317L102.5 152.536L99.817 158.942L101.84 152.279L96.3204 156.113L101.422 151.671L94.825 151.741L101.378 150.923L95.7926 147.182L101.73 150.268L98.9373 143.932L102.346 149.918L103.226 142.974L103.05 149.988L107.316 144.634L103.599 150.432L109.911 148.398L103.841 151.133L110.175 153.051L103.687 151.858L108.042 157.119Z" fill="#FFDF8B"/>
<path d="M103.842 176.267L112.33 185.502C113.408 186.695 113.386 188.589 112.286 189.734L98.2558 204.3C97.1343 205.446 95.353 205.422 94.2754 204.253L85.7868 195.018C84.7092 193.826 84.7312 191.932 85.8308 190.786L99.8612 176.22C100.983 175.051 102.764 175.075 103.842 176.267Z" fill="#767FEC"/>
<path d="M96.2767 205.61C96.2547 205.61 96.2547 205.61 96.2327 205.61C95.3531 205.61 94.5394 205.236 93.9456 204.558L85.457 195.323C84.8413 194.668 84.5114 193.779 84.5334 192.868C84.5334 191.932 84.8852 191.067 85.523 190.436L99.5534 175.87C100.829 174.537 102.918 174.561 104.172 175.94L112.66 185.175C113.914 186.531 113.892 188.753 112.594 190.085L98.5418 204.628C97.926 205.283 97.1344 205.61 96.2767 205.61ZM101.818 175.823C101.225 175.823 100.609 176.057 100.147 176.548L86.1168 191.114C85.6549 191.582 85.413 192.213 85.391 192.891C85.391 193.569 85.6329 194.2 86.0728 194.691L94.5614 203.927C95.0012 204.417 95.595 204.675 96.2327 204.698H96.2547C96.8705 204.698 97.4642 204.441 97.926 203.973L111.956 189.407C112.902 188.425 112.924 186.835 112 185.83L103.512 176.595C103.072 176.08 102.456 175.823 101.818 175.823Z" fill="#9298F0"/>
<path d="M106.81 174.653L112.858 185.853C113.628 187.279 113.166 189.126 111.825 189.944L94.8253 200.349C93.4838 201.167 91.7465 200.676 90.9768 199.25L84.9072 188.05C84.1375 186.624 84.5994 184.777 85.9408 183.959L102.94 173.555C104.303 172.736 106.019 173.227 106.81 174.653Z" fill="#767FEC"/>
<path d="M93.4178 201.214C93.1319 201.214 92.846 201.167 92.5601 201.097C91.7245 200.863 91.0207 200.279 90.5809 199.484L84.5333 188.285C84.0935 187.49 83.9835 186.555 84.2035 185.666C84.4234 184.778 84.9732 184.029 85.7209 183.562L102.72 173.158C103.468 172.69 104.347 172.573 105.183 172.807C106.019 173.041 106.722 173.625 107.162 174.42L113.21 185.619C114.112 187.279 113.562 189.407 112 190.342L95.0012 200.746C94.5393 201.05 93.9896 201.214 93.4178 201.214ZM104.347 173.625C103.93 173.625 103.534 173.742 103.16 173.952L86.1607 184.357C85.6109 184.684 85.2151 185.245 85.0391 185.9C84.8632 186.555 84.9512 187.233 85.281 187.817L91.3286 199.016C91.6365 199.601 92.1643 200.022 92.78 200.209C93.3958 200.396 94.0335 200.302 94.5833 199.952L111.583 189.547C112.726 188.846 113.122 187.303 112.462 186.087L106.415 174.888C106.107 174.303 105.579 173.882 104.963 173.695C104.765 173.649 104.567 173.625 104.347 173.625Z" fill="#9298F0"/>
<path d="M109.471 173.859L113.364 186.087C113.87 187.654 113.078 189.36 111.604 189.898L93.0219 196.585C91.5485 197.123 89.9431 196.281 89.4373 194.715L85.5669 182.463C85.0611 180.897 85.8527 179.19 87.3262 178.652L105.909 171.965C107.382 171.451 108.988 172.293 109.471 173.859Z" fill="#767FEC"/>
<path d="M92.1203 197.216C91.6365 197.216 91.1307 197.1 90.6689 196.866C89.8992 196.445 89.3054 195.744 89.0195 194.878L85.1271 182.65C84.5553 180.85 85.4789 178.863 87.1722 178.255L105.755 171.568C106.569 171.264 107.47 171.334 108.24 171.755C109.01 172.176 109.603 172.877 109.889 173.743L113.782 185.971C114.068 186.859 114.002 187.794 113.606 188.612C113.21 189.431 112.55 190.062 111.736 190.366L93.1539 197.053C92.824 197.146 92.4721 197.216 92.1203 197.216ZM106.81 172.293C106.547 172.293 106.305 172.34 106.041 172.433L87.4581 179.12C86.2046 179.564 85.5449 181.014 85.9627 182.323L89.8552 194.551C90.0531 195.182 90.4929 195.72 91.0647 196.001C91.6365 196.305 92.2742 196.351 92.89 196.141L111.473 189.454C112.066 189.244 112.572 188.776 112.836 188.168C113.1 187.56 113.166 186.882 112.968 186.228L109.076 174C108.878 173.368 108.438 172.831 107.866 172.55C107.536 172.386 107.162 172.293 106.81 172.293Z" fill="#9298F0"/>
<path d="M112.286 173.626L113.628 186.462C113.804 188.098 112.682 189.594 111.143 189.782L91.6584 192.096C90.119 192.283 88.7116 191.091 88.5357 189.454L87.1942 176.618C87.0183 174.982 88.1398 173.485 89.6792 173.298L109.163 170.984C110.725 170.797 112.11 171.989 112.286 173.626Z" fill="#767FEC"/>
<path d="M91.3285 192.587C90.6028 192.587 89.8771 192.33 89.3053 191.839C88.6236 191.254 88.2057 190.436 88.0958 189.524L86.7543 176.688C86.5564 174.795 87.8539 173.064 89.6352 172.854L109.119 170.539C109.977 170.446 110.835 170.703 111.516 171.287C112.198 171.872 112.616 172.69 112.726 173.602L114.067 186.438C114.265 188.332 112.968 190.062 111.187 190.272L91.7024 192.587C91.5924 192.564 91.4604 192.587 91.3285 192.587ZM109.493 171.428C109.405 171.428 109.317 171.428 109.229 171.451L89.7451 173.766C88.4476 173.929 87.502 175.169 87.634 176.571L88.9754 189.407C89.0414 190.085 89.3493 190.67 89.8551 191.114C90.3609 191.535 90.9766 191.722 91.6144 191.652L111.099 189.337C112.396 189.173 113.342 187.934 113.21 186.531L111.868 173.696C111.802 173.018 111.494 172.433 110.989 171.989C110.549 171.615 110.021 171.428 109.493 171.428Z" fill="#9298F0"/>
<path d="M115.365 174.468L113.54 187.233C113.298 188.87 111.868 189.992 110.329 189.758L90.9328 186.649C89.3935 186.392 88.3379 184.872 88.5578 183.235L90.3831 170.469C90.625 168.833 92.0544 167.711 93.5938 167.944L112.99 171.054C114.529 171.288 115.585 172.831 115.365 174.468Z" fill="#767FEC"/>
<path d="M110.769 190.249C110.615 190.249 110.439 190.226 110.285 190.202L90.8889 187.093C89.1076 186.812 87.8761 185.035 88.162 183.141L89.9872 170.376C90.1192 169.464 90.581 168.645 91.2847 168.108C91.9884 167.57 92.8461 167.336 93.7038 167.476L113.1 170.586C113.958 170.726 114.727 171.217 115.233 171.965C115.739 172.714 115.959 173.625 115.827 174.537L114.002 187.303C113.87 188.215 113.408 189.033 112.704 189.571C112.132 190.015 111.451 190.249 110.769 190.249ZM93.176 168.365C92.6702 168.365 92.1864 168.529 91.7685 168.856C91.2627 169.253 90.9329 169.838 90.8229 170.516L88.9976 183.282C88.7997 184.661 89.7014 185.947 90.9988 186.157L110.395 189.267C111.033 189.361 111.649 189.197 112.154 188.799C112.66 188.402 112.99 187.817 113.1 187.139L114.925 174.374C115.013 173.696 114.859 173.041 114.485 172.503C114.112 171.965 113.562 171.615 112.924 171.498L93.5278 168.388C93.4179 168.365 93.2859 168.365 93.176 168.365Z" fill="#9298F0"/>
<path d="M118.29 175.987L113.584 187.887C112.99 189.407 111.319 190.132 109.889 189.477L91.8125 181.387C90.3831 180.756 89.7013 178.979 90.3171 177.46L95.0232 165.559C95.617 164.039 97.2883 163.314 98.7177 163.969L116.795 172.059C118.202 172.713 118.884 174.467 118.29 175.987Z" fill="#767FEC"/>
<path d="M110.967 190.202C110.549 190.202 110.109 190.109 109.713 189.922L91.6366 181.832C90.8449 181.481 90.2072 180.803 89.8773 179.938C89.5474 179.073 89.5474 178.138 89.8993 177.296L94.6054 165.396C95.3091 163.642 97.2224 162.8 98.8717 163.549L116.948 171.638C118.598 172.386 119.39 174.42 118.686 176.174L113.98 188.075C113.452 189.407 112.242 190.202 110.967 190.202ZM97.6182 164.203C96.6946 164.203 95.8149 164.788 95.4191 165.746L90.713 177.647C90.4711 178.278 90.4711 178.956 90.713 179.588C90.9549 180.219 91.4167 180.71 91.9884 180.967L110.065 189.057C111.275 189.594 112.682 188.986 113.188 187.701L117.894 175.8C118.4 174.514 117.828 173.018 116.619 172.48L98.5418 164.414C98.234 164.273 97.9261 164.203 97.6182 164.203Z" fill="#9298F0"/>
<path d="M121.083 178.348L113.892 188.775C112.968 190.108 111.209 190.389 109.955 189.407L94.1436 177.062C92.8901 176.08 92.6262 174.209 93.5498 172.877L100.741 162.472C101.665 161.14 103.424 160.859 104.677 161.841L120.489 174.186C121.721 175.145 122.006 177.015 121.083 178.348Z" fill="#767FEC"/>
<path d="M111.605 190.459C110.945 190.459 110.263 190.249 109.669 189.781L93.8576 177.436C92.4062 176.314 92.0983 174.14 93.1539 172.597L100.345 162.192C101.401 160.649 103.446 160.322 104.897 161.444L120.709 173.789C122.16 174.911 122.468 177.086 121.413 178.629L114.221 189.033C113.606 189.968 112.616 190.459 111.605 190.459ZM103.006 161.725C102.28 161.725 101.555 162.075 101.093 162.754L93.9016 173.158C93.1319 174.28 93.3518 175.87 94.4074 176.688L110.219 189.033C111.275 189.851 112.77 189.618 113.54 188.495L120.731 178.091C121.105 177.553 121.259 176.875 121.171 176.221C121.083 175.543 120.731 174.958 120.225 174.561L104.413 162.216C103.974 161.865 103.49 161.725 103.006 161.725Z" fill="#9298F0"/>
<path d="M123.04 181.201L113.65 189.384C112.44 190.436 110.659 190.249 109.691 188.963L97.2663 172.831C96.2767 171.545 96.4526 169.651 97.6621 168.622L107.052 160.439C108.262 159.387 110.043 159.574 111.011 160.86L123.436 176.992C124.425 178.255 124.249 180.149 123.04 181.201Z" fill="#767FEC"/>
<path d="M111.868 190.53C111.758 190.53 111.648 190.53 111.538 190.506C110.681 190.413 109.889 189.968 109.339 189.244L96.9143 173.111C96.3645 172.386 96.1007 171.498 96.1886 170.563C96.2766 169.651 96.6944 168.809 97.3762 168.225L106.766 160.041C108.152 158.826 110.219 159.036 111.363 160.532L123.788 176.665C124.931 178.138 124.733 180.336 123.326 181.551L113.936 189.735C113.342 190.249 112.616 190.53 111.868 190.53ZM108.834 160.229C108.306 160.229 107.778 160.416 107.338 160.79L97.9479 168.973C97.4641 169.394 97.1562 170.002 97.0903 170.68C97.0243 171.358 97.2222 172.012 97.6181 172.527L110.043 188.659C110.879 189.735 112.374 189.898 113.386 189.01L122.776 180.827C123.788 179.938 123.942 178.348 123.106 177.273L110.681 161.14C110.197 160.532 109.515 160.229 108.834 160.229Z" fill="#9298F0"/>
<path d="M124.205 183.866L113.496 189.945C112.132 190.716 110.417 190.178 109.691 188.706L100.455 170.328C99.7292 168.879 100.235 167.055 101.62 166.284L112.33 160.205C113.694 159.433 115.409 159.971 116.135 161.444L125.371 179.821C126.097 181.271 125.591 183.094 124.205 183.866Z" fill="#767FEC"/>
<path d="M112.176 190.787C111.011 190.787 109.889 190.132 109.295 188.963L100.059 170.586C99.2013 168.902 99.817 166.798 101.4 165.886L112.11 159.807C113.694 158.896 115.673 159.55 116.53 161.234L125.767 179.611C126.624 181.294 126.009 183.398 124.425 184.31L113.716 190.389C113.21 190.646 112.704 190.787 112.176 190.787ZM113.65 160.322C113.276 160.322 112.88 160.415 112.528 160.626L101.818 166.705C101.268 167.032 100.851 167.546 100.653 168.201C100.477 168.856 100.521 169.534 100.829 170.118L110.065 188.495C110.373 189.08 110.857 189.524 111.472 189.734C112.088 189.921 112.726 189.875 113.276 189.547L123.985 183.468C125.151 182.814 125.591 181.271 124.953 180.055L115.717 161.678C115.321 160.789 114.485 160.322 113.65 160.322Z" fill="#9298F0"/>
<path d="M124.909 186.789L113.21 190.296C111.714 190.74 110.153 189.828 109.735 188.238L104.391 168.178C103.973 166.588 104.831 164.928 106.327 164.484L118.026 160.977C119.521 160.532 121.083 161.444 121.5 163.034L126.844 183.094C127.262 184.661 126.405 186.321 124.909 186.789Z" fill="#767FEC"/>
<path d="M112.44 190.88C111.89 190.88 111.341 190.74 110.857 190.436C110.087 189.992 109.537 189.244 109.317 188.355L103.974 168.295C103.49 166.448 104.501 164.531 106.217 164.016L117.916 160.509C118.752 160.252 119.631 160.369 120.401 160.813C121.171 161.257 121.72 162.005 121.94 162.894L127.284 182.954C127.526 183.843 127.416 184.778 126.998 185.596C126.581 186.415 125.877 186.999 125.041 187.233L113.342 190.74C113.034 190.834 112.726 190.88 112.44 190.88ZM118.796 161.304C118.576 161.304 118.356 161.327 118.136 161.398L106.437 164.905C105.183 165.279 104.435 166.682 104.787 168.038L110.131 188.098C110.307 188.753 110.703 189.29 111.253 189.618C111.802 189.945 112.44 190.039 113.056 189.852L124.755 186.344C125.371 186.157 125.877 185.737 126.185 185.152C126.493 184.568 126.581 183.89 126.405 183.235L121.061 163.174C120.885 162.52 120.489 161.982 119.939 161.655C119.587 161.421 119.191 161.304 118.796 161.304Z" fill="#9298F0"/>
<path d="M124.646 190.132L112.506 190.319C110.945 190.342 109.669 189.009 109.647 187.373L109.362 166.517C109.34 164.857 110.593 163.501 112.133 163.478L124.272 163.291C125.833 163.267 127.109 164.6 127.131 166.237L127.416 187.092C127.438 188.752 126.185 190.108 124.646 190.132Z" fill="#767FEC"/>
<path d="M112.44 190.786C110.659 190.786 109.208 189.267 109.186 187.373L108.9 166.517C108.878 164.6 110.307 163.034 112.111 163.01L124.272 162.823C125.151 162.8 125.965 163.151 126.581 163.805C127.196 164.46 127.548 165.325 127.57 166.237L127.856 187.092C127.878 188.027 127.548 188.893 126.933 189.547C126.317 190.202 125.503 190.576 124.646 190.599L112.506 190.786C112.484 190.786 112.462 190.786 112.44 190.786ZM124.316 163.759C124.294 163.759 124.294 163.759 124.272 163.759L112.132 163.946C110.813 163.969 109.779 165.115 109.779 166.517L110.065 187.373C110.087 188.752 111.143 189.875 112.44 189.875C112.462 189.875 112.462 189.875 112.484 189.875L124.624 189.687C125.261 189.687 125.855 189.407 126.295 188.916C126.735 188.425 126.977 187.794 126.977 187.116L126.691 166.26C126.691 165.582 126.427 164.951 125.965 164.483C125.525 164.016 124.931 163.759 124.316 163.759Z" fill="#9298F0"/>
<path d="M123.7 193.452L111.891 190.46C110.373 190.085 109.45 188.449 109.801 186.859L114.354 166.588C114.705 164.975 116.245 163.993 117.74 164.367L129.549 167.36C131.067 167.734 131.991 169.37 131.639 170.96L127.086 191.231C126.735 192.844 125.217 193.826 123.7 193.452Z" fill="#767FEC"/>
<path d="M124.36 193.99C124.096 193.99 123.854 193.967 123.59 193.897L111.781 190.904C110.923 190.693 110.219 190.132 109.757 189.337C109.296 188.542 109.164 187.631 109.362 186.719L113.914 166.448C114.332 164.601 116.091 163.432 117.85 163.876L129.659 166.869C130.517 167.079 131.221 167.64 131.683 168.435C132.144 169.23 132.276 170.165 132.078 171.054L127.526 191.348C127.328 192.26 126.801 193.008 126.053 193.499C125.525 193.826 124.953 193.99 124.36 193.99ZM123.788 192.985C124.404 193.148 125.041 193.031 125.591 192.681C126.141 192.33 126.515 191.769 126.669 191.114L131.221 170.843C131.529 169.487 130.737 168.108 129.462 167.804L117.652 164.811C117.036 164.648 116.399 164.765 115.849 165.115C115.299 165.466 114.925 166.027 114.771 166.682L110.219 186.953C109.911 188.309 110.703 189.688 111.978 189.992L123.788 192.985Z" fill="#9298F0"/>
<path d="M126.471 184.802L121.215 180.009L122.49 187.257L120.511 180.196L117.872 187.023L119.807 179.938L114.134 184.17L119.345 179.307L112.418 179.611L119.279 178.536L113.298 174.795L119.609 177.834L116.487 171.264L120.269 177.437L120.973 170.119L120.995 177.483L125.327 171.732L121.589 177.928L128.164 175.59L121.874 178.676L128.604 180.453L121.721 179.447L126.471 184.802Z" fill="#F5B44F"/>
<path d="M118.444 124.784L102.522 138.298L86.6004 124.784C79.1674 118.471 75.9566 108.09 78.3977 98.3171L81.1026 87.4686C81.1686 87.2581 81.2125 87.0243 81.2785 86.8139C82.642 81.9508 85.3909 77.8124 89.0194 74.8665C92.8019 71.7803 97.508 69.98 102.522 69.98C112.33 69.98 120.951 76.8304 123.744 86.7671C123.81 87.0009 123.876 87.2347 123.92 87.4686L126.646 98.3171C129.109 108.09 125.877 118.471 118.444 124.784Z" fill="#F5B44F"/>
<path d="M81.3884 94.8564L82.6199 99.6261C83.4776 102.969 86.1605 105.424 89.3932 105.822L99.0474 107.038L98.3657 103.414C97.7059 99.9534 95.111 97.2646 91.8343 96.6801L81.3884 94.8564Z" fill="#3D3D3D"/>
<path d="M123.392 94.8564L122.16 99.6261C121.303 102.969 118.62 105.424 115.387 105.822L105.733 107.038L106.415 103.414C107.074 99.9534 109.669 97.2646 112.946 96.6801L123.392 94.8564Z" fill="#3D3D3D"/>
<path d="M102.522 98.5977C102.962 105.121 103.05 111.901 103.072 118.448C103.05 124.994 102.962 131.798 102.522 138.298C102.082 131.798 101.994 124.994 101.972 118.448C101.994 111.901 102.082 105.121 102.522 98.5977Z" fill="#E29631"/>
<path d="M102.434 98.7141C102.456 98.6907 102.456 98.6674 102.478 98.644C102.5 98.6674 102.5 98.6907 102.522 98.7141H102.434Z" fill="#E8A847"/>
<path d="M123.744 86.7911L123.634 86.9782C115.387 86.6742 106.568 91.21 102.478 98.6684C98.3656 91.2334 89.5471 86.6742 81.3224 86.9782L81.2784 86.8379C82.6419 81.9747 85.3908 77.8364 89.0194 74.8905C92.8019 71.8043 97.508 70.004 102.522 70.004C112.33 69.9806 120.951 76.8544 123.744 86.7911Z" fill="#E29631"/>
<path d="M122.094 82.5119C116.398 83.1665 110.791 85.4812 106.568 89.6195C104.941 91.2094 103.6 93.1032 102.544 95.1607L102.06 94.2722C98.1238 87.2113 90.4488 83.377 82.9498 82.5119C90.7787 82.4184 98.9594 86.3697 103.028 93.6643H102.06C106.129 86.393 114.287 82.4184 122.094 82.5119Z" fill="#F5B44F"/>
<path d="M115.211 74.2121C114.705 76.6671 113.254 78.9583 111.253 80.3612C109.317 81.6939 107.382 83.0967 105.777 84.8268C104.479 86.2063 103.446 87.8429 102.566 89.5497C101.664 87.8429 100.631 86.1361 99.3773 84.7099C97.9479 83.0733 96.1886 81.7406 94.3414 80.6651L93.8136 80.3378C91.7464 79.0051 90.207 76.6437 89.9431 74.0952C90.6029 76.7372 92.3841 78.8414 94.6932 79.9169C95.0231 80.0806 95.4629 80.3144 95.7708 80.4781C98.8496 82.1147 101.357 84.8736 103.05 88.03H102.082C103.666 85.084 106.107 82.6525 108.834 80.9223C109.493 80.4781 110.197 80.0572 110.857 79.6598C112.858 78.4907 114.353 76.5034 115.211 74.2121Z" fill="#F5B44F"/>
<path d="M105.249 132.757L117.894 122.072C121.808 118.775 124.029 113.725 123.919 108.418L123.853 105.238C123.853 105.238 119.543 112.486 107.734 113.211L105.249 132.757Z" fill="#E29631"/>
<path d="M99.8611 132.757L87.2161 122.072C83.3017 118.775 81.0806 113.725 81.1905 108.418L81.2565 105.238C81.2565 105.238 85.5668 112.486 97.3761 113.211L99.8611 132.757Z" fill="#E29631"/>
<path d="M102.544 85.7848L99.7511 81.74L102.522 78.0459L105.491 81.74L102.544 85.7848Z" fill="#F5B44F"/>
<path d="M92.406 77.9998C96.4524 72.6457 105.447 72.2716 110.593 76.0358C111.362 76.6203 112.066 77.2984 112.616 78.0933C111.187 76.8308 109.537 76.0124 107.822 75.4747C102.742 73.955 96.6943 74.4226 92.406 77.9998Z" fill="#F5B44F"/>
<path d="M86.3365 77.4849C88.1397 79.4488 90.3608 81.0153 92.7139 82.161C91.4384 81.7635 90.2069 81.2491 89.0194 80.6178C87.8099 79.9632 86.6663 79.2384 85.5887 78.3266L86.3365 77.4849Z" fill="#F5B44F"/>
<path d="M119.477 78.3266C117.344 80.1035 114.903 81.3426 112.352 82.161C114.133 81.2959 115.827 80.197 117.322 78.8643C117.806 78.4201 118.312 77.9525 118.73 77.4849L119.477 78.3266Z" fill="#F5B44F"/>
<path d="M109.053 114.497L108.548 118.284C108.548 118.284 111.231 117.232 112.616 114.076C112.616 114.076 111.033 114.497 109.053 114.497Z" fill="#F5B44F"/>
<path d="M107.338 128.805C110.527 125.906 113.759 123.1 116.706 119.944C117.41 119.173 118.158 118.354 118.795 117.513C120.071 115.806 120.951 113.772 121.566 111.691C121.874 110.639 122.116 109.563 122.292 108.441C122.314 109.563 122.182 110.685 121.984 111.784C121.544 114.005 120.753 116.18 119.455 118.027C118.839 118.939 118.048 119.757 117.344 120.575C114.331 123.755 110.967 126.514 107.338 128.805Z" fill="#F5B44F"/>
<path d="M107.338 127.846C107.536 125.485 107.8 123.17 108.701 120.949C108.965 120.341 109.471 119.687 110.153 119.616C111.274 119.429 112.176 120.832 113.166 120.739C113.562 120.669 113.869 120.411 114.001 119.991C114.309 118.985 114.133 117.769 114.199 116.67C114.397 110.662 119.037 116.413 120.753 110.101C119.917 115.782 115.783 113.023 115.189 115.104C114.705 116.764 115.343 118.564 114.815 120.294C114.529 121.393 113.232 121.978 112.242 121.487C111.582 121.23 110.813 120.411 110.219 120.458C108.855 120.505 107.712 126.467 107.338 127.846Z" fill="#F5B44F"/>
<path d="M110.637 123.895C111.123 123.895 111.517 123.476 111.517 122.96C111.517 122.443 111.123 122.024 110.637 122.024C110.151 122.024 109.757 122.443 109.757 122.96C109.757 123.476 110.151 123.895 110.637 123.895Z" fill="#F5B44F"/>
<path d="M112.396 118.986C112.882 118.986 113.276 118.567 113.276 118.05C113.276 117.534 112.882 117.115 112.396 117.115C111.91 117.115 111.516 117.534 111.516 118.05C111.516 118.567 111.91 118.986 112.396 118.986Z" fill="#F5B44F"/>
<path d="M117.014 117.115C117.5 117.115 117.894 116.696 117.894 116.18C117.894 115.663 117.5 115.245 117.014 115.245C116.528 115.245 116.135 115.663 116.135 116.18C116.135 116.696 116.528 117.115 117.014 117.115Z" fill="#F5B44F"/>
<path d="M96.1666 114.497L96.6724 118.284C96.6724 118.284 93.9895 117.232 92.604 114.076C92.604 114.076 94.1874 114.497 96.1666 114.497Z" fill="#F5B44F"/>
<path d="M97.882 128.805C94.2534 126.514 90.8887 123.755 87.876 120.599C87.1502 119.78 86.3806 118.939 85.7648 118.05C84.4893 116.203 83.6756 114.029 83.2358 111.808C83.0379 110.709 82.9059 109.587 82.9279 108.464C83.1039 109.563 83.3458 110.639 83.6536 111.714C84.2694 113.795 85.149 115.829 86.4245 117.536C87.0623 118.378 87.81 119.196 88.5137 119.968C91.4605 123.101 94.6932 125.906 97.882 128.805Z" fill="#F5B44F"/>
<path d="M97.8818 127.846C97.508 126.49 96.3644 120.505 94.979 120.458C94.3852 120.411 93.6375 121.23 92.9558 121.487C91.9662 121.978 90.6907 121.417 90.3828 120.294C89.877 118.564 90.4928 116.764 90.009 115.104C89.4372 113.023 85.3028 115.782 84.4452 110.101C86.1605 116.413 90.8007 110.638 90.9986 116.67C91.0645 117.769 90.8886 118.985 91.1965 119.991C91.3284 120.435 91.6363 120.669 92.0322 120.739C93.0218 120.832 93.9234 119.429 95.045 119.616C95.7267 119.687 96.2325 120.341 96.4964 120.949C97.42 123.17 97.6839 125.485 97.8818 127.846Z" fill="#F5B44F"/>
<path d="M94.5831 123.895C95.069 123.895 95.4628 123.476 95.4628 122.96C95.4628 122.443 95.069 122.024 94.5831 122.024C94.0973 122.024 93.7035 122.443 93.7035 122.96C93.7035 123.476 94.0973 123.895 94.5831 123.895Z" fill="#F5B44F"/>
<path d="M92.824 118.986C93.3098 118.986 93.7036 118.567 93.7036 118.05C93.7036 117.534 93.3098 117.115 92.824 117.115C92.3382 117.115 91.9443 117.534 91.9443 118.05C91.9443 118.567 92.3382 118.986 92.824 118.986Z" fill="#F5B44F"/>
<path d="M88.2057 117.115C88.6915 117.115 89.0854 116.696 89.0854 116.18C89.0854 115.663 88.6915 115.245 88.2057 115.245C87.7199 115.245 87.326 115.663 87.326 116.18C87.326 116.696 87.7199 117.115 88.2057 117.115Z" fill="#F5B44F"/>
<path d="M122.028 195.557L115.035 206.428C115.035 206.428 108.35 203.88 101.51 197.1C97.9259 193.546 97.662 191.909 98.6956 191.114C98.8495 190.997 99.0254 190.88 99.2234 190.81C99.2234 190.81 99.1574 190.693 99.0694 190.506C98.7396 189.782 98.0798 187.958 99.3553 187.093C99.5312 186.976 99.7512 186.859 100.015 186.789C100.015 186.789 98.9815 184.708 100.345 183.936C102.126 182.955 105.887 187.444 110.065 190.226C109.867 190.039 105.051 185.573 103.798 183.96C102.346 182.113 104.325 180.242 106.041 181.809C107.448 183.095 115.079 189.548 115.079 189.548C115.079 189.548 113.826 186.836 114.485 184.802C114.991 183.258 116.574 183.492 116.838 184.334C117.52 186.532 119.257 189.314 120.753 191.068C122.754 193.452 122.028 195.557 122.028 195.557Z" fill="#FFCBA3"/>
<path d="M107.91 194.224C107.844 194.318 107.734 194.388 107.624 194.388C107.558 194.388 107.492 194.364 107.448 194.341C106.305 193.546 101.709 189.525 99.3335 187.093C99.5094 186.976 99.7293 186.859 99.9932 186.789C102.324 189.15 106.723 192.985 107.8 193.756C107.976 193.85 108.02 194.06 107.91 194.224Z" fill="#E99A5F"/>
<path d="M106.04 197.24C105.975 197.357 105.865 197.404 105.755 197.404C105.689 197.404 105.623 197.381 105.579 197.357C103.204 195.744 100.191 193.196 98.6954 191.115C98.8494 190.998 99.0253 190.881 99.2232 190.811C99.2232 190.811 99.1573 190.694 99.0693 190.507C99.0913 190.53 99.1133 190.554 99.1353 190.577C100.521 192.611 103.643 195.206 105.931 196.773C106.084 196.843 106.128 197.077 106.04 197.24Z" fill="#E99A5F"/>
<path d="M114.156 207.832L122.732 194.271L129.549 197.31L130.649 219.756L114.156 207.832Z" fill="#7E46E8"/>
<path d="M106.92 224.292C106.722 225.157 105.381 225.531 104.875 225.671C104.765 225.695 104.677 225.718 104.677 225.718C104.589 225.928 104.479 226.115 104.369 226.256C103.798 227.004 102.94 227.168 102.368 227.214C102.016 227.238 101.796 227.214 101.796 227.214C101.73 227.425 101.598 227.612 101.422 227.775C100.059 229.132 95.8807 229.552 92.8019 228.57C88.6236 227.238 82.9279 222.117 82.9279 222.117L87.612 210.731C92.8019 208.697 95.4409 209.305 98.5196 209.024C100.279 208.861 101.357 208.603 101.972 208.416C102.566 208.229 103.204 208.603 103.336 209.235C103.446 209.749 103.38 210.427 102.764 211.222C101.291 213.093 97.3761 212.929 97.3761 212.929C97.3761 212.929 105.205 216.904 106.898 219.779C107.558 220.878 106.986 221.463 106.393 221.767C105.997 221.977 105.601 222.024 105.601 222.024C105.601 222.024 105.733 222.141 105.931 222.304C106.371 222.725 107.096 223.544 106.92 224.292Z" fill="#FFCBA3"/>
<path d="M102.39 227.214C102.038 227.237 101.819 227.214 101.819 227.214C101.753 227.424 101.621 227.611 101.445 227.775C99.8833 227.611 96.1228 227.05 92.9121 225.577C92.7362 225.507 92.6702 225.297 92.7362 225.11C92.8021 224.923 93 224.853 93.176 224.923C97.1344 226.746 102.148 227.12 102.214 227.12C102.258 227.12 102.324 227.144 102.39 227.214Z" fill="#E99A5F"/>
<path d="M104.875 225.671C104.765 225.694 104.677 225.718 104.677 225.718C104.589 225.928 104.479 226.115 104.369 226.255C102.764 225.811 98.1457 224.408 94.1433 222.234C93.9893 222.141 93.9234 221.93 93.9893 221.766C94.0773 221.603 94.2752 221.533 94.4292 221.603C98.7394 223.917 103.775 225.367 104.875 225.671Z" fill="#E99A5F"/>
<path d="M105.601 222C105.601 222 105.733 222.117 105.931 222.281C104.699 221.743 99.8832 219.662 96.1887 218.002C96.0128 217.932 95.9468 217.722 96.0128 217.535C96.0787 217.347 96.2767 217.277 96.4526 217.347C100.433 219.148 105.733 221.439 106.415 221.743C105.997 221.93 105.601 222 105.601 222Z" fill="#E99A5F"/>
<path d="M88.2058 209.001L82.0482 224.198L74.3513 220.223L75.4509 198.479L88.2058 209.001Z" fill="#7E46E8"/>
</g>
<path d="M301.764 286.999H228.486C226.455 286.999 224.822 285.242 224.844 283.11L225.771 183.781C225.771 160.706 243.384 142.011 265.125 142.011C286.865 142.011 304.478 160.706 304.478 183.781L305.405 283.11C305.405 285.266 303.772 286.999 301.764 286.999Z" fill="#6232B8"/>
<path d="M263.403 286.999L265.5 210.44L267.376 286.999H263.403Z" fill="#552CA1"/>
<path d="M249.653 287L253.096 223.794L253.626 287H249.653Z" fill="#552CA1"/>
<path d="M277.132 287L277.926 223.794L281.104 287H277.132Z" fill="#552CA1"/>
<path d="M292.317 286.999L288.896 212.549L296.29 286.999H292.317Z" fill="#552CA1"/>
<path d="M234.6 286.999L241.994 212.549L238.573 286.999H234.6Z" fill="#552CA1"/>
<path d="M316.397 271.796H294.59L290.132 183.875C289.095 169.491 279.802 157.333 266.868 153.21C266.471 153.093 266.052 152.952 265.654 152.858L262.542 152.015L259.165 152.858C258.768 152.976 258.393 153.093 257.996 153.21C245.018 157.31 236.343 169.562 234.688 183.899C234.467 185.82 234.247 187.952 234.048 190.271C233.518 196.245 233.033 203.32 232.613 210.769C231.024 238.671 230.23 271.843 230.23 271.843H214.603C212.528 271.843 210.895 269.992 211.005 267.79C211.756 254.741 212.528 212.667 218.708 172.912C220.96 158.411 226.036 146.393 238.639 139.763C240.272 138.896 242.038 138.123 243.914 137.444C246.541 136.507 249.388 135.757 252.522 135.195L265.412 132.875L278.5 135.195C281.546 135.851 284.327 136.647 286.887 137.608C288.741 138.31 290.485 139.084 292.118 139.95C304.898 146.674 310.658 158.2 312.292 172.888C316.662 212.362 319.244 254.741 319.995 267.767C320.105 269.945 318.472 271.796 316.397 271.796Z" fill="#7E46E8"/>
<path d="M292.118 139.927L263.734 156.396L238.639 139.716C240.272 138.849 242.038 138.076 243.914 137.42L265.544 150.398L286.888 137.607C288.742 138.287 290.485 139.083 292.118 139.927Z" fill="#6232B8"/>
<g opacity="0.8">
<path d="M246.717 143.675C246.055 144.003 244.532 144.776 243.892 145.08C235.019 149.414 228.155 157.825 225.286 167.757C224.447 170.545 224.072 173.38 223.696 176.285C222.924 181.907 220.938 196.736 220.143 202.523C220.651 196.596 221.909 181.814 222.394 176.121C222.814 166.961 225.771 158.27 231.51 151.289C234.556 147.54 238.308 144.401 242.457 142.082C243.097 141.707 244.576 140.887 245.216 140.536L246.717 143.675Z" fill="#6232B8"/>
</g>
<g opacity="0.8">
<path d="M254.089 148.313C252.764 149.086 249.542 150.983 248.262 151.709C242.612 154.942 237.535 159.511 234.423 165.508C233.032 168.155 232.017 171.036 231.355 174.012C230.715 176.635 230.406 180.501 230.075 183.218C229.391 189.216 227.581 205.052 226.875 211.237C227.316 204.912 228.42 189.169 228.839 183.078C229.06 180.243 229.214 176.378 229.744 173.637C230.296 170.474 231.223 167.382 232.591 164.477C236.012 157.051 242.016 151.78 248.637 147.727L252.411 145.267L254.089 148.313Z" fill="#6232B8"/>
</g>
<g opacity="0.8">
<path d="M284.239 140.301C284.879 140.652 286.38 141.519 286.998 141.847C297.526 147.633 305.118 158.995 306.641 171.458C307.458 179.517 308.562 194.112 309.312 202.288C308.517 196.384 306.531 181.719 305.758 176.05C305.383 173.145 305.008 170.31 304.169 167.523C301.3 157.59 294.436 149.18 285.563 144.846C284.923 144.518 283.4 143.768 282.738 143.44L284.239 140.301Z" fill="#6232B8"/>
</g>
<g opacity="0.8">
<path d="M277.043 145.057C278.346 145.9 281.458 147.962 282.694 148.758C291.39 154.216 297.967 162.697 299.711 173.45C299.998 175.019 300.174 176.612 300.285 178.205C300.903 186.733 301.962 202.382 302.58 211.05C301.565 202.335 299.821 186.897 298.85 178.346C298.674 176.823 298.431 175.301 298.1 173.801C295.65 162.51 288.719 155.458 279.273 150.351L275.388 148.079L277.043 145.057Z" fill="#6232B8"/>
</g>
<path d="M273.666 48C273.666 48 244.753 61.3532 236.365 84.78L266.78 81.2659H267.111L305.229 110.221C306.112 71.0988 273.666 48 273.666 48Z" fill="#6232B8"/>
<path d="M271.194 63.4624C258.415 61.9397 245.944 68.3352 239.08 79.8611C233.893 88.5993 230.848 96.4941 228.022 103.218C224.204 112.354 225.793 122.802 233.297 128.846C241.42 135.382 261.814 152.578 261.814 152.578L296.422 136.601C305.052 132.618 309.113 122.568 306.906 112.846C305.207 105.396 302.779 96.9626 299.071 86.9828C294.347 74.309 283.974 64.9851 271.194 63.4624Z" fill="#7E46E8"/>
<path d="M263.293 160.05C267.986 160.05 271.79 156.012 271.79 151.031C271.79 146.049 267.986 142.011 263.293 142.011C258.6 142.011 254.795 146.049 254.795 151.031C254.795 156.012 258.6 160.05 263.293 160.05Z" fill="#F5B44F"/>
<path d="M263.293 160.495C258.371 160.495 254.354 156.232 254.354 151.007C254.354 145.783 258.371 141.52 263.293 141.52C268.215 141.52 272.232 145.783 272.232 151.007C272.232 156.232 268.215 160.495 263.293 160.495ZM263.293 142.48C258.856 142.48 255.237 146.322 255.237 151.031C255.237 155.74 258.856 159.582 263.293 159.582C267.729 159.582 271.349 155.74 271.349 151.031C271.349 146.322 267.729 142.48 263.293 142.48Z" fill="#FFDF8B"/>
<path d="M268.855 157.005L263.977 152.273L264.97 159.207L263.293 152.414L260.6 158.832L262.631 152.156L257.091 155.998L262.211 151.547L255.59 151.617L262.167 150.797L256.561 147.072L262.52 150.141L259.717 143.793L263.138 149.79L264.021 142.832L263.845 149.86L268.127 144.519L264.397 150.305L270.731 148.267L264.639 151.008L270.996 152.929L264.485 151.734L268.855 157.005Z" fill="#FFDF8B"/>
<path d="M295.385 205.006C295.606 205.31 296.466 206.599 295.606 207.793C294.635 209.129 292.847 210.136 292.207 209.363C291.809 208.871 292.03 208.075 292.052 208.028C291.964 208.098 290.022 209.691 284.327 211.12C278.478 212.596 275.057 210.464 275.057 210.464L275.83 198.282C275.83 198.282 284.592 195.307 291.346 194.604C292.494 194.487 295.826 194.393 296.18 195.822C296.378 196.642 296.224 197.462 296.047 198.001C295.937 198.329 295.848 198.54 295.804 198.634C295.782 198.657 295.782 198.657 295.782 198.657C295.782 198.657 296.731 199.407 296.135 200.906C296.047 201.093 295.959 201.304 295.804 201.539C295.937 201.609 297.371 202.64 295.871 204.42C295.738 204.584 295.584 204.748 295.385 204.935C295.341 204.935 295.363 204.959 295.385 205.006Z" fill="#FFCBA3"/>
<path d="M295.826 204.443C294.678 203.834 293.133 203.974 291.633 204.888C291.478 204.982 291.412 205.193 291.5 205.357C291.566 205.474 291.677 205.544 291.787 205.544C291.853 205.544 291.897 205.521 291.942 205.497C293.575 204.513 294.745 204.724 295.385 205.005L295.826 204.443Z" fill="#E99A5F"/>
<path d="M296.069 200.93C295.981 201.117 295.893 201.328 295.738 201.562C294.303 201.117 293.001 201.726 292.339 202.031C292.295 202.054 292.251 202.054 292.207 202.054C292.074 202.054 291.964 201.984 291.898 201.844C291.831 201.656 291.898 201.469 292.074 201.375C292.803 201.047 294.348 200.321 296.069 200.93Z" fill="#E99A5F"/>
<path d="M296.003 198.001C295.076 197.509 293.332 197.743 292.052 198.305C291.876 198.375 291.81 198.586 291.876 198.774C291.92 198.914 292.052 198.984 292.185 198.984C292.229 198.984 292.273 198.984 292.317 198.961C293.686 198.352 295.187 198.328 295.738 198.656L296.003 198.001Z" fill="#E99A5F"/>
<path d="M280.288 211.94C278.346 211.94 276.58 211.542 274.925 210.745C274.748 210.675 274.682 210.464 274.748 210.277C274.814 210.089 275.013 210.019 275.189 210.089C277.794 211.331 280.509 211.542 283.974 210.792C286.821 210.183 288.83 209.386 291.898 207.676C292.758 207.208 293.376 206.903 293.398 206.903C293.575 206.833 293.752 206.903 293.84 207.091C293.928 207.278 293.84 207.465 293.663 207.559C293.663 207.559 293.023 207.84 292.207 208.309C289.072 210.066 287.02 210.862 284.106 211.495C282.738 211.799 281.48 211.94 280.288 211.94Z" fill="#E99A5F"/>
<path d="M276.293 206.153C276.271 206.317 276.249 206.481 276.227 206.645C275.829 209.198 275.167 211.939 274.13 214.352C274.13 214.352 256.782 215.477 242.281 213.509C237.359 212.83 236.807 212.361 234.71 211.728C235.593 204.326 235.196 197.298 236.1 191.394C240.824 192.027 245.503 193.596 248.416 194.791C251.065 195.892 258.658 196.454 265.323 196.759C265.588 196.759 265.831 196.782 266.096 196.782C271.923 197.016 276.867 197.063 276.867 197.063C276.867 197.063 277.021 201.257 276.293 206.153Z" fill="#7E46E8"/>
<path d="M291.037 90.5905C289.404 79.3223 281.325 70.3498 270.687 68.8271C260.026 67.3043 249.741 73.5593 245.636 84.1013L236.984 106.193C234.49 112.541 235.902 119.85 240.537 124.653L260.931 145.831L285.872 131.119C291.545 127.792 294.502 121.139 293.884 114.298C293.31 107.973 291.986 97.1969 291.037 90.5905Z" fill="#6232B8"/>
<path d="M276.293 206.154C275.94 206.342 275.653 206.459 275.432 206.529C273.666 206.998 270.576 205.592 269.583 204.187C269.053 203.437 267.839 200.907 266.074 196.831C271.901 197.065 276.845 197.112 276.845 197.112C276.845 197.112 277.021 201.258 276.293 206.154Z" fill="#6232B8"/>
<path d="M263.933 152.248C263.933 152.248 263.47 150.702 263.47 150.234C263.47 149.742 265.522 147.938 267.111 143.627C268.215 140.605 270.842 136.576 273.38 133.648C275.918 130.719 272.276 130.415 269.142 132.57C266.162 134.631 262.189 136.974 260.865 137.677C260.247 138.005 257.422 132.828 253.802 129.712C252.809 128.845 249.653 129.806 250.558 132.195C251.463 134.608 251.463 134.608 251.463 134.608C251.463 134.608 250.558 134.608 249.653 135.1C248.748 135.592 249.189 138.473 249.189 138.473C249.189 138.473 248.284 138.473 247.821 138.965C247.357 139.457 246.916 141.847 246.916 141.847C246.916 141.847 245.548 140.394 244.201 141.847C242.855 143.299 245.194 145.783 245.57 146.649C246.739 149.39 248.593 152.131 250.58 153.959C253.008 156.184 253.03 157.941 253.03 157.941L263.933 152.248Z" fill="#FFCBA3"/>
<path d="M266.14 151.147L251.904 158.433C251.904 158.433 257.267 171.622 261.284 181.672C266.14 193.878 269.495 201.374 270.466 202.803C271.437 204.209 274.549 205.615 276.315 205.146C277.75 204.771 282.252 201.702 288.786 194.065C289.117 193.667 288.454 184.296 286.909 178.205C285.828 173.895 282.782 167.968 282.495 168.366C279.847 172.114 277.97 176.87 277.97 176.87L266.14 151.147Z" fill="#7E46E8"/>
<path d="M278.434 175.184C279.626 177.738 280.597 180.502 280.95 183.337C280.442 181.275 279.537 179.377 278.566 177.55C278.235 176.941 277.882 176.355 277.507 175.793L278.434 175.184Z" fill="#6232B8"/>
<path d="M278.765 127.3L261.042 138.147L247.159 122.217C240.67 114.791 238.948 103.967 242.766 94.6904L247.004 84.3826C247.092 84.1718 247.181 83.9609 247.269 83.7501C249.3 79.135 252.632 75.4805 256.627 73.1378C260.799 70.678 265.743 69.6472 270.709 70.4672C280.443 72.0367 288.013 80.1892 289.404 90.497C289.426 90.7313 289.47 90.989 289.492 91.2232L290.662 102.398C291.699 112.471 287.042 122.24 278.765 127.3Z" fill="#F5B44F"/>
<path d="M246.232 91.7378L246.783 96.6574C247.159 100.101 249.476 102.959 252.632 103.896L262.035 106.637L261.88 102.936C261.726 99.3983 259.519 96.3294 256.34 95.2284L246.232 91.7378Z" fill="#3D3D3D"/>
<path d="M287.903 98.4375L286.005 102.959C284.68 106.145 281.657 108.136 278.39 108.019L268.634 107.668L269.826 104.177C270.974 100.85 273.931 98.6015 277.264 98.5546L287.903 98.4375Z" fill="#3D3D3D"/>
<path d="M266.67 98.8135C266.184 105.326 265.301 112.096 264.397 118.562C263.447 125.051 262.41 131.751 261.042 138.147C261.527 131.634 262.41 124.864 263.315 118.398C264.264 111.932 265.301 105.209 266.67 98.8135Z" fill="#E29631"/>
<path d="M266.56 98.9303C266.582 98.9068 266.604 98.8834 266.604 98.8599C266.626 98.8834 266.626 98.9068 266.626 98.9538L266.56 98.9303Z" fill="#E8A847"/>
<path d="M289.404 90.496L289.271 90.66C281.149 89.0436 271.746 92.1359 266.626 98.8594C263.602 90.824 255.502 84.9205 247.291 83.9131L247.269 83.7726C249.3 79.1575 252.632 75.5029 256.627 73.1603C260.799 70.7005 265.743 69.6697 270.709 70.4896C280.442 72.0358 288.035 80.2117 289.404 90.496Z" fill="#E29631"/>
<path d="M288.366 85.9986C282.628 85.7409 276.735 87.1465 271.945 90.5668C270.091 91.8787 268.502 93.542 267.178 95.3927L266.824 94.4322C263.911 86.7951 256.848 81.7818 249.52 79.7202C257.289 80.8681 264.86 86.0923 267.862 93.9871L266.891 93.8231C271.989 87.287 280.641 84.6633 288.366 85.9986Z" fill="#F5B44F"/>
<path d="M282.694 76.6749C281.855 79.0175 280.068 81.0557 277.882 82.1333C275.786 83.1406 273.645 84.2183 271.813 85.6942C270.334 86.8421 269.076 88.3179 267.95 89.8641C267.288 88.0134 266.516 86.1861 265.478 84.5697C264.308 82.719 262.741 81.1025 261.064 79.7672L260.578 79.3455C258.702 77.7056 257.51 75.1053 257.621 72.5518C257.908 75.2693 259.386 77.6354 261.505 79.0878C261.814 79.2987 262.212 79.6032 262.499 79.814C265.324 81.9459 267.42 85.0616 268.656 88.4585L267.685 88.2945C269.672 85.6239 272.453 83.6092 275.388 82.3441C276.117 82.0162 276.867 81.7116 277.573 81.4305C279.781 80.5403 281.524 78.8301 282.694 76.6749Z" fill="#F5B44F"/>
<path d="M264.551 133.086L278.611 124.512C282.959 121.865 285.894 117.227 286.534 111.932L286.932 108.793C286.932 108.793 281.634 115.282 269.804 114.111L264.551 133.086Z" fill="#E29631"/>
<path d="M259.21 132.243L248.174 119.639C244.775 115.751 243.274 110.386 244.113 105.138L244.62 101.999C244.62 101.999 247.887 109.87 259.497 112.471L259.21 132.243Z" fill="#E29631"/>
<path d="M268.502 86.1156L266.295 81.688L269.583 78.4551L271.989 82.6016L268.502 86.1156Z" fill="#F5B44F"/>
<path d="M259.563 76.7918C264.33 72.1533 273.313 73.2075 277.882 77.7289C278.566 78.4317 279.162 79.2048 279.604 80.0715C278.368 78.5957 276.845 77.518 275.211 76.6981C270.356 74.4257 264.286 73.9572 259.563 76.7918Z" fill="#F5B44F"/>
<path d="M253.604 75.3164C255.104 77.5419 257.091 79.4629 259.276 80.9622C258.062 80.3532 256.914 79.6504 255.833 78.8304C254.707 77.9871 253.692 77.0968 252.743 76.0192C252.721 76.0192 253.604 75.3164 253.604 75.3164Z" fill="#F5B44F"/>
<path d="M286.358 81.4302C283.996 82.8358 281.392 83.6792 278.743 84.1009C280.641 83.5386 282.473 82.6953 284.151 81.6176C284.702 81.2662 285.254 80.868 285.74 80.4697L286.358 81.4302Z" fill="#F5B44F"/>
<path d="M270.908 115.61L269.87 119.288C269.87 119.288 272.673 118.656 274.505 115.751C274.505 115.774 272.872 115.938 270.908 115.61Z" fill="#F5B44F"/>
<path d="M267.177 129.503C270.753 127.136 274.351 124.864 277.728 122.217C278.544 121.561 279.405 120.882 280.133 120.155C281.634 118.656 282.804 116.805 283.709 114.837C284.172 113.854 284.57 112.823 284.901 111.745C284.768 112.87 284.459 113.947 284.106 115.025C283.356 117.157 282.252 119.171 280.729 120.811C279.979 121.608 279.096 122.311 278.257 122.99C274.836 125.614 271.106 127.816 267.177 129.503Z" fill="#F5B44F"/>
<path d="M267.31 128.565C267.839 126.269 268.413 123.996 269.649 121.958C270.002 121.396 270.576 120.834 271.283 120.881C272.43 120.881 273.115 122.403 274.108 122.474C274.505 122.474 274.836 122.263 275.035 121.865C275.476 120.928 275.476 119.686 275.697 118.608C276.756 112.681 280.531 119.124 283.135 113.15C281.502 118.655 277.794 115.258 276.911 117.226C276.205 118.796 276.558 120.67 275.807 122.31C275.366 123.364 273.997 123.715 273.092 123.083C272.474 122.731 271.834 121.794 271.238 121.724C269.848 121.537 267.884 127.253 267.31 128.565Z" fill="#F5B44F"/>
<path d="M271.283 125.192C271.77 125.192 272.166 124.772 272.166 124.255C272.166 123.737 271.77 123.318 271.283 123.318C270.795 123.318 270.4 123.737 270.4 124.255C270.4 124.772 270.795 125.192 271.283 125.192Z" fill="#F5B44F"/>
<path d="M273.711 120.6C274.198 120.6 274.593 120.18 274.593 119.663C274.593 119.145 274.198 118.726 273.711 118.726C273.223 118.726 272.828 119.145 272.828 119.663C272.828 120.18 273.223 120.6 273.711 120.6Z" fill="#F5B44F"/>
<path d="M278.566 119.475C279.054 119.475 279.449 119.056 279.449 118.538C279.449 118.021 279.054 117.601 278.566 117.601C278.079 117.601 277.684 118.021 277.684 118.538C277.684 119.056 278.079 119.475 278.566 119.475Z" fill="#F5B44F"/>
<path d="M258.106 113.549L258.062 117.391C258.062 117.391 255.546 115.915 254.619 112.565C254.641 112.565 256.142 113.244 258.106 113.549Z" fill="#F5B44F"/>
<path d="M257.797 128.002C254.53 125.144 251.573 121.888 249.035 118.28C248.439 117.367 247.777 116.406 247.291 115.422C246.276 113.384 245.79 111.112 245.68 108.839C245.636 107.715 245.658 106.567 245.834 105.466C245.856 106.59 245.945 107.691 246.099 108.792C246.408 110.948 247.004 113.103 248.019 115C248.527 115.938 249.145 116.851 249.741 117.741C252.235 121.326 255.038 124.629 257.797 128.002Z" fill="#F5B44F"/>
<path d="M257.929 127.066C257.709 124.793 257.576 122.427 256.892 120.272C256.451 119.03 255.877 119.077 254.795 119.663C254.398 119.85 253.935 120.061 253.449 120.061C252.544 120.108 251.683 119.335 251.573 118.398C251.308 116.617 252.169 114.931 251.948 113.197C251.661 111.042 247.181 113.127 247.136 107.34C247.953 113.876 253.361 108.886 252.699 114.884C252.61 115.985 252.257 117.156 252.434 118.21C252.5 118.655 252.765 118.96 253.162 119.101C254.133 119.335 255.215 118.117 256.318 118.468C257.002 118.655 257.4 119.382 257.576 120.014C258.128 122.333 258.062 124.7 257.929 127.066Z" fill="#F5B44F"/>
<path d="M255.347 122.614C255.835 122.614 256.23 122.195 256.23 121.677C256.23 121.16 255.835 120.74 255.347 120.74C254.86 120.74 254.464 121.16 254.464 121.677C254.464 122.195 254.86 122.614 255.347 122.614Z" fill="#F5B44F"/>
<path d="M254.288 117.484C254.775 117.484 255.171 117.065 255.171 116.547C255.171 116.03 254.775 115.61 254.288 115.61C253.8 115.61 253.405 116.03 253.405 116.547C253.405 117.065 253.8 117.484 254.288 117.484Z" fill="#F5B44F"/>
<path d="M249.984 114.883C250.471 114.883 250.867 114.464 250.867 113.946C250.867 113.429 250.471 113.009 249.984 113.009C249.496 113.009 249.101 113.429 249.101 113.946C249.101 114.464 249.496 114.883 249.984 114.883Z" fill="#F5B44F"/>
<defs>
<clipPath id="clip0_3010_17267">
<rect width="109" height="239" fill="white" transform="translate(48 48)"/>
</clipPath>
</defs>
</svg>
