<svg width="516" height="1032" viewBox="0 0 516 1032" fill="none" xmlns="http://www.w3.org/2000/svg">
<path d="M86 43L129 86L86 129L43 86L86 43Z" fill="#6232B8" fill-opacity="0.55"/>
<path d="M86 129L129 172L86 215L43 172L86 129Z" fill="#6232B8" fill-opacity="0.55"/>
<path d="M86 215L129 258L86 301L43 258L86 215Z" fill="#6232B8" fill-opacity="0.55"/>
<path d="M86 301L129 344L86 387L43 344L86 301Z" fill="#6232B8" fill-opacity="0.55"/>
<path d="M86 387L129 430L86 473L43 430L86 387Z" fill="#6232B8" fill-opacity="0.55"/>
<path d="M86 473L129 516L86 559L43 516L86 473Z" fill="#6232B8" fill-opacity="0.55"/>
<path d="M86 559L129 602L86 645L43 602L86 559Z" fill="#6232B8" fill-opacity="0.55"/>
<path d="M86 645L129 688L86 731L43 688L86 645Z" fill="#6232B8" fill-opacity="0.55"/>
<path d="M86 731L129 774L86 817L43 774L86 731Z" fill="#6232B8" fill-opacity="0.55"/>
<path d="M86 817L129 860L86 903L43 860L86 817Z" fill="#6232B8" fill-opacity="0.55"/>
<path d="M86 903L129 946L86 989L43 946L86 903Z" fill="#6232B8" fill-opacity="0.55"/>
<path d="M172 43L215 86L172 129L129 86L172 43Z" fill="#6232B8" fill-opacity="0.55"/>
<path d="M172 129L215 172L172 215L129 172L172 129Z" fill="#6232B8" fill-opacity="0.55"/>
<path d="M172 215L215 258L172 301L129 258L172 215Z" fill="#6232B8" fill-opacity="0.55"/>
<path d="M172 301L215 344L172 387L129 344L172 301Z" fill="#6232B8" fill-opacity="0.55"/>
<path d="M172 387L215 430L172 473L129 430L172 387Z" fill="#6232B8" fill-opacity="0.55"/>
<path d="M172 473L215 516L172 559L129 516L172 473Z" fill="#6232B8" fill-opacity="0.55"/>
<path d="M172 559L215 602L172 645L129 602L172 559Z" fill="#6232B8" fill-opacity="0.55"/>
<path d="M172 645L215 688L172 731L129 688L172 645Z" fill="#6232B8" fill-opacity="0.55"/>
<path d="M172 731L215 774L172 817L129 774L172 731Z" fill="#6232B8" fill-opacity="0.55"/>
<path d="M172 817L215 860L172 903L129 860L172 817Z" fill="#6232B8" fill-opacity="0.55"/>
<path d="M172 903L215 946L172 989L129 946L172 903Z" fill="#6232B8" fill-opacity="0.55"/>
<path d="M258 43L301 86L258 129L215 86L258 43Z" fill="#6232B8" fill-opacity="0.55"/>
<path d="M258 129L301 172L258 215L215 172L258 129Z" fill="#6232B8" fill-opacity="0.55"/>
<path d="M258 215L301 258L258 301L215 258L258 215Z" fill="#6232B8" fill-opacity="0.55"/>
<path d="M258 301L301 344L258 387L215 344L258 301Z" fill="#6232B8" fill-opacity="0.55"/>
<path d="M258 387L301 430L258 473L215 430L258 387Z" fill="#6232B8" fill-opacity="0.55"/>
<path d="M258 473L301 516L258 559L215 516L258 473Z" fill="#6232B8" fill-opacity="0.55"/>
<path d="M258 559L301 602L258 645L215 602L258 559Z" fill="#6232B8" fill-opacity="0.55"/>
<path d="M258 645L301 688L258 731L215 688L258 645Z" fill="#6232B8" fill-opacity="0.55"/>
<path d="M258 731L301 774L258 817L215 774L258 731Z" fill="#6232B8" fill-opacity="0.55"/>
<path d="M258 817L301 860L258 903L215 860L258 817Z" fill="#6232B8" fill-opacity="0.55"/>
<path d="M258 903L301 946L258 989L215 946L258 903Z" fill="#6232B8" fill-opacity="0.55"/>
<path d="M344 43L387 86L344 129L301 86L344 43Z" fill="#6232B8" fill-opacity="0.55"/>
<path d="M344 129L387 172L344 215L301 172L344 129Z" fill="#6232B8" fill-opacity="0.55"/>
<path d="M344 215L387 258L344 301L301 258L344 215Z" fill="#6232B8" fill-opacity="0.55"/>
<path d="M344 301L387 344L344 387L301 344L344 301Z" fill="#6232B8" fill-opacity="0.55"/>
<path d="M344 387L387 430L344 473L301 430L344 387Z" fill="#6232B8" fill-opacity="0.55"/>
<path d="M344 473L387 516L344 559L301 516L344 473Z" fill="#6232B8" fill-opacity="0.55"/>
<path d="M344 559L387 602L344 645L301 602L344 559Z" fill="#6232B8" fill-opacity="0.55"/>
<path d="M344 645L387 688L344 731L301 688L344 645Z" fill="#6232B8" fill-opacity="0.55"/>
<path d="M344 731L387 774L344 817L301 774L344 731Z" fill="#6232B8" fill-opacity="0.55"/>
<path d="M344 817L387 860L344 903L301 860L344 817Z" fill="#6232B8" fill-opacity="0.55"/>
<path d="M344 903L387 946L344 989L301 946L344 903Z" fill="#6232B8" fill-opacity="0.55"/>
<path d="M430 43L473 86L430 129L387 86L430 43Z" fill="#6232B8" fill-opacity="0.55"/>
<path d="M43 0L86 43L43 86L0 43L43 0Z" fill="#7E46E8" fill-opacity="0.55"/>
<path d="M43 86L86 129L43 172L0 129L43 86Z" fill="#7E46E8" fill-opacity="0.55"/>
<path d="M43 172L86 215L43 258L0 215L43 172Z" fill="#7E46E8" fill-opacity="0.55"/>
<path d="M43 258L86 301L43 344L0 301L43 258Z" fill="#7E46E8" fill-opacity="0.55"/>
<path d="M43 344L86 387L43 430L0 387L43 344Z" fill="#7E46E8" fill-opacity="0.55"/>
<path d="M43 430L86 473L43 516L0 473L43 430Z" fill="#7E46E8" fill-opacity="0.55"/>
<path d="M43 516L86 559L43 602L0 559L43 516Z" fill="#7E46E8" fill-opacity="0.55"/>
<path d="M43 602L86 645L43 688L0 645L43 602Z" fill="#7E46E8" fill-opacity="0.55"/>
<path d="M43 688L86 731L43 774L0 731L43 688Z" fill="#7E46E8" fill-opacity="0.55"/>
<path d="M43 774L86 817L43 860L0 817L43 774Z" fill="#7E46E8" fill-opacity="0.55"/>
<path d="M43 860L86 903L43 946L0 903L43 860Z" fill="#7E46E8" fill-opacity="0.55"/>
<path d="M43 946L86 989L43 1032L0 989L43 946Z" fill="#7E46E8" fill-opacity="0.55"/>
<path d="M129 0L172 43L129 86L86 43L129 0Z" fill="#7E46E8" fill-opacity="0.55"/>
<path d="M129 86L172 129L129 172L86 129L129 86Z" fill="#7E46E8" fill-opacity="0.55"/>
<path d="M129 172L172 215L129 258L86 215L129 172Z" fill="#7E46E8" fill-opacity="0.55"/>
<path d="M129 258L172 301L129 344L86 301L129 258Z" fill="#7E46E8" fill-opacity="0.55"/>
<path d="M129 344L172 387L129 430L86 387L129 344Z" fill="#7E46E8" fill-opacity="0.55"/>
<path d="M129 430L172 473L129 516L86 473L129 430Z" fill="#7E46E8" fill-opacity="0.55"/>
<path d="M129 516L172 559L129 602L86 559L129 516Z" fill="#7E46E8" fill-opacity="0.55"/>
<path d="M129 602L172 645L129 688L86 645L129 602Z" fill="#7E46E8" fill-opacity="0.55"/>
<path d="M129 688L172 731L129 774L86 731L129 688Z" fill="#7E46E8" fill-opacity="0.55"/>
<path d="M129 774L172 817L129 860L86 817L129 774Z" fill="#7E46E8" fill-opacity="0.55"/>
<path d="M129 860L172 903L129 946L86 903L129 860Z" fill="#7E46E8" fill-opacity="0.55"/>
<path d="M129 946L172 989L129 1032L86 989L129 946Z" fill="#7E46E8" fill-opacity="0.55"/>
<path d="M215 0L258 43L215 86L172 43L215 0Z" fill="#7E46E8" fill-opacity="0.55"/>
<path d="M215 86L258 129L215 172L172 129L215 86Z" fill="#7E46E8" fill-opacity="0.55"/>
<path d="M215 172L258 215L215 258L172 215L215 172Z" fill="#7E46E8" fill-opacity="0.55"/>
<path d="M215 258L258 301L215 344L172 301L215 258Z" fill="#7E46E8" fill-opacity="0.55"/>
<path d="M215 344L258 387L215 430L172 387L215 344Z" fill="#7E46E8" fill-opacity="0.55"/>
<path d="M215 430L258 473L215 516L172 473L215 430Z" fill="#7E46E8" fill-opacity="0.55"/>
<path d="M215 516L258 559L215 602L172 559L215 516Z" fill="#7E46E8" fill-opacity="0.55"/>
<path d="M215 602L258 645L215 688L172 645L215 602Z" fill="#7E46E8" fill-opacity="0.55"/>
<path d="M215 688L258 731L215 774L172 731L215 688Z" fill="#7E46E8" fill-opacity="0.55"/>
<path d="M215 774L258 817L215 860L172 817L215 774Z" fill="#7E46E8" fill-opacity="0.55"/>
<path d="M215 860L258 903L215 946L172 903L215 860Z" fill="#7E46E8" fill-opacity="0.55"/>
<path d="M215 946L258 989L215 1032L172 989L215 946Z" fill="#7E46E8" fill-opacity="0.55"/>
<path d="M301 0L344 43L301 86L258 43L301 0Z" fill="#7E46E8" fill-opacity="0.55"/>
<path d="M301 86L344 129L301 172L258 129L301 86Z" fill="#7E46E8" fill-opacity="0.55"/>
<path d="M301 172L344 215L301 258L258 215L301 172Z" fill="#7E46E8" fill-opacity="0.55"/>
<path d="M301 258L344 301L301 344L258 301L301 258Z" fill="#7E46E8" fill-opacity="0.55"/>
<path d="M301 344L344 387L301 430L258 387L301 344Z" fill="#7E46E8" fill-opacity="0.55"/>
<path d="M301 430L344 473L301 516L258 473L301 430Z" fill="#7E46E8" fill-opacity="0.55"/>
<path d="M301 516L344 559L301 602L258 559L301 516Z" fill="#7E46E8" fill-opacity="0.55"/>
<path d="M301 602L344 645L301 688L258 645L301 602Z" fill="#7E46E8" fill-opacity="0.55"/>
<path d="M301 688L344 731L301 774L258 731L301 688Z" fill="#7E46E8" fill-opacity="0.55"/>
<path d="M301 774L344 817L301 860L258 817L301 774Z" fill="#7E46E8" fill-opacity="0.55"/>
<path d="M301 860L344 903L301 946L258 903L301 860Z" fill="#7E46E8" fill-opacity="0.55"/>
<path d="M301 946L344 989L301 1032L258 989L301 946Z" fill="#7E46E8" fill-opacity="0.55"/>
<path d="M387 0L430 43L387 86L344 43L387 0Z" fill="#7E46E8" fill-opacity="0.55"/>
<path d="M387 86L430 129L387 172L344 129L387 86Z" fill="#7E46E8" fill-opacity="0.55"/>
<path d="M387 172L430 215L387 258L344 215L387 172Z" fill="#7E46E8" fill-opacity="0.55"/>
<path d="M387 258L430 301L387 344L344 301L387 258Z" fill="#7E46E8" fill-opacity="0.55"/>
<path d="M387 344L430 387L387 430L344 387L387 344Z" fill="#7E46E8" fill-opacity="0.55"/>
<path d="M387 430L430 473L387 516L344 473L387 430Z" fill="#7E46E8" fill-opacity="0.55"/>
<path d="M387 516L430 559L387 602L344 559L387 516Z" fill="#7E46E8" fill-opacity="0.55"/>
<path d="M387 602L430 645L387 688L344 645L387 602Z" fill="#7E46E8" fill-opacity="0.55"/>
<path d="M387 688L430 731L387 774L344 731L387 688Z" fill="#7E46E8" fill-opacity="0.55"/>
<path d="M387 774L430 817L387 860L344 817L387 774Z" fill="#7E46E8" fill-opacity="0.55"/>
<path d="M387 860L430 903L387 946L344 903L387 860Z" fill="#7E46E8" fill-opacity="0.55"/>
<path d="M387 946L430 989L387 1032L344 989L387 946Z" fill="#7E46E8" fill-opacity="0.55"/>
<path d="M473 0L516 43L473 86L430 43L473 0Z" fill="#7E46E8" fill-opacity="0.55"/>
<path d="M473 86L516 129L473 172L430 129L473 86Z" fill="#7E46E8" fill-opacity="0.55"/>
<path d="M473 172L516 215L473 258L430 215L473 172Z" fill="#7E46E8" fill-opacity="0.55"/>
<path d="M473 258L516 301L473 344L430 301L473 258Z" fill="#7E46E8" fill-opacity="0.55"/>
<path d="M473 344L516 387L473 430L430 387L473 344Z" fill="#7E46E8" fill-opacity="0.55"/>
<path d="M473 430L516 473L473 516L430 473L473 430Z" fill="#7E46E8" fill-opacity="0.55"/>
<path d="M473 516L516 559L473 602L430 559L473 516Z" fill="#7E46E8" fill-opacity="0.55"/>
<path d="M473 602L516 645L473 688L430 645L473 602Z" fill="#7E46E8" fill-opacity="0.55"/>
<path d="M473 688L516 731L473 774L430 731L473 688Z" fill="#7E46E8" fill-opacity="0.55"/>
<path d="M473 774L516 817L473 860L430 817L473 774Z" fill="#7E46E8" fill-opacity="0.55"/>
<path d="M473 860L516 903L473 946L430 903L473 860Z" fill="#7E46E8" fill-opacity="0.55"/>
<path d="M473 946L516 989L473 1032L430 989L473 946Z" fill="#7E46E8" fill-opacity="0.55"/>
<path d="M430 129L473 172L430 215L387 172L430 129Z" fill="#6232B8" fill-opacity="0.55"/>
<path d="M430 215L473 258L430 301L387 258L430 215Z" fill="#6232B8" fill-opacity="0.55"/>
<path d="M430 301L473 344L430 387L387 344L430 301Z" fill="#6232B8" fill-opacity="0.55"/>
<path d="M430 387L473 430L430 473L387 430L430 387Z" fill="#6232B8" fill-opacity="0.55"/>
<path d="M430 473L473 516L430 559L387 516L430 473Z" fill="#6232B8" fill-opacity="0.55"/>
<path d="M430 559L473 602L430 645L387 602L430 559Z" fill="#6232B8" fill-opacity="0.55"/>
<path d="M430 645L473 688L430 731L387 688L430 645Z" fill="#6232B8" fill-opacity="0.55"/>
<path d="M430 731L473 774L430 817L387 774L430 731Z" fill="#6232B8" fill-opacity="0.55"/>
<path d="M430 817L473 860L430 903L387 860L430 817Z" fill="#6232B8" fill-opacity="0.55"/>
<path d="M430 903L473 946L430 989L387 946L430 903Z" fill="#6232B8" fill-opacity="0.55"/>
</svg>
