<svg width="398" height="546" viewBox="0 0 398 546" fill="none" xmlns="http://www.w3.org/2000/svg">
<path d="M30 3H368C382.912 3 395 15.0883 395 30V516C395 530.912 382.912 543 368 543H30C15.0883 543 3 530.912 3 516V30C3 15.0883 15.0883 3 30 3Z" fill="#767FEC" stroke="#9298F0" stroke-width="6"/>
<path d="M60 39H338C347.389 39 355 46.6112 355 56V464C355 473.389 347.389 481 338 481H60C50.6112 481 43 473.389 43 464V56C43 46.6112 50.6112 39 60 39Z" fill="white" stroke="#9298F0" stroke-width="6"/>
<g clip-path="url(#clip0_5001_4459)">
<path d="M199 343.333C245.024 343.333 282.333 306.023 282.333 259.999C282.333 213.976 245.024 176.666 199 176.666C152.976 176.666 115.667 213.976 115.667 259.999C115.667 306.023 152.976 343.333 199 343.333Z" fill="#FFC93E"/>
<path d="M280.167 240.916L180.167 340.916C162.907 336.85 147.395 327.385 135.885 313.896C124.375 300.408 117.467 283.6 116.167 265.916L204.917 176.666C222.678 177.931 239.568 184.851 253.11 196.414C266.652 207.976 276.134 223.572 280.167 240.916Z" fill="#FFC93E"/>
<path d="M280.167 240.916L180.167 340.916C162.907 336.85 147.395 327.385 135.885 313.896C124.375 300.408 117.467 283.6 116.167 265.916L204.917 176.666C222.678 177.931 239.568 184.851 253.11 196.414C266.652 207.976 276.134 223.572 280.167 240.916Z" fill="#FFDF8B"/>
<path d="M199 335.75C240.836 335.75 274.75 301.836 274.75 260C274.75 218.164 240.836 184.25 199 184.25C157.164 184.25 123.25 218.164 123.25 260C123.25 301.836 157.164 335.75 199 335.75Z" fill="#552CA1"/>
<path d="M218.667 194.749C217.474 195.204 216.386 195.896 215.469 196.784C214.552 197.673 213.826 198.738 213.333 199.916C213.36 197.469 212.434 195.108 210.75 193.332C210.164 192.962 209.485 192.766 208.792 192.766C208.098 192.766 207.419 192.962 206.833 193.332C206.163 193.606 205.562 194.024 205.072 194.557C204.582 195.09 204.216 195.725 204 196.416C203.529 198.75 203.914 201.175 205.083 203.249C205.306 203.567 205.629 203.801 206 203.916C206.183 203.999 206.382 204.041 206.583 204.041C206.785 204.041 206.983 203.999 207.167 203.916C207.329 203.83 207.472 203.712 207.587 203.569C207.702 203.425 207.786 203.26 207.833 203.082C207.916 202.899 207.959 202.7 207.959 202.499C207.959 202.298 207.916 202.099 207.833 201.916C207.049 200.585 206.727 199.032 206.917 197.499C207.015 197.199 207.178 196.924 207.394 196.694C207.61 196.464 207.874 196.283 208.167 196.166C208.296 196.1 208.438 196.066 208.583 196.066C208.728 196.066 208.871 196.1 209 196.166C210.833 197.749 210.917 204.999 209 212.832C208.951 213.025 208.943 213.225 208.977 213.42C209.01 213.616 209.084 213.802 209.194 213.967C209.304 214.132 209.448 214.272 209.615 214.378C209.783 214.484 209.971 214.554 210.167 214.582C210.499 214.572 210.818 214.452 211.074 214.241C211.331 214.03 211.51 213.74 211.583 213.416C213.333 205.582 216.583 199.082 218.917 198.499C218.917 198.499 219.333 198.499 219.667 198.499C219.885 198.714 220.051 198.976 220.152 199.265C220.253 199.553 220.287 199.862 220.25 200.166C219.783 201.668 218.811 202.963 217.5 203.832C217.204 204.06 216.997 204.384 216.917 204.749C216.834 204.932 216.791 205.131 216.791 205.332C216.791 205.534 216.834 205.732 216.917 205.916C217.144 206.212 217.469 206.419 217.833 206.499C218.017 206.582 218.216 206.625 218.417 206.625C218.618 206.625 218.817 206.582 219 206.499C220.253 205.862 221.351 204.956 222.215 203.848C223.079 202.739 223.688 201.453 224 200.082C224.116 199.371 224.072 198.642 223.87 197.95C223.668 197.258 223.314 196.62 222.833 196.082C222.374 195.442 221.721 194.966 220.971 194.726C220.22 194.486 219.412 194.494 218.667 194.749Z" fill="#FFC93E"/>
<path d="M252.417 217.5C252.005 217.076 251.513 216.74 250.969 216.51C250.425 216.28 249.84 216.162 249.25 216.162C248.659 216.162 248.075 216.28 247.531 216.51C246.987 216.74 246.495 217.076 246.083 217.5C245.835 217.757 245.537 217.961 245.208 218.101C244.878 218.241 244.524 218.312 244.167 218.312C243.809 218.312 243.455 218.241 243.126 218.101C242.796 217.961 242.499 217.757 242.25 217.5H241.833C241.565 217.258 241.351 216.962 241.204 216.632C241.058 216.302 240.982 215.944 240.982 215.583C240.982 215.222 241.058 214.865 241.204 214.535C241.351 214.204 241.565 213.909 241.833 213.667C242.668 212.824 243.136 211.686 243.136 210.5C243.136 209.314 242.668 208.176 241.833 207.333L240.333 205.833C240.186 205.685 240.01 205.568 239.817 205.488C239.624 205.408 239.417 205.367 239.208 205.367C238.999 205.367 238.792 205.408 238.599 205.488C238.406 205.568 238.231 205.685 238.083 205.833C237.936 205.981 237.818 206.156 237.738 206.349C237.658 206.542 237.617 206.749 237.617 206.958C237.617 207.167 237.658 207.374 237.738 207.567C237.818 207.76 237.936 207.935 238.083 208.083L239.583 209.583C239.818 209.831 239.948 210.159 239.948 210.5C239.948 210.841 239.818 211.169 239.583 211.417C238.943 212.018 238.452 212.761 238.148 213.585C237.845 214.41 237.737 215.293 237.833 216.167C236.609 216.158 235.406 216.487 234.356 217.117C233.306 217.748 232.45 218.655 231.882 219.74C231.314 220.824 231.055 222.045 231.135 223.266C231.215 224.488 231.629 225.665 232.333 226.667C233.594 227.893 235.283 228.58 237.042 228.58C238.8 228.58 240.49 227.893 241.75 226.667C242.988 225.396 243.677 223.69 243.667 221.917C244.552 222.013 245.449 221.906 246.286 221.603C247.124 221.299 247.881 220.808 248.5 220.167C248.748 219.932 249.076 219.801 249.417 219.801C249.758 219.801 250.086 219.932 250.333 220.167L252 221.833C252.148 221.981 252.323 222.098 252.516 222.178C252.709 222.258 252.916 222.299 253.125 222.299C253.334 222.299 253.541 222.258 253.734 222.178C253.927 222.098 254.102 221.981 254.25 221.833C254.398 221.685 254.515 221.51 254.595 221.317C254.675 221.124 254.716 220.917 254.716 220.708C254.716 220.499 254.675 220.292 254.595 220.099C254.515 219.906 254.398 219.731 254.25 219.583L252.417 217.5ZM234.417 224C233.77 223.345 233.408 222.462 233.408 221.542C233.408 220.621 233.77 219.738 234.417 219.083C235.054 218.467 235.905 218.123 236.792 218.123C237.678 218.123 238.529 218.467 239.167 219.083C239.764 219.73 240.096 220.578 240.096 221.458C240.096 222.339 239.764 223.187 239.167 223.833C238.541 224.454 237.705 224.816 236.824 224.846C235.944 224.877 235.084 224.575 234.417 224Z" fill="#FFC93E"/>
<path d="M267.167 249.666C264.421 245.081 262.953 239.844 262.917 234.499C262.94 234.115 262.815 233.736 262.567 233.441C262.319 233.146 261.966 232.958 261.583 232.916C261.185 232.928 260.803 233.075 260.5 233.333C260.234 233.598 260.084 233.957 260.083 234.333C259.96 235.468 259.96 236.614 260.083 237.749L249 240.916C248.55 239.919 248.049 238.945 247.5 237.999C247.294 237.676 246.971 237.444 246.599 237.351C246.228 237.258 245.834 237.311 245.5 237.499C245.334 237.585 245.188 237.705 245.072 237.851C244.955 237.997 244.871 238.166 244.824 238.346C244.776 238.527 244.768 238.716 244.798 238.9C244.829 239.084 244.897 239.26 245 239.416C247.662 244.055 249.042 249.318 249 254.666C248.976 255.029 249.093 255.387 249.325 255.666C249.558 255.945 249.889 256.124 250.25 256.166C250.612 256.167 250.96 256.029 251.223 255.781C251.487 255.533 251.645 255.194 251.667 254.833C251.739 253.778 251.739 252.72 251.667 251.666L263.333 248.416C263.75 249.333 264.25 250.249 264.75 251.166C264.965 251.455 265.272 251.662 265.62 251.753C265.969 251.844 266.338 251.813 266.667 251.666C266.99 251.46 267.222 251.137 267.315 250.766C267.408 250.394 267.355 250 267.167 249.666ZM262.083 245.749L251.167 248.749C250.822 247.022 250.348 245.323 249.75 243.666L260.667 240.583C261.011 242.337 261.485 244.064 262.083 245.749Z" fill="#FFC93E"/>
<path d="M254.833 271.584H256.333C257.61 271.537 258.83 271.04 259.776 270.181C260.722 269.322 261.334 268.156 261.504 266.89C261.673 265.623 261.39 264.337 260.703 263.26C260.016 262.182 258.97 261.382 257.75 261.001C256.993 260.767 256.192 260.712 255.411 260.843C254.63 260.973 253.89 261.284 253.25 261.751C251.86 262.687 250.717 263.945 249.917 265.417C246.895 271.914 245.357 279.002 245.417 286.167C245.386 286.381 245.409 286.599 245.481 286.802C245.554 287.005 245.675 287.188 245.833 287.334C245.958 287.507 246.121 287.649 246.308 287.75C246.496 287.851 246.704 287.908 246.917 287.917C247.337 287.917 247.739 287.751 248.036 287.454C248.333 287.157 248.5 286.754 248.5 286.334C248.581 280.447 249.651 274.616 251.667 269.084C252.367 270.288 253.499 271.182 254.833 271.584ZM258.417 266.917C258.238 267.442 257.866 267.879 257.376 268.137C256.885 268.396 256.315 268.456 255.781 268.307C255.247 268.158 254.791 267.809 254.506 267.334C254.222 266.858 254.13 266.292 254.25 265.751C254.336 265.322 254.572 264.937 254.917 264.667H255.417H257.333C257.886 264.825 258.36 265.181 258.667 265.667C258.701 266.099 258.614 266.532 258.417 266.917Z" fill="#FFC93E"/>
<path d="M264.083 262.583C263.703 262.467 263.297 262.467 262.917 262.583C262.603 262.891 262.423 263.31 262.417 263.75C262.336 269.637 261.265 275.468 259.25 281C258.518 279.911 257.427 279.114 256.167 278.75C255.49 278.539 254.775 278.474 254.071 278.56C253.367 278.647 252.69 278.882 252.083 279.25C251.438 279.565 250.872 280.021 250.425 280.583C249.978 281.145 249.662 281.8 249.5 282.5C249.115 283.881 249.294 285.358 249.997 286.608C250.7 287.858 251.87 288.778 253.25 289.166H254.667C255.674 289.186 256.663 288.895 257.5 288.333C259.014 287.397 260.251 286.074 261.083 284.5C264.061 278.191 265.625 271.309 265.667 264.333C265.815 263.958 265.815 263.541 265.667 263.166C265.473 262.944 265.227 262.773 264.95 262.671C264.673 262.569 264.375 262.539 264.083 262.583ZM252.75 285.416C252.495 284.901 252.439 284.311 252.593 283.757C252.747 283.204 253.099 282.726 253.583 282.416C253.94 282.34 254.31 282.34 254.667 282.416H255.25C255.529 282.482 255.792 282.605 256.021 282.777C256.25 282.949 256.442 283.167 256.583 283.416C256.797 283.951 256.797 284.548 256.583 285.083C256.468 285.544 256.204 285.954 255.833 286.25H255.333C255.15 286.333 254.951 286.375 254.75 286.375C254.549 286.375 254.35 286.333 254.167 286.25C253.609 286.153 253.106 285.857 252.75 285.416Z" fill="#FFC93E"/>
<path d="M247 303.083C247.54 302.635 247.977 302.076 248.279 301.442C248.581 300.809 248.742 300.118 248.75 299.416C248.759 298.45 248.489 297.502 247.971 296.687C247.453 295.871 246.71 295.223 245.831 294.821C244.953 294.419 243.977 294.28 243.021 294.421C242.065 294.562 241.171 294.976 240.446 295.615C239.721 296.253 239.196 297.088 238.936 298.018C238.675 298.949 238.689 299.935 238.977 300.857C239.265 301.779 239.814 302.598 240.557 303.215C241.301 303.832 242.207 304.22 243.167 304.333C245.083 305.666 247.917 308.333 247.917 310.083C247.917 310.083 247.917 310.916 246.583 311.666C246.07 312.066 245.478 312.355 244.847 312.512C244.215 312.67 243.558 312.694 242.917 312.583C241.417 311.916 240.667 308.75 240 306C239.333 303.25 238.333 299.083 235.583 298.166C234.796 297.861 233.947 297.747 233.106 297.834C232.266 297.921 231.458 298.206 230.75 298.666C230.066 299.32 229.527 300.111 229.168 300.986C228.809 301.862 228.638 302.804 228.667 303.75C228.667 304.192 228.842 304.616 229.155 304.928C229.467 305.241 229.891 305.416 230.333 305.416C230.776 305.376 231.189 305.177 231.496 304.855C231.802 304.533 231.982 304.111 232 303.666C232 303.666 232 301.833 232.833 301.416C233.102 301.27 233.403 301.194 233.708 301.194C234.014 301.194 234.315 301.27 234.583 301.416C235.5 301.416 236.25 304.75 236.75 306.75C237.583 310.5 238.5 314.333 241.583 315.666C242.22 315.924 242.897 316.065 243.583 316.083C245.27 316.003 246.907 315.486 248.333 314.583C249.173 314.178 249.887 313.554 250.4 312.777C250.914 311.999 251.207 311.097 251.25 310.166C251.082 308.753 250.616 307.39 249.884 306.17C249.151 304.949 248.168 303.897 247 303.083ZM243.75 297.75C243.965 297.749 244.178 297.793 244.376 297.878C244.574 297.962 244.752 298.087 244.9 298.242C245.048 298.398 245.163 298.583 245.238 298.785C245.312 298.987 245.345 299.202 245.333 299.416C245.333 299.836 245.166 300.239 244.87 300.536C244.573 300.833 244.17 301 243.75 301C243.506 301.055 243.252 301.055 243.008 300.999C242.764 300.944 242.536 300.834 242.34 300.678C242.145 300.521 241.987 300.323 241.878 300.098C241.769 299.872 241.713 299.625 241.713 299.375C241.713 299.124 241.769 298.877 241.878 298.652C241.987 298.426 242.145 298.228 242.34 298.072C242.536 297.916 242.764 297.806 243.008 297.75C243.252 297.694 243.506 297.694 243.75 297.75Z" fill="#FFC93E"/>
<path d="M224.417 324.5C221.083 322.333 219.5 313.5 219.417 311.25C219.395 310.822 219.21 310.419 218.9 310.125C218.59 309.83 218.178 309.666 217.75 309.666C217.539 309.654 217.328 309.687 217.13 309.762C216.933 309.838 216.753 309.954 216.604 310.103C216.454 310.253 216.338 310.432 216.263 310.63C216.187 310.827 216.155 311.039 216.167 311.25C216.476 314.667 217.233 318.029 218.417 321.25C218.385 322.615 218.132 323.966 217.667 325.25C215.844 321.097 214.69 316.681 214.25 312.166C214.247 311.952 214.192 311.742 214.091 311.553C213.989 311.365 213.844 311.203 213.667 311.083C213.752 310.886 213.795 310.673 213.795 310.458C213.795 310.243 213.752 310.03 213.667 309.833C213.516 309.429 213.215 309.1 212.826 308.913C212.438 308.727 211.993 308.698 211.583 308.833C210.567 309.257 209.614 309.818 208.75 310.5C208.093 309.512 207.168 308.731 206.083 308.25C205.886 308.165 205.673 308.121 205.458 308.121C205.243 308.121 205.031 308.165 204.833 308.25C204.637 308.334 204.461 308.46 204.318 308.618C204.174 308.776 204.066 308.963 204 309.166C203.838 309.567 203.838 310.015 204 310.416C204.085 310.613 204.21 310.788 204.368 310.932C204.526 311.076 204.713 311.184 204.917 311.25C205.505 311.626 205.992 312.141 206.333 312.75C204.686 314.726 203.878 317.268 204.083 319.833C204.083 323.166 205.083 327.166 207.75 327.333C208.182 327.33 208.608 327.232 208.997 327.044C209.386 326.857 209.729 326.586 210 326.25C210.5 328 211.083 329.166 212.25 329.666H213.333C213.769 329.791 214.231 329.791 214.667 329.666C215.209 329.332 215.666 328.875 216 328.333C216.256 328.578 216.572 328.75 216.917 328.833C217.316 329.038 217.759 329.145 218.208 329.145C218.658 329.145 219.1 329.038 219.5 328.833C220.221 328.24 220.769 327.462 221.083 326.583C221.526 327.142 222.062 327.621 222.667 328C222.897 328.075 223.141 328.099 223.381 328.071C223.622 328.043 223.853 327.962 224.059 327.835C224.265 327.708 224.441 327.538 224.575 327.336C224.709 327.134 224.797 326.906 224.833 326.666C224.987 326.264 224.987 325.819 224.833 325.416C224.783 325.078 224.638 324.76 224.417 324.5ZM213.25 326C212.783 324.386 212.422 322.744 212.167 321.083V319.833C211.916 318.199 211.554 316.584 211.083 315C211.083 314.416 210.667 313.916 210.5 313.416L211.333 312.833C211.82 316.885 212.713 320.877 214 324.75C213.809 325.199 213.557 325.62 213.25 326ZM207.333 319.416C207.277 318.276 207.476 317.137 207.917 316.083C208.313 317.36 208.592 318.671 208.75 320C208.57 321.043 208.319 322.073 208 323.083C207.628 321.893 207.404 320.661 207.333 319.416Z" fill="#FFC93E"/>
<path d="M194.833 313.501L173.417 307.834C173.009 307.711 172.574 307.711 172.167 307.834C171.827 308.09 171.567 308.437 171.417 308.834C171.294 309.242 171.294 309.677 171.417 310.084C171.672 310.424 172.019 310.684 172.417 310.834L193.833 316.418C194.201 316.426 194.561 316.306 194.85 316.077C195.139 315.849 195.339 315.528 195.417 315.168C195.544 314.789 195.544 314.379 195.417 314.001C195.269 313.786 195.068 313.614 194.833 313.501Z" fill="#FFC93E"/>
<path d="M193.667 319.833L186.167 317.5C185.787 317.38 185.382 317.371 184.998 317.475C184.614 317.578 184.268 317.789 184 318.083C183.781 318.402 183.664 318.78 183.664 319.166C183.664 319.553 183.781 319.931 184 320.25C185.083 322.916 185.25 325.5 184.5 326.333C183.75 327.166 182.333 326.666 180.333 326.666C178.333 326.666 176 324.833 175.833 323.833C175.667 322.833 176.917 320.833 179.083 319.25C179.408 319.039 179.661 318.736 179.81 318.379C179.958 318.022 179.996 317.628 179.917 317.25C179.842 316.861 179.663 316.501 179.399 316.207C179.135 315.913 178.795 315.698 178.417 315.583L170.5 313.25C170.302 313.165 170.09 313.121 169.875 313.121C169.66 313.121 169.447 313.165 169.25 313.25C169.054 313.334 168.878 313.46 168.734 313.618C168.59 313.776 168.482 313.963 168.417 314.166C168.286 314.586 168.326 315.041 168.529 315.431C168.732 315.821 169.081 316.116 169.5 316.25L175.417 317.916C174.48 318.675 173.735 319.644 173.242 320.744C172.75 321.845 172.524 323.046 172.583 324.25C173 326.666 175.333 328.5 179.417 329.583C180.473 329.894 181.566 330.062 182.667 330.083C183.376 330.125 184.086 330.012 184.748 329.753C185.41 329.495 186.007 329.095 186.5 328.583C187.203 327.543 187.646 326.349 187.791 325.101C187.936 323.854 187.779 322.59 187.333 321.416L192.75 323.083C193.158 323.189 193.592 323.137 193.963 322.936C194.335 322.734 194.616 322.4 194.75 322C194.841 321.788 194.885 321.558 194.879 321.328C194.872 321.097 194.815 320.871 194.712 320.664C194.609 320.458 194.462 320.277 194.281 320.133C194.101 319.989 193.891 319.887 193.667 319.833Z" fill="#FFC93E"/>
<path d="M166.417 302.083C166.224 301.86 165.958 301.713 165.667 301.667C165.498 301.585 165.312 301.543 165.125 301.543C164.937 301.543 164.752 301.585 164.583 301.667C162.016 303.671 159.743 306.028 157.833 308.667C156.666 309.382 155.359 309.837 154 310C156.239 306.325 159.052 303.034 162.333 300.25C162.544 300.05 162.692 299.794 162.759 299.512C162.827 299.23 162.811 298.934 162.714 298.661C162.617 298.387 162.443 298.148 162.213 297.971C161.982 297.795 161.706 297.689 161.417 297.667C161.217 297.656 161.017 297.687 160.83 297.759C160.644 297.831 160.474 297.941 160.333 298.083C157.254 300.543 154.459 303.338 152 306.417C151.486 306.603 150.956 306.743 150.417 306.833C151.445 305.538 152.589 304.339 153.833 303.25C155.355 301.882 156.775 300.406 158.083 298.833C161.417 294.75 161 292.083 160.833 291.583C160.804 291.387 160.735 291.199 160.629 291.032C160.523 290.864 160.382 290.721 160.218 290.611C160.053 290.501 159.866 290.427 159.671 290.394C159.476 290.36 159.275 290.368 159.083 290.417C158.698 290.497 158.36 290.726 158.142 291.053C157.924 291.38 157.843 291.78 157.917 292.167C158.027 292.632 158.027 293.118 157.917 293.583C157.472 292.611 156.882 291.711 156.167 290.917C156.247 290.762 156.289 290.591 156.289 290.417C156.289 290.243 156.247 290.071 156.167 289.917C156.084 289.719 155.945 289.551 155.768 289.432C155.59 289.313 155.38 289.25 155.167 289.25H151.5L152.25 292.75C152.319 292.965 152.438 293.16 152.597 293.319C152.757 293.479 152.952 293.598 153.167 293.667C153.487 293.796 153.846 293.796 154.167 293.667C155.205 294.77 155.773 296.235 155.75 297.75C154.667 299 153.25 300.333 152 301.5C149.167 304.167 147.083 306.083 147.5 308.083C147.566 308.504 147.738 308.901 148.001 309.237C148.263 309.572 148.607 309.835 149 310C149.603 310.142 150.23 310.142 150.833 310C150.749 310.328 150.749 310.672 150.833 311C150.968 311.418 151.196 311.799 151.499 312.117C151.802 312.434 152.172 312.679 152.583 312.833C153.432 313.038 154.318 313.038 155.167 312.833C155.045 313.55 155.045 314.283 155.167 315C155.177 315.308 155.278 315.606 155.455 315.857C155.633 316.109 155.88 316.303 156.167 316.417H156.667C156.906 316.388 157.134 316.302 157.333 316.167C157.495 316.037 157.624 315.872 157.711 315.684C157.798 315.496 157.84 315.29 157.833 315.083C157.833 311.25 164 305.417 166.167 304.083C166.325 303.977 166.46 303.838 166.56 303.675C166.66 303.512 166.725 303.33 166.748 303.14C166.772 302.951 166.755 302.758 166.697 302.576C166.64 302.393 166.544 302.225 166.417 302.083Z" fill="#FFC93E"/>
<path d="M148 276.667C147.621 276.54 147.212 276.54 146.833 276.667H143L141.25 268.333L145.417 271.167C145.587 271.242 145.772 271.282 145.958 271.282C146.145 271.282 146.329 271.242 146.5 271.167C146.905 271.077 147.261 270.839 147.5 270.5C147.623 270.333 147.71 270.143 147.756 269.941C147.802 269.738 147.806 269.529 147.767 269.325C147.727 269.122 147.646 268.928 147.529 268.758C147.411 268.587 147.259 268.442 147.083 268.333L138.75 262.75L132.333 270.5C132.189 270.633 132.074 270.794 131.996 270.973C131.917 271.152 131.877 271.346 131.877 271.542C131.877 271.737 131.917 271.931 131.996 272.11C132.074 272.29 132.189 272.451 132.333 272.583C132.627 272.859 133.014 273.012 133.417 273.012C133.819 273.012 134.206 272.859 134.5 272.583L138.167 268.333L140 277.417L135.5 278.25C135.105 278.311 134.748 278.52 134.5 278.833C134.417 279.017 134.374 279.216 134.374 279.417C134.374 279.618 134.417 279.817 134.5 280C134.56 280.353 134.744 280.673 135.019 280.902C135.294 281.132 135.642 281.255 136 281.25L140.583 280.417L141.917 286.917C141.959 287.278 142.138 287.609 142.417 287.841C142.696 288.074 143.054 288.19 143.417 288.167C143.821 288.077 144.178 287.839 144.417 287.5C144.503 287.116 144.503 286.717 144.417 286.333L143.083 279.833L146.917 279.167C147.298 279.073 147.627 278.834 147.833 278.5C147.916 278.317 147.959 278.118 147.959 277.917C147.959 277.716 147.916 277.517 147.833 277.333C147.937 277.126 147.994 276.898 148 276.667Z" fill="#FFC93E"/>
<path d="M146.583 245.166C147.227 244.555 147.726 243.81 148.047 242.983C148.367 242.156 148.5 241.268 148.437 240.383C148.373 239.499 148.114 238.639 147.678 237.867C147.242 237.094 146.641 236.428 145.917 235.916C145.128 235.493 144.231 235.314 143.34 235.403C142.45 235.492 141.606 235.845 140.917 236.416C140.368 236.761 139.903 237.224 139.557 237.772C139.211 238.32 138.992 238.939 138.917 239.583C138.981 241.015 139.61 242.364 140.667 243.333C139.454 243.106 138.256 242.8 137.083 242.416C133.917 241.416 130.583 240.416 128.75 243.083C128.524 243.506 128.406 243.978 128.406 244.458C128.406 244.937 128.524 245.41 128.75 245.833C129.3 247.2 130.224 248.384 131.417 249.249H130.667C129.716 249.669 128.868 250.288 128.177 251.065C127.487 251.841 126.972 252.757 126.667 253.749C126.584 253.933 126.541 254.132 126.541 254.333C126.541 254.534 126.584 254.733 126.667 254.916C126.922 255.256 127.269 255.516 127.667 255.666H128.083C128.408 255.675 128.726 255.573 128.984 255.375C129.241 255.178 129.424 254.898 129.5 254.583C129.919 253.475 130.757 252.577 131.833 252.083C133.283 251.532 134.884 251.532 136.333 252.083L137.167 252.499H137.833L139.167 253.083C139.533 253.261 139.954 253.291 140.342 253.167C140.73 253.043 141.055 252.774 141.25 252.416C141.329 252.112 141.316 251.791 141.212 251.494C141.108 251.197 140.918 250.938 140.667 250.749C139.669 250.262 138.639 249.844 137.583 249.499C135.241 248.602 133.213 247.037 131.75 244.999C131.75 244.999 134.667 244.999 136.333 245.666C138.769 246.626 141.389 247.025 144 246.833C144.946 247.625 145.737 248.586 146.333 249.666C146.59 250.242 146.612 250.895 146.394 251.487C146.176 252.078 145.736 252.561 145.167 252.833C144.8 252.998 144.509 253.296 144.354 253.668C144.2 254.039 144.192 254.456 144.333 254.833C144.515 255.206 144.828 255.498 145.214 255.653C145.599 255.807 146.028 255.811 146.417 255.666C147.704 255.052 148.697 253.955 149.181 252.614C149.665 251.272 149.6 249.794 149 248.499C148.486 247.204 147.655 246.058 146.583 245.166ZM142.667 238.999C143.028 238.718 143.461 238.544 143.917 238.499H144.333C144.7 238.795 144.985 239.181 145.16 239.619C145.335 240.056 145.395 240.532 145.333 240.999C145.334 241.376 145.243 241.747 145.069 242.081C144.895 242.414 144.642 242.701 144.333 242.916C143.417 241.999 141.917 240.499 142 239.749C142.083 238.999 142.417 239.166 142.667 238.999Z" fill="#FFC93E"/>
<path d="M169.333 216.083L166.25 214.75C165.815 214.564 165.348 214.469 164.875 214.469C164.402 214.469 163.935 214.564 163.5 214.75C163.084 214.982 162.725 215.305 162.451 215.694C162.177 216.084 161.994 216.53 161.917 217V219.167C161.521 219.002 161.096 218.917 160.667 218.917C160.238 218.917 159.813 219.002 159.417 219.167C158.889 219.377 158.422 219.716 158.058 220.153C157.695 220.589 157.445 221.11 157.333 221.667L156.75 224.083C156.33 223.9 155.876 223.805 155.417 223.805C154.958 223.805 154.504 223.9 154.083 224.083C153.516 224.266 153.011 224.606 152.628 225.063C152.244 225.52 151.998 226.076 151.917 226.667L150.5 231.75C150.379 232.13 150.379 232.537 150.5 232.917C150.723 233.235 151.046 233.469 151.417 233.583H151.833C152.165 233.573 152.485 233.453 152.741 233.242C152.997 233.031 153.176 232.741 153.25 232.417L154.667 227.417C155.139 227.49 155.622 227.461 156.082 227.332C156.542 227.203 156.969 226.976 157.333 226.667C157.743 226.457 158.103 226.163 158.39 225.804C158.678 225.445 158.886 225.029 159 224.583L159.583 222.167C160.441 222.502 161.393 222.502 162.25 222.167C162.634 221.927 162.965 221.611 163.223 221.238C163.481 220.865 163.66 220.444 163.75 220L164.167 217.833L167.333 219.083C167.517 219.166 167.716 219.209 167.917 219.209C168.118 219.209 168.317 219.166 168.5 219.083C168.822 219.16 169.159 219.127 169.461 218.992C169.762 218.856 170.01 218.625 170.167 218.333C170.25 218.15 170.292 217.951 170.292 217.75C170.292 217.549 170.25 217.35 170.167 217.167C170.148 216.925 170.059 216.694 169.911 216.501C169.763 216.309 169.563 216.164 169.333 216.083Z" fill="#FFC93E"/>
<path d="M148.333 219.667C148.738 219.854 149.179 219.951 149.625 219.951C150.071 219.951 150.512 219.854 150.917 219.667C151.326 219.457 151.686 219.163 151.974 218.804C152.261 218.445 152.469 218.029 152.583 217.584L153.25 215.167C153.682 215.305 154.139 215.351 154.59 215.302C155.041 215.253 155.476 215.11 155.869 214.882C156.261 214.655 156.602 214.347 156.868 213.98C157.135 213.613 157.322 213.194 157.417 212.75V210.584L160.5 211.834C160.685 211.915 160.885 211.957 161.088 211.959C161.29 211.961 161.491 211.922 161.678 211.844C161.865 211.766 162.034 211.651 162.175 211.506C162.316 211.361 162.427 211.189 162.5 211C162.617 210.634 162.598 210.238 162.444 209.885C162.291 209.532 162.015 209.247 161.667 209.084L159.667 207.5C159.221 207.3 158.734 207.208 158.246 207.232C157.758 207.257 157.283 207.397 156.86 207.641C156.437 207.885 156.078 208.226 155.812 208.637C155.547 209.047 155.383 209.514 155.333 210V212.167C154.504 211.838 153.58 211.838 152.75 212.167C152.371 212.373 152.041 212.658 151.782 213.003C151.523 213.348 151.341 213.745 151.25 214.167L150.583 216.584C150.178 216.397 149.738 216.3 149.292 216.3C148.846 216.3 148.405 216.397 148 216.584C147.602 216.788 147.25 217.071 146.963 217.414C146.677 217.758 146.463 218.156 146.333 218.584L145 223.667C144.937 223.859 144.916 224.061 144.938 224.262C144.96 224.462 145.024 224.655 145.126 224.829C145.229 225.002 145.367 225.152 145.532 225.268C145.697 225.384 145.885 225.463 146.083 225.5C146.426 225.494 146.757 225.377 147.028 225.167C147.298 224.957 147.493 224.664 147.583 224.334L148.917 219.334L148.333 219.667Z" fill="#FFC93E"/>
<path d="M174 199.749C175.937 200.722 177.47 202.344 178.333 204.333H177.333C174.75 205.083 174.25 205.166 174.417 206.333C174.433 206.623 174.551 206.898 174.749 207.111C174.946 207.324 175.212 207.461 175.5 207.499H176.083L178.667 206.833C178.679 209.131 178.195 211.405 177.25 213.499C177.153 213.659 177.093 213.839 177.074 214.026C177.056 214.212 177.079 214.4 177.143 214.576C177.207 214.752 177.31 214.911 177.444 215.042C177.578 215.173 177.739 215.273 177.917 215.333C178.212 215.372 178.512 215.311 178.769 215.16C179.025 215.009 179.224 214.777 179.333 214.499C180.6 211.912 181.174 209.041 181 206.166H182.5C183.825 209.028 185.934 211.455 188.583 213.166C188.831 213.401 189.159 213.531 189.5 213.531C189.841 213.531 190.169 213.401 190.417 213.166C190.545 213.042 190.647 212.893 190.717 212.728C190.787 212.564 190.823 212.387 190.823 212.208C190.823 212.029 190.787 211.852 190.717 211.687C190.647 211.523 190.545 211.374 190.417 211.249C188.309 209.908 186.586 208.041 185.417 205.833L188.417 205.083C188.587 205.035 188.746 204.954 188.885 204.843C189.024 204.733 189.139 204.597 189.224 204.442C189.31 204.286 189.363 204.116 189.382 203.94C189.401 203.764 189.384 203.586 189.333 203.416C189.295 203.249 189.223 203.091 189.121 202.953C189.019 202.815 188.89 202.699 188.741 202.613C188.593 202.527 188.428 202.473 188.257 202.453C188.087 202.434 187.914 202.449 187.75 202.499L184.583 203.249C184.318 201.08 184.851 198.888 186.083 197.083C186.323 196.821 186.457 196.479 186.457 196.124C186.457 195.769 186.323 195.427 186.083 195.166C185.959 195.038 185.81 194.935 185.645 194.866C185.481 194.796 185.304 194.76 185.125 194.76C184.946 194.76 184.769 194.796 184.604 194.866C184.44 194.935 184.291 195.038 184.167 195.166C182.467 197.59 181.752 200.568 182.167 203.499H180.917C180.953 203.307 180.953 203.109 180.917 202.916C179.785 200.241 177.708 198.076 175.083 196.833C174.921 196.752 174.743 196.708 174.562 196.703C174.381 196.698 174.201 196.732 174.035 196.803C173.869 196.875 173.72 196.981 173.598 197.116C173.477 197.25 173.387 197.41 173.333 197.583C173.184 197.754 173.081 197.96 173.034 198.182C172.986 198.404 172.997 198.635 173.063 198.852C173.13 199.069 173.251 199.265 173.415 199.422C173.579 199.579 173.78 199.692 174 199.749Z" fill="#FFC93E"/>
<path d="M223.833 290.5L201.25 265.417L203.333 299.083L198 265.833L181.5 295.25L195 264.333L165.25 280.25L193.25 261.5L159.667 258.75L193.417 258.167L166.583 237.667L195.25 255.417L183.833 223.75L198.333 254.167L205.833 221.25L201.583 254.75L225.667 231.083L204.083 257L237.083 250.083L204.917 260.167L236.333 272.25L203.833 263.333L223.833 290.5Z" fill="#FFC93E"/>
</g>
<g clip-path="url(#clip1_5001_4459)">
<path d="M114 416.667H113.1C111.767 411.733 109.567 411.733 108.233 416.667H106.433C105.1 411.733 102.9 411.733 101.567 416.667H99.7667C98.4334 411.733 96.2334 411.733 94.9001 416.667H94.0001C93.116 416.667 92.2682 417.018 91.6431 417.643C91.0179 418.268 90.6667 419.116 90.6667 420V446.667C90.6667 447.551 91.0179 448.399 91.6431 449.024C92.2682 449.649 93.116 450 94.0001 450H99.0001V436.667C99.0001 435.341 99.5269 434.069 100.465 433.131C101.402 432.194 102.674 431.667 104 431.667C105.326 431.667 106.598 432.194 107.536 433.131C108.473 434.069 109 435.341 109 436.667V450H114C114.884 450 115.732 449.649 116.357 449.024C116.982 448.399 117.333 447.551 117.333 446.667V420C117.333 419.116 116.982 418.268 116.357 417.643C115.732 417.018 114.884 416.667 114 416.667Z" fill="#252FB5"/>
<path d="M110.667 436.667V450H107.333V436.667C107.333 435.783 106.982 434.935 106.357 434.31C105.732 433.685 104.884 433.333 104 433.333C103.116 433.333 102.268 433.685 101.643 434.31C101.018 434.935 100.667 435.783 100.667 436.667V450H97.3333V436.667C97.3333 434.899 98.0356 433.203 99.2859 431.953C100.536 430.702 102.232 430 104 430C105.768 430 107.464 430.702 108.714 431.953C109.964 433.203 110.667 434.899 110.667 436.667Z" fill="#FFC93E"/>
<path d="M83.9999 406.666H70.6666C68.8256 406.666 67.3333 408.158 67.3333 409.999V446.666C67.3333 448.507 68.8256 449.999 70.6666 449.999H83.9999C85.8409 449.999 87.3333 448.507 87.3333 446.666V409.999C87.3333 408.158 85.8409 406.666 83.9999 406.666Z" fill="#252FB5"/>
<path d="M137.333 406.666H124C122.159 406.666 120.667 408.158 120.667 409.999V446.666C120.667 448.507 122.159 449.999 124 449.999H137.333C139.174 449.999 140.667 448.507 140.667 446.666V409.999C140.667 408.158 139.174 406.666 137.333 406.666Z" fill="#252FB5"/>
<path d="M139.8 393.568C138.467 388.501 136.267 388.501 134.9 393.568H133.1C131.767 388.634 129.567 388.634 128.233 393.568H126.433C125.067 388.601 122.867 388.601 121.533 393.568C121.275 393.709 121.059 393.916 120.907 394.167C120.755 394.419 120.672 394.707 120.667 395.001V400.001C120.667 400.885 121.018 401.733 121.643 402.358C122.268 402.983 123.116 403.334 124 403.334H137.333C138.217 403.334 139.065 402.983 139.69 402.358C140.316 401.733 140.667 400.885 140.667 400.001V395.001C140.662 394.707 140.579 394.419 140.427 394.167C140.274 393.916 140.058 393.709 139.8 393.568Z" fill="#252FB5"/>
<path d="M86.4667 393.566C85.1334 388.5 82.9334 388.5 81.5667 393.566H79.7667C78.4334 388.633 76.2334 388.633 74.9 393.566H73.1C71.7334 388.366 69.5334 388.366 68.2 393.333C67.9048 393.492 67.6641 393.735 67.5095 394.033C67.3549 394.33 67.2935 394.667 67.3334 395V400C67.3334 400.884 67.6845 401.732 68.3097 402.357C68.9348 402.982 69.7826 403.333 70.6667 403.333H84C84.8841 403.333 85.7319 402.982 86.357 402.357C86.9822 401.732 87.3334 400.884 87.3334 400V395C87.3283 394.706 87.2454 394.418 87.0932 394.166C86.9409 393.915 86.7248 393.708 86.4667 393.566Z" fill="#252FB5"/>
<path d="M87.3333 396.666H67.3333V399.999H87.3333V396.666Z" fill="#FFC93E"/>
<path d="M140.667 396.666H120.667V399.999H140.667V396.666Z" fill="#FFC93E"/>
<path d="M79.7001 396.666L76.3667 399.999H70.6667L74.0001 396.666H79.7001Z" fill="#FFDF8B"/>
<path d="M133.033 396.666L129.7 399.999H124L127.333 396.666H133.033Z" fill="#FFDF8B"/>
<path d="M100.667 436.666V445.399L97.3333 448.733V439.999L100.667 436.666Z" fill="#FFDF8B"/>
<path d="M107.333 438.766V436.666C107.333 435.782 106.982 434.934 106.357 434.309C105.732 433.684 104.884 433.333 104 433.333L106.733 430.6C107.745 431.033 108.634 431.711 109.321 432.572C110.007 433.432 110.469 434.45 110.667 435.533L107.333 438.766Z" fill="#FFDF8B"/>
<path d="M74.0001 411.667C74.0001 410.746 73.2539 410 72.3334 410C71.4129 410 70.6667 410.746 70.6667 411.667V415C70.6667 415.92 71.4129 416.667 72.3334 416.667C73.2539 416.667 74.0001 415.92 74.0001 415V411.667Z" fill="#5058C4"/>
<path d="M74.0001 421.667C74.0001 420.746 73.2539 420 72.3334 420C71.4129 420 70.6667 420.746 70.6667 421.667V431.667C70.6667 432.587 71.4129 433.333 72.3334 433.333C73.2539 433.333 74.0001 432.587 74.0001 431.667V421.667Z" fill="#5058C4"/>
<path d="M127.333 411.667C127.333 410.746 126.587 410 125.667 410C124.746 410 124 410.746 124 411.667V415C124 415.92 124.746 416.667 125.667 416.667C126.587 416.667 127.333 415.92 127.333 415V411.667Z" fill="#5058C4"/>
<path d="M127.333 421.667C127.333 420.746 126.587 420 125.667 420C124.746 420 124 420.746 124 421.667V431.667C124 432.587 124.746 433.333 125.667 433.333C126.587 433.333 127.333 432.587 127.333 431.667V421.667Z" fill="#5058C4"/>
</g>
<g clip-path="url(#clip2_5001_4459)">
<path d="M319.824 447.48L319.212 448.093C318.586 448.718 317.739 449.069 316.855 449.069C315.97 449.069 315.123 448.718 314.497 448.093L302.382 435.978L307.709 430.651L319.824 442.766C320.449 443.391 320.801 444.239 320.801 445.123C320.801 446.007 320.449 446.855 319.824 447.48Z" fill="#7E46E8"/>
<path d="M307.694 430.693L302.39 435.996L299.727 433.333L307.694 425.366C308.4 426.072 308.797 427.03 308.797 428.029C308.797 429.028 308.4 429.986 307.694 430.693Z" fill="#7E46E8"/>
<path d="M283.733 417.366L299.7 433.333L305.033 428.033L289.067 412.033C289.067 412.033 273.333 406.966 269.067 394.866L263.467 389.1C263.467 389.1 262.433 406.666 283.733 417.366Z" fill="#767FEC"/>
<path d="M305.039 438.657L310.366 433.33L307.703 430.667L302.376 435.994L305.039 438.657Z" fill="#552CA1"/>
<path d="M277.916 430.713L283.243 436.04L271.128 448.155C270.503 448.78 269.655 449.131 268.771 449.131C267.887 449.131 267.039 448.78 266.414 448.155L265.801 447.542C265.176 446.917 264.825 446.069 264.825 445.185C264.825 444.301 265.176 443.453 265.801 442.828L277.916 430.713Z" fill="#7E46E8"/>
<path d="M277.929 425.342L285.919 433.332L283.255 435.996L277.929 430.669C277.222 429.962 276.825 429.004 276.825 428.005C276.825 427.006 277.222 426.048 277.929 425.342Z" fill="#7E46E8"/>
<path d="M301.9 417.366L285.933 433.333L280.667 428.033L296.633 412.033C296.633 412.033 312.367 406.966 316.633 394.866L322.367 389.1C322.367 389.1 323.2 406.666 301.9 417.366Z" fill="#9298F0"/>
<path d="M283.261 436.032L277.934 430.705L275.271 433.369L280.598 438.695L283.261 436.032Z" fill="#552CA1"/>
</g>
<g clip-path="url(#clip3_5001_4459)">
<path d="M323.4 109.5C323.472 109.978 323.44 110.466 323.306 110.93C323.171 111.394 322.937 111.823 322.62 112.188C322.303 112.552 321.91 112.844 321.469 113.041C321.028 113.239 320.55 113.339 320.067 113.333H317.333C317.657 108.438 316.536 103.556 314.109 99.2929C311.682 95.0298 308.055 91.5739 303.68 89.3544C299.305 87.135 294.375 86.2499 289.501 86.8092C284.627 87.3684 280.025 89.3474 276.267 92.5001C275.308 93.281 274.426 94.1516 273.633 95.1001L265.733 74.5334C265.538 74.0266 265.469 73.4796 265.533 72.9401C265.597 72.4006 265.792 71.885 266.101 71.4381C266.41 70.9911 266.823 70.6265 267.305 70.3759C267.787 70.1253 268.323 69.9962 268.867 70.0001H317.333L323.4 109.5Z" fill="#E8A847"/>
<path d="M324 70H317.333V73.3333H324V70Z" fill="#E8A847"/>
<path d="M324 70H317.333V73.3333H324V70Z" fill="#E8A847"/>
<path d="M327.333 69.9993C327.333 69.9746 327.333 69.9499 327.332 69.9253C327.27 67.0749 323.518 69.9993 320.667 69.9993C320.667 71.8403 322.159 73.3327 324 73.3327C325.841 73.3327 327.333 71.8403 327.333 69.9993Z" fill="#E8A847"/>
<path d="M309 80H282.333C281.413 80 280.667 80.7462 280.667 81.6667C280.667 82.5871 281.413 83.3333 282.333 83.3333H309C309.92 83.3333 310.667 82.5871 310.667 81.6667C310.667 80.7462 309.92 80 309 80Z" fill="#F1CB91"/>
<path d="M265.667 73.334H324C324 74.218 323.649 75.0659 323.024 75.691C322.399 76.3161 321.551 76.6673 320.667 76.6673H265.667C265.225 76.6673 264.801 76.4917 264.488 76.1792C264.176 75.8666 264 75.4427 264 75.0007C264 74.5586 264.176 74.1347 264.488 73.8221C264.801 73.5096 265.225 73.334 265.667 73.334Z" fill="#FFC93E"/>
<path d="M299.7 73.334L296.367 76.6673H290.667L294 73.334H299.7Z" fill="#FFDF8B"/>
<path d="M308.933 97.7326C306.178 94.4515 302.511 92.061 298.397 90.8634C294.283 89.6659 289.906 89.715 285.82 91.0047C281.734 92.2943 278.122 94.7665 275.441 98.1087C272.76 101.451 271.13 105.513 270.757 109.782C270.384 114.05 271.285 118.333 273.347 122.09C275.408 125.846 278.537 128.907 282.337 130.885C286.138 132.864 290.44 133.671 294.699 133.205C298.959 132.738 302.984 131.02 306.267 128.266C308.447 126.437 310.246 124.196 311.56 121.671C312.875 119.146 313.678 116.387 313.926 113.552C314.174 110.716 313.86 107.86 313.004 105.145C312.147 102.431 310.764 99.9122 308.933 97.7326ZM310.667 111.599L296.6 110.366L307.333 101.266C309.478 104.287 310.641 107.895 310.667 111.599ZM291.133 107.499L281.933 96.6659C284.965 94.5426 288.566 93.3811 292.267 93.3326L291.133 107.499ZM293.733 115.833L302.733 126.666C299.702 128.789 296.101 129.951 292.4 129.999L293.733 115.833ZM305.233 98.7993L294.333 107.799L295.567 93.6326C299.227 94.2856 302.6 96.0419 305.233 98.6659V98.7993ZM279.5 98.8326L288.6 109.666L274.5 108.433C275.119 104.816 276.815 101.47 279.367 98.8326H279.5ZM274 111.733L288.067 112.966L277.333 122.066C275.189 119.045 274.025 115.437 274 111.733ZM279.333 124.666L290.233 115.533L289 129.699C285.376 129.027 282.04 127.272 279.433 124.666H279.333ZM305.2 124.499L296.2 113.666L310.3 114.899C309.644 118.532 307.9 121.879 305.3 124.499H305.2Z" fill="#680B1A"/>
<path d="M292.333 113.333C293.254 113.333 294 112.587 294 111.667C294 110.746 293.254 110 292.333 110C291.413 110 290.667 110.746 290.667 111.667C290.667 112.587 291.413 113.333 292.333 113.333Z" fill="#E8A847"/>
</g>
<g clip-path="url(#clip4_5001_4459)">
<path d="M124.167 133.334H87C86.1708 133.338 85.3698 133.033 84.7534 132.478C84.1371 131.924 83.7496 131.159 83.6667 130.334L77.7 73.3341C77.6344 72.4708 77.9074 71.6157 78.4611 70.95C79.0148 70.2843 79.8058 69.8602 80.6667 69.7675L126.8 66.9008C127.269 66.872 127.738 66.9425 128.178 67.1078C128.617 67.273 129.017 67.5293 129.35 67.8597C129.684 68.1901 129.944 68.5873 130.113 69.0252C130.283 69.4631 130.358 69.9319 130.333 70.4008L127.367 130.167C127.326 131 126.974 131.787 126.382 132.373C125.79 132.959 124.999 133.302 124.167 133.334Z" fill="#E8A847"/>
<path d="M129.433 91.2324L127.5 130.166C127.457 131.021 127.087 131.826 126.467 132.416C125.846 133.005 125.023 133.333 124.167 133.332H87.3333L129.433 91.2324Z" fill="#F1CB91"/>
<path d="M97.3333 123.334V128.334C97.3333 128.776 97.1577 129.2 96.8452 129.512C96.5326 129.825 96.1087 130.001 95.6667 130.001C95.2246 130.001 94.8007 129.825 94.4882 129.512C94.1756 129.2 94 128.776 94 128.334V126.667L97.3333 123.334Z" fill="#F1CB91"/>
<path d="M124 105.001C124 105.443 123.824 105.867 123.512 106.179C123.199 106.492 122.775 106.667 122.333 106.667H114L117.333 103.334H122.333C122.775 103.334 123.199 103.51 123.512 103.822C123.824 104.135 124 104.559 124 105.001Z" fill="#D6985D"/>
<path d="M122.333 99.9995H120.667L123.533 97.1328C123.824 97.4663 123.989 97.8907 124 98.3328C124 98.7748 123.824 99.1988 123.512 99.5113C123.199 99.8239 122.775 99.9995 122.333 99.9995Z" fill="#D6985D"/>
<path d="M127.667 73.334H110.333L117.333 85.434V91.6673C117.333 92.1093 117.509 92.5333 117.821 92.8458C118.134 93.1584 118.558 93.334 119 93.334C119.442 93.334 119.866 93.1584 120.178 92.8458C120.491 92.5333 120.667 92.1093 120.667 91.6673V85.434L127.667 73.334Z" fill="#CC7E35"/>
<path d="M104.333 110H87L94 122.1V128.333C94 128.775 94.1756 129.199 94.4882 129.512C94.8007 129.824 95.2246 130 95.6667 130C96.1087 130 96.5326 129.824 96.8452 129.512C97.1577 129.199 97.3333 128.775 97.3333 128.333V122.1L104.333 110Z" fill="#CC7E35"/>
<path d="M97.3333 123.334V128.334C97.3333 128.776 97.1577 129.2 96.8452 129.512C96.5326 129.825 96.1087 130.001 95.6667 130.001C95.2246 130.001 94.8007 129.825 94.4882 129.512C94.1756 129.2 94 128.776 94 128.334V126.667L97.3333 123.334Z" fill="#D6985D"/>
<path d="M100.667 100C100.667 101.768 99.9642 103.464 98.714 104.714C97.4637 105.964 95.768 106.667 93.9999 106.667C92.2318 106.667 90.5361 105.964 89.2859 104.714C88.0356 103.464 87.3333 101.768 87.3333 100H100.667Z" fill="#CC7E35"/>
<path d="M100.667 90C100.667 91.7681 99.9642 93.4638 98.714 94.714C97.4637 95.9643 95.768 96.6667 93.9999 96.6667C92.2318 96.6667 90.5361 95.9643 89.2859 94.714C88.0356 93.4638 87.3333 91.7681 87.3333 90H100.667Z" fill="#CC7E35"/>
<path d="M95.6667 80H85.6667C84.7462 80 84 80.7462 84 81.6667C84 82.5871 84.7462 83.3333 85.6667 83.3333H95.6667C96.5871 83.3333 97.3333 82.5871 97.3333 81.6667C97.3333 80.7462 96.5871 80 95.6667 80Z" fill="#CC7E35"/>
<path d="M95.6667 73.334H85.6667C84.7462 73.334 84 74.0802 84 75.0007C84 75.9211 84.7462 76.6673 85.6667 76.6673H95.6667C96.5871 76.6673 97.3333 75.9211 97.3333 75.0007C97.3333 74.0802 96.5871 73.334 95.6667 73.334Z" fill="#CC7E35"/>
<path d="M122.333 103.334H112.333C111.413 103.334 110.667 104.08 110.667 105.001C110.667 105.921 111.413 106.667 112.333 106.667H122.333C123.254 106.667 124 105.921 124 105.001C124 104.08 123.254 103.334 122.333 103.334Z" fill="#CC7E35"/>
<path d="M122.333 96.666H112.333C111.413 96.666 110.667 97.4122 110.667 98.3327C110.667 99.2532 111.413 99.9993 112.333 99.9993H122.333C123.254 99.9993 124 99.2532 124 98.3327C124 97.4122 123.254 96.666 122.333 96.666Z" fill="#CC7E35"/>
<path d="M124 105.001C124 105.443 123.824 105.867 123.512 106.179C123.199 106.492 122.775 106.667 122.333 106.667H114L117.333 103.334H122.333C122.775 103.334 123.199 103.51 123.512 103.822C123.824 104.135 124 104.559 124 105.001Z" fill="#D6985D"/>
<path d="M124 98.3328C124 98.7748 123.824 99.1988 123.512 99.5113C123.199 99.8239 122.775 99.9995 122.333 99.9995H120.667L123.533 97.1328C123.824 97.4663 123.989 97.8907 124 98.3328Z" fill="#D6985D"/>
<path d="M117.333 130.001C119.174 130.001 120.667 128.508 120.667 126.667C120.667 124.826 119.174 123.334 117.333 123.334C115.492 123.334 114 124.826 114 126.667C114 128.508 115.492 130.001 117.333 130.001Z" fill="#D6985D"/>
<path d="M117.333 120.001C119.174 120.001 120.667 118.508 120.667 116.667C120.667 114.826 119.174 113.334 117.333 113.334C115.492 113.334 114 114.826 114 116.667C114 118.508 115.492 120.001 117.333 120.001Z" fill="#D6985D"/>
<path d="M104 86.6667C105.841 86.6667 107.333 85.1743 107.333 83.3333C107.333 81.4924 105.841 80 104 80C102.159 80 100.667 81.4924 100.667 83.3333C100.667 85.1743 102.159 86.6667 104 86.6667Z" fill="#CC7E35"/>
</g>
<defs>
<clipPath id="clip0_5001_4459">
<rect width="200" height="200" fill="white" transform="translate(99 160)"/>
</clipPath>
<clipPath id="clip1_5001_4459">
<rect width="80" height="80" fill="white" transform="translate(64 380)"/>
</clipPath>
<clipPath id="clip2_5001_4459">
<rect width="80" height="80" fill="white" transform="translate(254 380)"/>
</clipPath>
<clipPath id="clip3_5001_4459">
<rect width="80" height="80" fill="white" transform="translate(254 60)"/>
</clipPath>
<clipPath id="clip4_5001_4459">
<rect width="80" height="80" fill="white" transform="translate(64 60)"/>
</clipPath>
</defs>
</svg>
